<svg xmlns="http://www.w3.org/2000/svg" viewBox="0 0 282.89 312.416"><path d="M283.177,209.679c-.339.66-.666,1.326-1.018,1.979q-9.022,16.751-18.05,33.5c-.119.22-.231.444-.368.653a2.258,2.258,0,0,1-1.787,1.088c-.423.031-.849.026-1.273.026l-236.627,0c-.625,0-1.249.009-1.874.012a2.453,2.453,0,0,1-2.311-1.38Q10.335,228.147.777,210.748a3.15,3.15,0,0,1,.033-3.424Q24.015,167,47.186,126.664,82.929,64.476,118.648,2.272a3.564,3.564,0,0,1,3.531-2.03C134.75.3,147.321.273,159.892.273c.25,0,.5,0,.75,0a2.415,2.415,0,0,1,2.281,1.3q1.3,2.238,2.6,4.469,36.9,63.47,73.8,126.937,21.525,37.006,43.085,73.992c.284.488.514,1.007.769,1.511ZM125.442,5.081c.174.325.284.544.407.755q21.948,37.716,43.9,75.431l53.508,91.943a5.739,5.739,0,0,1,.355.659,2.378,2.378,0,0,1-1.985,3.3c-.322.031-.648.026-.973.026q-18.633,0-37.265-.011a1.4,1.4,0,0,0-1.255.6,47.569,47.569,0,0,1-6.682,7.071,50.293,50.293,0,0,1-28.888,12.256,49.7,49.7,0,0,1-14.838-.839,51.267,51.267,0,0,1-28.336-16.441c-.164-.184-.335-.361-.536-.578-.159.257-.292.464-.416.675q-7.776,13.242-15.55,26.484a.1.1,0,0,0,0,.073c.007.022.03.039.067.083H276.643Q217.968,105.732,159.4,5.081Zm151.337,206.4H83.359c-.3,0-.6.009-.9,0a2.372,2.372,0,0,1-2.265-2.886,4.479,4.479,0,0,1,.528-1.227q9.23-15.82,18.475-31.632c.138-.235.269-.473.4-.705-.129-.2-.232-.372-.342-.538a51.12,51.12,0,0,1-8.686-26.479,52.054,52.054,0,0,1,.332-8.374,49,49,0,0,1,3.078-12.316,50.766,50.766,0,0,1,37.565-31.289c.353-.07.7-.159,1.069-.243-.758-1.667-10.326-18.379-10.758-18.778Q74.065,159.52,26.232,242.152H259.154a2.585,2.585,0,0,1,.449,0c.536.094.8-.184,1.036-.629q7.873-14.646,15.77-29.281C276.524,212.033,276.621,211.81,276.779,211.481ZM22.108,239.6c.2-.337.347-.566.482-.8q9.018-15.6,18.035-31.191,15.408-26.609,30.828-53.21,24.09-41.578,48.184-83.157c.112-.194.22-.393.35-.575a2.39,2.39,0,0,1,3.949.006c.158.224.286.469.421.708q6.543,11.53,13.085,23.063c.135.237.28.467.437.727A50.87,50.87,0,0,1,172.6,105.721a51.388,51.388,0,0,1,13.307,66.608h31.265L121.229,7.465c-.26.446-.446.761-.628,1.078Q66.136,103.3,11.674,198.061c-1.991,3.464-3.95,6.945-5.956,10.4a1.192,1.192,0,0,0,.018,1.358q7.979,14.505,15.926,29.026C21.78,239.061,21.911,239.27,22.108,239.6Zm153.3-75.865a63.741,63.741,0,0,0-8.45-13.046,71.187,71.187,0,0,1-13.375,10.323l6.47,14.166C165.988,172.351,171.26,168.808,175.409,163.739Zm-18.047,12.55-6.372-13.944a53.616,53.616,0,0,1-16.978,4.9,78.76,78.76,0,0,0,4.555,14.163C143.363,180.99,154.68,177.92,157.362,176.289Zm-26.56-29.65a160.146,160.146,0,0,0,2.589,17.724,49.5,49.5,0,0,0,16.369-4.671c-2.646-5.434-5.252-10.786-7.875-16.175A44.255,44.255,0,0,1,130.8,146.639Zm34.228,1.741A151.491,151.491,0,0,0,153.189,136.2a40.968,40.968,0,0,1-8.666,6.071c2.618,5.385,5.2,10.695,7.778,16C154.7,157.378,163.52,150.527,165.03,148.38Zm-29.641,33.27c-.81-2.351-1.66-4.633-2.379-6.955-.727-2.349-1.326-4.738-1.97-7.073-2.619-.079-5.239-.051-7.838-.267s-5.164-.676-7.779-1.034c.023.51.035,1.05.072,1.588.112,1.613.142,3.238.373,4.834a31.979,31.979,0,0,0,1.752,6.4.956.956,0,0,0,.746.631,44.338,44.338,0,0,0,7.11,1.415c1.805.2,3.62.356,5.434.444C132.4,181.707,133.9,181.65,135.389,181.65Zm-17.974-35.557a87.727,87.727,0,0,0-2.012,17.064c.2.064.338.12.483.153a56.123,56.123,0,0,0,13.952,1.333,3.393,3.393,0,0,0,.59-.129c-1.162-5.825-1.949-11.63-2.536-17.56A37.057,37.057,0,0,1,117.415,146.093Zm57.393-12.011a68.263,68.263,0,0,0-14.1-8.47,29.827,29.827,0,0,1-5.476,8.512A161.528,161.528,0,0,1,167.1,146.313,40.885,40.885,0,0,0,174.808,134.082Zm2.316,2.063a45.379,45.379,0,0,1-8.088,12.362c1.517,2.076,3.046,4.046,4.438,6.11s2.653,4.233,3.978,6.366c.06-.079.137-.175.208-.275a59.426,59.426,0,0,0,7.24-13.954,1.12,1.12,0,0,0-.09-.991,36.211,36.211,0,0,0-7.047-9.137A7.279,7.279,0,0,0,177.124,136.145Zm-69.756,5.292a1.585,1.585,0,0,0-.188.233c-.307.627-.618,1.252-.91,1.886a46.792,46.792,0,0,0-3.767,12.162,1.046,1.046,0,0,0,.337.99,22.931,22.931,0,0,0,9.2,5.55,2.079,2.079,0,0,0,.473.036,92.088,92.088,0,0,1,2.086-17.018A25.682,25.682,0,0,1,107.368,141.437ZM162.159,113.9c.06,1.556.212,3.025.146,4.484-.068,1.481-.351,2.952-.548,4.493a74.975,74.975,0,0,1,14.012,8.26,24.12,24.12,0,0,0,.9-5.591,41.949,41.949,0,0,0-.242-6.347.952.952,0,0,0-.583-.844,50.647,50.647,0,0,0-13.151-4.425A3.28,3.28,0,0,0,162.159,113.9Zm-3.608,65.136a82.268,82.268,0,0,1-18.588,5.171c.088.212.134.353.2.483a33.4,33.4,0,0,0,4.482,6.517.7.7,0,0,0,.731.235c1.275-.23,2.56-.406,3.832-.651a55.638,55.638,0,0,0,12.1-3.8c.191-.085.368-.205.555-.311C160.746,184.089,159.657,181.581,158.551,179.034Zm2.668-1.165,3.264,7.51c.131-.05.225-.08.314-.121.157-.074.315-.149.468-.234a50.476,50.476,0,0,0,12.324-9.514,1.254,1.254,0,0,0,.347-.7c.043-.613,0-1.232-.007-1.849a20.254,20.254,0,0,0-1.1-5.622c-.047-.149-.126-.289-.226-.513A48.355,48.355,0,0,1,161.219,177.869Zm-24.413,6.62a66.5,66.5,0,0,1-8.734-.1,78.208,78.208,0,0,1-8.543-1.2,25.737,25.737,0,0,0,1.518,2.528,19.741,19.741,0,0,0,5.255,5.357,2.447,2.447,0,0,0,1.091.412c2.5.221,5.009.476,7.52.568,1.965.071,3.938-.075,5.907-.133a2.344,2.344,0,0,0,.506-.148A38.954,38.954,0,0,1,136.806,184.489Zm-7.071-58.152c.095,5.834.323,11.592.816,17.337,2.4-.132,8.6-1.889,9.974-2.879l-7.888-15.212Zm-27.449,33.816-.2.093c.068,1.29.115,2.581.208,3.869a30.413,30.413,0,0,0,1.5,7.218,2.729,2.729,0,0,0,.872,1.263,34.238,34.238,0,0,0,7.852,5.024c.522.245,1.063.45,1.6.673l.126-.109c-1.5-4.1-1.652-8.378-1.757-12.714A27.762,27.762,0,0,1,102.286,160.153Zm83.937-17.772c.073-.256.1-.35.126-.446a47.1,47.1,0,0,0,1.413-8.37,4.52,4.52,0,0,0-.134-1.62,45.436,45.436,0,0,0-2.713-6.785,2.529,2.529,0,0,0-.592-.85c-1.4-1.161-2.817-2.292-4.235-3.427a5.205,5.205,0,0,0-.6-.346,32.3,32.3,0,0,1-1.283,12.594A41.093,41.093,0,0,1,186.223,142.381Zm-58.587,1.546c-.031-.3-.073-.618-.093-.931-.114-1.714-.233-3.427-.33-5.141-.1-1.814-.2-3.628-.266-5.444-.049-1.421-.028-2.844-.062-4.266-.014-.538-.095-1.074-.145-1.618-.492-.057-.936-.1-1.378-.16s-.879-.125-1.353-.193a99.447,99.447,0,0,0-5.912,16.988C119.438,143.8,125.637,144.4,127.636,143.927Zm11.972-23.14,13.535,11.294c2.135-2.23,4.466-6.079,4.812-7.692a118.417,118.417,0,0,0-16.948-5.67Zm11.405,13.46c-.245-.236-.431-.435-.637-.61-2.749-2.338-5.488-4.687-8.257-7-1.4-1.166-2.842-2.27-4.267-3.4-.193-.153-.382-.358-.658-.167-.629.433-1.254.872-1.9,1.321l7.911,15.262A35.32,35.32,0,0,0,151.013,134.247Zm7.913-12.622a16.443,16.443,0,0,0-.018-8.245c-2.8-.762-15.173-1.057-16.8-.448v3.058A128.4,128.4,0,0,1,158.926,121.625ZM99.883,152.973l.182-.055a42.283,42.283,0,0,1,2.051-6.943c.9-2.237,1.9-4.43,2.875-6.678a19.443,19.443,0,0,1-4.224-6.791,3.022,3.022,0,0,1-.211.4,30.922,30.922,0,0,0-4.365,6.856,2.16,2.16,0,0,0-.125,1.018c.047.643.154,1.282.249,1.92a27.942,27.942,0,0,0,2.672,8.673C99.265,151.914,99.583,152.438,99.883,152.973Zm75.658-38.11c-.288-.753-.516-1.436-.8-2.093a9.832,9.832,0,0,0-3.185-4.167c-.929-.671-1.829-1.382-2.765-2.044a6.08,6.08,0,0,0-1.182-.628,26.176,26.176,0,0,0-10.437-1.922,2.494,2.494,0,0,0-.442.093,18.709,18.709,0,0,1,4.238,6.286c.125.313.373.337.656.387a56.683,56.683,0,0,1,8.483,2.085C171.89,113.472,173.649,114.163,175.541,114.863Zm-60.272,27.553a104.891,104.891,0,0,1,5.985-17.228l-1.682-1.037A82.683,82.683,0,0,0,108.719,138.8,22.093,22.093,0,0,0,115.269,142.416Zm63.5,21.744A30.659,30.659,0,0,1,180.8,171.7a1.21,1.21,0,0,0,.217-.132c.205-.251.41-.5.605-.759a70.333,70.333,0,0,0,5.48-8.637,6.526,6.526,0,0,0,.829-3.349,31.481,31.481,0,0,0-.45-5.121c-.2-1.089-.479-2.163-.736-3.3-1.232,2.419-2.377,4.761-3.609,7.056A57.815,57.815,0,0,1,178.765,164.16Zm-72.2-27.44a87.825,87.825,0,0,1,11.019-14.7c-.227-.4-.42-.749-.616-1.094-.036-.064-.081-.124-.147-.225a50.093,50.093,0,0,0-13.692,9.4A15.512,15.512,0,0,0,106.561,136.72Zm51.082-26.542a3.725,3.725,0,0,0-.153-.358,17.406,17.406,0,0,0-4.428-5.1,1.193,1.193,0,0,0-1.034-.229,42.6,42.6,0,0,0-7.768,2.138c-1.412.538-2.794,1.153-4.239,1.754.335.488.618.893.892,1.305a.563.563,0,0,0,.583.221c1.589-.08,3.18-.167,4.771-.2q2.244-.051,4.49,0c1.218.03,2.434.127,3.649.211C155.448,109.992,156.488,110.085,157.643,110.178Zm-63.567,36.3-.192-.025a20.326,20.326,0,0,0-.27,2.13,19.583,19.583,0,0,0,.139,2.38,37.287,37.287,0,0,0,1,5.876,31.457,31.457,0,0,0,4.465,9.655c.1.148.231.274.441.52-.033-.428-.052-.7-.075-.972-.129-1.533-.312-3.065-.37-4.6-.043-1.139.077-2.285.124-3.428a1.607,1.607,0,0,0-.269-1.195,25.98,25.98,0,0,1-4.519-8.7C94.38,147.57,94.234,147.021,94.076,146.475Zm23.4-34.173c-.183-.04-.323-.085-.467-.1-1.431-.164-2.865-.31-4.3-.488a13.906,13.906,0,0,0-3.488.164,1.312,1.312,0,0,0-.877.5,28.24,28.24,0,0,0-3.511,5.27,3.725,3.725,0,0,0-.176.557c1.105-.5,2.113-.985,3.146-1.413a44.24,44.24,0,0,1,8.292-2.46.957.957,0,0,0,.613-.316C117.01,113.48,117.222,112.9,117.48,112.3Zm10,4.717a5.469,5.469,0,0,0,4.653-2.227,2.1,2.1,0,0,0-1.222-3.451,5.176,5.176,0,0,0-3.836.409,4.31,4.31,0,0,0-2.088,1.952,1.963,1.963,0,0,0,.983,2.914A12.086,12.086,0,0,0,127.484,117.019ZM119.55,188.9l.122-.144a30.315,30.315,0,0,1-3.755-6.194,1.366,1.366,0,0,0-.881-.8,36.128,36.128,0,0,1-5.945-2.626c-.7-.4-1.407-.791-2.111-1.186l-.114.115c.628.948,1.249,1.9,1.89,2.841a5.078,5.078,0,0,0,.747.925,45.219,45.219,0,0,0,5.911,4.57C116.769,187.27,118.17,188.07,119.55,188.9ZM102.571,126.29l.217.112q.588-.492,1.177-.983a56.6,56.6,0,0,1,11.171-7.152c.268-.132.538-.262.8-.4.209-.112.267-.274.107-.508a2.685,2.685,0,0,0-.281.032,42.228,42.228,0,0,0-6.218,1.845,32.374,32.374,0,0,0-5.989,3.016c-.251.163-.5.3-.542.657C102.878,124.035,102.72,125.162,102.571,126.29Zm46.063-24.1c-.071-.078-.1-.125-.134-.142a25.845,25.845,0,0,0-5.4-1.7.892.892,0,0,0-.75.228,40.4,40.4,0,0,0-5.709,5.033,2.191,2.191,0,0,0-.18.263c.15.088.28.156.4.237a1,1,0,0,0,1.23.024,8.5,8.5,0,0,1,1.078-.508,50.7,50.7,0,0,1,8.457-3.129C147.956,102.409,148.281,102.3,148.634,102.191Zm-36.4,6.362.026.18c.238.023.475.051.713.068.322.024.648.017.966.063,1.721.249,3.439.515,5.16.759a.777.777,0,0,0,.54-.09c.655-.525,1.282-1.085,1.974-1.68a29.667,29.667,0,0,0-3.091-3.514A35.24,35.24,0,0,0,112.236,108.553Zm9.106-5.563,2.852,3.379,3.259-1.124,1.23-4.647A38.927,38.927,0,0,0,121.342,102.99Zm17.123-3.247c-.948,0-1.8-.023-2.641.006-1,.034-1.989.108-2.982.176a.676.676,0,0,0-.631.308,13.9,13.9,0,0,0-1.62,4.631l2.606.124ZM99.673,125.318a3.371,3.371,0,0,0-.373.3c-.707.77-1.4,1.551-2.112,2.318a2.181,2.181,0,0,0-.613,1.319c-.081.814-.265,1.618-.368,2.431-.092.722-.132,1.451-.195,2.177a.408.408,0,0,0,.3-.164c1.14-1.413,2.285-2.822,3.41-4.246a.976.976,0,0,0,.188-.6C99.849,127.712,99.759,126.572,99.673,125.318Zm58.217-24.294a39.2,39.2,0,0,0-10.178-2.48,1.905,1.905,0,0,0,.277.16,27.207,27.207,0,0,1,5.036,2.454,1.132,1.132,0,0,0,.63.146C155.019,101.227,156.382,101.126,157.89,101.024ZM189.506,141.5c-.41,1.435-.824,2.869-1.224,4.307a.877.877,0,0,0,0,.51c.463,1.255.946,2.5,1.465,3.863A38.111,38.111,0,0,0,189.506,141.5ZM139.172,113c-1.131.14-2.142.274-3.155.386a.5.5,0,0,0-.522.512c-.01.167,0,.335,0,.536l3.679.8Zm22.888,76.91a74.262,74.262,0,0,1-10.212,3.356A36.444,36.444,0,0,0,162.06,189.906Zm-35.313-66.329v-2.709a6.722,6.722,0,0,0-1.284,2.579Zm11.3-5.6-2.925-.647-.057.126,2.159,1.622Zm-6.847,4.968c-.49-.828-.83-1.627-1.415-2.454v2.811Zm2.68-1.159,1.049-.661a7.235,7.235,0,0,0-2.326-1.666Zm-12.127.282.743.421c.424-.805.791-1.525,1.188-2.388Zm-1.584-8.441a3.794,3.794,0,0,0,1.773-.221,2.658,2.658,0,0,0-.737-.286C120.584,112.958,120.584,112.959,120.164,113.63Zm58.7,2.174c.061,1,.12,1.074,1.058,1.339Zm-48.747-7.9,0,.172c.517.334.666.306.927-.239Zm6.35,2.473,1.158-.172C137.179,109.83,137.179,109.83,136.466,110.379Zm-16.13,8.821c-.661.193-.661.193-.686.635Zm6.055-10.542.044.159.646-.21-.035-.127Z" transform="translate(-0.287 -0.242)"/><path d="M138.912,312.658c-.607-.125-1.218-.238-1.823-.376a13.989,13.989,0,0,1-10.614-9.3c-2.113-5.846-1.445-11.444,2.459-16.407a13.56,13.56,0,0,1,10.654-5.273,12.184,12.184,0,0,1,8.559,2.772c.338.282.66.584,1.092.968V282.36c.606-.182,9.657-.209,10.454-.045v29.3h-10.4v-3.044a1.983,1.983,0,0,0-.353.231,10.706,10.706,0,0,1-6.613,3.645c-.293.046-.578.14-.866.211Zm-2.729-15.824a6.619,6.619,0,0,0,6.68,6.8,6.689,6.689,0,1,0,.05-13.377A6.571,6.571,0,0,0,136.183,296.834Z" transform="translate(-0.287 -0.242)"/><path d="M57.241,296.028v16.265H46.1c-.15-.568-.2-42.024-.055-43.212a4.806,4.806,0,0,1,.552-.06q8.7,0,17.394,0a15.749,15.749,0,0,1,6,1.112,12.01,12.01,0,0,1,7.571,9.434,15.761,15.761,0,0,1-.1,6.325,10.518,10.518,0,0,1-6.921,8.017c-.651.251-1.326.439-2.1.692,2.238,2.96,4.492,5.866,6.727,8.787s4.492,5.856,6.809,8.876c-.3.029-.491.061-.676.061-4.224,0-8.448-.007-12.671.015a1.05,1.05,0,0,1-1.009-.582q-4.833-7.536-9.7-15.052c-.159-.245-.328-.484-.491-.725ZM66.6,283.22A6.951,6.951,0,0,0,66.3,280a5.471,5.471,0,0,0-3-3.449,8.113,8.113,0,0,0-6.261-.134,5.636,5.636,0,0,0-3.47,3.674,8.826,8.826,0,0,0-.319,2.727,5.963,5.963,0,0,0,4.139,5.781,7.111,7.111,0,0,0,5.732-.241,6.847,6.847,0,0,0,3.221-3.874,5.4,5.4,0,0,0,.149-.568H62.332c-1.072,1.93-1.845,2.36-3.25,1.828a2.143,2.143,0,0,1-1.313-2.519Z" transform="translate(-0.287 -0.242)"/><path d="M215.251,285.723c.185-.2.375-.386.552-.588a10.234,10.234,0,0,1,7.588-3.521,16.776,16.776,0,0,1,4.84.366,9.239,9.239,0,0,1,7.072,7.085,13.5,13.5,0,0,1,.461,3.326c.045,6.243.025,12.487.026,18.73,0,.145-.017.291-.029.488H225.4v-.884c0-4.6.015-9.191-.012-13.786a21.938,21.938,0,0,0-.256-3.279,4.206,4.206,0,0,0-4.448-3.8,7.163,7.163,0,0,0-1.269.072,4.782,4.782,0,0,0-4.157,4.293,13.1,13.1,0,0,0-.146,1.938q-.016,7.268-.006,14.535v.919H204.846c-.159-.507-.228-46.244-.058-47.632,3.393-.01,6.8,0,10.285,0v21.678Z" transform="translate(-0.287 -0.242)"/><path d="M122.849,302.121v9.407c-.564.167-23.034.239-24.491.086-.15-.539-.216-41.7-.069-43.119.529-.17,23.742-.206,24.554-.032v9.419h-13.3v7.249h12.542v9.516H109.552v7.474Z" transform="translate(-0.287 -0.242)"/><path d="M184.97,281.988v-8.477c.576-.17,9.455-.213,10.434-.051v8.726h5.847v8.688c-1.9.053-3.809-.006-5.83.034-.006.887-.014,1.748-.017,2.609s0,1.7,0,2.548v15.546H184.99c0-1.146-.011-2.284-.013-3.423s0-2.3,0-3.447V290.789a7.767,7.767,0,0,0-1.582-.4,25.791,25.791,0,0,0-4.261.012,6,6,0,0,0-5.4,5.227,16.134,16.134,0,0,0-.312,3.046c-.035,3.921-.015,7.842-.015,11.764v.852H163.059V282.007c.545-.141,9.2-.187,10.322-.046v4.429l.134.043c.133-.163.274-.32.4-.49a12.083,12.083,0,0,1,3.168-3.047,6.893,6.893,0,0,1,3.377-1.109,20.042,20.042,0,0,1,2.246-.038C183.443,281.782,184.178,281.9,184.97,281.988Z" transform="translate(-0.287 -0.242)"/><path d="M87.887,297.524a6.728,6.728,0,1,1-6.709,6.717A6.7,6.7,0,0,1,87.887,297.524Z" transform="translate(-0.287 -0.242)"/><path d="M87.923,278.177a6.722,6.722,0,1,1-6.745,6.672A6.682,6.682,0,0,1,87.923,278.177Z" transform="translate(-0.287 -0.242)"/><path d="M61.505,280.2a1.779,1.779,0,1,1-3.555-.073,1.8,1.8,0,0,1,1.8-1.707A1.831,1.831,0,0,1,61.505,280.2Z" transform="translate(-0.287 -0.242)"/></svg>