<svg width="48" height="48" viewBox="0 0 48 48" fill="currentColor" xmlns="http://www.w3.org/2000/svg">
<path fill-rule="evenodd" clip-rule="evenodd" d="M25 5.02586C34.6974 5.52871 42.4713 13.3026 42.9741 23H47C47.5523 23 48 23.4477 48 24C48 24.5523 47.5523 25 47 25H42.9741C42.4713 34.6974 34.6974 42.4713 25 42.9741V47C25 47.5523 24.5523 48 24 48C23.4477 48 23 47.5523 23 47V42.9741C13.3026 42.4713 5.52871 34.6974 5.02586 25H1C0.447715 25 0 24.5523 0 24C0 23.4477 0.447715 23 1 23H5.02586C5.52871 13.3026 13.3026 5.52871 23 5.02586V1C23 0.447715 23.4477 0 24 0C24.5523 0 25 0.447715 25 1V5.02586ZM41.5 24C41.5 33.665 33.665 41.5 24 41.5C14.335 41.5 6.5 33.665 6.5 24C6.5 14.335 14.335 6.5 24 6.5C33.665 6.5 41.5 14.335 41.5 24Z" fill="white"/>
</svg>
