<svg width="10" height="14" viewBox="0 0 10 14" fill="none" xmlns="http://www.w3.org/2000/svg">
<path fill-rule="evenodd" clip-rule="evenodd" d="M0.28125 4.03977C0.28125 3.08767 0.910113 2.30642 1.75529 1.78939C2.60897 1.26717 3.75656 0.960449 4.99765 0.960449C6.23874 0.960449 7.38633 1.26717 8.24002 1.78939C9.08519 2.30642 9.71405 3.08767 9.71405 4.03977C9.71405 4.03981 9.71405 4.03974 9.71405 4.03977V10.0793C9.71405 11.0314 9.08519 11.8127 8.24002 12.3297C7.38633 12.8519 6.23874 13.1586 4.99765 13.1586C3.75656 13.1586 2.60897 12.8519 1.75529 12.3297C0.910113 11.8127 0.28125 11.0314 0.28125 10.0793V4.03977C0.28125 4.03974 0.28125 4.03981 0.28125 4.03977ZM1.08125 5.77269V10.0793C1.08125 10.6461 1.4572 11.2095 2.17276 11.6472C2.88134 12.0807 3.87933 12.3586 4.99765 12.3586C6.11597 12.3586 7.11396 12.0807 7.82254 11.6472C8.53811 11.2095 8.91405 10.6461 8.91405 10.0793V5.77269C8.71459 5.96611 8.4865 6.13937 8.24002 6.29015C7.38633 6.81238 6.23874 7.1191 4.99765 7.1191C3.75656 7.1191 2.60897 6.81238 1.75529 6.29015C1.5088 6.13937 1.28071 5.96611 1.08125 5.77269ZM2.17276 2.47183C2.88134 2.03836 3.87933 1.76045 4.99765 1.76045C6.11597 1.76045 7.11396 2.03836 7.82254 2.47183C8.53811 2.90956 8.91405 3.47295 8.91405 4.03977C8.91405 4.6066 8.53811 5.16998 7.82254 5.60772C7.11396 6.04118 6.11597 6.3191 4.99765 6.3191C3.87933 6.3191 2.88134 6.04118 2.17276 5.60772C1.4572 5.16998 1.08125 4.6066 1.08125 4.03977C1.08125 3.47295 1.4572 2.90956 2.17276 2.47183Z" fill="currentColor"/>
</svg>
