<svg width="16" height="16" viewBox="0 0 16 16" fill="none" xmlns="http://www.w3.org/2000/svg">
<path d="M5.75 4.5C6.16421 4.5 6.5 4.16421 6.5 3.75C6.5 3.33579 6.16421 3 5.75 3C5.33579 3 5 3.33579 5 3.75C5 4.16421 5.33579 4.5 5.75 4.5Z" fill="currentColor"/>
<path d="M10.25 4.5C10.6642 4.5 11 4.16421 11 3.75C11 3.33579 10.6642 3 10.25 3C9.83579 3 9.5 3.33579 9.5 3.75C9.5 4.16421 9.83579 4.5 10.25 4.5Z" fill="currentColor"/>
<path d="M5.75 8.75C6.16421 8.75 6.5 8.41421 6.5 8C6.5 7.58579 6.16421 7.25 5.75 7.25C5.33579 7.25 5 7.58579 5 8C5 8.41421 5.33579 8.75 5.75 8.75Z" fill="currentColor"/>
<path d="M10.25 8.75C10.6642 8.75 11 8.41421 11 8C11 7.58579 10.6642 7.25 10.25 7.25C9.83579 7.25 9.5 7.58579 9.5 8C9.5 8.41421 9.83579 8.75 10.25 8.75Z" fill="currentColor"/>
<path d="M5.75 13C6.16421 13 6.5 12.6642 6.5 12.25C6.5 11.8358 6.16421 11.5 5.75 11.5C5.33579 11.5 5 11.8358 5 12.25C5 12.6642 5.33579 13 5.75 13Z" fill="currentColor"/>
<path d="M10.25 13C10.6642 13 11 12.6642 11 12.25C11 11.8358 10.6642 11.5 10.25 11.5C9.83579 11.5 9.5 11.8358 9.5 12.25C9.5 12.6642 9.83579 13 10.25 13Z" fill="currentColor"/>
</svg>
