<svg width="12" height="12" viewBox="0 0 12 12" fill="none" xmlns="http://www.w3.org/2000/svg">
<path d="M10.5 3.5947L8.40535 1.50002C8.3357 1.43037 8.25303 1.37512 8.16203 1.33743C8.07104 1.29973 7.97351 1.28033 7.87502 1.28033C7.77652 1.28033 7.679 1.29973 7.588 1.33743C7.49701 1.37512 7.41433 1.43037 7.34469 1.50002L6.10991 2.73479L6.10984 2.73486L6.10977 2.73492L1.71971 7.12499C1.64983 7.19447 1.59444 7.27712 1.55673 7.36816C1.51901 7.45919 1.49973 7.5568 1.5 7.65533V9.75002C1.50023 9.94886 1.57932 10.1395 1.71992 10.2801C1.86053 10.4207 2.05116 10.4998 2.25 10.5H4.34468C4.44321 10.5003 4.54082 10.481 4.63185 10.4433C4.72288 10.4056 4.80552 10.3502 4.875 10.2803L10.5 4.65533C10.6405 4.51457 10.7193 4.32385 10.7193 4.12501C10.7193 3.92617 10.6404 3.73546 10.5 3.5947ZM9 5.0947L6.90533 3.00002L7.875 2.03033L9.96968 4.12502L9 5.0947Z" fill="currentColor"/>
</svg>
