<svg fill="currentColor" viewBox="0 0 32 32" xmlns="http://www.w3.org/2000/svg">
<path d="m1.5 13.875 14 8c0.1511 0.0864 0.3222 0.1318 0.4963 0.1318 0.174 0 0.3451-0.0454 0.4962-0.1318l14-8c0.1533-0.0874 0.2808-0.2138 0.3694-0.3664 0.0887-0.1526 0.1353-0.3259 0.1353-0.5024 0-0.1764-0.0466-0.3497-0.1353-0.5023-0.0886-0.1526-0.2161-0.279-0.3694-0.3664l-14-8c-0.1511-0.08639-0.3222-0.13182-0.4962-0.13182-0.1741 0-0.3452 0.04543-0.4963 0.13182l-14 8c-0.1533 0.0874-0.28075 0.2138-0.3694 0.3664s-0.13535 0.3259-0.13535 0.5023c0 0.1765 0.046699 0.3498 0.13535 0.5024s0.2161 0.279 0.3694 0.3664zm14.5-7.7238 11.984 6.8488-11.984 6.8487-11.984-6.8487 11.984-6.8488zm14.868 11.349c0.067 0.1142 0.1107 0.2406 0.1285 0.3718 0.0177 0.1312 0.0093 0.2646-0.0249 0.3925s-0.0934 0.2478-0.1743 0.3526-0.1818 0.1926-0.2968 0.2581l-14 8c-0.1511 0.0864-0.3222 0.1318-0.4963 0.1318-0.174 0-0.3451-0.0454-0.4962-0.1318l-14.008-8c-0.1145-0.0657-0.21494-0.1532-0.29559-0.2577s-0.13994-0.2238-0.17447-0.3512c-0.034533-0.1274-0.043636-0.2604-0.02679-0.3913 0.01685-0.1309 0.05931-0.2572 0.12498-0.3717 0.06566-0.1145 0.15323-0.2149 0.2577-0.2956 0.10448-0.0806 0.22382-0.1399 0.35122-0.1744 0.25727-0.0698 0.53171-0.0345 0.76295 0.0981l13.5 7.7175 13.5-7.7175c0.114-0.0657 0.2398-0.1084 0.3702-0.1254 0.1305-0.0171 0.263-0.0083 0.3901 0.026 0.127 0.0343 0.246 0.0932 0.3502 0.1736 0.1042 0.0803 0.1916 0.1804 0.257 0.2946z" fill="currentColor"/>
</svg>