<svg width="16" height="16" viewBox="0 0 16 16" fill="none" xmlns="http://www.w3.org/2000/svg">
<path d="M5.87844 10.1208L10.1211 5.87811" stroke="currentColor" stroke-linecap="round" stroke-linejoin="round"/>
<path d="M9.06029 11.1819L7.29253 12.9497C6.72988 13.5121 5.96687 13.828 5.17131 13.828C4.37575 13.8279 3.6128 13.5118 3.05025 12.9493C2.4877 12.3867 2.17164 11.6238 2.17157 10.8282C2.1715 10.0327 2.48744 9.26966 3.04989 8.70702L4.81765 6.93925" stroke="currentColor" stroke-linecap="round" stroke-linejoin="round"/>
<path d="M11.1819 9.06026L12.9497 7.2925C13.5121 6.72985 13.8281 5.96684 13.828 5.17128C13.8279 4.37572 13.5119 3.61277 12.9493 3.05022C12.3868 2.48767 11.6238 2.17161 10.8283 2.17154C10.0327 2.17147 9.26969 2.48741 8.70705 3.04986L6.93928 4.81762" stroke="currentColor" stroke-linecap="round" stroke-linejoin="round"/>
</svg>
