<svg width="17" height="16" viewBox="0 0 17 16" fill="none" xmlns="http://www.w3.org/2000/svg">
<path d="M13.854 7.64653C13.9005 7.69296 13.9374 7.74811 13.9626 7.80881C13.9877 7.86951 14.0007 7.93457 14.0007 8.00028C14.0007 8.06599 13.9877 8.13105 13.9626 8.19175C13.9374 8.25245 13.9005 8.30759 13.854 8.35403L8.85403 13.354C8.80759 13.4005 8.75245 13.4374 8.69175 13.4626C8.63105 13.4877 8.56599 13.5007 8.50028 13.5007C8.43457 13.5007 8.36951 13.4877 8.30881 13.4626C8.24811 13.4374 8.19296 13.4005 8.14653 13.354L3.14653 8.35403C3.05271 8.26021 3 8.13296 3 8.00028C3 7.8676 3.05271 7.74035 3.14653 7.64653C3.24035 7.55271 3.3676 7.5 3.50028 7.5C3.63296 7.5 3.76021 7.55271 3.85403 7.64653L8.50028 12.2934L13.1465 7.64653C13.193 7.60004 13.2481 7.56316 13.3088 7.538C13.3695 7.51284 13.4346 7.49988 13.5003 7.49988C13.566 7.49988 13.631 7.51284 13.6917 7.538C13.7524 7.56316 13.8076 7.60004 13.854 7.64653ZM8.14653 8.35403C8.19296 8.40052 8.24811 8.4374 8.30881 8.46256C8.36951 8.48772 8.43457 8.50067 8.50028 8.50067C8.56599 8.50067 8.63105 8.48772 8.69175 8.46256C8.75245 8.4374 8.80759 8.40052 8.85403 8.35403L13.854 3.35403C13.9478 3.26021 14.0006 3.13296 14.0006 3.00028C14.0006 2.8676 13.9478 2.74035 13.854 2.64653C13.7602 2.55271 13.633 2.5 13.5003 2.5C13.3676 2.5 13.2403 2.55271 13.1465 2.64653L8.50028 7.2934L3.85403 2.64653C3.76021 2.55271 3.63296 2.5 3.50028 2.5C3.3676 2.5 3.24035 2.55271 3.14653 2.64653C3.05271 2.74035 3 2.8676 3 3.00028C3 3.13296 3.05271 3.26021 3.14653 3.35403L8.14653 8.35403Z" fill="currentColor"/>
</svg>
