<svg width="12" height="12" viewBox="0 0 12 12" fill="none" xmlns="http://www.w3.org/2000/svg">
<path d="M9.75 1.875H2.25C2.04289 1.875 1.875 2.04289 1.875 2.25V9.75C1.875 9.95711 2.04289 10.125 2.25 10.125H9.75C9.95711 10.125 10.125 9.95711 10.125 9.75V2.25C10.125 2.04289 9.95711 1.875 9.75 1.875Z" stroke="currentColor" stroke-linecap="round" stroke-linejoin="round"/>
<path d="M6.40909 3.75H5.59091M5.59091 8.25H6.40909M7.43182 3.75H8.04545C8.0997 3.75 8.15173 3.77155 8.19009 3.80991C8.22845 3.84827 8.25 3.9003 8.25 3.95455V4.56817M8.25 6.40908V5.5909M7.43182 8.25H8.04545C8.0997 8.25 8.15173 8.22845 8.19009 8.19009C8.22845 8.15173 8.25 8.0997 8.25 8.04545V7.43181M3.75 5.5909V6.40908M4.56818 8.25H3.95455C3.9003 8.25 3.84827 8.22845 3.80991 8.19009C3.77155 8.15173 3.75 8.0997 3.75 8.04545V7.43181M4.56818 3.75H3.95455C3.9003 3.75 3.84827 3.77155 3.80991 3.80991C3.77155 3.84827 3.75 3.9003 3.75 3.95455V4.56817" stroke="currentColor" stroke-linecap="round" stroke-linejoin="round"/>
</svg>
