<svg width="16" height="16" viewBox="0 0 16 16" fill="none" xmlns="http://www.w3.org/2000/svg">
<path d="M2.38633 3.03005L6.02471 12.7324C6.0606 12.8281 6.12495 12.9105 6.20911 12.9685C6.29326 13.0265 6.39317 13.0574 6.49537 13.0568C6.59758 13.0563 6.69718 13.0245 6.78075 12.9657C6.86432 12.9068 6.92784 12.8238 6.96277 12.7277L8.42035 8.71938C8.44532 8.65071 8.48503 8.58836 8.53669 8.53669C8.58836 8.48503 8.65071 8.44532 8.71937 8.42035L12.7277 6.96277C12.8238 6.92784 12.9068 6.86432 12.9657 6.78075C13.0245 6.69718 13.0563 6.59758 13.0568 6.49538C13.0574 6.39317 13.0265 6.29326 12.9685 6.20911C12.9105 6.12495 12.8281 6.0606 12.7324 6.02471L3.03005 2.38633C2.94016 2.35262 2.84247 2.3455 2.74864 2.36582C2.65482 2.38615 2.56882 2.43305 2.50094 2.50094C2.43305 2.56882 2.38615 2.65482 2.36582 2.74864C2.3455 2.84247 2.35262 2.94016 2.38633 3.03005Z" stroke="currentColor" stroke-linecap="round" stroke-linejoin="round"/>
<path d="M8.53711 8.53662L13.0005 13" stroke="currentColor" stroke-linecap="round" stroke-linejoin="round"/>
</svg>
