<svg width="16" height="16" viewBox="0 0 16 16" fill="none" xmlns="http://www.w3.org/2000/svg">
<path d="M6 13.4999H3C2.86739 13.4999 2.74021 13.4472 2.64645 13.3535C2.55268 13.2597 2.5 13.1325 2.5 12.9999V10.207C2.5 10.1414 2.51293 10.0764 2.53806 10.0157C2.56319 9.95503 2.60002 9.89991 2.64645 9.85348L10.1464 2.35348C10.2402 2.25971 10.3674 2.20703 10.5 2.20703C10.6326 2.20703 10.7598 2.25971 10.8536 2.35348L13.6464 5.14637C13.7402 5.24014 13.7929 5.36732 13.7929 5.49992C13.7929 5.63253 13.7402 5.75971 13.6464 5.85348L6 13.4999Z" stroke="currentColor" stroke-linecap="round" stroke-linejoin="round"/>
<path d="M8.5 4L12 7.5" stroke="currentColor" stroke-linecap="round" stroke-linejoin="round"/>
<path d="M13.4999 13.4999H5.99993L2.53174 10.0317" stroke="currentColor" stroke-linecap="round" stroke-linejoin="round"/>
</svg>
