<svg width="16" height="16" viewBox="0 0 16 16" fill="none" xmlns="http://www.w3.org/2000/svg">
<path fill-rule="evenodd" clip-rule="evenodd" d="M6.83307 4.66666H12C12.5523 4.66666 13 5.11437 13 5.66666V11C13 11.5523 12.5523 12 12 12H6.83307V4.66666ZM5.83307 4.66666H4C3.44771 4.66666 3 5.11437 3 5.66666V11C3 11.5523 3.44772 12 4 12H5.83307V4.66666ZM2 5.66666C2 4.56209 2.89543 3.66666 4 3.66666H12C13.1046 3.66666 14 4.56209 14 5.66666V11C14 12.1046 13.1046 13 12 13H4C2.89543 13 2 12.1046 2 11V5.66666Z" fill="currentColor"/>
</svg>
