<svg width="16" height="16" viewBox="0 0 16 16" fill="none" xmlns="http://www.w3.org/2000/svg">
    <path d="M13.4998 3.5L2.49976 3.50001" stroke="currentColor" stroke-width="1.3" stroke-linecap="round" stroke-linejoin="round"/>
    <path d="M6.5 6.5V10.5" stroke="currentColor" stroke-width="1.3" stroke-linecap="round" stroke-linejoin="round"/>
    <path d="M9.5 6.5V10.5" stroke="currentColor" stroke-width="1.3" stroke-linecap="round" stroke-linejoin="round"/>
    <path d="M12.5 3.5V13C12.5 13.1326 12.4473 13.2598 12.3536 13.3536C12.2598 13.4473 12.1326 13.5 12 13.5H4C3.86739 13.5 3.74021 13.4473 3.64645 13.3536C3.55268 13.2598 3.5 13.1326 3.5 13V3.5" stroke="currentColor" stroke-width="1.3" stroke-linecap="round" stroke-linejoin="round"/>
    <path d="M10.5 3.5V2.5C10.5 2.23478 10.3946 1.98043 10.2071 1.79289C10.0196 1.60536 9.76522 1.5 9.5 1.5H6.5C6.23478 1.5 5.98043 1.60536 5.79289 1.79289C5.60536 1.98043 5.5 2.23478 5.5 2.5V3.5" stroke="currentColor" stroke-width="1.3" stroke-linecap="round" stroke-linejoin="round"/>
</svg>
