<svg width="24" height="24" viewBox="0 0 24 24" fill="none" xmlns="http://www.w3.org/2000/svg">
<path fill-rule="evenodd" clip-rule="evenodd" d="M2.34343 7.8147H6.66213C7.40272 7.8147 8.00509 7.21902 8.00509 6.48656V3.32837C8.00509 2.59591 7.40248 2 6.66165 2H2.34296C1.60237 2 1 2.59567 1 3.32789V6.48633C1 7.21878 1.60261 7.8147 2.34343 7.8147ZM6.09209 5.9017H2.91309V3.91333H6.09209V5.9017Z" fill="currentColor"/>
<path fill-rule="evenodd" clip-rule="evenodd" d="M11.006 7.8147H21.698C22.4158 7.8147 23 7.23313 23 6.51837V3.29633C23 2.58157 22.4158 2 21.6977 2H11.0055C10.2876 2 9.70343 2.58157 9.70343 3.29633V6.51813C9.70343 7.23313 10.2876 7.8147 11.006 7.8147ZM21.0869 5.9017H11.6164V3.91333H21.0869V5.9017Z" fill="currentColor"/>
<path fill-rule="evenodd" clip-rule="evenodd" d="M2.34343 14.6294H6.66213C7.40272 14.6294 8.00509 14.0337 8.00509 13.3013V10.1431C8.00509 9.41061 7.40248 8.8147 6.66165 8.8147H2.34296C1.60237 8.8147 1 9.41037 1 10.1426V13.301C1 14.0335 1.60261 14.6294 2.34343 14.6294ZM6.09209 12.7164H2.91309V10.728H6.09209V12.7164Z" fill="currentColor"/>
<path fill-rule="evenodd" clip-rule="evenodd" d="M11.006 14.6294H21.698C22.4158 14.6294 23 14.0478 23 13.3331V10.111C23 9.39626 22.4158 8.8147 21.6977 8.8147H11.0055C10.2876 8.8147 9.70343 9.39626 9.70343 10.111V13.3328C9.70343 14.0478 10.2876 14.6294 11.006 14.6294ZM21.0869 12.7164H11.6164V10.728H21.0869V12.7164Z" fill="currentColor"/>
<path fill-rule="evenodd" clip-rule="evenodd" d="M2.34343 21.4441H6.66213C7.40272 21.4441 8.00509 20.8484 8.00509 20.116V16.9578C8.00509 16.2253 7.40248 15.6294 6.66165 15.6294H2.34296C1.60237 15.6294 1 16.2251 1 16.9573V20.1157C1 20.8482 1.60261 21.4441 2.34343 21.4441ZM6.09209 19.5311H2.91309V17.5427H6.09209V19.5311Z" fill="currentColor"/>
<path fill-rule="evenodd" clip-rule="evenodd" d="M11.006 21.4441H21.698C22.4158 21.4441 23 20.8625 23 20.1478V16.9257C23 16.211 22.4158 15.6294 21.6977 15.6294H11.0055C10.2876 15.6294 9.70343 16.211 9.70343 16.9257V20.1475C9.70343 20.8625 10.2876 21.4441 11.006 21.4441ZM21.0869 19.5311H11.6164V17.5427H21.0869V19.5311Z" fill="currentColor"/>
</svg>
