<svg width="36" height="103" viewBox="0 0 36 103" fill="none" xmlns="http://www.w3.org/2000/svg">
<g filter="url(#filter0_d_1312_6967)">
<path d="M2 6C2 2.68629 4.68629 0 8 0H28C31.3137 0 34 2.68629 34 6V93C34 96.3137 31.3137 99 28 99H8C4.68629 99 2 96.3137 2 93V6Z" fill="#262626"/>
<path d="M12.5 49.5H23.5" stroke="currentColor" stroke-linecap="round" stroke-linejoin="round"/>
<path d="M18 44V55" stroke="currentColor" stroke-linecap="round" stroke-linejoin="round"/>
<path d="M2.5 6C2.5 2.96243 4.96243 0.5 8 0.5H28C31.0376 0.5 33.5 2.96243 33.5 6V93C33.5 96.0376 31.0376 98.5 28 98.5H8C4.96243 98.5 2.5 96.0376 2.5 93V6Z" stroke="currentColor"/>
</g>
<defs>
<filter id="filter0_d_1312_6967" x="0" y="0" width="36" height="103" filterUnits="userSpaceOnUse" color-interpolation-filters="sRGB">
<feFlood flood-opacity="0" result="BackgroundImageFix"/>
<feColorMatrix in="SourceAlpha" type="matrix" values="0 0 0 0 0 0 0 0 0 0 0 0 0 0 0 0 0 0 127 0" result="hardAlpha"/>
<feOffset dy="2"/>
<feGaussianBlur stdDeviation="1"/>
<feComposite in2="hardAlpha" operator="out"/>
<feColorMatrix type="matrix" values="0 0 0 0 0 0 0 0 0 0 0 0 0 0 0 0 0 0 0.25 0"/>
<feBlend mode="normal" in2="BackgroundImageFix" result="effect1_dropShadow_1312_6967"/>
<feBlend mode="normal" in="SourceGraphic" in2="effect1_dropShadow_1312_6967" result="shape"/>
</filter>
</defs>
</svg>