<svg width="16" height="16" viewBox="0 0 16 16" fill="none" xmlns="http://www.w3.org/2000/svg">
<g clip-path="url(#clip0_52_933)">
<path fill-rule="evenodd" clip-rule="evenodd" d="M9.32632 0.73339C9.14828 0.644371 8.93872 0.644371 8.76068 0.73339L2.4367 3.89538C1.97059 4.12844 1.97059 4.7936 2.4367 5.02665L8.76068 8.18864C8.93872 8.27766 9.14828 8.27766 9.32632 8.18864L15.6503 5.02665C16.1164 4.7936 16.1164 4.12844 15.6503 3.89538L9.32632 0.73339ZM4.13352 4.46097L9.04342 2.00603L13.9533 4.46097L9.04342 6.91592L4.13352 4.46097ZM6.95657 12.1449C6.64418 11.9887 6.26431 12.1153 6.10812 12.4277C5.95192 12.7401 6.07854 13.1199 6.39093 13.2761L8.7607 14.5126C8.93874 14.6016 9.14829 14.6016 9.32633 14.5126L15.6503 11.3506C15.9627 11.1944 16.0893 10.8145 15.9331 10.5021C15.7769 10.1897 15.3971 10.0631 15.0847 10.2193L9.04351 13.2399L6.95657 12.1449ZM2.15388 7.34021C2.31007 7.02782 2.68994 6.9012 3.00233 7.05739L9.0435 10.078L15.0847 7.05739C15.3971 6.9012 15.7769 7.02782 15.9331 7.34021C16.0893 7.6526 15.9627 8.03246 15.6503 8.18866L9.32631 11.3507C9.14828 11.4397 8.93872 11.4397 8.76068 11.3507L2.43669 8.18866C2.1243 8.03246 1.99768 7.6526 2.15388 7.34021Z" fill="currentColor"/>
<path d="M0 12.4638C0 12.0956 0.298477 11.7971 0.666667 11.7971H4.89855C5.26674 11.7971 5.56522 12.0956 5.56522 12.4638V12.5218C5.56522 12.8899 5.26674 13.1884 4.89855 13.1884H0.666666C0.298477 13.1884 0 12.8899 0 12.5218V12.4638Z" fill="currentColor"/>
<path d="M2.8116 9.71021C3.17979 9.71021 3.47827 10.0087 3.47827 10.3769L3.47827 14.6088C3.47827 14.9769 3.17979 15.2754 2.8116 15.2754L2.75363 15.2754C2.38544 15.2754 2.08697 14.9769 2.08697 14.6088L2.08697 10.3769C2.08697 10.0087 2.38544 9.71021 2.75363 9.71021L2.8116 9.71021Z" fill="currentColor"/>
</g>
<defs>
<clipPath id="clip0_52_933">
<rect width="16" height="16" fill="currentColor"/>
</clipPath>
</defs>
</svg>
