<svg width="15" height="15" viewBox="0 0 15 15" fill="none" xmlns="http://www.w3.org/2000/svg">
<path fill-rule="evenodd" clip-rule="evenodd" d="M13.5838 3.03742L12.8182 3.68289C14.4455 5.61056 14.3833 8.44818 12.6731 10.3027L13.4086 11.0032C15.4624 8.77774 15.5375 5.37122 13.5838 3.05743V3.03742ZM9.00044 14.0054C8.86672 14.0048 8.73879 13.9508 8.64518 13.8553L4.83241 10.0025H1.49499C1.21865 10.0025 0.994629 9.77845 0.994629 9.50211V4.49848C0.994629 4.22214 1.21865 3.99812 1.49499 3.99812H4.83241L8.64518 0.145319C8.84034 -0.0486838 9.15553 -0.0486838 9.3507 0.145319C9.44497 0.237701 9.49892 0.363593 9.5008 0.495573V13.505C9.5008 13.7814 9.27678 14.0054 9.00044 14.0054ZM10.7917 4.99884C11.7679 6.15636 11.7293 7.85963 10.7017 8.97173L11.4372 9.65222C12.8069 8.1679 12.8562 5.89576 11.5523 4.35337L10.7917 4.99884ZM5.03756 9.00175H1.99536V4.99884H5.03756C5.17128 4.99829 5.29922 4.94423 5.39282 4.84873L8.50008 1.71146V12.2891L5.39282 9.15186C5.29922 9.05636 5.17128 9.0023 5.03756 9.00175Z" fill="currentColor"/>
</svg>
