<svg width="16" height="16" viewBox="0 0 16 16" fill="none" xmlns="http://www.w3.org/2000/svg">
<path fill-rule="evenodd" clip-rule="evenodd" d="M13.5838 4.03742L12.8182 4.68289C14.4455 6.61056 14.3833 9.44818 12.6731 11.3027L13.4086 12.0032C15.4624 9.77774 15.5375 6.37122 13.5838 4.05743V4.03742ZM9.00044 15.0054C8.86672 15.0048 8.73879 14.9508 8.64518 14.8553L4.83241 11.0025H1.49499C1.21865 11.0025 0.994629 10.7785 0.994629 10.5021V5.49848C0.994629 5.22214 1.21865 4.99812 1.49499 4.99812H4.83241L8.64518 1.14532C8.84034 0.951316 9.15553 0.951316 9.3507 1.14532C9.44497 1.2377 9.49892 1.36359 9.5008 1.49557V14.505C9.5008 14.7814 9.27678 15.0054 9.00044 15.0054ZM10.7917 5.99884C11.7679 7.15636 11.7293 8.85963 10.7017 9.97173L11.4372 10.6522C12.8069 9.1679 12.8562 6.89576 11.5523 5.35337L10.7917 5.99884ZM5.03756 10.0017H1.99536V5.99884H5.03756C5.17128 5.99829 5.29922 5.94423 5.39282 5.84873L8.50008 2.71146V13.2891L5.39282 10.1519C5.29922 10.0564 5.17128 10.0023 5.03756 10.0017Z" fill="white"/>
</svg>
