<svg width="16" height="16" viewBox="0 0 16 16" fill="none" xmlns="http://www.w3.org/2000/svg">
<path d="M13 13H3C2.73478 13 2.48043 12.8946 2.29289 12.7071C2.10536 12.5196 2 12.2652 2 12V5C2 4.73478 2.10536 4.48043 2.29289 4.29289C2.48043 4.10536 2.73478 4 3 4H4.99963L5.99963 2.5H9.99963L10.9996 4H13C13.2652 4 13.5196 4.10536 13.7071 4.29289C13.8946 4.48043 14 4.73478 14 5V12C14 12.2652 13.8946 12.5196 13.7071 12.7071C13.5196 12.8946 13.2652 13 13 13Z" stroke="currentColor" stroke-linecap="round" stroke-linejoin="round"/>
<path d="M8 10.5C9.24264 10.5 10.25 9.49264 10.25 8.25C10.25 7.00736 9.24264 6 8 6C6.75736 6 5.75 7.00736 5.75 8.25C5.75 9.49264 6.75736 10.5 8 10.5Z" stroke="currentColor" stroke-linecap="round" stroke-linejoin="round"/>
</svg>
