<svg width="24" height="24" viewBox="0 0 24 24" fill="none" xmlns="http://www.w3.org/2000/svg">
<path fill-rule="evenodd" clip-rule="evenodd" d="M16.3598 5.2318C16.7841 4.87824 17.4147 4.93556 17.7682 5.35984L22.7682 11.3598C23.0773 11.7307 23.0773 12.2694 22.7682 12.6402L17.7682 18.6402C17.4147 19.0645 16.7841 19.1218 16.3598 18.7682C15.9356 18.4147 15.8782 17.7841 16.2318 17.3598L20.6983 12L16.2318 6.64021C15.8782 6.21593 15.9356 5.58537 16.3598 5.2318Z" fill="currentColor"/>
<path fill-rule="evenodd" clip-rule="evenodd" d="M7.64018 5.2318C8.06446 5.58537 8.12179 6.21593 7.76822 6.64021L3.30171 12L7.76822 17.3598C8.12179 17.7841 8.06446 18.4147 7.64018 18.7682C7.21591 19.1218 6.58534 19.0645 6.23178 18.6402L1.23178 12.6402C0.92274 12.2694 0.92274 11.7307 1.23178 11.3598L6.23178 5.35984C6.58534 4.93556 7.21591 4.87824 7.64018 5.2318Z" fill="currentColor"/>
<path fill-rule="evenodd" clip-rule="evenodd" d="M14.2425 3.02985C14.7783 3.1638 15.1041 3.70673 14.9701 4.24253L10.9701 20.2425C10.8362 20.7783 10.2933 21.1041 9.75746 20.9701C9.22166 20.8362 8.8959 20.2933 9.02985 19.7575L13.0299 3.75746C13.1638 3.22166 13.7067 2.8959 14.2425 3.02985Z" fill="currentColor"/>
</svg>
