<svg width="16" height="16" viewBox="0 0 16 16" fill="none" xmlns="http://www.w3.org/2000/svg">
    <g clip-path="url(#clip0_5456_5617)">
        <path fill-rule="evenodd" clip-rule="evenodd" d="M7.33325 6.66659C6.96506 6.66659 6.66659 6.96506 6.66659 7.33325V13.3333C6.66659 13.7014 6.96506 13.9999 7.33325 13.9999H13.3333C13.7014 13.9999 13.9999 13.7014 13.9999 13.3333V7.33325C13.9999 6.96506 13.7014 6.66659 13.3333 6.66659H7.33325ZM5.33325 7.33325C5.33325 6.22868 6.22868 5.33325 7.33325 5.33325H13.3333C14.4378 5.33325 15.3333 6.22868 15.3333 7.33325V13.3333C15.3333 14.4378 14.4378 15.3333 13.3333 15.3333H7.33325C6.22868 15.3333 5.33325 14.4378 5.33325 13.3333V7.33325Z" fill="currentColor"/>
        <path fill-rule="evenodd" clip-rule="evenodd" d="M2.66675 2.00008C2.48994 2.00008 2.32037 2.07032 2.19534 2.19534C2.07032 2.32037 2.00008 2.48994 2.00008 2.66675V8.66675C2.00008 8.84356 2.07032 9.01313 2.19534 9.13815C2.32037 9.26318 2.48994 9.33342 2.66675 9.33342H3.33341C3.7016 9.33342 4.00008 9.63189 4.00008 10.0001C4.00008 10.3683 3.7016 10.6667 3.33341 10.6667H2.66675C2.13631 10.6667 1.62761 10.456 1.25253 10.081C0.877462 9.70589 0.666748 9.19718 0.666748 8.66675V2.66675C0.666748 2.13632 0.877462 1.62761 1.25253 1.25253C1.62761 0.877462 2.13632 0.666748 2.66675 0.666748H8.66675C9.19718 0.666748 9.70589 0.877462 10.081 1.25253C10.456 1.62761 10.6667 2.13631 10.6667 2.66675V3.33341C10.6667 3.7016 10.3683 4.00008 10.0001 4.00008C9.63189 4.00008 9.33342 3.7016 9.33342 3.33341V2.66675C9.33342 2.48994 9.26318 2.32037 9.13815 2.19534C9.01313 2.07032 8.84356 2.00008 8.66675 2.00008H2.66675Z" fill="currentColor"/>
    </g>
    <defs>
        <clipPath id="clip0_5456_5617">
            <rect width="16" height="16" fill="white"/>
        </clipPath>
    </defs>
</svg>
