<svg width="24" height="24" viewBox="0 0 24 24" fill="none" xmlns="http://www.w3.org/2000/svg">
<path d="M8.63665 2.87666C8.63665 2.34646 9.06646 1.91666 9.59666 1.91666C10.1268 1.91666 10.5567 2.34646 10.5567 2.87666V9.59666C10.5567 10.1269 10.1268 10.5567 9.59666 10.5567H2.87665C2.34646 10.5567 1.91665 10.1269 1.91665 9.59666C1.91665 9.06647 2.34646 8.63666 2.87665 8.63666H8.63665V2.87666Z" fill="currentColor"/>
<path fill-rule="evenodd" clip-rule="evenodd" d="M22.7458 12.4136L19.3062 8.94018C18.9649 8.59562 18.4092 8.59299 18.0647 8.93426C17.7203 9.2753 17.7175 9.83121 18.0587 10.1755L20.0218 12.158L11.3956 12.1832C10.9108 12.1845 10.5186 12.5782 10.5199 13.063C10.521 13.5474 10.9137 13.9389 11.3978 13.9389L10.975 13.9389L20.0128 13.9139L18.0587 15.8873C17.7175 16.2317 17.7203 16.7876 18.0647 17.1286C18.2358 17.2983 18.4593 17.3828 18.6825 17.3828C18.9085 17.3828 19.1346 17.2961 19.3062 17.1227L22.7458 13.649C23.0847 13.3069 23.0847 12.7558 22.7458 12.4136Z" fill="currentColor"/>
<path fill-rule="evenodd" clip-rule="evenodd" d="M8.67996 1C8.42535 1 8.18117 1.10114 8.00114 1.28118L1.28113 8.00118C1.1011 8.18122 0.999952 8.4254 0.999952 8.68001V19.24C0.999952 20.8306 2.28937 22.12 3.87996 22.12H15.4C16.9905 22.12 18.28 20.8306 18.28 19.24C18.28 18.7098 17.8502 18.28 17.32 18.28C16.7898 18.28 16.36 18.7099 16.36 19.2401C16.36 19.7703 15.9302 20.2001 15.4 20.2001H3.87996C3.34976 20.2001 2.91996 19.7703 2.91996 19.2401V9.49192C2.91996 9.22671 3.02531 8.97235 3.21285 8.78481L8.78471 3.21295C8.97225 3.02542 9.2266 2.92006 9.49182 2.92006H15.4C15.9302 2.92006 16.36 3.34987 16.36 3.88006V6.76004C16.36 7.29023 16.7898 7.72004 17.32 7.72004C17.8502 7.72004 18.28 7.29023 18.28 6.76004V3.88C18.28 2.28942 16.9905 1 15.4 1H8.67996Z" fill="currentColor"/>
</svg>
