<svg width="32" height="32" viewBox="0 0 32 32" fill="none" xmlns="http://www.w3.org/2000/svg">
<path d="M26 8H29V7C28.9994 6.46975 28.7885 5.9614 28.4135 5.58646C28.0386 5.21151 27.5302 5.00061 27 5H5C4.46975 5.00061 3.9614 5.21151 3.58646 5.58646C3.21151 5.9614 3.00061 6.46975 3 7V8H6C6.26522 8 6.51957 8.10536 6.70711 8.29289C6.89464 8.48043 7 8.73478 7 9C7 9.26522 6.89464 9.51957 6.70711 9.70711C6.51957 9.89464 6.26522 10 6 10H3V22H6C6.26522 22 6.51957 22.1054 6.70711 22.2929C6.89464 22.4804 7 22.7348 7 23C7 23.2652 6.89464 23.5196 6.70711 23.7071C6.51957 23.8946 6.26522 24 6 24H3V25C3.00061 25.5302 3.21151 26.0386 3.58646 26.4135C3.9614 26.7885 4.46975 26.9994 5 27H27C27.5302 26.9994 28.0386 26.7885 28.4135 26.4135C28.7885 26.0386 28.9994 25.5302 29 25V24H26C25.7348 24 25.4804 23.8946 25.2929 23.7071C25.1054 23.5196 25 23.2652 25 23C25 22.7348 25.1054 22.4804 25.2929 22.2929C25.4804 22.1054 25.7348 22 26 22H29V10H26C25.7348 10 25.4804 9.89464 25.2929 9.70711C25.1054 9.51957 25 9.26522 25 9C25 8.73478 25.1054 8.48043 25.2929 8.29289C25.4804 8.10536 25.7348 8 26 8ZM13.5 24H11C10.7348 24 10.4804 23.8946 10.2929 23.7071C10.1054 23.5196 10 23.2652 10 23C10 22.7348 10.1054 22.4804 10.2929 22.2929C10.4804 22.1054 10.7348 22 11 22H13.5C13.7652 22 14.0196 22.1054 14.2071 22.2929C14.3946 22.4804 14.5 22.7348 14.5 23C14.5 23.2652 14.3946 23.5196 14.2071 23.7071C14.0196 23.8946 13.7652 24 13.5 24ZM13.5 10H11C10.7348 10 10.4804 9.89464 10.2929 9.70711C10.1054 9.51957 10 9.26522 10 9C10 8.73478 10.1054 8.48043 10.2929 8.29289C10.4804 8.10536 10.7348 8 11 8H13.5C13.7652 8 14.0196 8.10536 14.2071 8.29289C14.3946 8.48043 14.5 8.73478 14.5 9C14.5 9.26522 14.3946 9.51957 14.2071 9.70711C14.0196 9.89464 13.7652 10 13.5 10ZM21 24H18.5C18.2348 24 17.9804 23.8946 17.7929 23.7071C17.6054 23.5196 17.5 23.2652 17.5 23C17.5 22.7348 17.6054 22.4804 17.7929 22.2929C17.9804 22.1054 18.2348 22 18.5 22H21C21.2652 22 21.5196 22.1054 21.7071 22.2929C21.8946 22.4804 22 22.7348 22 23C22 23.2652 21.8946 23.5196 21.7071 23.7071C21.5196 23.8946 21.2652 24 21 24ZM21 10H18.5C18.2348 10 17.9804 9.89464 17.7929 9.70711C17.6054 9.51957 17.5 9.26522 17.5 9C17.5 8.73478 17.6054 8.48043 17.7929 8.29289C17.9804 8.10536 18.2348 8 18.5 8H21C21.2652 8 21.5196 8.10536 21.7071 8.29289C21.8946 8.48043 22 8.73478 22 9C22 9.26522 21.8946 9.51957 21.7071 9.70711C21.5196 9.89464 21.2652 10 21 10Z" fill="currentColor"/>
</svg>
