<svg width="24" height="24" viewBox="0 0 24 24" fill="none" xmlns="http://www.w3.org/2000/svg">
<path fill-rule="evenodd" clip-rule="evenodd" d="M16 21C12.134 21 9 17.866 9 14C9 10.134 12.134 7 16 7C19.866 7 23 10.134 23 14C23 17.866 19.866 21 16 21ZM16 19.25C18.8995 19.25 21.25 16.8995 21.25 14C21.25 11.1005 18.8995 8.75 16 8.75C13.1005 8.75 10.75 11.1005 10.75 14C10.75 16.8995 13.1005 19.25 16 19.25ZM16 10.5C16.4832 10.5 16.875 10.8918 16.875 11.375V13.6376L17.9312 14.6938C18.2729 15.0355 18.2729 15.5895 17.9312 15.9312C17.5895 16.2729 17.0355 16.2729 16.6938 15.9312L15.3813 14.6187C15.2172 14.4546 15.125 14.2321 15.125 14V11.375C15.125 10.8918 15.5168 10.5 16 10.5Z" fill="currentColor"/>
<path d="M5 5L5 20.5C5 21.0523 5.44772 21.5 6 21.5C6.55228 21.5 7 21.0523 7 20.5V5C7 4.44772 6.55228 4 6 4C5.44772 4 5 4.44772 5 5Z" fill="currentColor"/>
<path d="M9.29289 7.70711C9.68342 8.09763 10.3166 8.09763 10.7071 7.70711C11.0976 7.31658 11.0976 6.68342 10.7071 6.29289L6.70711 2.29289C6.31658 1.90237 5.68342 1.90237 5.29289 2.29289L1.29289 6.29289C0.902369 6.68342 0.902369 7.31658 1.29289 7.70711C1.68342 8.09763 2.31658 8.09763 2.70711 7.70711L6 4.41421L9.29289 7.70711Z" fill="currentColor"/>
</svg>
