<svg width="24" height="24" viewBox="0 0 24 24" fill="none" xmlns="http://www.w3.org/2000/svg">
<path d="M3.70711 15.2929C3.31658 14.9024 2.68342 14.9024 2.29289 15.2929C1.90237 15.6834 1.90237 16.3166 2.29289 16.7071L6.29289 20.7071C6.68342 21.0976 7.31658 21.0976 7.70711 20.7071L11.7071 16.7071C12.0976 16.3166 12.0976 15.6834 11.7071 15.2929C11.3166 14.9024 10.6834 14.9024 10.2929 15.2929L7 18.5858L3.70711 15.2929Z" fill="currentColor"/>
<path d="M6 4.0625V18.9375C6 19.5243 6.44772 20 7 20C7.55228 20 8 19.5243 8 18.9375V4.0625C8 3.4757 7.55228 3 7 3C6.44772 3 6 3.4757 6 4.0625Z" fill="currentColor"/>
<path fill-rule="evenodd" clip-rule="evenodd" d="M17.0003 14.8463L19.0718 20.0251C19.2769 20.5379 19.8589 20.7873 20.3717 20.5822C20.8844 20.3771 21.1339 19.7951 20.9287 19.2823L18.393 12.9429C17.8901 11.6857 16.1104 11.6857 15.6076 12.9429L13.0718 19.2823C12.8667 19.7951 13.1161 20.3771 13.6289 20.5822C14.1417 20.7873 14.7236 20.5379 14.9287 20.0251L17.0003 14.8463Z" fill="currentColor"/>
<path fill-rule="evenodd" clip-rule="evenodd" d="M19.5003 19.1537H14.5003V17.1537H19.5003V19.1537Z" fill="currentColor"/>
<path fill-rule="evenodd" clip-rule="evenodd" d="M14 5C13.4477 5 13 4.55228 13 4C13 3.44772 13.4477 3 14 3H20C20.4045 3 20.7691 3.24364 20.9239 3.61732C21.0787 3.99099 20.9931 4.42111 20.7071 4.70711L16.4142 9H20C20.5523 9 21 9.44772 21 10C21 10.5523 20.5523 11 20 11H14C13.5955 11 13.2309 10.7564 13.0761 10.3827C12.9213 10.009 13.0069 9.57889 13.2929 9.29289L17.5858 5H14Z" fill="currentColor"/>
</svg>
