<svg width="32" height="32" viewBox="0 0 32 32" fill="none" xmlns="http://www.w3.org/2000/svg">
<path d="M22 13.5V20.5556C22 20.6734 21.9532 20.7865 21.8698 20.8698C21.7865 20.9532 21.6734 21 21.5556 21H10.5C10.3674 21 10.2402 20.9473 10.1464 20.8536C10.0527 20.7598 10 20.6326 10 20.5V12C10 11.8674 10.0527 11.7402 10.1464 11.6464C10.2402 11.5527 10.3674 11.5 10.5 11.5H13.8333C13.9415 11.5 14.0468 11.5351 14.1333 11.6L15.8667 12.9C15.9532 12.9649 16.0585 13 16.1667 13H21.5C21.6326 13 21.7598 13.0527 21.8536 13.1464C21.9473 13.2402 22 13.3674 22 13.5Z" stroke="currentColor" stroke-linecap="round" stroke-linejoin="round"/>
<path d="M14.5 17H17.5" stroke="currentColor" stroke-linecap="round" stroke-linejoin="round"/>
<path d="M16 15.5V18.5" stroke="currentColor" stroke-linecap="round" stroke-linejoin="round"/>
</svg>
