<svg width="16" height="16" viewBox="0 0 16 16" fill="none" xmlns="http://www.w3.org/2000/svg">
    <path d="M8 11.0001C9.65685 11.0001 11 9.65698 11 8.00012C11 6.34327 9.65685 5.00012 8 5.00012C6.34315 5.00012 5 6.34327 5 8.00012C5 9.65698 6.34315 11.0001 8 11.0001Z" stroke="currentColor" stroke-width="1.3" stroke-linecap="round" stroke-linejoin="round"/>
    <path d="M12.3379 5.04071C12.4858 5.25784 12.6172 5.48577 12.7309 5.72258L14.3525 6.6228C14.5501 7.52997 14.5507 8.46895 14.3545 9.3764L12.732 10.2771C12.6179 10.5137 12.4862 10.7415 12.3379 10.9584L12.3692 12.8129C11.6823 13.4375 10.8694 13.9076 9.98547 14.1914L8.39416 13.2366C8.13218 13.2561 7.8691 13.2559 7.60715 13.2359L6.01672 14.1902C5.13233 13.9077 4.31881 13.4388 3.63104 12.8151L3.66227 10.9596C3.51439 10.7425 3.38303 10.5146 3.26931 10.2778L1.64767 9.37754C1.45015 8.47037 1.44947 7.53139 1.64568 6.62394L3.26822 5.72323C3.38232 5.4866 3.51404 5.25887 3.66226 5.04197L3.63105 3.18749C4.31792 2.56284 5.13076 2.09277 6.01474 1.80896L7.60605 2.76377C7.86803 2.74426 8.13111 2.74447 8.39306 2.76439L9.98348 1.81011C10.8679 2.09264 11.6814 2.56154 12.3692 3.18519L12.3379 5.04071Z" stroke="currentColor" stroke-width="1.3" stroke-linecap="round" stroke-linejoin="round"/>
</svg>
