<svg width="24" height="24" viewBox="0 0 24 24" fill="none" xmlns="http://www.w3.org/2000/svg">
<path fill-rule="evenodd" clip-rule="evenodd" d="M6 8C6 7.44772 6.44772 7 7 7H13.75C14.3023 7 14.75 7.44772 14.75 8C14.75 8.55228 14.3023 9 13.75 9H7C6.44772 9 6 8.55228 6 8Z" fill="currentColor"/>
<path fill-rule="evenodd" clip-rule="evenodd" d="M6 12C6 11.4477 6.44772 11 7 11H13.75C14.3023 11 14.75 11.4477 14.75 12C14.75 12.5523 14.3023 13 13.75 13H7C6.44772 13 6 12.5523 6 12Z" fill="currentColor"/>
<path fill-rule="evenodd" clip-rule="evenodd" d="M3 4V17.1875H9.11603C9.43441 17.1875 9.74737 17.2699 10.0244 17.4268C10.3015 17.5836 10.5332 17.8096 10.697 18.0826L9.91475 18.552L10.697 18.0826L12.125 20.4625L13.553 18.0826L14.4105 18.5971L13.553 18.0826C13.7168 17.8096 13.9485 17.5836 14.2256 17.4268C14.5026 17.2699 14.8156 17.1875 15.134 17.1875L21.25 17.1875V4H3ZM1.54002 2.54002C1.88579 2.19425 2.35476 2 2.84375 2H21.4062C21.8952 2 22.3642 2.19425 22.71 2.54002C23.0557 2.88579 23.25 3.35475 23.25 3.84375V17.3438C23.25 17.8327 23.0557 18.3017 22.71 18.6475C22.3642 18.9933 21.8952 19.1875 21.4062 19.1875L15.2224 19.1875L13.706 21.7148C13.5422 21.9879 13.3105 22.2138 13.0334 22.3707C12.7563 22.5275 12.4434 22.61 12.125 22.61C11.8066 22.61 11.4937 22.5275 11.2166 22.3707C10.9395 22.2138 10.7078 21.9879 10.544 21.7148L9.02756 19.1875H2.84375C2.35475 19.1875 1.88579 18.9932 1.54002 18.6474C1.19425 18.3017 1 17.8327 1 17.3437V3.84375C1 3.35476 1.19425 2.88579 1.54002 2.54002Z" fill="currentColor"/>
<rect x="16" y="7" width="2" height="2" rx="1" fill="currentColor"/>
</svg>
