<svg width="84" height="84" viewBox="0 0 84 84" fill="none" xmlns="http://www.w3.org/2000/svg">
<path fill-rule="evenodd" clip-rule="evenodd" d="M42 81C63.5391 81 81 63.5391 81 42C81 20.4609 63.5391 3 42 3C20.4609 3 3 20.4609 3 42C3 63.5391 20.4609 81 42 81ZM42 84C65.196 84 84 65.196 84 42C84 18.804 65.196 0 42 0C18.804 0 0 18.804 0 42C0 65.196 18.804 84 42 84Z" fill="currentColor"/>
<path fill-rule="evenodd" clip-rule="evenodd" d="M21.5 29.5C21.5 28.6716 22.1716 28 23 28H61C61.8284 28 62.5 28.6716 62.5 29.5V55.9444C62.5 56.7635 62.1686 57.5435 61.5875 58.1144C61.0073 58.6844 60.2259 59 59.4167 59H24.5833C23.7741 59 22.9927 58.6844 22.4125 58.1144C21.8314 57.5435 21.5 56.7635 21.5 55.9444V29.5ZM26.9071 31L39.546 42.3824C39.5472 42.3835 39.5485 42.3847 39.5497 42.3858L42 44.5925L44.4348 42.3997C44.4462 42.3891 44.4578 42.3787 44.4695 42.3685L57.0929 31H26.9071ZM59.5 32.8695L47.6961 43.4999L59.5 54.1303V32.8695ZM57.0931 56L45.4546 45.5186L43.0038 47.7257C42.4332 48.2396 41.5668 48.2396 40.9962 47.7257L38.5454 45.5186L26.907 56H57.0931ZM24.5 54.1305L36.3039 43.5L24.5 32.8695V54.1305Z" fill="currentColor"/>
</svg>
