<svg width="16" height="16" viewBox="0 0 16 16" fill="none" xmlns="http://www.w3.org/2000/svg">
<path fill-rule="evenodd" clip-rule="evenodd" d="M3.5 2C3.23478 2 2.98043 2.10536 2.79289 2.29289C2.60536 2.48043 2.5 2.73478 2.5 3V8.5C2.5 8.77614 2.72386 9 3 9C3.27614 9 3.5 8.77614 3.5 8.5L3.5 3L9 3V6C9 6.27614 9.22386 6.5 9.5 6.5H12.5005V8.5C12.5005 8.77614 12.7243 9 13.0005 9C13.2766 9 13.5005 8.77614 13.5005 8.5V6.00342C13.5005 6.00228 13.5005 6.00114 13.5005 6C13.5005 5.86092 13.4437 5.7351 13.3521 5.64447L9.85404 2.14645C9.76027 2.05268 9.6331 2 9.50049 2H9.5H3.5ZM10 3.70662V5.5H11.7934L10 3.70662Z" fill="white"/>
<path d="M3.63725 13.28C3.55547 13.28 3.48436 13.2498 3.42392 13.1893C3.36347 13.1289 3.33325 13.0578 3.33325 12.976V12.5707C3.33325 12.4889 3.36347 12.4178 3.42392 12.3573C3.48436 12.2969 3.55547 12.2667 3.63725 12.2667H4.04259C4.12436 12.2667 4.19547 12.2969 4.25592 12.3573C4.31636 12.4178 4.34659 12.4889 4.34659 12.5707V12.976C4.34659 13.0578 4.31636 13.1289 4.25592 13.1893C4.19547 13.2498 4.12436 13.28 4.04259 13.28H3.63725Z" fill="white"/>
<path d="M5.51621 13.28C5.43443 13.28 5.36332 13.2498 5.30288 13.1893C5.24243 13.1289 5.21221 13.0578 5.21221 12.976V9.69068C5.21221 9.6089 5.24243 9.53779 5.30288 9.47734C5.36332 9.4169 5.43443 9.38668 5.51621 9.38668H5.82021C5.91265 9.38668 5.99621 9.41157 6.07088 9.46134C6.14554 9.51112 6.20065 9.57868 6.23621 9.66401L7.06288 11.6747C7.06288 11.6782 7.06466 11.68 7.06821 11.68C7.07177 11.68 7.07354 11.6782 7.07354 11.6747L7.90021 9.66401C7.93577 9.57868 7.99088 9.51112 8.06554 9.46134C8.14021 9.41157 8.22377 9.38668 8.31621 9.38668H8.64154C8.72332 9.38668 8.79443 9.4169 8.85488 9.47734C8.91532 9.53779 8.94554 9.6089 8.94554 9.69068V12.976C8.94554 13.0578 8.91532 13.1289 8.85488 13.1893C8.79443 13.2498 8.72332 13.28 8.64154 13.28H8.38554C8.30377 13.28 8.23266 13.2498 8.17221 13.1893C8.11532 13.1289 8.08688 13.0578 8.08688 12.976V10.9013C8.08688 10.8978 8.0851 10.896 8.08154 10.896C8.07443 10.896 8.07088 10.8978 8.07088 10.9013L7.55888 12.112C7.52332 12.1973 7.46643 12.2649 7.38821 12.3147C7.31354 12.3645 7.22999 12.3893 7.13754 12.3893H6.99888C6.90643 12.3893 6.8211 12.3645 6.74288 12.3147C6.66821 12.2649 6.6131 12.1973 6.57754 12.112L6.06554 10.9013C6.06554 10.8978 6.06199 10.896 6.05488 10.896C6.05132 10.896 6.04954 10.8978 6.04954 10.9013V12.976C6.04954 13.0578 6.01932 13.1289 5.95888 13.1893C5.90199 13.2498 5.83265 13.28 5.75088 13.28H5.51621Z" fill="white"/>
<path d="M10.6392 10.1227V12.544C10.6392 12.576 10.6552 12.5956 10.6872 12.6027C10.7583 12.6169 10.8437 12.624 10.9432 12.624C11.3023 12.624 11.5672 12.5191 11.7379 12.3093C11.9121 12.0996 11.9992 11.7565 11.9992 11.28C11.9992 10.8533 11.9121 10.5405 11.7379 10.3413C11.5637 10.1422 11.2988 10.0427 10.9432 10.0427C10.8437 10.0427 10.7583 10.0498 10.6872 10.064C10.6552 10.0711 10.6392 10.0907 10.6392 10.1227ZM10.0525 13.2907C9.96721 13.2836 9.8961 13.248 9.83921 13.184C9.78232 13.1165 9.75388 13.0382 9.75388 12.9493V9.71734C9.75388 9.62845 9.78232 9.55201 9.83921 9.48801C9.8961 9.42045 9.96721 9.38312 10.0525 9.37601C10.3299 9.34757 10.6037 9.33334 10.8739 9.33334C11.5103 9.33334 12.001 9.50223 12.3459 9.84001C12.6908 10.1778 12.8632 10.6578 12.8632 11.28C12.8632 11.9556 12.6908 12.4676 12.3459 12.816C12.001 13.1609 11.5103 13.3333 10.8739 13.3333C10.6037 13.3333 10.3299 13.3191 10.0525 13.2907Z" fill="white"/>
</svg>
