<svg width="16" height="16" viewBox="0 0 16 16" fill="none" xmlns="http://www.w3.org/2000/svg">
<path fill-rule="evenodd" clip-rule="evenodd" d="M3.5 2C3.23478 2 2.98043 2.10536 2.79289 2.29289C2.60536 2.48043 2.5 2.73478 2.5 3V8.5C2.5 8.77614 2.72386 9 3 9C3.27614 9 3.5 8.77614 3.5 8.5L3.5 3L9 3V6C9 6.27614 9.22386 6.5 9.5 6.5H12.5005V8.5C12.5005 8.77614 12.7243 9 13.0005 9C13.2766 9 13.5005 8.77614 13.5005 8.5V6.00342C13.5005 6.00228 13.5005 6.00114 13.5005 6C13.5005 5.86092 13.4437 5.7351 13.3521 5.64447L9.85404 2.14645C9.76027 2.05268 9.6331 2 9.50049 2H9.5H3.5ZM10 3.70662V5.5H11.7934L10 3.70662Z" fill="currentColor"/>
<path d="M3.6375 13.28C3.55572 13.28 3.48461 13.2498 3.42416 13.1893C3.36372 13.1289 3.3335 13.0578 3.3335 12.976V12.5707C3.3335 12.4889 3.36372 12.4178 3.42416 12.3573C3.48461 12.2969 3.55572 12.2667 3.6375 12.2667H4.04283C4.12461 12.2667 4.19572 12.2969 4.25616 12.3573C4.31661 12.4178 4.34683 12.4889 4.34683 12.5707V12.976C4.34683 13.0578 4.31661 13.1289 4.25616 13.1893C4.19572 13.2498 4.12461 13.28 4.04283 13.28H3.6375Z" fill="currentColor"/>
<path d="M5.51645 13.28C5.43468 13.28 5.36357 13.2498 5.30312 13.1893C5.24268 13.1289 5.21245 13.0578 5.21245 12.976V9.69068C5.21245 9.6089 5.24268 9.53779 5.30312 9.47734C5.36357 9.4169 5.43468 9.38668 5.51645 9.38668H5.82045C5.9129 9.38668 5.99645 9.41157 6.07112 9.46134C6.14579 9.51112 6.2009 9.57868 6.23645 9.66401L7.06312 11.6747C7.06312 11.6782 7.0649 11.68 7.06845 11.68C7.07201 11.68 7.07379 11.6782 7.07379 11.6747L7.90045 9.66401C7.93601 9.57868 7.99112 9.51112 8.06579 9.46134C8.14046 9.41157 8.22401 9.38668 8.31645 9.38668H8.64179C8.72357 9.38668 8.79468 9.4169 8.85512 9.47734C8.91557 9.53779 8.94579 9.6089 8.94579 9.69068V12.976C8.94579 13.0578 8.91557 13.1289 8.85512 13.1893C8.79468 13.2498 8.72357 13.28 8.64179 13.28H8.38579C8.30401 13.28 8.2329 13.2498 8.17245 13.1893C8.11557 13.1289 8.08712 13.0578 8.08712 12.976V10.9013C8.08712 10.8978 8.08534 10.896 8.08179 10.896C8.07468 10.896 8.07112 10.8978 8.07112 10.9013L7.55912 12.112C7.52357 12.1973 7.46668 12.2649 7.38845 12.3147C7.31379 12.3645 7.23023 12.3893 7.13779 12.3893H6.99912C6.90668 12.3893 6.82134 12.3645 6.74312 12.3147C6.66845 12.2649 6.61334 12.1973 6.57779 12.112L6.06579 10.9013C6.06579 10.8978 6.06223 10.896 6.05512 10.896C6.05157 10.896 6.04979 10.8978 6.04979 10.9013V12.976C6.04979 13.0578 6.01957 13.1289 5.95912 13.1893C5.90223 13.2498 5.8329 13.28 5.75112 13.28H5.51645Z" fill="currentColor"/>
<path d="M10.6395 10.1227V12.544C10.6395 12.576 10.6555 12.5956 10.6875 12.6027C10.7586 12.6169 10.8439 12.624 10.9435 12.624C11.3026 12.624 11.5675 12.5191 11.7381 12.3093C11.9123 12.0996 11.9995 11.7565 11.9995 11.28C11.9995 10.8533 11.9123 10.5405 11.7381 10.3413C11.5639 10.1422 11.299 10.0427 10.9435 10.0427C10.8439 10.0427 10.7586 10.0498 10.6875 10.064C10.6555 10.0711 10.6395 10.0907 10.6395 10.1227ZM10.0528 13.2907C9.96745 13.2836 9.89634 13.248 9.83945 13.184C9.78257 13.1165 9.75412 13.0382 9.75412 12.9493V9.71734C9.75412 9.62845 9.78257 9.55201 9.83945 9.48801C9.89634 9.42045 9.96745 9.38312 10.0528 9.37601C10.3301 9.34757 10.6039 9.33334 10.8741 9.33334C11.5106 9.33334 12.0012 9.50223 12.3461 9.84001C12.691 10.1778 12.8635 10.6578 12.8635 11.28C12.8635 11.9556 12.691 12.4676 12.3461 12.816C12.0012 13.1609 11.5106 13.3333 10.8741 13.3333C10.6039 13.3333 10.3301 13.3191 10.0528 13.2907Z" fill="currentColor"/>
</svg>
