<svg width="86" height="60" viewBox="0 0 86 60" fill="none" xmlns="http://www.w3.org/2000/svg">
<path fill-rule="evenodd" clip-rule="evenodd" d="M12.75 19.8755C13.1642 19.8755 13.5 20.2113 13.5 20.6255V34.6255C13.5 35.0397 13.1642 35.3755 12.75 35.3755C12.3358 35.3755 12 35.0397 12 34.6255V20.6255C12 20.2113 12.3358 19.8755 12.75 19.8755Z" fill="currentColor"/>
<path fill-rule="evenodd" clip-rule="evenodd" d="M5 27.6255C5 27.2113 5.33579 26.8755 5.75 26.8755H19.75C20.1642 26.8755 20.5 27.2113 20.5 27.6255C20.5 28.0397 20.1642 28.3755 19.75 28.3755H5.75C5.33579 28.3755 5 28.0397 5 27.6255Z" fill="currentColor"/>
<path fill-rule="evenodd" clip-rule="evenodd" d="M72.1349 11.8687C70.445 11.8687 68.8243 12.54 67.6294 13.7349C66.4345 14.9298 65.7632 16.5505 65.7632 18.2403C65.7632 20.7084 67.3679 23.0973 69.1185 24.9451C69.9784 25.8528 70.8409 26.5958 71.4893 27.1121C71.7425 27.3137 71.962 27.48 72.1349 27.6073C72.3077 27.48 72.5273 27.3137 72.7804 27.1121C73.4288 26.5958 74.2913 25.8528 75.1512 24.9451C76.9018 23.0973 78.5065 20.7084 78.5065 18.2403C78.5065 16.5505 77.8352 14.9298 76.6403 13.7349C75.4454 12.54 73.8247 11.8687 72.1349 11.8687ZM72.1349 28.5272C71.7188 29.1512 71.7186 29.1511 71.7184 29.151L71.7162 29.1495L71.711 29.146L71.693 29.1338C71.6777 29.1234 71.6559 29.1085 71.6279 29.0891C71.5719 29.0503 71.4913 28.9938 71.3897 28.9204C71.1866 28.7737 70.899 28.5595 70.5549 28.2855C69.8679 27.7385 68.95 26.9483 68.0296 25.9767C66.2193 24.0659 64.2632 21.3113 64.2632 18.2403C64.2632 16.1526 65.0925 14.1504 66.5687 12.6742C68.045 11.198 70.0472 10.3687 72.1349 10.3687C74.2226 10.3687 76.2248 11.198 77.701 12.6742C79.1772 14.1504 80.0065 16.1526 80.0065 18.2403C80.0065 21.3113 78.0504 24.0659 76.2402 25.9767C75.3197 26.9483 74.4018 27.7385 73.7148 28.2855C73.3707 28.5595 73.0831 28.7737 72.88 28.9204C72.7784 28.9938 72.6979 29.0503 72.6419 29.0891C72.6139 29.1085 72.592 29.1234 72.5767 29.1338L72.5587 29.146L72.5535 29.1495L72.5519 29.1506C72.5517 29.1507 72.5509 29.1512 72.1349 28.5272ZM72.1349 28.5272L72.5509 29.1512C72.299 29.3192 71.9704 29.3189 71.7184 29.151L72.1349 28.5272Z" fill="currentColor"/>
<path fill-rule="evenodd" clip-rule="evenodd" d="M72.1346 16.6165C71.2378 16.6165 70.5107 17.3435 70.5107 18.2403C70.5107 19.1372 71.2378 19.8642 72.1346 19.8642C73.0315 19.8642 73.7585 19.1372 73.7585 18.2403C73.7585 17.3435 73.0315 16.6165 72.1346 16.6165ZM69.0107 18.2403C69.0107 16.5151 70.4094 15.1165 72.1346 15.1165C73.8599 15.1165 75.2585 16.5151 75.2585 18.2403C75.2585 19.9656 73.8599 21.3642 72.1346 21.3642C70.4094 21.3642 69.0107 19.9656 69.0107 18.2403Z" fill="currentColor"/>
<path fill-rule="evenodd" clip-rule="evenodd" d="M57.5066 13.0444C46.8181 13.0444 38.1533 21.7092 38.1533 32.3977C38.1533 43.0862 46.8181 51.7509 57.5066 51.7509C68.1951 51.7509 76.8598 43.0862 76.8598 32.3977C76.8598 21.7092 68.1951 13.0444 57.5066 13.0444ZM36.6533 32.3977C36.6533 20.8807 45.9896 11.5444 57.5066 11.5444C69.0235 11.5444 78.3598 20.8807 78.3598 32.3977C78.3598 43.9146 69.0235 53.2509 57.5066 53.2509C45.9896 53.2509 36.6533 43.9146 36.6533 32.3977Z" fill="currentColor"/>
<path fill-rule="evenodd" clip-rule="evenodd" d="M36.6533 32.3979C36.6533 31.9837 36.9891 31.6479 37.4033 31.6479H77.6098C78.024 31.6479 78.3598 31.9837 78.3598 32.3979C78.3598 32.8122 78.024 33.1479 77.6098 33.1479H37.4033C36.9891 33.1479 36.6533 32.8122 36.6533 32.3979Z" fill="currentColor"/>
<path fill-rule="evenodd" clip-rule="evenodd" d="M50.215 32.3976C50.3642 39.3862 52.948 46.0945 57.5061 51.3717C62.0642 46.0945 64.648 39.3862 64.7973 32.3976C64.648 25.4091 62.0642 18.7008 57.5061 13.4236C52.948 18.7008 50.3642 25.4091 50.215 32.3976ZM57.5061 12.2944L56.9524 11.7886C51.8014 17.4278 48.8741 24.746 48.715 32.382C48.7148 32.3924 48.7148 32.4028 48.715 32.4133C48.8741 40.0492 51.8014 47.3675 56.9524 53.0067C57.0945 53.1623 57.2955 53.2509 57.5061 53.2509C57.7168 53.2509 57.9178 53.1623 58.0599 53.0067C63.2109 47.3675 66.1382 40.0492 66.2973 32.4133C66.2975 32.4028 66.2975 32.3924 66.2973 32.382C66.1382 24.746 63.2109 17.4278 58.0599 11.7886L57.5061 12.2944Z" fill="currentColor"/>
<path fill-rule="evenodd" clip-rule="evenodd" d="M29.1855 16.7052C29.4409 16.3791 29.9123 16.3218 30.2384 16.5772L32.1525 18.0765C32.4785 18.3319 32.5358 18.8033 32.2804 19.1294C32.025 19.4555 31.5536 19.5128 31.2275 19.2574L29.3134 17.7581C28.9873 17.5027 28.9301 17.0313 29.1855 16.7052Z" fill="currentColor"/>
<path fill-rule="evenodd" clip-rule="evenodd" d="M39.9933 4.71523C40.3033 4.71174 40.6051 4.81452 40.8485 5.00647C41.092 5.19849 41.2624 5.46814 41.3313 5.77051M39.9927 4.71523C39.0052 4.72608 36.7305 4.90517 34.5285 6.2129C32.2886 7.54321 30.2005 9.99804 29.576 14.3985C29.5384 14.6638 29.6452 14.9291 29.8561 15.0943L33.6843 18.0928C33.8971 18.2595 34.1831 18.2988 34.433 18.1956C38.5169 16.5094 40.3922 13.8944 41.1533 11.4109C41.9021 8.96735 41.5499 6.72977 41.3313 5.77074M39.8938 6.21723C38.9804 6.24 37.0948 6.43335 35.2945 7.5026C33.5188 8.5572 31.7559 10.5032 31.1274 14.1847L34.2593 16.6379C37.6489 15.1244 39.1142 12.9454 39.7191 10.9714C40.332 8.97137 40.0831 7.10554 39.8938 6.21723Z" fill="currentColor"/>
<path fill-rule="evenodd" clip-rule="evenodd" d="M33.506 8.48601C33.593 8.89099 33.3352 9.28981 32.9303 9.3768L29.3608 10.1436L27.6222 13.7816L30.3108 13.754C30.725 13.7497 31.0642 14.0821 31.0685 14.4963C31.0727 14.9105 30.7404 15.2497 30.3262 15.2539L27.4095 15.2839C27.179 15.2863 26.9516 15.2299 26.7489 15.1201C26.5461 15.0102 26.3747 14.8506 26.2507 14.6562C26.1267 14.4617 26.0543 14.239 26.0403 14.0088C26.0262 13.7786 26.071 13.5487 26.1705 13.3407L28.0375 9.43377C28.127 9.24644 28.2583 9.08214 28.4212 8.9535C28.5842 8.82485 28.7745 8.73528 28.9775 8.69168L32.6152 7.91025C33.0202 7.82326 33.419 8.08104 33.506 8.48601ZM29.2925 10.1582L29.2927 10.1582Z" fill="currentColor"/>
<path fill-rule="evenodd" clip-rule="evenodd" d="M39.2237 12.8948C39.6377 12.8823 39.9835 13.2078 39.9961 13.6218L40.1109 17.4123C40.1172 17.6198 40.0758 17.826 39.9899 18.015C39.904 18.204 39.7759 18.3708 39.6155 18.5026L36.2695 21.2511C36.0913 21.3974 35.8788 21.496 35.652 21.5375C35.4252 21.579 35.1915 21.562 34.9731 21.4882C34.7546 21.4144 34.5586 21.2862 34.4034 21.1157C34.2482 20.9451 34.139 20.7379 34.0861 20.5135L33.4166 17.6745C33.3215 17.2714 33.5713 16.8675 33.9744 16.7724C34.3776 16.6773 34.7815 16.9271 34.8765 17.3302L35.4937 19.9472L38.6094 17.3878L38.4968 13.6672C38.4842 13.2532 38.8097 12.9074 39.2237 12.8948Z" fill="currentColor"/>
<path d="M36.168 10.9787C36.5645 11.2892 37.1375 11.2196 37.448 10.8232C37.7585 10.4268 37.6889 9.85369 37.2925 9.54318C36.8961 9.23267 36.323 9.30232 36.0125 9.69873C35.702 10.0951 35.7716 10.6682 36.168 10.9787Z" fill="currentColor"/>
<path fill-rule="evenodd" clip-rule="evenodd" d="M37.7623 38.8147C37.9014 38.606 38.1356 38.4807 38.3864 38.4807H42.7492C43 38.4807 43.2341 38.606 43.3732 38.8147L44.2413 40.1168H46.0217C46.5099 40.1168 46.9781 40.3107 47.3233 40.6559C47.6685 41.0011 47.8624 41.4693 47.8624 41.9575V49.5924C47.8624 50.0806 47.6685 50.5488 47.3233 50.894C46.9781 51.2392 46.5099 51.4331 46.0217 51.4331H35.1146C34.6264 51.4331 34.1583 51.2392 33.8131 50.894C33.4679 50.5488 33.2739 50.0806 33.2739 49.5924V41.9575C33.2739 41.4693 33.4679 41.0011 33.8131 40.6559C34.1583 40.3107 34.6264 40.1168 35.1146 40.1168H36.8943L37.7623 38.8147ZM38.7877 39.9807L37.9197 41.2828C37.7806 41.4914 37.5464 41.6168 37.2957 41.6168H35.1146C35.0243 41.6168 34.9376 41.6527 34.8737 41.7166C34.8098 41.7805 34.7739 41.8671 34.7739 41.9575V49.5924C34.7739 49.6828 34.8098 49.7695 34.8737 49.8334C34.9376 49.8973 35.0243 49.9331 35.1146 49.9331H46.0217C46.1121 49.9331 46.1987 49.8973 46.2626 49.8334C46.3265 49.7695 46.3624 49.6828 46.3624 49.5924V41.9575C46.3624 41.8671 46.3265 41.7805 46.2626 41.7166C46.1987 41.6527 46.1121 41.6168 46.0217 41.6168H43.8399C43.5891 41.6168 43.355 41.4914 43.2159 41.2828L42.3478 39.9807H38.7877Z" fill="currentColor"/>
<path fill-rule="evenodd" clip-rule="evenodd" d="M40.5684 43.7981C39.6272 43.7981 38.8643 44.561 38.8643 45.5022C38.8643 46.4433 39.6272 47.2063 40.5684 47.2063C41.5095 47.2063 42.2724 46.4433 42.2724 45.5022C42.2724 44.561 41.5095 43.7981 40.5684 43.7981ZM37.3643 45.5022C37.3643 43.7326 38.7988 42.2981 40.5684 42.2981C42.3379 42.2981 43.7724 43.7326 43.7724 45.5022C43.7724 47.2718 42.3379 48.7063 40.5684 48.7063C38.7988 48.7063 37.3643 47.2718 37.3643 45.5022Z" fill="currentColor"/>
</svg>
