<svg width="86" height="60" viewBox="0 0 86 60" fill="none" xmlns="http://www.w3.org/2000/svg">
<path fill-rule="evenodd" clip-rule="evenodd" d="M33.4165 30.0247C33.4165 29.6104 33.7523 29.2747 34.1665 29.2747H46.6665C46.9173 29.2747 47.1514 29.4 47.2905 29.6086L51.2346 35.5247H58.7651L62.7091 29.6086C62.8482 29.4 63.0824 29.2747 63.3332 29.2747H75.8332C76.2474 29.2747 76.5832 29.6104 76.5832 30.0247C76.5832 30.4389 76.2474 30.7747 75.8332 30.7747H63.7346L59.7905 36.6907C59.6514 36.8993 59.4173 37.0247 59.1665 37.0247H50.8332C50.5824 37.0247 50.3482 36.8993 50.2091 36.6907L46.2651 30.7747H34.1665C33.7523 30.7747 33.4165 30.4389 33.4165 30.0247Z" fill="currentColor"/>
<path fill-rule="evenodd" clip-rule="evenodd" d="M45.0832 12.6079L64.9165 12.6079C65.8312 12.6084 66.728 12.864 67.5054 13.3461C68.2825 13.8279 68.9097 14.5169 69.3168 15.3356C69.317 15.3359 69.3171 15.3363 69.3173 15.3367L76.5038 29.6888C76.556 29.793 76.5832 29.908 76.5832 30.0246V42.5246C76.5832 43.8286 76.0652 45.0791 75.1431 46.0012C74.2211 46.9232 72.9705 47.4412 71.6665 47.4412H38.3332C37.0292 47.4412 35.7786 46.9232 34.8566 46.0012C33.9345 45.0791 33.4165 43.8286 33.4165 42.5246V30.0246C33.4165 29.908 33.4437 29.793 33.4959 29.6888L40.6824 15.3367C40.6825 15.3363 40.6827 15.3359 40.6829 15.3356C41.0899 14.5169 41.7172 13.8279 42.4943 13.3461C43.2716 12.864 44.1685 12.6084 45.0832 12.6079ZM45.0832 14.1079C44.4477 14.1083 43.8249 14.286 43.2848 14.6209C42.7446 14.9559 42.3085 15.4349 42.0257 16.0042L42.0246 16.0062L34.9165 30.2019V42.5246C34.9165 43.4307 35.2765 44.2998 35.9172 44.9405C36.558 45.5813 37.427 45.9412 38.3332 45.9412H71.6665C72.5727 45.9412 73.4417 45.5813 74.0825 44.9405C74.7232 44.2998 75.0832 43.4307 75.0832 42.5246V30.2019L67.975 16.0062L67.974 16.0042C67.6912 15.4349 67.2551 14.9559 66.7149 14.6209C66.1748 14.286 65.552 14.1083 64.9165 14.1079M64.9165 14.1079H45.0832Z" fill="currentColor"/>
<path fill-rule="evenodd" clip-rule="evenodd" d="M39.8902 12.0935C36.2078 12.0935 33.2227 15.0787 33.2227 18.7611C33.2227 22.4435 36.2078 25.4287 39.8902 25.4287C43.5726 25.4287 46.5578 22.4435 46.5578 18.7611C46.5578 15.0787 43.5726 12.0935 39.8902 12.0935ZM31.7227 18.7611C31.7227 14.2503 35.3794 10.5935 39.8902 10.5935C44.4011 10.5935 48.0578 14.2503 48.0578 18.7611C48.0578 23.2719 44.4011 26.9287 39.8902 26.9287C35.3794 26.9287 31.7227 23.2719 31.7227 18.7611Z" fill="currentColor"/>
<path fill-rule="evenodd" clip-rule="evenodd" d="M43.478 19.9658C43.8365 20.1731 43.9592 20.6319 43.7519 20.9905C43.3602 21.668 42.7971 22.2305 42.1192 22.6216C41.4414 23.0127 40.6726 23.2186 39.89 23.2186C39.1074 23.2186 38.3386 23.0128 37.6607 22.6217C36.9829 22.2306 36.4198 21.6681 36.0281 20.9906C35.8208 20.632 35.9434 20.1732 36.302 19.9659C36.6606 19.7586 37.1193 19.8812 37.3267 20.2398C37.5867 20.6895 37.9604 21.0628 38.4103 21.3224C38.8602 21.582 39.3705 21.7186 39.89 21.7186C40.4094 21.7186 40.9197 21.582 41.3696 21.3224C41.8196 21.0628 42.1933 20.6894 42.4533 20.2397C42.6606 19.8811 43.1194 19.7585 43.478 19.9658Z" fill="currentColor"/>
<path d="M37.1084 18.143C37.6204 18.143 38.0355 17.7278 38.0355 17.2158C38.0355 16.7037 37.6204 16.2886 37.1084 16.2886C36.5963 16.2886 36.1812 16.7037 36.1812 17.2158C36.1812 17.7278 36.5963 18.143 37.1084 18.143Z" fill="currentColor"/>
<path d="M42.6718 18.143C43.1839 18.143 43.599 17.7278 43.599 17.2158C43.599 16.7037 43.1839 16.2886 42.6718 16.2886C42.1597 16.2886 41.7446 16.7037 41.7446 17.2158C41.7446 17.7278 42.1597 18.143 42.6718 18.143Z" fill="currentColor"/>
<path fill-rule="evenodd" clip-rule="evenodd" d="M67.3624 5.5C63.68 5.5 60.6948 8.48518 60.6948 12.1676C60.6948 15.85 63.68 18.8352 67.3624 18.8352C71.0448 18.8352 74.03 15.85 74.03 12.1676C74.03 8.48518 71.0448 5.5 67.3624 5.5ZM59.1948 12.1676C59.1948 7.65675 62.8516 4 67.3624 4C71.8732 4 75.53 7.65675 75.53 12.1676C75.53 16.6784 71.8732 20.3352 67.3624 20.3352C62.8516 20.3352 59.1948 16.6784 59.1948 12.1676Z" fill="currentColor"/>
<path d="M64.581 11.5495C65.0931 11.5495 65.5082 11.1343 65.5082 10.6223C65.5082 10.1102 65.0931 9.69507 64.581 9.69507C64.0689 9.69507 63.6538 10.1102 63.6538 10.6223C63.6538 11.1343 64.0689 11.5495 64.581 11.5495Z" fill="currentColor"/>
<path d="M70.144 11.5495C70.6561 11.5495 71.0712 11.1343 71.0712 10.6223C71.0712 10.1102 70.6561 9.69507 70.144 9.69507C69.6319 9.69507 69.2168 10.1102 69.2168 10.6223C69.2168 11.1343 69.6319 11.5495 70.144 11.5495Z" fill="currentColor"/>
<path fill-rule="evenodd" clip-rule="evenodd" d="M68.1868 36.3359C68.1671 36.3359 68.1483 36.3438 68.1344 36.3577L55.7717 48.7203L55.2414 48.19L55.7717 48.7203C55.7648 48.7272 55.7594 48.7354 55.7556 48.7444C55.7519 48.7534 55.75 48.763 55.75 48.7728V53.3764C55.75 53.3961 55.7578 53.415 55.7717 53.4289C55.7856 53.4428 55.8045 53.4506 55.8242 53.4506H60.4278C60.4376 53.4506 60.4472 53.4487 60.4562 53.445C60.4652 53.4412 60.4734 53.4358 60.4803 53.4289L72.8429 41.0662C72.8568 41.0523 72.8647 41.0335 72.8647 41.0138C72.8647 40.9941 72.8568 40.9752 72.8429 40.9613L68.2393 36.3577L68.7696 35.8273L68.2393 36.3577C68.2254 36.3438 68.2065 36.3359 68.1868 36.3359ZM67.0737 35.297C67.3689 35.0018 67.7693 34.8359 68.1868 34.8359C68.6043 34.8359 69.0047 35.0018 69.2999 35.297L68.7757 35.8212L69.2999 35.297L73.9036 39.9007C74.1988 40.1959 74.3647 40.5963 74.3647 41.0138C74.3647 41.4313 74.1988 41.8317 73.9036 42.1269L61.541 54.4895C61.3948 54.6357 61.2212 54.7517 61.0303 54.8308C60.8393 54.9099 60.6346 54.9506 60.4278 54.9506H55.8242C55.4067 54.9506 55.0063 54.7847 54.7111 54.4895C54.4159 54.1943 54.25 53.7939 54.25 53.3764V48.7728C54.25 48.566 54.2907 48.3613 54.3698 48.1703C54.4489 47.9794 54.5649 47.8058 54.7111 47.6596L67.0737 35.297L67.604 35.8273L67.0737 35.297Z" fill="currentColor"/>
<path fill-rule="evenodd" clip-rule="evenodd" d="M64.3598 38.0109C64.6527 37.718 65.1276 37.718 65.4205 38.0109L71.1897 43.7802C71.4826 44.0731 71.4826 44.5479 71.1897 44.8408C70.8968 45.1337 70.4219 45.1337 70.129 44.8408L64.3598 39.0716C64.0669 38.7787 64.0669 38.3038 64.3598 38.0109Z" fill="currentColor"/>
<path fill-rule="evenodd" clip-rule="evenodd" d="M54.5219 47.9533C54.8148 47.6604 55.2897 47.6604 55.5826 47.9533L61.2467 53.6175C61.5396 53.9104 61.5396 54.3852 61.2467 54.6781C60.9538 54.971 60.479 54.971 60.1861 54.6781L54.5219 49.014C54.229 48.7211 54.229 48.2462 54.5219 47.9533Z" fill="currentColor"/>
<path fill-rule="evenodd" clip-rule="evenodd" d="M18 21.7625C18.4142 21.7625 18.75 22.0982 18.75 22.5125V36.5125C18.75 36.9267 18.4142 37.2625 18 37.2625C17.5858 37.2625 17.25 36.9267 17.25 36.5125V22.5125C17.25 22.0982 17.5858 21.7625 18 21.7625Z" fill="currentColor"/>
<path fill-rule="evenodd" clip-rule="evenodd" d="M10.25 29.5125C10.25 29.0982 10.5858 28.7625 11 28.7625H25C25.4142 28.7625 25.75 29.0982 25.75 29.5125C25.75 29.9267 25.4142 30.2625 25 30.2625H11C10.5858 30.2625 10.25 29.9267 10.25 29.5125Z" fill="currentColor"/>
</svg>
