<svg width="16" height="16" viewBox="0 0 16 16" fill="none" xmlns="http://www.w3.org/2000/svg">
    <path d="M6 13.5H3C2.86739 13.5 2.74021 13.4474 2.64645 13.3536C2.55268 13.2598 2.5 13.1327 2.5 13V10.2072C2.5 10.1415 2.51293 10.0765 2.53806 10.0158C2.56319 9.95515 2.60002 9.90003 2.64645 9.8536L10.1464 2.3536C10.2402 2.25983 10.3674 2.20715 10.5 2.20715C10.6326 2.20715 10.7598 2.25983 10.8536 2.3536L13.6464 5.14649C13.7402 5.24026 13.7929 5.36744 13.7929 5.50005C13.7929 5.63265 13.7402 5.75983 13.6464 5.8536L6 13.5Z" stroke="currentColor" stroke-width="1.3" stroke-linecap="round" stroke-linejoin="round"/>
    <path d="M8.5 4L12 7.5" stroke="currentColor" stroke-width="1.3" stroke-linecap="round" stroke-linejoin="round"/>
</svg>
