<svg width="16" height="16" viewBox="0 0 16 16" fill="none" xmlns="http://www.w3.org/2000/svg">
<path d="M2.5 14C3.32843 14 4 13.3284 4 12.5C4 11.6716 3.32843 11 2.5 11C1.67157 11 1 11.6716 1 12.5C1 13.3284 1.67157 14 2.5 14Z" stroke="currentColor" stroke-linecap="round" stroke-linejoin="round"/>
<path d="M6 7.5C6.82843 7.5 7.5 6.82843 7.5 6C7.5 5.17157 6.82843 4.5 6 4.5C5.17157 4.5 4.5 5.17157 4.5 6C4.5 6.82843 5.17157 7.5 6 7.5Z" stroke="currentColor" stroke-linecap="round" stroke-linejoin="round"/>
<path d="M10 11.5C10.8284 11.5 11.5 10.8284 11.5 10C11.5 9.17157 10.8284 8.5 10 8.5C9.17157 8.5 8.5 9.17157 8.5 10C8.5 10.8284 9.17157 11.5 10 11.5Z" stroke="currentColor" stroke-linecap="round" stroke-linejoin="round"/>
<path d="M13.5 5C14.3284 5 15 4.32843 15 3.5C15 2.67157 14.3284 2 13.5 2C12.6716 2 12 2.67157 12 3.5C12 4.32843 12.6716 5 13.5 5Z" stroke="currentColor" stroke-linecap="round" stroke-linejoin="round"/>
<path d="M5.28898 7.3208L3.21143 11.1791" stroke="currentColor" stroke-linecap="round" stroke-linejoin="round"/>
<path d="M8.93922 8.93922L7.06055 7.06055" stroke="currentColor" stroke-linecap="round" stroke-linejoin="round"/>
<path d="M12.789 4.8208L10.7114 8.67924" stroke="currentColor" stroke-linecap="round" stroke-linejoin="round"/>
</svg>
