<svg width="115" height="83" viewBox="0 0 115 83" fill="none" xmlns="http://www.w3.org/2000/svg">
<path d="M28.2498 70.3014C9.08317 76.0514 9.08317 60.7181 1.4165 58.8014M55.0832 81.8014V66.9664C55.227 65.1386 54.98 63.301 54.3587 61.576C53.7374 59.8509 52.7561 58.2779 51.4798 56.9614C63.5165 55.6198 76.1665 51.0581 76.1665 30.1281C76.1655 24.7761 74.1068 19.6294 70.4165 15.7531C72.1639 11.0707 72.0404 5.89511 70.0715 1.30144C70.0715 1.30144 65.5482 -0.0402288 55.0832 6.97477C46.2972 4.59359 37.0358 4.59359 28.2498 6.97477C17.7848 -0.0402288 13.2615 1.30144 13.2615 1.30144C11.2926 5.89511 11.1691 11.0707 12.9165 15.7531C9.19866 19.6581 7.13784 24.8514 7.1665 30.2431C7.1665 51.0198 19.8165 55.5814 31.8532 57.0764C30.592 58.3797 29.6193 59.9338 28.9985 61.6378C28.3777 63.3418 28.1226 65.1573 28.2498 66.9664V81.8014" stroke="currentColor" stroke-width="2" stroke-linecap="round" stroke-linejoin="round" fill="none" />
<path d="M102.479 66.0933H100.647C100.103 64.0103 98.9788 62.12 97.4023 60.6371C95.8258 59.1542 93.8601 58.1381 91.7286 57.7044C89.5971 57.2707 87.3853 57.4367 85.3445 58.1836C83.3037 58.9304 81.5157 60.2282 80.1837 61.9294C78.8517 63.6306 78.0291 65.667 77.8094 67.8073C77.5897 69.9475 77.9817 72.1058 78.9409 74.0368C79.9 75.9679 81.3878 77.5942 83.2353 78.7311C85.0827 79.868 87.2157 80.4699 89.3919 80.4683H102.479C104.408 80.4683 106.257 79.711 107.62 78.3631C108.984 77.0152 109.75 75.187 109.75 73.2808C109.75 71.3745 108.984 69.5463 107.62 68.1984C106.257 66.8505 104.408 66.0933 102.479 66.0933Z" stroke="currentColor" stroke-width="2" stroke-linecap="round" stroke-linejoin="round" fill="none" />
<rect x="96.75" y="38.4683" width="9" height="9" rx="2" stroke="currentColor" stroke-width="2" fill="none" />
<line x1="98.75" y1="38.4683" x2="98.75" y2="35.4683" stroke="currentColor" stroke-width="2" stroke-linecap="round" stroke-linejoin="round" />
<line x1="103.75" y1="38.4683" x2="103.75" y2="35.4683" stroke="currentColor" stroke-width="2" stroke-linecap="round" stroke-linejoin="round" />
<path d="M101.25 47.9683C101.25 57.9683 101.25 58.9683 94.75 58.9683" stroke="currentColor" stroke-width="2" fill="none" />
<path d="M100.667 28.3016C107.8 28.3016 113.583 22.5186 113.583 15.3849C113.583 8.25125 107.8 2.46826 100.667 2.46826C93.533 2.46826 87.75 8.25125 87.75 15.3849C87.75 22.5186 93.533 28.3016 100.667 28.3016Z" stroke="currentColor" stroke-width="2" stroke-linecap="round" stroke-linejoin="round" fill="none" />
<path d="M87.75 15.3853H113.583" stroke="currentColor" stroke-width="2" stroke-linecap="round" stroke-linejoin="round" fill="none" />
<path d="M100.667 2.46826C103.897 6.0053 105.734 10.5955 105.833 15.3849C105.734 20.1744 103.897 24.7646 100.667 28.3016C97.4358 24.7646 95.5998 20.1744 95.5 15.3849C95.5998 10.5955 97.4358 6.0053 100.667 2.46826V2.46826Z" stroke="currentColor" stroke-width="2" stroke-linecap="round" stroke-linejoin="round" fill="none" />
</svg>
