<svg width="12" height="12" viewBox="0 0 12 12" fill="none" xmlns="http://www.w3.org/2000/svg">
<path d="M11.131 4.88749C11.1197 4.83536 11.0973 4.78625 11.0655 4.74344C11.0337 4.70062 10.9931 4.66508 10.9465 4.6392L9.83201 4.0205C9.77033 3.90094 9.70292 3.78396 9.63046 3.67077L9.65192 2.39519C9.65282 2.34184 9.64233 2.28891 9.62113 2.23994C9.59994 2.19097 9.56854 2.14709 9.52904 2.11122C8.97416 1.60654 8.31685 1.22764 7.60204 1.00041C7.55124 0.984154 7.49755 0.97892 7.44457 0.985057C7.39159 0.991195 7.34052 1.00856 7.29479 1.036L6.20174 1.69186C6.06727 1.68545 5.93221 1.68534 5.79808 1.69154L4.70412 1.03513C4.65836 1.00768 4.60727 0.990309 4.55426 0.984176C4.50125 0.978042 4.44755 0.983288 4.39673 0.999562C3.68224 1.22779 3.02544 1.60759 2.47124 2.113C2.43176 2.14887 2.40038 2.19275 2.37921 2.24171C2.35803 2.29066 2.34754 2.34358 2.34844 2.39691L2.36989 3.67144C2.2972 3.78462 2.22956 3.90153 2.16779 4.02085L1.05235 4.64007C1.0057 4.66596 0.965114 4.70152 0.933301 4.74436C0.901488 4.78719 0.879182 4.83633 0.867874 4.88847C0.708248 5.62135 0.708763 6.38006 0.869385 7.11272C0.880711 7.16485 0.903024 7.21396 0.934836 7.25677C0.966648 7.29959 1.00723 7.33513 1.05386 7.36101L2.16836 7.9797C2.23004 8.09927 2.29745 8.21625 2.36991 8.32943L2.34844 9.60502C2.34755 9.65837 2.35804 9.7113 2.37923 9.76027C2.40043 9.80924 2.43182 9.85312 2.47133 9.88899C3.02621 10.3937 3.68352 10.7726 4.39833 10.9998C4.44913 11.0161 4.50281 11.0213 4.55579 11.0151C4.60878 11.009 4.65984 10.9916 4.70558 10.9642L5.79863 10.3083C5.93307 10.3147 6.06811 10.3148 6.20228 10.3087L7.29625 10.9651C7.34201 10.9925 7.3931 11.0099 7.4461 11.016C7.49911 11.0222 7.55282 11.0169 7.60364 11.0006C8.31813 10.7724 8.97492 10.3926 9.52913 9.8872C9.56861 9.85134 9.59998 9.80746 9.62116 9.7585C9.64233 9.70954 9.65282 9.65663 9.65192 9.6033L9.63048 8.32877C9.70317 8.21559 9.7708 8.09868 9.83258 7.97936L10.948 7.36014C10.9947 7.33424 11.0353 7.29869 11.0671 7.25585C11.0989 7.21301 11.1212 7.16388 11.1325 7.11174C11.2921 6.37886 11.2916 5.62015 11.131 4.88749ZM8.06268 6.00011C8.06268 6.40803 7.94172 6.80679 7.71509 7.14597C7.48846 7.48515 7.16634 7.7495 6.78947 7.90561C6.4126 8.06171 5.9979 8.10256 5.59781 8.02298C5.19773 7.94339 4.83022 7.74696 4.54178 7.45851C4.25333 7.17007 4.0569 6.80257 3.97731 6.40248C3.89773 6.00239 3.93858 5.58769 4.09468 5.21082C4.25079 4.83395 4.51514 4.51183 4.85432 4.2852C5.1935 4.05857 5.59226 3.93761 6.00018 3.93761C6.547 3.93822 7.07125 4.15572 7.45791 4.54238C7.84457 4.92904 8.06207 5.45329 8.06268 6.00011Z" fill="currentColor"/>
</svg>
