<svg width="24" height="24" viewBox="0 0 24 24" fill="none" xmlns="http://www.w3.org/2000/svg">
<path fill-rule="evenodd" clip-rule="evenodd" d="M2.75 6.375C2.75 5.82272 3.19772 5.375 3.75 5.375H20.25C20.8023 5.375 21.25 5.82272 21.25 6.375C21.25 6.92728 20.8023 7.375 20.25 7.375H3.75C3.19772 7.375 2.75 6.92728 2.75 6.375Z" fill="currentColor"/>
<path fill-rule="evenodd" clip-rule="evenodd" d="M5 10.125C5 9.57272 5.44772 9.125 6 9.125H18C18.5523 9.125 19 9.57272 19 10.125C19 10.6773 18.5523 11.125 18 11.125H6C5.44772 11.125 5 10.6773 5 10.125Z" fill="currentColor"/>
<path fill-rule="evenodd" clip-rule="evenodd" d="M2.75031 13.875C2.75031 13.3227 3.19802 12.875 3.75031 12.875H20.2497C20.802 12.875 21.2497 13.3227 21.2497 13.875C21.2497 14.4273 20.802 14.875 20.2497 14.875H3.75031C3.19802 14.875 2.75031 14.4273 2.75031 13.875Z" fill="currentColor"/>
<path fill-rule="evenodd" clip-rule="evenodd" d="M5.00031 17.625C5.00031 17.0727 5.44802 16.625 6.00031 16.625H17.9997C18.552 16.625 18.9997 17.0727 18.9997 17.625C18.9997 18.1773 18.552 18.625 17.9997 18.625H6.00031C5.44802 18.625 5.00031 18.1773 5.00031 17.625Z" fill="currentColor"/>
</svg>
