<svg width="24" height="24" viewBox="0 0 24 24" fill="none" xmlns="http://www.w3.org/2000/svg">
<path fill-rule="evenodd" clip-rule="evenodd" d="M3 9.75C3 8.92157 3.67157 8.25 4.5 8.25H19.5C20.3284 8.25 21 8.92157 21 9.75V20.25C21 21.0784 20.3284 21.75 19.5 21.75H4.5C3.67157 21.75 3 21.0784 3 20.25V9.75ZM19.5 9.75H4.5V20.25H19.5V9.75Z" fill="currentColor"/>
<path fill-rule="evenodd" clip-rule="evenodd" d="M12 3C11.3038 3 10.6361 3.27656 10.1438 3.76884C9.65156 4.26113 9.375 4.92881 9.375 5.625V9C9.375 9.41421 9.03921 9.75 8.625 9.75C8.21079 9.75 7.875 9.41421 7.875 9V5.625C7.875 4.53098 8.3096 3.48177 9.08318 2.70818C9.85677 1.9346 10.906 1.5 12 1.5C13.094 1.5 14.1432 1.9346 14.9168 2.70818C15.6904 3.48177 16.125 4.53098 16.125 5.625V9C16.125 9.41421 15.7892 9.75 15.375 9.75C14.9608 9.75 14.625 9.41421 14.625 9V5.625C14.625 4.92881 14.3484 4.26113 13.8562 3.76884C13.3639 3.27656 12.6962 3 12 3Z" fill="currentColor"/>
<path d="M12 16.125C12.6213 16.125 13.125 15.6213 13.125 15C13.125 14.3787 12.6213 13.875 12 13.875C11.3787 13.875 10.875 14.3787 10.875 15C10.875 15.6213 11.3787 16.125 12 16.125Z" fill="currentColor"/>
</svg>
