<svg width="16" height="14" viewBox="0 0 16 14" fill="none" xmlns="http://www.w3.org/2000/svg">
<path d="M14.9062 3.19314L12.6562 4.48865V1.81677C12.6562 1.19626 12.1518 0.691772 11.5312 0.691772H1.125C0.504492 0.691772 0 1.19626 0 1.81677V11.9418C0 12.5623 0.504492 13.0668 1.125 13.0668H11.5312C12.1518 13.0668 12.6562 12.5623 12.6562 11.9418V9.2699L14.9062 10.5654C15.2807 10.7816 15.75 10.5109 15.75 10.0802V3.68005C15.75 3.24763 15.2807 2.97693 14.9062 3.19314ZM11.3906 11.8011H1.26562V1.9574H11.3906V11.8011ZM14.4844 8.8656L12.6562 7.81443V5.94587L14.4844 4.89294V8.8656ZM2.53125 4.2074H4.5C4.57734 4.2074 4.64062 4.14412 4.64062 4.06677V3.22302C4.64062 3.14568 4.57734 3.0824 4.5 3.0824H2.53125C2.45391 3.0824 2.39062 3.14568 2.39062 3.22302V4.06677C2.39062 4.14412 2.45391 4.2074 2.53125 4.2074Z" fill="currentColor"/>
</svg>
