<svg width="24" height="24" viewBox="0 0 24 24" fill="none" xmlns="http://www.w3.org/2000/svg">
<path fill-rule="evenodd" clip-rule="evenodd" d="M20 1H4C2.34315 1 1 2.34315 1 4V8C1 9.65685 2.34315 11 4 11H20C21.6569 11 23 9.65685 23 8V4C23 2.34315 21.6569 1 20 1ZM3 4C3 3.44772 3.44772 3 4 3H20C20.5523 3 21 3.44772 21 4V8C21 8.55228 20.5523 9 20 9H4C3.44772 9 3 8.55228 3 8V4ZM4 13H20C21.6569 13 23 14.3431 23 16V20C23 21.6569 21.6569 23 20 23H4C2.34315 23 1 21.6569 1 20V16C1 14.3431 2.34315 13 4 13ZM3 16C3 15.4477 3.44772 15 4 15H20C20.5523 15 21 15.4477 21 16V20C21 20.5523 20.5523 21 20 21H4C3.44772 21 3 20.5523 3 20V16Z" fill="currentColor"/>
</svg>
