<svg width="24" height="24" viewBox="0 0 24 24" fill="currentColor" xmlns="http://www.w3.org/2000/svg">
<path fill-rule="evenodd" clip-rule="evenodd" d="M16.25 4.5C16.25 3.94772 16.6977 3.5 17.25 3.5H21C21.5523 3.5 22 3.94772 22 4.5V8.25C22 8.80228 21.5523 9.25 21 9.25C20.4477 9.25 20 8.80228 20 8.25V5.5H17.25C16.6977 5.5 16.25 5.05228 16.25 4.5Z" fill="currentColor"/>
<path fill-rule="evenodd" clip-rule="evenodd" d="M3 14.75C3.55228 14.75 4 15.1977 4 15.75V18.5H6.75C7.30228 18.5 7.75 18.9477 7.75 19.5C7.75 20.0523 7.30228 20.5 6.75 20.5H3C2.44772 20.5 2 20.0523 2 19.5V15.75C2 15.1977 2.44772 14.75 3 14.75Z" fill="currentColor"/>
<path fill-rule="evenodd" clip-rule="evenodd" d="M21 14.75C21.5523 14.75 22 15.1977 22 15.75V19.5C22 20.0523 21.5523 20.5 21 20.5H17.25C16.6977 20.5 16.25 20.0523 16.25 19.5C16.25 18.9477 16.6977 18.5 17.25 18.5H20V15.75C20 15.1977 20.4477 14.75 21 14.75Z" fill="currentColor"/>
<path fill-rule="evenodd" clip-rule="evenodd" d="M2 4.5C2 3.94772 2.44772 3.5 3 3.5H6.75C7.30228 3.5 7.75 3.94772 7.75 4.5C7.75 5.05228 7.30228 5.5 6.75 5.5H4V8.25C4 8.80228 3.55228 9.25 3 9.25C2.44772 9.25 2 8.80228 2 8.25V4.5Z" fill="currentColor"/>
<path fill-rule="evenodd" clip-rule="evenodd" d="M12 7.25C12.5523 7.25 13 7.69772 13 8.25V15.75C13 16.3023 12.5523 16.75 12 16.75C11.4477 16.75 11 16.3023 11 15.75V8.25C11 7.69772 11.4477 7.25 12 7.25Z" fill="currentColor"/>
<path fill-rule="evenodd" clip-rule="evenodd" d="M7.25 12C7.25 11.4477 7.69772 11 8.25 11L15.75 11C16.3023 11 16.75 11.4477 16.75 12C16.75 12.5523 16.3023 13 15.75 13L8.25 13C7.69772 13 7.25 12.5523 7.25 12Z" fill="currentColor"/>
</svg>