<svg width="16" height="16" viewBox="0 0 16 16" fill="none" xmlns="http://www.w3.org/2000/svg">
<path d="M8.5 2.5V13.5C8.5 13.6326 8.44732 13.7598 8.35355 13.8536C8.25979 13.9473 8.13261 14 8 14C7.86739 14 7.74021 13.9473 7.64645 13.8536C7.55268 13.7598 7.5 13.6326 7.5 13.5V2.5C7.5 2.36739 7.55268 2.24021 7.64645 2.14645C7.74021 2.05268 7.86739 2 8 2C8.13261 2 8.25979 2.05268 8.35355 2.14645C8.44732 2.24021 8.5 2.36739 8.5 2.5ZM6 7.5H3.5V6C3.49999 5.90111 3.47066 5.80445 3.41572 5.72223C3.36077 5.64001 3.28268 5.57592 3.19132 5.53808C3.09996 5.50023 2.99943 5.49033 2.90244 5.50961C2.80545 5.5289 2.71636 5.57651 2.64642 5.64642L0.646423 7.64642C0.552659 7.7402 0.499985 7.86739 0.499985 8C0.499985 8.13261 0.552659 8.2598 0.646423 8.35358L2.64642 10.3536C2.71636 10.4235 2.80545 10.4711 2.90244 10.4904C2.99943 10.5097 3.09996 10.4998 3.19132 10.4619C3.28268 10.4241 3.36077 10.36 3.41572 10.2778C3.47066 10.1956 3.49999 10.0989 3.5 10V8.5H6C6.13261 8.5 6.25979 8.44732 6.35355 8.35355C6.44732 8.25979 6.5 8.13261 6.5 8C6.5 7.86739 6.44732 7.74021 6.35355 7.64645C6.25979 7.55268 6.13261 7.5 6 7.5ZM15.3536 7.64642L13.3536 5.64642C13.2836 5.57651 13.1945 5.5289 13.0976 5.50961C13.0006 5.49033 12.9 5.50023 12.8087 5.53808C12.7173 5.57592 12.6392 5.64001 12.5843 5.72223C12.5293 5.80445 12.5 5.90111 12.5 6V7.5H10C9.86739 7.5 9.74021 7.55268 9.64645 7.64645C9.55268 7.74021 9.5 7.86739 9.5 8C9.5 8.13261 9.55268 8.25979 9.64645 8.35355C9.74021 8.44732 9.86739 8.5 10 8.5H12.5V10C12.5 10.0989 12.5293 10.1956 12.5843 10.2778C12.6392 10.36 12.7173 10.4241 12.8087 10.4619C12.9 10.4998 13.0006 10.5097 13.0976 10.4904C13.1945 10.4711 13.2836 10.4235 13.3536 10.3536L15.3536 8.35358C15.4473 8.2598 15.5 8.13261 15.5 8C15.5 7.86739 15.4473 7.7402 15.3536 7.64642Z" fill="currentColor"/>
</svg>
