<svg width="16" height="16" viewBox="0 0 16 16" fill="none" xmlns="http://www.w3.org/2000/svg">
<path d="M13 3.5H11.2672L10.4156 2.22266C10.37 2.15416 10.3081 2.09801 10.2356 2.05916C10.163 2.02032 10.0819 2 9.99963 2H5.99963C5.91732 2 5.83628 2.02032 5.76371 2.05916C5.69113 2.09801 5.62927 2.15416 5.58362 2.22266L4.73206 3.5H3C2.60231 3.50045 2.22105 3.65864 1.93984 3.93984C1.65864 4.22105 1.50045 4.60231 1.5 5V12C1.50045 12.3977 1.65864 12.779 1.93984 13.0602C2.22105 13.3414 2.60231 13.4995 3 13.5H13C13.3977 13.4995 13.779 13.3414 14.0602 13.0602C14.3414 12.779 14.4995 12.3977 14.5 12V5C14.4995 4.60231 14.3414 4.22105 14.0602 3.93984C13.779 3.65864 13.3977 3.50045 13 3.5ZM10.25 8.25C10.25 8.69501 10.118 9.13002 9.87081 9.50003C9.62357 9.87004 9.27217 10.1584 8.86104 10.3287C8.4499 10.499 7.9975 10.5436 7.56105 10.4568C7.12459 10.37 6.72368 10.1557 6.40901 9.84099C6.09434 9.52632 5.88005 9.12541 5.79323 8.68895C5.70642 8.2525 5.75097 7.8001 5.92127 7.38896C6.09157 6.97783 6.37996 6.62643 6.74997 6.37919C7.11998 6.13196 7.55499 6 8 6C8.59653 6.00067 9.16844 6.23794 9.59025 6.65975C10.0121 7.08156 10.2493 7.65347 10.25 8.25Z" fill="currentColor"/>
</svg>
