<svg width="16" height="16" viewBox="0 0 16 16" fill="none" xmlns="http://www.w3.org/2000/svg">
<path d="M8 5V8" stroke="currentColor" stroke-linecap="round" stroke-linejoin="round"/>
<path d="M10.5981 9.5L8 8" stroke="currentColor" stroke-linecap="round" stroke-linejoin="round"/>
<path d="M11.5104 6.23225H14.0104V3.73225" stroke="currentColor" stroke-linecap="round" stroke-linejoin="round"/>
<path d="M11.8891 11.8891C11.1199 12.6583 10.1399 13.1821 9.073 13.3943C8.0061 13.6065 6.90023 13.4976 5.89524 13.0813C4.89025 12.6651 4.03126 11.9601 3.42692 11.0556C2.82257 10.1512 2.5 9.0878 2.5 8C2.5 6.9122 2.82257 5.84883 3.42692 4.94436C4.03126 4.03989 4.89025 3.33494 5.89524 2.91866C6.90023 2.50238 8.0061 2.39346 9.073 2.60568C10.1399 2.8179 11.1199 3.34172 11.8891 4.11091L14.0104 6.23223" stroke="currentColor" stroke-linecap="round" stroke-linejoin="round"/>
</svg>
