<svg width="16" height="16" viewBox="0 0 16 16" fill="none" xmlns="http://www.w3.org/2000/svg">
<path d="M13.9996 7.50001V13C13.9993 13.2651 13.8939 13.5193 13.7064 13.7068C13.5189 13.8942 13.2648 13.9997 12.9996 14H2.99963C2.73451 13.9997 2.48033 13.8942 2.29286 13.7068C2.10539 13.5193 1.99994 13.2651 1.99963 13V3.00001C1.99994 2.73488 2.10539 2.48071 2.29286 2.29324C2.48033 2.10576 2.73451 2.00031 2.99963 2.00001H8.49963C8.63224 2.00001 8.75942 2.05269 8.85319 2.14645C8.94696 2.24022 8.99963 2.3674 8.99963 2.50001C8.99963 2.63262 8.94696 2.75979 8.85319 2.85356C8.75942 2.94733 8.63224 3.00001 8.49963 3.00001H2.99963V13H12.9996V7.50001C12.9996 7.3674 13.0523 7.24022 13.1461 7.14645C13.2398 7.05269 13.367 7.00001 13.4996 7.00001C13.6322 7.00001 13.7594 7.05269 13.8532 7.14645C13.947 7.24022 13.9996 7.3674 13.9996 7.50001ZM14.3532 4.35355L8.35321 10.3536C8.25943 10.4473 8.13225 10.5 7.99963 10.5H5.99963C5.86703 10.5 5.73985 10.4473 5.64609 10.3536C5.55232 10.2598 5.49964 10.1326 5.49963 10V8.00001C5.49963 7.86741 5.5523 7.74023 5.64606 7.64646L11.6461 1.64646C11.6925 1.60003 11.7476 1.56319 11.8083 1.53806C11.8689 1.51293 11.934 1.5 11.9996 1.5C12.0653 1.5 12.1303 1.51293 12.191 1.53806C12.2517 1.56319 12.3068 1.60003 12.3532 1.64646L14.3532 3.64646C14.447 3.74023 14.4997 3.8674 14.4997 4.00001C14.4997 4.13261 14.447 4.25979 14.3532 4.35355ZM13.2925 4.00001L11.9996 2.7071L11.2068 3.50001L12.4996 4.79292L13.2925 4.00001Z" fill="currentColor"/>
</svg>
