<svg width="16" height="16" viewBox="0 0 16 16" fill="none" xmlns="http://www.w3.org/2000/svg">
<path fill-rule="evenodd" clip-rule="evenodd" d="M13.1408 5.34775C12.1114 2.98507 9.75538 1.33334 7.01362 1.33334C3.3242 1.33334 0.333333 4.3242 0.333333 8.01362C0.333333 11.4983 3.0015 14.3598 6.40632 14.6667V12.253C5.75095 11.149 5.34593 9.90874 5.2267 8.62091H8.80226C8.76214 9.06023 8.68811 9.49499 8.5816 9.92132L11.0887 7.40632H10.0181C9.87919 5.72022 9.31824 4.1129 8.39458 2.72389C10.1876 3.19068 11.6224 4.54499 12.2019 6.28963L13.1408 5.34775ZM7.01361 2.88242C8.02761 4.1888 8.64799 5.75861 8.80054 7.40632H5.22499C5.37456 5.76822 5.99579 4.19349 7.01361 2.88242ZM5.63244 2.72394C4.70533 4.11745 4.1437 5.72824 4.00754 7.40632H1.58129C1.83215 5.13699 3.47234 3.28639 5.63244 2.72394ZM4.00913 8.62091H1.58129C1.83216 10.8903 3.47244 12.741 5.63263 13.3033C4.70897 11.9143 4.14803 10.307 4.00913 8.62091Z" fill="currentColor"/>
<path fill-rule="evenodd" clip-rule="evenodd" d="M7 12.7779V14.6452H8.86732L14.2727 9.19066L12.4054 7.32333L7 12.7779ZM15.6978 7.7656C15.8943 7.56904 15.8943 7.2742 15.6978 7.07764L14.5676 5.94742C14.371 5.75086 14.0762 5.75086 13.8796 5.94742L12.9951 6.83194L14.8624 8.69926L15.6978 7.7656Z" fill="currentColor"/>
</svg>
