<svg xmlns="http://www.w3.org/2000/svg" width="18" height="20" viewBox="0 0 18 20" fill="none">
  <path fill-rule="evenodd" clip-rule="evenodd" d="M1 3.00003C1 1.34318 2.34315 3.05176e-05 4 3.05176e-05H11.1716C11.9672 3.05176e-05 12.7303 0.316101 13.2929 0.87871L16.1213 3.70714C16.6839 4.26975 17 5.03281 17 5.82846V11C17 11.5523 16.5523 12 16 12C15.4477 12 15 11.5523 15 11V5.82846C15 5.56324 14.8946 5.30889 14.7071 5.12135L11.8787 2.29292C11.6911 2.10539 11.4368 2.00003 11.1716 2.00003H4C3.44772 2.00003 3 2.44775 3 3.00003V11C3 11.5523 2.55228 12 2 12C1.44772 12 1 11.5523 1 11V3.00003Z" fill="currentColor"/>
  <path d="M11 6.00003V1.00003L16 6.00003H11Z" fill="currentColor"/>
  <path fill-rule="evenodd" clip-rule="evenodd" d="M10.6173 0.0761497C10.991 -0.0786313 11.4211 0.00692445 11.7071 0.292922L16.7071 5.29292C16.9931 5.57892 17.0787 6.00904 16.9239 6.38271C16.7691 6.75639 16.4045 7.00003 16 7.00003H11C10.4477 7.00003 10 6.55231 10 6.00003V1.00003C10 0.595567 10.2436 0.230931 10.6173 0.0761497ZM12 3.41424V5.00003H13.5858L12 3.41424Z" fill="currentColor"/>
  <path d="M2.59399 20.0065C2.07587 20.0065 1.62012 19.9052 1.22731 19.7025C0.834507 19.4998 0.531612 19.2158 0.319192 18.8511C0.10621 18.4863 0 18.0743 0 17.6149V16.3987C0 15.9393 0.10621 15.5273 0.319192 15.162C0.532174 14.7972 0.834507 14.5133 1.22731 14.3106C1.62012 14.1079 2.07531 14.0065 2.59399 14.0065C2.92667 14.0065 3.23744 14.0539 3.52684 14.1485C3.81569 14.2432 4.05846 14.369 4.25514 14.5255C4.40799 14.6497 4.52657 14.7839 4.61086 14.927C4.69515 15.0701 4.73786 15.2093 4.73786 15.3446C4.73786 15.5501 4.66818 15.7177 4.52938 15.8475C4.39057 15.9772 4.20344 16.0418 3.9691 16.0418C3.86008 16.0418 3.76174 16.0201 3.67464 15.9766C3.58754 15.9332 3.48638 15.8497 3.37174 15.7255C3.24081 15.5852 3.1183 15.4866 3.00366 15.4298C2.88902 15.373 2.75247 15.3446 2.59456 15.3446C2.40911 15.3446 2.23996 15.3892 2.08711 15.4783C1.93426 15.5674 1.81287 15.6932 1.72296 15.8553C1.63305 16.0173 1.58809 16.1988 1.58809 16.3987V17.6149C1.58809 17.8148 1.63305 17.9958 1.72296 18.1578C1.81287 18.3198 1.93426 18.4457 2.08711 18.5348C2.23996 18.6239 2.40911 18.6684 2.59456 18.6684C2.78 18.6684 2.93005 18.6372 3.06098 18.5754C3.19192 18.5136 3.32566 18.4095 3.46166 18.263C3.56 18.1494 3.65385 18.0698 3.74376 18.0236C3.83367 17.9779 3.93595 17.9546 4.05059 17.9546C4.28492 17.9546 4.47206 18.0208 4.61086 18.1533C4.75023 18.2859 4.81935 18.4546 4.81935 18.6601C4.81935 18.7954 4.77439 18.9385 4.68448 19.09C4.59456 19.2414 4.46475 19.379 4.2956 19.5037C4.09948 19.6607 3.85503 19.7832 3.56337 19.8723C3.27172 19.9614 2.94803 20.006 2.59399 20.006V20.0065Z" fill="currentColor"/>
  <path d="M8.68694 20C8.35988 20 8.04743 19.9555 7.75015 19.8664C7.45288 19.7773 7.19775 19.6542 6.98533 19.4978C6.8218 19.368 6.69199 19.2332 6.59645 19.0924C6.50092 18.952 6.45316 18.8061 6.45316 18.6547C6.45316 18.4436 6.52396 18.2738 6.66614 18.1441C6.80775 18.0143 6.9932 17.9497 7.22247 17.9497C7.33149 17.9497 7.43096 17.9726 7.52087 18.0188C7.61079 18.065 7.71587 18.1418 7.83613 18.2499C7.99966 18.4013 8.15251 18.5082 8.29413 18.57C8.43574 18.6324 8.59702 18.663 8.77685 18.663C8.95667 18.663 9.11796 18.6402 9.24327 18.594C9.36859 18.5483 9.46019 18.4871 9.51751 18.4113C9.57483 18.3356 9.60349 18.2549 9.60349 18.168C9.60349 18.0655 9.55853 17.9776 9.46862 17.9046C9.3787 17.8317 9.26519 17.771 9.1292 17.722C8.99264 17.6735 8.80214 17.6139 8.55656 17.5438C8.15308 17.4302 7.81871 17.3166 7.55403 17.203C7.28935 17.0894 7.06007 16.9207 6.86676 16.6963C6.67288 16.4719 6.57622 16.1812 6.57622 15.8248C6.57622 15.4684 6.66614 15.1683 6.84596 14.8921C7.02579 14.6165 7.28935 14.3987 7.63551 14.2395C7.98168 14.0802 8.39753 14 8.88362 14C9.20562 14 9.51076 14.0446 9.80017 14.1337C10.089 14.2228 10.3346 14.3514 10.5363 14.519C10.6892 14.6432 10.8089 14.7774 10.8966 14.9205C10.9837 15.0636 11.0275 15.2028 11.0275 15.3381C11.0275 15.5492 10.9567 15.7179 10.8145 15.8449C10.6723 15.9718 10.4874 16.0353 10.2582 16.0353C10.1435 16.0353 10.0384 16.0125 9.94291 15.9662C9.84738 15.9206 9.74229 15.8404 9.62765 15.7268C9.48548 15.5809 9.3551 15.4796 9.23484 15.4228C9.11458 15.366 8.9651 15.3376 8.78472 15.3376C8.65378 15.3376 8.54195 15.3565 8.44923 15.3944C8.3565 15.4322 8.2857 15.4835 8.23625 15.5486C8.18736 15.6138 8.16263 15.6811 8.16263 15.7513C8.16263 15.8538 8.20759 15.9417 8.2975 16.0147C8.38741 16.0876 8.50093 16.1483 8.63692 16.1973C8.77348 16.2458 8.96398 16.3054 9.20956 16.3755C9.61866 16.4891 9.95527 16.6027 10.22 16.7163C10.4846 16.8299 10.7122 16.9986 10.9033 17.223C11.0944 17.4475 11.1899 17.7381 11.1899 18.0945C11.1899 18.4509 11.0944 18.7822 10.9033 19.0712C10.7122 19.3602 10.4284 19.5874 10.0525 19.7522C9.67598 19.9171 9.22079 19.9995 8.68581 19.9995L8.68694 20Z" fill="currentColor"/>
  <path d="M15.2782 20.0065C15.0545 20.0065 14.8652 19.9726 14.7095 19.9052C14.5538 19.8378 14.4274 19.7404 14.3291 19.6134C14.2307 19.4864 14.1436 19.3227 14.0672 19.1228L12.6106 15.1258C12.5448 14.9582 12.533 14.7945 12.5735 14.6352C12.6145 14.4759 12.7016 14.3445 12.8354 14.2421C12.9691 14.1396 13.1338 14.0878 13.3305 14.0878C13.5434 14.0878 13.7177 14.1485 13.8542 14.2705C13.9902 14.3919 14.097 14.5717 14.1734 14.8095L15.2372 18.1016H15.3192L16.383 14.8095C16.4538 14.5717 16.5589 14.3919 16.6983 14.2705C16.8376 14.1491 17.0107 14.0878 17.2181 14.0878C17.4254 14.0878 17.5862 14.1391 17.7171 14.2421C17.848 14.3445 17.934 14.4771 17.975 14.6391C18.0161 14.8011 18.0065 14.9632 17.9464 15.1258L16.4819 19.1228C16.3729 19.4257 16.2285 19.6485 16.0481 19.7916C15.8683 19.9347 15.6114 20.0065 15.2788 20.0065H15.2782Z" fill="currentColor"/>
</svg>