<svg width="16" height="16" viewBox="0 0 16 16" fill="none" xmlns="http://www.w3.org/2000/svg">
<path d="M13.3493 5.14218L9.85358 1.64642C9.84857 1.64142 9.84314 1.63702 9.83795 1.63226C9.83121 1.62607 9.82465 1.61966 9.81757 1.61383C9.81287 1.60999 9.80783 1.60663 9.80301 1.60294C9.79483 1.59668 9.78674 1.59033 9.7782 1.58456C9.77432 1.58197 9.7702 1.5798 9.76629 1.57733C9.75638 1.57108 9.74646 1.56485 9.73608 1.55927C9.73327 1.55777 9.73035 1.55661 9.72754 1.55518C9.71582 1.54913 9.70397 1.54334 9.69174 1.53824C9.68985 1.53744 9.68783 1.53686 9.68591 1.5361C9.67276 1.53082 9.65942 1.52588 9.64575 1.52173C9.64377 1.52112 9.64172 1.52075 9.63974 1.52017C9.62619 1.51623 9.61249 1.5126 9.59845 1.50979C9.59399 1.50891 9.58939 1.50851 9.5849 1.50775C9.5733 1.50574 9.56177 1.50369 9.54996 1.50253C9.53336 1.50085 9.51668 1.5 9.5 1.5H3.49951C3.23439 1.5003 2.98021 1.60576 2.79274 1.79323C2.60527 1.9807 2.49981 2.23488 2.49951 2.5V13.5C2.49981 13.7651 2.60527 14.0193 2.79274 14.2068C2.98021 14.3942 3.23439 14.4997 3.49951 14.5H12.5C12.7651 14.4997 13.0193 14.3942 13.2068 14.2068C13.3942 14.0193 13.4997 13.7651 13.5 13.5V5.50967C13.5001 5.50641 13.5005 5.50327 13.5005 5.5C13.5005 5.43327 13.4872 5.36722 13.4612 5.30575C13.4353 5.24429 13.3972 5.18866 13.3493 5.14218ZM9.5 5.5V2.70709L12.2928 5.5H9.5Z" fill="currentColor"/>
</svg>
