<svg xmlns="http://www.w3.org/2000/svg" width="18" height="20" viewBox="0 0 18 20" fill="none">
  <path fill-rule="evenodd" clip-rule="evenodd" d="M1 3C1 1.34315 2.34315 0 4 0H11.1716C11.9672 0 12.7303 0.316071 13.2929 0.87868L16.1213 3.70711C16.6839 4.26972 17 5.03278 17 5.82843V12C17 12.5523 16.5523 13 16 13C15.4477 13 15 12.5523 15 12V5.82843C15 5.56321 14.8946 5.30886 14.7071 5.12132L11.8787 2.29289C11.6911 2.10536 11.4368 2 11.1716 2H4C3.44772 2 3 2.44772 3 3V6C3 6.55228 2.55228 7 2 7C1.44772 7 1 6.55228 1 6V3Z" fill="currentColor"/>
  <path d="M11 6V1L16 6H11Z" fill="currentColor"/>
  <path fill-rule="evenodd" clip-rule="evenodd" d="M10.6173 0.0761192C10.991 -0.0786618 11.4211 0.00689393 11.7071 0.292892L16.7071 5.29289C16.9931 5.57889 17.0787 6.00901 16.9239 6.38268C16.7691 6.75636 16.4045 7 16 7H11C10.4477 7 10 6.55228 10 6V0.999999C10 0.595536 10.2436 0.2309 10.6173 0.0761192ZM12 3.41421V5H13.5858L12 3.41421Z" fill="currentColor"/>
  <path d="M2.3965 14.871C2.29397 14.8136 2.18113 14.7851 2.05701 14.7851C1.86176 14.7851 1.69987 14.8469 1.57134 14.9711C1.4428 15.0952 1.37854 15.2473 1.37854 15.4283V17.7782C1.37854 17.9592 1.35254 18.1103 1.30004 18.232C1.24755 18.3536 1.16415 18.4522 1.04985 18.5283C0.935542 18.6043 0.785424 18.6686 0.599984 18.7211C0.385599 18.7785 0.232046 18.857 0.139325 18.957C0.0466052 19.0571 0 19.1906 0 19.3569C0 19.533 0.064266 19.6846 0.192799 19.8107C0.321332 19.9367 0.483224 20 0.678476 20C1.09302 20 1.45458 19.9117 1.76414 19.7356C2.07369 19.5595 2.3131 19.3049 2.48186 18.9713C2.65062 18.6382 2.73549 18.2403 2.73549 17.7782V15.4283C2.73549 15.314 2.70458 15.207 2.64277 15.1069C2.58096 15.0069 2.49854 14.9284 2.3965 14.871Z" fill="currentColor"/>
  <path d="M6.68839 17.107C6.45733 17.0069 6.16347 16.9069 5.80633 16.8068C5.59194 16.745 5.42514 16.6925 5.30642 16.6498C5.18721 16.6071 5.0886 16.5532 5.01011 16.4889C4.93162 16.4246 4.89237 16.3471 4.89237 16.2568C4.89237 16.195 4.91396 16.1352 4.95664 16.0783C4.99932 16.0214 5.06113 15.9757 5.14257 15.9424C5.22351 15.909 5.32114 15.8923 5.43544 15.8923C5.59243 15.8923 5.72342 15.9174 5.8284 15.9674C5.9329 16.0174 6.0472 16.1067 6.17132 16.2353C6.2714 16.3353 6.36314 16.4055 6.44654 16.4462C6.52994 16.4869 6.62167 16.507 6.72175 16.507C6.92191 16.507 7.0838 16.4511 7.20743 16.3393C7.33106 16.2274 7.39336 16.0788 7.39336 15.8928C7.39336 15.7736 7.3551 15.651 7.27906 15.5249C7.20302 15.3988 7.09803 15.2811 6.96459 15.1712C6.78847 15.0235 6.57409 14.9107 6.32193 14.8317C6.06928 14.7532 5.80289 14.714 5.52179 14.714C5.09792 14.714 4.73489 14.7841 4.4322 14.9249C4.12951 15.0652 3.89992 15.257 3.74293 15.4999C3.58595 15.7427 3.50696 16.0165 3.50696 16.3216C3.50696 16.6267 3.59134 16.8917 3.76059 17.0894C3.92936 17.2871 4.12951 17.4357 4.36058 17.5358C4.59164 17.6359 4.88305 17.7359 5.23578 17.836C5.45016 17.8978 5.61647 17.9503 5.73568 17.993C5.85489 18.0357 5.9535 18.0897 6.03199 18.1539C6.11049 18.2182 6.14973 18.2957 6.14973 18.386C6.14973 18.462 6.12471 18.5336 6.07467 18.6004C6.02463 18.6671 5.94467 18.7205 5.83527 18.7613C5.72587 18.802 5.58998 18.8221 5.42809 18.8221C5.26619 18.8221 5.1303 18.7946 5.00668 18.7402C4.88256 18.6857 4.74961 18.5915 4.60685 18.4581C4.50187 18.3629 4.41062 18.2952 4.33163 18.2545C4.25314 18.2143 4.16631 18.1937 4.07113 18.1937C3.87098 18.1937 3.70908 18.2511 3.58546 18.3649C3.46183 18.4792 3.39952 18.6293 3.39952 18.8147C3.39952 18.9482 3.44123 19.0767 3.52462 19.2003C3.60802 19.3245 3.72086 19.4432 3.86411 19.5575C4.05004 19.6958 4.27227 19.8038 4.53179 19.8823C4.79131 19.9607 5.06407 20 5.34959 20C5.81614 20 6.214 19.9274 6.54269 19.7822C6.87138 19.637 7.11864 19.4368 7.28543 19.1822C7.45223 18.9276 7.53563 18.6406 7.53563 18.3217C7.53563 18.0028 7.45223 17.7516 7.28543 17.5539C7.11864 17.3562 6.91995 17.2076 6.68888 17.1075L6.68839 17.107Z" fill="currentColor"/>
  <path d="M11.668 14.9818C11.3227 14.8032 10.9238 14.714 10.4715 14.714C10.0192 14.714 9.62034 14.8032 9.27497 14.9818C8.9296 15.1604 8.6642 15.4106 8.47827 15.7319C8.29234 16.0533 8.19962 16.4168 8.19962 16.8215V17.8929C8.19962 18.2977 8.29234 18.6607 8.47827 18.982C8.6642 19.3034 8.9296 19.5536 9.27497 19.7321C9.62034 19.9107 10.0192 20 10.4715 20C10.9238 20 11.3227 19.9107 11.668 19.7321C12.0134 19.5536 12.2788 19.3034 12.4643 18.982C12.6502 18.6607 12.7429 18.2977 12.7429 17.8929V16.8215C12.7429 16.4168 12.6502 16.0537 12.4643 15.7319C12.2783 15.4106 12.0129 15.1604 11.668 14.9818ZM11.3575 17.8924C11.3575 18.0877 11.3183 18.2594 11.2398 18.4066C11.1613 18.5542 11.0553 18.6685 10.9219 18.7495C10.7884 18.8304 10.6383 18.8707 10.472 18.8707C10.3057 18.8707 10.1551 18.8304 10.0221 18.7495C9.88869 18.6685 9.78273 18.5542 9.70423 18.4066C9.62574 18.2589 9.58649 18.0877 9.58649 17.8924V16.821C9.58649 16.6258 9.62574 16.4545 9.70423 16.3069C9.78273 16.1592 9.88869 16.0449 10.0221 15.964C10.1556 15.883 10.3052 15.8423 10.472 15.8423C10.6388 15.8423 10.7884 15.883 10.9219 15.964C11.0553 16.0449 11.1613 16.1592 11.2398 16.3069C11.3183 16.4545 11.3575 16.6258 11.3575 16.821V17.8924Z" fill="currentColor"/>
  <path d="M17.9078 15.1069C17.8459 15.0069 17.7635 14.9284 17.6615 14.871C17.559 14.8136 17.4461 14.7851 17.322 14.7851C17.1268 14.7851 16.9649 14.8469 16.8363 14.9711C16.7078 15.0952 16.6435 15.2473 16.6435 15.4283V17.4927H16.5719L15.1791 15.4283C15.0222 15.2046 14.8789 15.0412 14.7504 14.9392C14.6218 14.8366 14.4717 14.7856 14.3005 14.7856C14.1053 14.7856 13.9409 14.8499 13.8075 14.9784C13.674 15.1069 13.6073 15.2639 13.6073 15.4499V19.2857C13.6073 19.4668 13.6716 19.6193 13.8001 19.743C13.9286 19.8666 14.0905 19.9289 14.2858 19.9289C14.481 19.9289 14.637 19.8671 14.768 19.743C14.899 19.6193 14.9643 19.4668 14.9643 19.2857V17.2214H15.0359L16.4287 19.2857C16.5812 19.5094 16.7225 19.6728 16.8535 19.7748C16.9845 19.8774 17.1331 19.9284 17.2999 19.9284C17.5001 19.9284 17.6664 19.8641 17.7998 19.7356C17.9333 19.6071 18 19.4501 18 19.2641V15.4283C18 15.314 17.9691 15.207 17.9073 15.1069H17.9078Z" fill="currentColor"/>
  <path d="M3.95753 10.986C3.85745 10.9336 3.7456 10.9076 3.62197 10.9076H2.70066C2.51031 10.9076 2.35431 10.9625 2.23264 11.0719C2.11098 11.1813 2.05064 11.3147 2.05064 11.4717C2.05064 11.6287 2.11147 11.7563 2.23264 11.8681C2.35431 11.98 2.50982 12.0359 2.70066 12.0359H3.02199V12.5608C2.95871 12.6192 2.89052 12.6692 2.8184 12.7109C2.67319 12.7943 2.48873 12.836 2.26502 12.836C2.10313 12.836 1.95546 12.7968 1.82203 12.7183C1.68859 12.6398 1.58262 12.5289 1.50413 12.3862C1.42563 12.2434 1.38639 12.084 1.38639 11.9079V10.8364C1.38639 10.6603 1.42563 10.5009 1.50413 10.3576C1.58262 10.2149 1.68859 10.104 1.82203 10.0255C1.95546 9.94699 2.10313 9.90775 2.26502 9.90775C2.39846 9.90775 2.51375 9.93179 2.61137 9.97937C2.709 10.027 2.81742 10.1128 2.93614 10.2364C3.04063 10.3458 3.13139 10.4209 3.20743 10.4616C3.28347 10.5023 3.36932 10.5224 3.4645 10.5224C3.66466 10.5224 3.82655 10.4665 3.95017 10.3547C4.0738 10.2428 4.13611 10.0942 4.13611 9.90824C4.13611 9.77038 4.09539 9.63793 4.01444 9.51185C3.93349 9.38577 3.82164 9.26999 3.67888 9.1655C3.50276 9.02764 3.29083 8.9202 3.04309 8.84416C2.79534 8.76812 2.53582 8.72986 2.26453 8.72986C1.81221 8.72986 1.41435 8.81914 1.07143 8.99772C0.728516 9.17629 0.464092 9.42649 0.278651 9.74782C0.0927202 10.0682 0 10.4312 0 10.8359V11.9074C0 12.3121 0.0927202 12.6751 0.278651 12.9965C0.464582 13.3178 0.728516 13.568 1.07143 13.7466C1.41435 13.9251 1.81172 14.0144 2.26453 14.0144C2.65994 14.0144 3.00973 13.9502 3.31438 13.8216C3.61903 13.6931 3.855 13.5346 4.0218 13.3467C4.1886 13.1588 4.272 12.9862 4.272 12.8287V11.5002C4.272 11.3908 4.24452 11.2907 4.19007 11.1999C4.13512 11.1097 4.05761 11.0385 3.95753 10.986Z" fill="currentColor"/>
  <path d="M7.58591 10.3041C7.31903 10.1638 7.01683 10.0931 6.67882 10.0931C6.34081 10.0931 6.03125 10.1633 5.76438 10.3041C5.4975 10.4444 5.29047 10.6362 5.14281 10.879C4.99514 11.1219 4.92155 11.3932 4.92155 11.6934V12.3792C4.92155 12.6795 4.99514 12.9508 5.14281 13.1936C5.29047 13.4364 5.49995 13.6282 5.77124 13.7686C6.04254 13.9089 6.35209 13.9795 6.69992 13.9795C6.99034 13.9795 7.24152 13.952 7.45345 13.8976C7.66538 13.8431 7.83562 13.7681 7.96415 13.6724C8.05932 13.6057 8.13193 13.5296 8.18197 13.4438C8.23201 13.3579 8.25703 13.275 8.25703 13.1936C8.25703 13.0744 8.21189 12.9733 8.12114 12.8899C8.03038 12.8065 7.91411 12.7648 7.77135 12.7648C7.71444 12.7648 7.65803 12.7732 7.60357 12.7898C7.54863 12.8065 7.47847 12.8389 7.39262 12.886C7.27832 12.9434 7.17235 12.9851 7.07472 13.0111C6.9771 13.0371 6.87113 13.0503 6.75683 13.0503C6.62339 13.0503 6.51153 13.0253 6.42127 12.9753C6.33051 12.9252 6.26428 12.8551 6.22111 12.7648C6.17843 12.6746 6.15684 12.5647 6.15684 12.4361H7.80667C7.9877 12.4361 8.13634 12.3802 8.2531 12.2684C8.36986 12.1565 8.42824 12.0172 8.42824 11.8504V11.6934C8.42824 11.3932 8.35416 11.1219 8.20699 10.879C8.05932 10.6362 7.8523 10.4444 7.58542 10.3041H7.58591ZM6.40753 11.1469C6.48357 11.1017 6.57433 11.0792 6.67882 11.0792C6.78332 11.0792 6.86819 11.1032 6.94668 11.1508C7.02517 11.1984 7.08601 11.2661 7.12869 11.3544C7.16891 11.4373 7.18952 11.5364 7.19197 11.6507H6.15733C6.15831 11.5349 6.18039 11.4334 6.22503 11.347C6.27017 11.2592 6.331 11.1925 6.40704 11.1469H6.40753Z" fill="currentColor"/>
  <path d="M11.6754 10.3041C11.406 10.1638 11.0955 10.0931 10.7433 10.0931C10.391 10.0931 10.0859 10.1633 9.8146 10.3041C9.54331 10.4444 9.33334 10.6362 9.18616 10.879C9.0385 11.1219 8.96491 11.3932 8.96491 11.6934V12.3792C8.96491 12.6795 9.0385 12.9508 9.18616 13.1936C9.33383 13.4364 9.54331 13.6282 9.8146 13.7686C10.0859 13.9089 10.3954 13.9795 10.7433 13.9795C11.0911 13.9795 11.4065 13.9094 11.6754 13.7686C11.9442 13.6282 12.1527 13.4364 12.3004 13.1936C12.448 12.9508 12.5216 12.6795 12.5216 12.3792V11.6934C12.5216 11.3932 12.4476 11.1219 12.3004 10.879C12.1527 10.6362 11.9442 10.4444 11.6754 10.3041ZM11.2859 12.3792C11.2859 12.4935 11.2618 12.5961 11.2142 12.6863C11.1666 12.7766 11.1024 12.8472 11.0214 12.8968C10.9405 12.9468 10.8478 12.9718 10.7428 12.9718C10.6378 12.9718 10.5524 12.9468 10.4715 12.8968C10.3905 12.8468 10.3253 12.7766 10.2753 12.6863C10.2252 12.5961 10.2002 12.4935 10.2002 12.3792V11.6934C10.2002 11.5791 10.2252 11.478 10.2753 11.3897C10.3253 11.3019 10.3905 11.2327 10.4715 11.1827C10.5524 11.1327 10.6427 11.1076 10.7428 11.1076C10.8429 11.1076 10.9405 11.1327 11.0214 11.1827C11.1024 11.2327 11.1666 11.3019 11.2142 11.3897C11.2618 11.478 11.2859 11.5791 11.2859 11.6934V12.3792Z" fill="currentColor"/>
</svg>