<svg width="16" height="16" viewBox="0 0 16 16" fill="none" xmlns="http://www.w3.org/2000/svg">
<path d="M13.5 2.5H2.5C2.23478 2.5 1.98043 2.60536 1.79289 2.79289C1.60536 2.98043 1.5 3.23478 1.5 3.5V12.5C1.5 12.7652 1.60536 13.0196 1.79289 13.2071C1.98043 13.3946 2.23478 13.5 2.5 13.5H13.5C13.7652 13.5 14.0196 13.3946 14.2071 13.2071C14.3946 13.0196 14.5 12.7652 14.5 12.5V3.5C14.5 3.23478 14.3946 2.98043 14.2071 2.79289C14.0196 2.60536 13.7652 2.5 13.5 2.5ZM9.75 5.5C9.89834 5.5 10.0433 5.54399 10.1667 5.6264C10.29 5.70881 10.3861 5.82594 10.4429 5.96299C10.4997 6.10003 10.5145 6.25083 10.4856 6.39632C10.4566 6.5418 10.3852 6.67544 10.2803 6.78033C10.1754 6.88522 10.0418 6.95665 9.89632 6.98559C9.75083 7.01453 9.60003 6.99968 9.46299 6.94291C9.32594 6.88614 9.20881 6.79001 9.1264 6.66668C9.04399 6.54334 9 6.39834 9 6.25C9 6.05109 9.07902 5.86032 9.21967 5.71967C9.36032 5.57902 9.55109 5.5 9.75 5.5ZM2.5 12.5V10.75L5.75 7.5L10.75 12.5H2.5ZM13.5 12.5H12.1644L9.91438 10.25L11.1644 9L13.5 11.3363V12.5Z" fill="currentColor"/>
</svg>
