<svg width="24" height="24" viewBox="0 0 24 24" fill="none" xmlns="http://www.w3.org/2000/svg">
<path fill-rule="evenodd" clip-rule="evenodd" d="M11 13.5858V2C11 1.44772 11.4477 1 12 1C12.5523 1 13 1.44772 13 2V13.5858L15.2929 11.2929C15.6834 10.9024 16.3166 10.9024 16.7071 11.2929C17.0976 11.6834 17.0976 12.3166 16.7071 12.7071L12.7071 16.7071C12.3166 17.0976 11.6834 17.0976 11.2929 16.7071L7.29289 12.7071C6.90237 12.3166 6.90237 11.6834 7.29289 11.2929C7.68342 10.9024 8.31658 10.9024 8.70711 11.2929L11 13.5858ZM2 17V20C2 21.6569 3.34315 23 5 23H19C20.6569 23 22 21.6569 22 20V17C22 16.4477 21.5523 16 21 16C20.4477 16 20 16.4477 20 17V20C20 20.5523 19.5523 21 19 21H5C4.44772 21 4 20.5523 4 20V17C4 16.4477 3.55228 16 3 16C2.44772 16 2 16.4477 2 17Z" fill="currentColor"/>
</svg>
