<svg width="16" height="16" viewBox="0 0 16 16" fill="none" xmlns="http://www.w3.org/2000/svg">
<path d="M0.751953 6.93414L7.75195 10.9341C7.8275 10.9773 7.913 11 8 11C8.087 11 8.1725 10.9773 8.24805 10.9341L15.248 6.93414C15.3246 6.89041 15.3882 6.82722 15.4324 6.75098C15.4767 6.67474 15.5 6.58815 15.5 6.5C15.5 6.41185 15.4767 6.32526 15.4324 6.24902C15.3882 6.17278 15.3246 6.10959 15.248 6.06586L8.24805 2.06586C8.1725 2.02272 8.087 2.00003 8 2.00003C7.913 2.00003 7.8275 2.02272 7.75195 2.06586L0.751953 6.06586C0.675415 6.10959 0.611798 6.17278 0.567551 6.24902C0.523304 6.32526 0.5 6.41185 0.5 6.5C0.5 6.58815 0.523304 6.67474 0.567551 6.75098C0.611798 6.82722 0.675415 6.89041 0.751953 6.93414Z" fill="currentColor"/>
<path d="M14.752 8.56586L8 12.4241L1.24805 8.56586C1.19103 8.53329 1.12816 8.51226 1.06303 8.50399C0.997888 8.49571 0.931757 8.50035 0.86841 8.51763C0.805063 8.53491 0.74574 8.5645 0.693827 8.6047C0.641915 8.64491 0.598431 8.69495 0.565857 8.75196C0.533283 8.80897 0.512257 8.87184 0.503981 8.93698C0.495704 9.00212 0.500338 9.06825 0.517619 9.1316C0.534899 9.19494 0.564488 9.25427 0.604695 9.30618C0.644902 9.35809 0.694941 9.40158 0.751953 9.43415L7.75195 13.4342C7.8275 13.4773 7.913 13.5 8 13.5C8.087 13.5 8.1725 13.4773 8.24805 13.4342L15.248 9.43415C15.3051 9.40158 15.3551 9.35809 15.3953 9.30618C15.4355 9.25427 15.4651 9.19494 15.4824 9.1316C15.4997 9.06825 15.5043 9.00212 15.496 8.93698C15.4877 8.87184 15.4667 8.80897 15.4341 8.75196C15.4016 8.69495 15.3581 8.64491 15.3062 8.6047C15.2543 8.5645 15.1949 8.53491 15.1316 8.51763C15.0682 8.50035 15.0021 8.49571 14.937 8.50399C14.8718 8.51226 14.809 8.53329 14.752 8.56586Z" fill="currentColor"/>
</svg>
