<svg width="16" height="16" viewBox="0 0 16 16" fill="none" xmlns="http://www.w3.org/2000/svg">
<path d="M14 3.5V4.5C14 4.63261 13.9473 4.75979 13.8536 4.85355C13.7598 4.94732 13.6326 5 13.5 5H6C5.86739 5 5.74021 4.94732 5.64645 4.85355C5.55268 4.75979 5.5 4.63261 5.5 4.5V3.5C5.5 3.36739 5.55268 3.24021 5.64645 3.14645C5.74021 3.05268 5.86739 3 6 3H13.5C13.6326 3 13.7598 3.05268 13.8536 3.14645C13.9473 3.24021 14 3.36739 14 3.5ZM3.5 3H2.5C2.36739 3 2.24021 3.05268 2.14645 3.14645C2.05268 3.24021 2 3.36739 2 3.5V4.5C2 4.63261 2.05268 4.75979 2.14645 4.85355C2.24021 4.94732 2.36739 5 2.5 5H3.5C3.63261 5 3.75979 4.94732 3.85355 4.85355C3.94732 4.75979 4 4.63261 4 4.5V3.5C4 3.36739 3.94732 3.24021 3.85355 3.14645C3.75979 3.05268 3.63261 3 3.5 3ZM13.5 7H6C5.86739 7 5.74021 7.05268 5.64645 7.14645C5.55268 7.24021 5.5 7.36739 5.5 7.5V8.5C5.5 8.63261 5.55268 8.75979 5.64645 8.85355C5.74021 8.94732 5.86739 9 6 9H13.5C13.6326 9 13.7598 8.94732 13.8536 8.85355C13.9473 8.75979 14 8.63261 14 8.5V7.5C14 7.36739 13.9473 7.24021 13.8536 7.14645C13.7598 7.05268 13.6326 7 13.5 7ZM3.5 7H2.5C2.36739 7 2.24021 7.05268 2.14645 7.14645C2.05268 7.24021 2 7.36739 2 7.5V8.5C2 8.63261 2.05268 8.75979 2.14645 8.85355C2.24021 8.94732 2.36739 9 2.5 9H3.5C3.63261 9 3.75979 8.94732 3.85355 8.85355C3.94732 8.75979 4 8.63261 4 8.5V7.5C4 7.36739 3.94732 7.24021 3.85355 7.14645C3.75979 7.05268 3.63261 7 3.5 7ZM13.5 11H6C5.86739 11 5.74021 11.0527 5.64645 11.1464C5.55268 11.2402 5.5 11.3674 5.5 11.5V12.5C5.5 12.6326 5.55268 12.7598 5.64645 12.8536C5.74021 12.9473 5.86739 13 6 13H13.5C13.6326 13 13.7598 12.9473 13.8536 12.8536C13.9473 12.7598 14 12.6326 14 12.5V11.5C14 11.3674 13.9473 11.2402 13.8536 11.1464C13.7598 11.0527 13.6326 11 13.5 11ZM3.5 11H2.5C2.36739 11 2.24021 11.0527 2.14645 11.1464C2.05268 11.2402 2 11.3674 2 11.5V12.5C2 12.6326 2.05268 12.7598 2.14645 12.8536C2.24021 12.9473 2.36739 13 2.5 13H3.5C3.63261 13 3.75979 12.9473 3.85355 12.8536C3.94732 12.7598 4 12.6326 4 12.5V11.5C4 11.3674 3.94732 11.2402 3.85355 11.1464C3.75979 11.0527 3.63261 11 3.5 11Z" fill="currentColor"/>
</svg>
