<svg width="16" height="16" viewBox="0 0 16 16" fill="none" xmlns="http://www.w3.org/2000/svg">
<path d="M3.13807 10.1952C2.87772 9.93489 2.45561 9.93489 2.19526 10.1952C1.93491 10.4556 1.93491 10.8777 2.19526 11.138L4.86193 13.8047C5.12228 14.0651 5.54439 14.0651 5.80474 13.8047L8.4714 11.138C8.73175 10.8777 8.73175 10.4556 8.4714 10.1952C8.21106 9.93489 7.78895 9.93489 7.5286 10.1952L5.33333 12.3905L3.13807 10.1952Z" fill="currentColor"/>
<path d="M4.66666 2.70831L4.66665 12.625C4.66665 13.0162 4.96513 13.3333 5.33332 13.3333C5.70151 13.3333 5.99999 13.0162 5.99999 12.625L5.99999 2.70831C5.99999 2.31711 5.70151 1.99998 5.33332 1.99998C4.96513 1.99998 4.66666 2.31711 4.66666 2.70831Z" fill="currentColor"/>
<path fill-rule="evenodd" clip-rule="evenodd" d="M10.6667 2C11.0349 2 11.3333 2.29848 11.3333 2.66667V6H14C14.3682 6 14.6667 6.29848 14.6667 6.66667C14.6667 7.03486 14.3682 7.33333 14 7.33333H10.6667C10.2985 7.33333 10 7.03486 10 6.66667V2.66667C10 2.29848 10.2985 2 10.6667 2Z" fill="currentColor"/>
<path d="M14.6667 12.2638C14.6667 11.685 14.2778 11.0827 13.3525 10.6457C12.9502 10.4567 12.3467 10.2205 11.9981 10.0669C11.6897 9.93701 11.5556 9.72441 11.5556 9.54724C11.5556 9.2874 11.8103 9.06299 12.2663 9.06299C12.7356 9.06299 12.977 9.22835 13.1111 9.34646C13.2854 9.51181 13.4866 9.58268 13.6609 9.58268C14.023 9.58268 14.3314 9.31102 14.3314 8.99213C14.3314 8.5315 13.5 8 12.2663 8C10.9789 8 10.228 8.77953 10.228 9.58268C10.228 10.1614 10.6034 10.7402 11.4349 11.0591C13.0038 11.685 13.2989 11.9094 13.2989 12.2874C13.2989 12.5591 13.0172 12.8898 12.3065 12.8898C11.7567 12.8898 11.408 12.689 11.2203 12.4764C11.0728 12.2992 10.8716 12.2283 10.6839 12.2283C10.3352 12.2283 10 12.4764 10 12.7953C10 13.185 10.6839 14 12.3199 14C13.6609 14 14.6667 13.185 14.6667 12.2638Z" fill="currentColor"/>
</svg>
