<svg width="24" height="24" viewBox="0 0 24 24" fill="none" xmlns="http://www.w3.org/2000/svg">
<path fill-rule="evenodd" clip-rule="evenodd" d="M11.9899 8.00645C10.2394 8.00645 8.82032 9.42551 8.82032 11.176C8.82032 12.9265 10.2394 14.3456 11.9899 14.3456C13.7404 14.3456 15.1595 12.9265 15.1595 11.176C15.1595 9.42551 13.7404 8.00645 11.9899 8.00645ZM6.81848 11.176C6.81848 8.31993 9.1338 6.00461 11.9899 6.00461C14.846 6.00461 17.1613 8.31993 17.1613 11.176C17.1613 14.0321 14.846 16.3474 11.9899 16.3474C9.1338 16.3474 6.81848 14.0321 6.81848 11.176Z" fill="currentColor"/>
<path fill-rule="evenodd" clip-rule="evenodd" d="M11.9899 16.3474C10.7887 16.3475 9.61098 16.6798 8.58703 17.3078C7.56309 17.9358 6.73288 18.8349 6.18833 19.9055C5.93772 20.3983 5.33513 20.5945 4.84241 20.3439C4.34969 20.0933 4.15342 19.4907 4.40403 18.998C5.11606 17.5981 6.2016 16.4225 7.54046 15.6014C8.87933 14.7802 10.4193 14.3456 11.9899 14.3456C13.5605 14.3456 15.1005 14.7802 16.4394 15.6013C17.7782 16.4224 18.8638 17.598 19.5758 18.998C19.8264 19.4907 19.6301 20.0933 19.1374 20.3439C18.6447 20.5945 18.0421 20.3982 17.7915 19.9055C17.2469 18.8349 16.4167 17.9358 15.3928 17.3078C14.3688 16.6798 13.1911 16.3474 11.9899 16.3474Z" fill="currentColor"/>
<path fill-rule="evenodd" clip-rule="evenodd" d="M15.9936 4.50324C15.9936 3.95045 16.4417 3.50232 16.9945 3.50232H21.9991C22.5519 3.50232 23 3.95045 23 4.50324C23 5.05603 22.5519 5.50416 21.9991 5.50416H16.9945C16.4417 5.50416 15.9936 5.05603 15.9936 4.50324Z" fill="currentColor"/>
<path fill-rule="evenodd" clip-rule="evenodd" d="M19.4968 1.00003C20.0496 1.00003 20.4977 1.44816 20.4977 2.00095V7.00555C20.4977 7.55834 20.0496 8.00646 19.4968 8.00646C18.944 8.00646 18.4959 7.55834 18.4959 7.00555V2.00095C18.4959 1.44816 18.944 1.00003 19.4968 1.00003Z" fill="currentColor"/>
<path fill-rule="evenodd" clip-rule="evenodd" d="M13.4116 3.11327C11.5346 2.81511 9.61135 3.11894 7.91764 3.98121C6.22393 4.84347 4.84674 6.21989 3.98351 7.91311C3.12029 9.60634 2.81537 11.5294 3.11247 13.4066C3.40957 15.2838 4.29344 17.0187 5.63734 18.3626C6.98124 19.7066 8.71617 20.5904 10.5934 20.8875C12.4706 21.1846 14.3936 20.8797 16.0869 20.0165C17.7801 19.1533 19.1565 17.7761 20.0188 16.0824C20.8811 14.3887 21.1849 12.4654 20.8867 10.5884C20.8 10.0424 21.1723 9.52956 21.7182 9.44284C22.2642 9.35612 22.7771 9.72839 22.8638 10.2743C23.2283 12.569 22.8568 14.9201 21.8027 16.9906C20.7486 19.0611 19.066 20.7447 16.9961 21.7999C14.9262 22.8552 12.5753 23.228 10.2804 22.8647C7.98561 22.5015 5.86471 21.421 4.22183 19.7782C2.57894 18.1353 1.49844 16.0144 1.13524 13.7195C0.772046 11.4247 1.1448 9.07381 2.20007 7.00389C3.25533 4.93398 4.93891 3.25135 7.00943 2.19725C9.07994 1.14315 11.4311 0.771724 13.7257 1.13622C14.2716 1.22294 14.6439 1.73582 14.5572 2.28177C14.4705 2.82771 13.9576 3.19999 13.4116 3.11327Z" fill="currentColor"/>
</svg>
