<svg width="16" height="16" viewBox="0 0 16 16" fill="none" xmlns="http://www.w3.org/2000/svg">
<path d="M13.8508 9.33466C13.954 8.87995 14.004 8.41478 13.9998 7.94852C13.972 4.64668 11.2401 1.96705 7.9383 2.00031C6.52808 2.01505 5.1681 2.52599 4.09703 3.44347C3.02597 4.36095 2.31225 5.62634 2.08113 7.01757C1.85001 8.4088 2.11626 9.83699 2.83315 11.0515C3.55005 12.266 4.67178 13.1892 6.00149 13.6591C6.22773 13.7388 6.46979 13.7631 6.70735 13.7299C6.94491 13.6967 7.17105 13.6071 7.36681 13.4685C7.56256 13.3298 7.72222 13.1463 7.8324 12.9332C7.94257 12.7201 8.00004 12.4838 7.99999 12.2439V12C7.99999 11.6022 8.15803 11.2206 8.43933 10.9393C8.72064 10.658 9.10217 10.5 9.49999 10.5H12.3881C12.7279 10.5002 13.0576 10.385 13.3234 10.1733C13.5892 9.96161 13.7751 9.66591 13.8508 9.33466V9.33466Z" stroke="currentColor" stroke-linecap="round" stroke-linejoin="round"/>
<path d="M8 5.5C8.41421 5.5 8.75 5.16421 8.75 4.75C8.75 4.33579 8.41421 4 8 4C7.58579 4 7.25 4.33579 7.25 4.75C7.25 5.16421 7.58579 5.5 8 5.5Z" fill="currentColor"/>
<path d="M5.18542 7.125C5.59964 7.125 5.93542 6.78921 5.93542 6.375C5.93542 5.96079 5.59964 5.625 5.18542 5.625C4.77121 5.625 4.43542 5.96079 4.43542 6.375C4.43542 6.78921 4.77121 7.125 5.18542 7.125Z" fill="currentColor"/>
<path d="M5.18542 10.375C5.59964 10.375 5.93542 10.0392 5.93542 9.625C5.93542 9.21079 5.59964 8.875 5.18542 8.875C4.77121 8.875 4.43542 9.21079 4.43542 9.625C4.43542 10.0392 4.77121 10.375 5.18542 10.375Z" fill="currentColor"/>
<path d="M10.8146 7.125C11.2288 7.125 11.5646 6.78921 11.5646 6.375C11.5646 5.96079 11.2288 5.625 10.8146 5.625C10.4004 5.625 10.0646 5.96079 10.0646 6.375C10.0646 6.78921 10.4004 7.125 10.8146 7.125Z" fill="currentColor"/>
</svg>
