<svg width="16" height="16" viewBox="0 0 16 16" fill="none" xmlns="http://www.w3.org/2000/svg">
<path d="M14 4.79291L11.2071 2C11.1143 1.90714 11.004 1.83347 10.8827 1.78322C10.7614 1.73296 10.6313 1.70709 10.5 1.70709C10.3687 1.70709 10.2387 1.73296 10.1173 1.78322C9.99601 1.83347 9.88577 1.90714 9.79291 2L8.14655 3.64636L8.14646 3.64645L8.14637 3.64655L2.29294 9.49997C2.19978 9.59261 2.12592 9.70281 2.07563 9.82419C2.02535 9.94556 1.99965 10.0757 2 10.2071V13C2.00031 13.2651 2.10576 13.5193 2.29323 13.7068C2.4807 13.8942 2.73488 13.9997 3 14H5.79291C5.92429 14.0004 6.05443 13.9747 6.1758 13.9244C6.29717 13.8741 6.40737 13.8002 6.5 13.7071L14 6.20709C14.1873 6.0194 14.2924 5.76511 14.2924 5.49999C14.2924 5.23488 14.1873 4.98059 14 4.79291ZM12 6.79291L9.20711 4L10.5 2.70709L13.2929 5.5L12 6.79291Z" fill="currentColor"/>
</svg>
