<svg width="16" height="16" viewBox="0 0 16 16" fill="none" xmlns="http://www.w3.org/2000/svg">
<path d="M1.74073 8.42664L10.7393 13.9259C10.8151 13.9723 10.9018 13.9975 10.9906 13.9992C11.0794 14.0009 11.1671 13.9788 11.2446 13.9354C11.3221 13.8919 11.3866 13.8286 11.4314 13.752C11.4763 13.6753 11.5 13.5881 11.5 13.4993L11.5 2.50072C11.5 2.41189 11.4763 2.32467 11.4314 2.24802C11.3866 2.17137 11.3221 2.10807 11.2446 2.06462C11.1671 2.02117 11.0795 1.99914 10.9906 2.00081C10.9018 2.00247 10.8151 2.02776 10.7393 2.07408L1.74073 7.57337C1.66764 7.61804 1.60726 7.68073 1.56536 7.75543C1.52346 7.83014 1.50146 7.91436 1.50146 8.00001C1.50146 8.08566 1.52346 8.16988 1.56536 8.24458C1.60726 8.31929 1.66764 8.38198 1.74073 8.42664Z" stroke="currentColor" stroke-width="1.5" stroke-linecap="round" stroke-linejoin="round"/>
</svg>
