<svg width="20" height="20" viewBox="0 0 20 20" fill="none" xmlns="http://www.w3.org/2000/svg">
<path d="M7.99927 17.5C7.9336 17.5 7.86858 17.4865 7.80791 17.4603C7.74725 17.4342 7.69212 17.3958 7.64569 17.3474C7.59926 17.2991 7.56242 17.2416 7.5373 17.1785C7.51217 17.1153 7.49923 17.0475 7.49923 16.9791L7.49927 14.1993C7.23251 14.3309 6.93814 14.3901 6.64352 14.3714C6.34891 14.3526 6.06363 14.2566 5.81422 14.0922C5.5648 13.9278 5.35937 13.7003 5.21701 13.431C5.07465 13.1616 5 12.8591 5 12.5517C5 12.2442 5.07465 11.9418 5.21701 11.6724C5.35937 11.4031 5.5648 11.1756 5.81422 11.0112C6.06363 10.8468 6.34891 10.7507 6.64352 10.732C6.93814 10.7133 7.23251 10.7725 7.49927 10.9041L7.49923 8.12425C7.49923 8.05585 7.51217 7.98812 7.5373 7.92492C7.56243 7.86172 7.59926 7.8043 7.64569 7.75593C7.69213 7.70757 7.74725 7.6692 7.80792 7.64302C7.86859 7.61684 7.93361 7.60337 7.99928 7.60337L10.9179 7.60341C10.7916 7.32554 10.7347 7.0189 10.7527 6.71201C10.7707 6.40512 10.8629 6.10795 11.0207 5.84814C11.1786 5.58834 11.397 5.37434 11.6555 5.22605C11.9141 5.07776 12.2044 5 12.4996 5C12.7948 5 13.0851 5.07776 13.3437 5.22605C13.6023 5.37434 13.8206 5.58834 13.9785 5.84814C14.1363 6.10795 14.2285 6.40512 14.2465 6.71201C14.2645 7.0189 14.2076 7.32554 14.0813 7.60341L16.9999 7.60337C17.1325 7.60337 17.2597 7.65825 17.3535 7.75593C17.4473 7.85361 17.5 7.9861 17.5 8.12424L17.5 10.9041C17.2332 10.7725 16.9389 10.7133 16.6443 10.732C16.3496 10.7507 16.0644 10.8468 15.8149 11.0112C15.5655 11.1756 15.3601 11.4031 15.2177 11.6724C15.0754 11.9418 15.0007 12.2442 15.0007 12.5517C15.0007 12.8591 15.0754 13.1616 15.2177 13.431C15.3601 13.7003 15.5655 13.9278 15.8149 14.0922C16.0644 14.2566 16.3496 14.3526 16.6443 14.3714C16.9389 14.3901 17.2332 14.3309 17.5 14.1993L17.5 16.9791C17.5 17.1173 17.4473 17.2498 17.3535 17.3474C17.2597 17.4451 17.1325 17.5 16.9999 17.5L7.99927 17.5Z" stroke="currentColor" stroke-linecap="round" stroke-linejoin="round"/>
<path d="M3.75 1.25L3.75 7.5" stroke="currentColor" stroke-linecap="round" stroke-linejoin="round"/>
<path d="M1.25 5L3.75 7.5L6.25 5" stroke="currentColor" stroke-linecap="round" stroke-linejoin="round"/>
</svg>
