<svg width="16" height="16" viewBox="0 0 16 16" fill="none" xmlns="http://www.w3.org/2000/svg">
<path d="M3.99999 13.5C3.93433 13.5 3.86931 13.4871 3.80865 13.4619C3.74798 13.4368 3.69286 13.4 3.64643 13.3536C3.60001 13.3071 3.56318 13.252 3.53805 13.1913C3.51292 13.1307 3.49999 13.0657 3.49999 13L3.50002 10.3316C3.23329 10.4579 2.93893 10.5147 2.64434 10.4967C2.34975 10.4788 2.06449 10.3866 1.8151 10.2287C1.56571 10.0709 1.36028 9.85257 1.21794 9.59403C1.07559 9.33548 1.00095 9.04514 1.00095 8.75C1.00095 8.45486 1.07559 8.16451 1.21794 7.90597C1.36028 7.64743 1.56571 7.42908 1.8151 7.27125C2.06449 7.11342 2.34975 7.02123 2.64434 7.00325C2.93893 6.98527 3.23329 7.04209 3.50002 7.16842L3.49999 4.50001C3.49999 4.43434 3.51292 4.36932 3.53805 4.30866C3.56318 4.248 3.60001 4.19288 3.64644 4.14645C3.69287 4.10002 3.74799 4.06319 3.80865 4.03806C3.86932 4.01293 3.93434 4 4 4L6.91841 4.00003C6.79208 3.7333 6.73526 3.43895 6.75323 3.14435C6.77121 2.84976 6.86341 2.56451 7.02124 2.31511C7.17907 2.06572 7.39741 1.8603 7.65595 1.71795C7.9145 1.57561 8.20484 1.50096 8.49998 1.50096C8.79512 1.50096 9.08546 1.57561 9.34401 1.71795C9.60255 1.8603 9.82089 2.06572 9.97872 2.31511C10.1366 2.56451 10.2287 2.84976 10.2467 3.14435C10.2647 3.43895 10.2079 3.7333 10.0816 4.00003L13 4C13.1326 4 13.2597 4.05268 13.3535 4.14644C13.4473 4.24021 13.5 4.36739 13.5 4.49999L13.5 7.16842C13.2333 7.04209 12.9389 6.98527 12.6443 7.00325C12.3497 7.02123 12.0645 7.11342 11.8151 7.27125C11.5657 7.42908 11.3603 7.64743 11.2179 7.90597C11.0756 8.16451 11.0009 8.45486 11.0009 8.75C11.0009 9.04514 11.0756 9.33548 11.2179 9.59403C11.3603 9.85257 11.5657 10.0709 11.8151 10.2287C12.0645 10.3866 12.3497 10.4788 12.6443 10.4967C12.9389 10.5147 13.2333 10.4579 13.5 10.3316L13.5 13C13.5 13.1326 13.4473 13.2598 13.3535 13.3536C13.2597 13.4473 13.1326 13.5 13 13.5L3.99999 13.5Z" stroke="currentColor" stroke-linecap="round" stroke-linejoin="round"/>
</svg>
