<svg width="16" height="16" viewBox="0 0 16 16" fill="none" xmlns="http://www.w3.org/2000/svg">
<path d="M8.00006 11.0001C9.65692 11.0001 11.0001 9.65698 11.0001 8.00012C11.0001 6.34327 9.65692 5.00012 8.00006 5.00012C6.34321 5.00012 5.00006 6.34327 5.00006 8.00012C5.00006 9.65698 6.34321 11.0001 8.00006 11.0001Z" stroke="currentColor" stroke-linecap="round" stroke-linejoin="round"/>
<path d="M12.3379 5.04066C12.4858 5.25779 12.6171 5.48573 12.7309 5.72254L14.3525 6.62275C14.55 7.52992 14.5507 8.4689 14.3545 9.37635L12.7319 10.2771C12.6178 10.5137 12.4861 10.7414 12.3379 10.9583L12.3691 12.8128C11.6822 13.4375 10.8694 13.9075 9.98542 14.1913L8.39411 13.2365C8.13213 13.256 7.86905 13.2558 7.6071 13.2359L6.01668 14.1902C5.13229 13.9077 4.31877 13.4388 3.63099 12.8151L3.66222 10.9596C3.51434 10.7425 3.38298 10.5145 3.26926 10.2777L1.64762 9.3775C1.4501 8.47033 1.44942 7.53135 1.64563 6.62389L3.26817 5.72318C3.38227 5.48655 3.51399 5.25882 3.66221 5.04193L3.631 3.18744C4.31787 2.5628 5.13071 2.09272 6.0147 1.80891L7.606 2.76372C7.86798 2.74422 8.13106 2.74443 8.39301 2.76434L9.98344 1.81006C10.8678 2.09259 11.6813 2.56149 12.3691 3.18514L12.3379 5.04066Z" stroke="currentColor" stroke-linecap="round" stroke-linejoin="round"/>
</svg>
