<svg  width="16" height="16" viewBox="0 0 16 16" fill="none" xmlns="http://www.w3.org/2000/svg">
  <path d="M8.27569 11.9208L11.4279 13.9179C11.8308 14.1732 12.3311 13.7935 12.2115 13.3232L11.3008 9.74052C11.2752 9.64073 11.2782 9.53574 11.3096 9.4376C11.3409 9.33947 11.3994 9.25218 11.4781 9.18578L14.3049 6.83306C14.6763 6.52392 14.4846 5.90751 14.0074 5.87654L10.3159 5.63696C10.2165 5.62986 10.1211 5.59466 10.0409 5.53545C9.96069 5.47625 9.89896 5.39548 9.86289 5.30255L8.48611 1.83549C8.44869 1.73686 8.38215 1.65194 8.29532 1.59202C8.2085 1.5321 8.1055 1.5 8 1.5C7.8945 1.5 7.7915 1.5321 7.70468 1.59202C7.61785 1.65194 7.55131 1.73686 7.51389 1.83549L6.13711 5.30255C6.10104 5.39548 6.03931 5.47625 5.95911 5.53545C5.87892 5.59466 5.78355 5.62986 5.68412 5.63696L1.99262 5.87654C1.51543 5.90751 1.32373 6.52392 1.69515 6.83306L4.52185 9.18578C4.60063 9.25218 4.65906 9.33947 4.69044 9.4376C4.72181 9.53574 4.72485 9.64073 4.6992 9.74052L3.85459 13.063C3.71111 13.6274 4.31143 14.0831 4.79495 13.7767L7.72431 11.9208C7.8067 11.8683 7.90234 11.8405 8 11.8405C8.09766 11.8405 8.1933 11.8683 8.27569 11.9208V11.9208Z" stroke="currentColor" stroke-linecap="round" stroke-linejoin="round"/>
</svg>