<svg width="16" height="16" viewBox="0 0 16 16" fill="none" xmlns="http://www.w3.org/2000/svg">
<path d="M14.9479 6.0882C14.8855 5.89221 14.7654 5.71958 14.6034 5.59285C14.4414 5.46611 14.2449 5.39115 14.0397 5.37775L10.3278 5.11798L8.95081 1.6507C8.8763 1.45901 8.74561 1.2943 8.57588 1.17816C8.40616 1.06201 8.2053 0.999852 7.99964 0.999817H7.99866C7.79332 1.00018 7.59287 1.0625 7.42351 1.17863C7.25416 1.29476 7.12379 1.45928 7.04944 1.6507L5.65198 5.138L1.96058 5.37775C1.75532 5.39115 1.55887 5.46611 1.39686 5.59285C1.23485 5.71958 1.1148 5.89221 1.05237 6.0882C0.986517 6.28697 0.982037 6.50096 1.03952 6.70232C1.097 6.90367 1.21377 7.08305 1.37464 7.2171L4.21448 9.61749L3.36976 12.9402C3.31153 13.1641 3.32224 13.4002 3.40048 13.6179C3.47871 13.8355 3.62083 14.0245 3.80823 14.16C3.98916 14.2916 4.20553 14.3657 4.42917 14.3727C4.65281 14.3797 4.87337 14.3192 5.06214 14.199L7.99183 12.3431C7.99573 12.3401 7.99964 12.3382 8.00843 12.3431L11.1608 14.3402C11.3319 14.4495 11.5321 14.5046 11.7351 14.4984C11.938 14.4921 12.1344 14.4247 12.2985 14.305C12.4683 14.1822 12.5971 14.0111 12.668 13.8139C12.7389 13.6168 12.7486 13.4028 12.6959 13.2L11.7985 9.57013L14.6256 7.2171C14.7865 7.08305 14.9033 6.90367 14.9607 6.70232C15.0182 6.50096 15.0137 6.28697 14.9479 6.0882Z" fill="currentColor"/>
</svg>
