<svg width="16" height="16" viewBox="0 0 16 16" fill="none" xmlns="http://www.w3.org/2000/svg">
<path d="M3.13807 10.1952C2.87772 9.93489 2.45561 9.93489 2.19526 10.1952C1.93491 10.4556 1.93491 10.8777 2.19526 11.138L4.86193 13.8047C5.12228 14.0651 5.54439 14.0651 5.80474 13.8047L8.4714 11.138C8.73175 10.8777 8.73175 10.4556 8.4714 10.1952C8.21106 9.93489 7.78895 9.93489 7.5286 10.1952L5.33333 12.3905L3.13807 10.1952Z" fill="currentColor"/>
<path d="M4.66666 2.70831L4.66665 12.625C4.66665 13.0162 4.96513 13.3333 5.33332 13.3333C5.70151 13.3333 5.99999 13.0162 5.99999 12.625L5.99999 2.70831C5.99999 2.31711 5.70151 1.99998 5.33332 1.99998C4.96513 1.99998 4.66666 2.31711 4.66666 2.70831Z" fill="currentColor"/>
<path fill-rule="evenodd" clip-rule="evenodd" d="M10.6667 8.66665C11.0349 8.66665 11.3333 8.96512 11.3333 9.33331V12.6666H14C14.3682 12.6666 14.6667 12.9651 14.6667 13.3333C14.6667 13.7015 14.3682 14 14 14H10.6667C10.2985 14 10 13.7015 10 13.3333V9.33331C10 8.96512 10.2985 8.66665 10.6667 8.66665Z" fill="currentColor"/>
<path d="M14.6667 6.26378C14.6667 5.68504 14.2778 5.08268 13.3525 4.64567C12.9502 4.45669 12.3467 4.22047 11.9981 4.06693C11.6897 3.93701 11.5556 3.72441 11.5556 3.54724C11.5556 3.2874 11.8103 3.06299 12.2663 3.06299C12.7356 3.06299 12.977 3.22835 13.1111 3.34646C13.2854 3.51181 13.4866 3.58268 13.6609 3.58268C14.023 3.58268 14.3314 3.31102 14.3314 2.99213C14.3314 2.5315 13.5 2 12.2663 2C10.9789 2 10.228 2.77953 10.228 3.58268C10.228 4.16142 10.6034 4.74016 11.4349 5.05905C13.0038 5.68504 13.2989 5.90945 13.2989 6.2874C13.2989 6.55905 13.0172 6.88976 12.3065 6.88976C11.7567 6.88976 11.408 6.68898 11.2203 6.47638C11.0728 6.29921 10.8716 6.22835 10.6839 6.22835C10.3352 6.22835 10 6.47638 10 6.79528C10 7.18504 10.6839 8 12.3199 8C13.6609 8 14.6667 7.18504 14.6667 6.26378Z" fill="currentColor"/>
</svg>
