<svg width="16" height="16" viewBox="0 0 16 16" fill="none" xmlns="http://www.w3.org/2000/svg">
<path fill-rule="evenodd" clip-rule="evenodd" d="M10.6667 10.6667C8.08934 10.6667 6 8.57733 6 6C6 3.42267 8.08934 1.33334 10.6667 1.33334C13.244 1.33334 15.3333 3.42267 15.3333 6C15.3333 8.57733 13.244 10.6667 10.6667 10.6667ZM10.6667 9.5C12.5997 9.5 14.1667 7.933 14.1667 6C14.1667 4.06701 12.5997 2.5 10.6667 2.5C8.73367 2.5 7.16667 4.06701 7.16667 6C7.16667 7.933 8.73367 9.5 10.6667 9.5ZM10.6667 3.66667C10.9888 3.66667 11.25 3.92784 11.25 4.25V5.75838L11.9541 6.46252C12.182 6.69033 12.182 7.05968 11.9541 7.28748C11.7263 7.51529 11.357 7.51529 11.1292 7.28748L10.2542 6.41248C10.1448 6.30309 10.0833 6.15471 10.0833 6V4.25C10.0833 3.92784 10.3445 3.66667 10.6667 3.66667Z" fill="currentColor"/>
<path d="M4.66667 12.3333L4.66667 2C4.66667 1.63181 4.3682 1.33333 4.00001 1.33333C3.63182 1.33333 3.33334 1.63181 3.33334 2L3.33334 12.3333C3.33334 12.7015 3.63182 13 4.00001 13C4.36819 13 4.66667 12.7015 4.66667 12.3333Z" fill="currentColor"/>
<path d="M1.80473 10.5286C1.54438 10.2682 1.12227 10.2682 0.861925 10.5286C0.601575 10.7889 0.601575 11.2111 0.861924 11.4714L3.52859 14.1381C3.78894 14.3984 4.21105 14.3984 4.4714 14.1381L7.13807 11.4714C7.39842 11.2111 7.39842 10.7889 7.13807 10.5286C6.87772 10.2682 6.45561 10.2682 6.19526 10.5286L4 12.7239L1.80473 10.5286Z" fill="currentColor"/>
</svg>
