<svg width="16" height="16" viewBox="0 0 16 16" fill="none" xmlns="http://www.w3.org/2000/svg">
<path d="M14.5 13C14.5 13.1326 14.4473 13.2598 14.3536 13.3536C14.2598 13.4473 14.1326 13.5 14 13.5H2C1.86739 13.5 1.74021 13.4473 1.64645 13.3536C1.55268 13.2598 1.5 13.1326 1.5 13C1.5 12.8674 1.55268 12.7402 1.64645 12.6464C1.74021 12.5527 1.86739 12.5 2 12.5H14C14.1326 12.5 14.2598 12.5527 14.3536 12.6464C14.4473 12.7402 14.5 12.8674 14.5 13ZM14.5 3.5V10.5C14.5 10.7652 14.3946 11.0196 14.2071 11.2071C14.0196 11.3946 13.7652 11.5 13.5 11.5H2.5C2.23478 11.5 1.98043 11.3946 1.79289 11.2071C1.60536 11.0196 1.5 10.7652 1.5 10.5V3.5C1.5 3.23478 1.60536 2.98043 1.79289 2.79289C1.98043 2.60536 2.23478 2.5 2.5 2.5H13.5C13.7652 2.5 14.0196 2.60536 14.2071 2.79289C14.3946 2.98043 14.5 3.23478 14.5 3.5ZM10.25 7C10.25 6.91585 10.2287 6.83307 10.1882 6.75932C10.1476 6.68557 10.0892 6.62325 10.0181 6.57812L7.26813 4.82812C7.19254 4.7801 7.10544 4.75326 7.01593 4.75041C6.92642 4.74756 6.83779 4.76879 6.7593 4.8119C6.68081 4.85501 6.61533 4.91841 6.56972 4.99548C6.52411 5.07255 6.50003 5.16045 6.5 5.25V8.75C6.50003 8.83955 6.52411 8.92745 6.56972 9.00452C6.61533 9.08158 6.68081 9.14499 6.7593 9.1881C6.83779 9.23121 6.92642 9.25245 7.01593 9.24959C7.10544 9.24674 7.19254 9.2199 7.26813 9.17188L10.0181 7.42188C10.0892 7.37675 10.1476 7.31443 10.1882 7.24068C10.2287 7.16693 10.25 7.08415 10.25 7Z" fill="currentColor"/>
</svg>
