<svg width="16" height="16" viewBox="0 0 16 16" fill="none" xmlns="http://www.w3.org/2000/svg">
<path d="M2.4714 10.1953C2.21105 9.93491 1.78894 9.93491 1.52859 10.1953C1.26824 10.4556 1.26824 10.8777 1.52859 11.1381L4.19526 13.8047C4.45561 14.0651 4.87772 14.0651 5.13807 13.8047L7.80473 11.1381C8.06508 10.8777 8.06508 10.4556 7.80473 10.1953C7.54438 9.93491 7.12227 9.93491 6.86192 10.1953L4.66666 12.3905L2.4714 10.1953Z" fill="currentColor"/>
<path d="M4 2.70833V12.625C4 13.0162 4.29848 13.3333 4.66667 13.3333C5.03486 13.3333 5.33333 13.0162 5.33333 12.625V2.70833C5.33333 2.31713 5.03486 2 4.66667 2C4.29848 2 4 2.31713 4 2.70833Z" fill="currentColor"/>
<path fill-rule="evenodd" clip-rule="evenodd" d="M11.3335 9.89753L12.7145 13.3501C12.8513 13.6919 13.2393 13.8582 13.5811 13.7215C13.923 13.5847 14.0892 13.1967 13.9525 12.8549L12.262 8.62861C11.9267 7.79046 10.7403 7.79046 10.405 8.62861L8.71453 12.8549C8.57779 13.1967 8.74407 13.5847 9.08592 13.7215C9.42778 13.8582 9.81576 13.6919 9.9525 13.3501L11.3335 9.89753Z" fill="currentColor"/>
<path fill-rule="evenodd" clip-rule="evenodd" d="M13.0002 12.7691H9.66685V11.4358H13.0002V12.7691Z" fill="currentColor"/>
<path fill-rule="evenodd" clip-rule="evenodd" d="M9.33333 3.33333C8.96514 3.33333 8.66666 3.03486 8.66666 2.66667C8.66666 2.29848 8.96514 2 9.33333 2H13.3333C13.603 2 13.8461 2.16243 13.9492 2.41154C14.0524 2.66066 13.9954 2.94741 13.8047 3.13807L10.9428 6H13.3333C13.7015 6 14 6.29848 14 6.66667C14 7.03486 13.7015 7.33333 13.3333 7.33333H9.33333C9.06369 7.33333 8.8206 7.17091 8.71741 6.92179C8.61422 6.67267 8.67126 6.38593 8.86192 6.19526L11.7239 3.33333H9.33333Z" fill="currentColor"/>
</svg>
