<svg width="24" height="24" viewBox="0 0 24 24" fill="none" xmlns="http://www.w3.org/2000/svg">
<path fill-rule="evenodd" clip-rule="evenodd" d="M20.0001 12.0063V11.0763C20.0001 10.524 20.4478 10.0763 21.0001 10.0763C21.5523 10.0763 22.0001 10.524 22.0001 11.0763V12.0069C21.9973 16.8784 18.7906 21.1679 14.1189 22.5491C9.44731 23.9304 4.42359 22.0744 1.77211 17.9876C-0.87937 13.9009 -0.526988 8.55686 2.63816 4.85364C5.80332 1.15041 11.0272 -0.0298638 15.4771 1.95286C15.9815 2.17764 16.2083 2.76881 15.9835 3.27329C15.7587 3.77776 15.1675 4.00449 14.6631 3.77971C11.0223 2.15749 6.74818 3.12317 4.15851 6.15308C1.56884 9.18299 1.28053 13.5554 3.44992 16.8991C5.61932 20.2428 9.72963 21.7613 13.5519 20.6312C17.3741 19.5011 19.9978 15.9915 20.0001 12.0063ZM8.70717 10.2989L11.0001 12.5918L21.293 2.29887C21.6835 1.90835 22.3166 1.90835 22.7072 2.29887C23.0977 2.6894 23.0977 3.32256 22.7072 3.71309L11.7072 14.7131C11.3166 15.1036 10.6835 15.1036 10.293 14.7131L7.29296 11.7131C6.90243 11.3226 6.90243 10.6894 7.29296 10.2989C7.68348 9.90835 8.31665 9.90835 8.70717 10.2989Z" fill="currentColor"/>
<mask id="mask0" mask-type="alpha" maskUnits="userSpaceOnUse" x="0" y="1" width="23" height="23">
<path fill-rule="evenodd" clip-rule="evenodd" d="M20.0001 12.0063V11.0763C20.0001 10.524 20.4478 10.0763 21.0001 10.0763C21.5523 10.0763 22.0001 10.524 22.0001 11.0763V12.0069C21.9973 16.8784 18.7906 21.1679 14.1189 22.5491C9.44731 23.9304 4.42359 22.0744 1.77211 17.9876C-0.87937 13.9009 -0.526988 8.55686 2.63816 4.85364C5.80332 1.15041 11.0272 -0.0298638 15.4771 1.95286C15.9815 2.17764 16.2083 2.76881 15.9835 3.27329C15.7587 3.77776 15.1675 4.00449 14.6631 3.77971C11.0223 2.15749 6.74818 3.12317 4.15851 6.15308C1.56884 9.18299 1.28053 13.5554 3.44992 16.8991C5.61932 20.2428 9.72963 21.7613 13.5519 20.6312C17.3741 19.5011 19.9978 15.9915 20.0001 12.0063ZM8.70717 10.2989L11.0001 12.5918L21.293 2.29887C21.6835 1.90835 22.3166 1.90835 22.7072 2.29887C23.0977 2.6894 23.0977 3.32256 22.7072 3.71309L11.7072 14.7131C11.3166 15.1036 10.6835 15.1036 10.293 14.7131L7.29296 11.7131C6.90243 11.3226 6.90243 10.6894 7.29296 10.2989C7.68348 9.90835 8.31665 9.90835 8.70717 10.2989Z" fill="currentColor"/>
</mask>
<g mask="url(#mask0)">
<rect width="24" height="24" fill="currentColor"/>
</g>
</svg>
