<svg fill="none" height="64" viewBox="0 0 64 64" width="64" xmlns="http://www.w3.org/2000/svg"><path clip-rule="evenodd" d="m32 64c17.6731 0 32-14.3269 32-32s-14.3269-32-32-32-32 14.3269-32 32 14.3269 32 32 32zm0-12c11.0457 0 20-8.9543 20-20s-8.9543-20-20-20-20 8.9543-20 20 8.9543 20 20 20z" fill="#fff" fill-rule="evenodd"/><path d="m34.81 9h-1.31l-3.61-5.77h-.04c.0067.13333.0133.27667.02.43.0133.15333.0233.31667.03.49.0067.16667.0133.34.02.52.0067.17333.01.35.01.53v3.8h-.98v-7.14h1.3l3.6 5.74h.03c-.0067-.1-.0133-.22333-.02-.37-.0067-.15333-.0133-.31667-.02-.49 0-.17333-.0033-.35-.01-.53s-.0133-.35-.02-.51v-3.84h1z" fill="currentColor"/><path d="m1 32.5h6" stroke="currentColor"/><path d="m57 32.5h6" stroke="currentColor"/><path d="m32.5 57v6" stroke="currentColor"/><g fill="currentColor"><circle cx="10" cy="16" r="1"/><circle cx="10" cy="51" r="1"/><circle cx="52" cy="16" r="1"/><circle cx="52" cy="51" r="1"/></g></svg>