<svg width="24" height="24" viewBox="0 0 24 24" fill="none" xmlns="http://www.w3.org/2000/svg">
<path fill-rule="evenodd" clip-rule="evenodd" d="M4.8 11.96C4.8 11.4298 4.37019 11 3.84 11C3.30981 11 2.88 11.4298 2.88 11.96V13.88H0.960001C0.429807 13.88 0 14.3098 0 14.84C0 15.3702 0.429808 15.8 0.960002 15.8H2.88V17.72C2.88 18.2502 3.30981 18.68 3.84 18.68C4.37019 18.68 4.8 18.2502 4.8 17.72V15.8H6.72C7.25019 15.8 7.68 15.3702 7.68 14.84C7.68 14.3098 7.25019 13.88 6.72 13.88H4.8V11.96Z" fill="currentColor"/>
<path fill-rule="evenodd" clip-rule="evenodd" d="M12.9938 4.88003H21.12C22.7106 4.88003 24 6.16945 24 7.76003V18.32C24 19.9106 22.7106 21.2 21.12 21.2H5.76C4.61241 21.2 3.62159 20.5288 3.1587 19.5576C3.36848 19.5856 3.58255 19.6 3.8 19.6C4.48382 19.6 5.13425 19.457 5.723 19.1993C5.73528 19.1998 5.74761 19.2 5.76 19.2H21.12C21.6502 19.2 22.08 18.7702 22.08 18.24V7.68001C22.08 7.14982 21.6502 6.72001 21.12 6.72001H12.48C12.159 6.72001 11.8593 6.5596 11.6812 6.29253L10.0462 3.84001H5.76C5.22981 3.84001 4.80001 4.26982 4.80001 4.80001V10.1043C4.47745 10.036 4.14292 10 3.8 10C3.48535 10 3.17776 10.0303 2.88 10.0881V4.88003C2.88 3.28945 4.16942 2.00003 5.76 2.00003H10.56C10.881 2.00003 11.1807 2.16045 11.3588 2.42752L12.9938 4.88003Z" fill="currentColor"/>
</svg>
