<svg fill="none" height="16" viewBox="0 0 16 16" width="16" xmlns="http://www.w3.org/2000/svg"><path d="m9.49963 12.9995v-3.00003c0-.13261-.05267-.25978-.14644-.35355s-.22095-.14645-.35356-.14645h-2c-.1326 0-.25978.05268-.35355.14645s-.14645.22094-.14645.35355v3.00003c0 .1326-.05267.2598-.14642.3536-.09376.0937-.22092.1464-.35351.1464l-2.99964.0004c-.06566 0-.13069-.0129-.19136-.038s-.1158-.062-.16223-.1084c-.04644-.0464-.08327-.1015-.1084-.1622-.02514-.0607-.03807-.1257-.03807-.1914v-5.77874c0-.06966.01456-.13856.04273-.20226.02818-.06371.06936-.12082.1209-.16769l4.99966-4.54592c.09203-.08368.21196-.13005.33635-.13006.12439 0 .24432.04636.33636.13004l5.0003 4.54594c.0516.04687.0928.10398.121.16769.0281.06371.0427.13261.0427.20228v5.77872c0 .0657-.0129.1307-.0381.1914-.0251.0607-.0619.1158-.1084.1622-.0464.0464-.1015.0833-.1622.1084s-.1257.038-.1914.038l-3.00033-.0004c-.1326 0-.25976-.0527-.35351-.1464-.09376-.0938-.14643-.221-.14643-.3536z" stroke="#4a4a4a" stroke-linecap="round" stroke-linejoin="round" stroke-width="1.5"/></svg>