<svg width="24" height="24" viewBox="0 0 24 24" fill="none" xmlns="http://www.w3.org/2000/svg">
<path fill-rule="evenodd" clip-rule="evenodd" d="M7.41669 1.91666H16.5834H19.1684C20.7783 1.91666 22.0834 3.22175 22.0834 4.83166V7.41665V11.9981L22.0834 12L22.0834 12.0019V16.5833V19.1683C22.0834 20.7782 20.7783 22.0833 19.1684 22.0833H16.5834H7.41669H4.83169C3.22178 22.0833 1.91669 20.7782 1.91669 19.1683V16.5833V12V7.41665V4.83166C1.91669 3.22175 3.22178 1.91666 4.83169 1.91666H7.41669ZM20.25 6.49999V4.83165C20.25 4.23426 19.7657 3.74999 19.1684 3.74999H17.5V6.49999H20.25ZM17.5 8.33332H20.25V11.0833H17.5V8.33332ZM15.6667 7.41665V3.74999H8.33336V11.0833H15.6667V7.41665ZM20.25 12.9167V15.6667H17.5V12.9167H20.25ZM20.25 17.5H17.5V20.25H19.1684C19.7657 20.25 20.25 19.7657 20.25 19.1683V17.5ZM15.6667 12.9167V16.5833V20.25H8.33336V12.9167H15.6667ZM3.75002 17.5V19.1683C3.75002 19.7657 4.2343 20.25 4.83169 20.25H6.50002V17.5H3.75002ZM6.50002 15.6667H3.75002V12.9167H6.50002V15.6667ZM3.75002 11.0833V8.33332H6.50002V11.0833H3.75002ZM3.75002 6.49999H6.50002V3.74999H4.83169C4.2343 3.74999 3.75002 4.23426 3.75002 4.83165V6.49999Z" fill="currentColor"/>
<mask id="mask0" mask-type="alpha" maskUnits="userSpaceOnUse" x="1" y="1" width="22" height="22">
<path fill-rule="evenodd" clip-rule="evenodd" d="M7.41669 1.91666H16.5834H19.1684C20.7783 1.91666 22.0834 3.22175 22.0834 4.83166V7.41476C22.0834 7.41539 22.0834 7.41602 22.0834 7.41665C22.0834 7.41728 22.0834 7.41791 22.0834 7.41854V11.9981L22.0834 12L22.0834 12.0019V16.5814L22.0834 16.5833L22.0834 16.5852V19.1683C22.0834 20.7782 20.7783 22.0833 19.1684 22.0833H16.5834H7.41669H4.83169C3.22178 22.0833 1.91669 20.7782 1.91669 19.1683V16.5833V12V7.41665V4.83166C1.91669 3.22175 3.22178 1.91666 4.83169 1.91666H7.41669ZM20.25 6.49999V4.83165C20.25 4.23426 19.7657 3.74999 19.1684 3.74999H17.5V6.49999H20.25ZM17.5 8.33332H20.25V11.0833H17.5V8.33332ZM15.6667 7.41665V3.74999H8.33336V11.0833H15.6667V7.41665ZM20.25 12.9167V15.6667H17.5V12.9167H20.25ZM15.6667 12.9167V16.5833V20.25H8.33336V12.9167H15.6667ZM20.25 17.5H17.5V20.25H19.1684C19.7657 20.25 20.25 19.7657 20.25 19.1683V17.5ZM3.75002 17.5V19.1683C3.75002 19.7657 4.2343 20.25 4.83169 20.25H6.50002V17.5H3.75002ZM6.50002 15.6667H3.75002V12.9167H6.50002V15.6667ZM3.75002 11.0833V8.33332H6.50002V11.0833H3.75002ZM3.75002 6.49999H6.50002V3.74999H4.83169C4.2343 3.74999 3.75002 4.23426 3.75002 4.83165V6.49999Z" fill="currentColor"/>
</mask>
<g mask="url(#mask0)">
<rect x="1" y="1" width="22" height="22" fill="currentColor"/>
</g>
</svg>
