<svg width="24" height="24" viewBox="0 0 24 24" fill="none" xmlns="http://www.w3.org/2000/svg">
<path fill-rule="evenodd" clip-rule="evenodd" d="M13 5H19V7C19 7.55228 19.4477 8 20 8C20.5523 8 21 7.55228 21 7V4C21 3.44772 20.5523 3 20 3H12H4C3.44772 3 3 3.44772 3 4V7C3 7.55228 3.44772 8 4 8C4.55228 8 5 7.55228 5 7V5H11V19H9C8.44772 19 8 19.4477 8 20C8 20.5523 8.44772 21 9 21H12H15C15.5523 21 16 20.5523 16 20C16 19.4477 15.5523 19 15 19H13V5Z" fill="currentColor"/>
<mask id="mask0" mask-type="alpha" maskUnits="userSpaceOnUse" x="3" y="3" width="18" height="18">
<path fill-rule="evenodd" clip-rule="evenodd" d="M13 5H19V7C19 7.55228 19.4477 8 20 8C20.5523 8 21 7.55228 21 7V4C21 3.44772 20.5523 3 20 3H12H4C3.44772 3 3 3.44772 3 4V7C3 7.55228 3.44772 8 4 8C4.55228 8 5 7.55228 5 7V5H11V19H9C8.44772 19 8 19.4477 8 20C8 20.5523 8.44772 21 9 21H12H15C15.5523 21 16 20.5523 16 20C16 19.4477 15.5523 19 15 19H13V5Z" fill="currentColor"/>
</mask>
<g mask="url(#mask0)">
<rect width="24" height="24" fill="currentColor"/>
</g>
</svg>
