<svg width="24" height="24" viewBox="0 0 24 24" fill="none" xmlns="http://www.w3.org/2000/svg">
<path fill-rule="evenodd" clip-rule="evenodd" d="M12.4474 1.10557C12.1659 0.964809 11.8345 0.964809 11.553 1.10557L1.553 6.10557C0.815955 6.4741 0.815955 7.5259 1.553 7.89443L11.553 12.8944C11.8345 13.0352 12.1659 13.0352 12.4474 12.8944L22.4474 7.89443C23.1845 7.5259 23.1845 6.4741 22.4474 6.10557L12.4474 1.10557ZM4.23622 6.99999L12.0002 3.11802L19.7641 6.99999L12.0002 10.882L4.23622 6.99999ZM2.44743 16.1056C1.95345 15.8586 1.35278 16.0588 1.10579 16.5528C0.858803 17.0468 1.05903 17.6474 1.55301 17.8944L11.553 22.8944C11.8345 23.0352 12.1659 23.0352 12.4474 22.8944L22.4474 17.8944C22.9414 17.6474 23.1416 17.0468 22.8946 16.5528C22.6477 16.0588 22.047 15.8586 21.553 16.1056L12.0002 20.882L2.44743 16.1056ZM1.10579 11.5528C1.35278 11.0588 1.95345 10.8586 2.44743 11.1056L12.0002 15.882L21.553 11.1056C22.047 10.8586 22.6477 11.0588 22.8946 11.5528C23.1416 12.0468 22.9414 12.6474 22.4474 12.8944L12.4474 17.8944C12.1659 18.0352 11.8345 18.0352 11.553 17.8944L1.55301 12.8944C1.05903 12.6474 0.858803 12.0468 1.10579 11.5528Z" fill="currentColor"/>
</svg>
