<svg width="24" height="24" viewBox="0 0 24 24" fill="none" xmlns="http://www.w3.org/2000/svg">
<path fill-rule="evenodd" clip-rule="evenodd" d="M13.5752 15.9898C11.8387 15.8654 10.2419 14.993 9.1992 13.599C8.86839 13.1567 8.95873 12.53 9.40098 12.1992C9.84323 11.8684 10.4699 11.9588 10.8007 12.401C11.4959 13.3304 12.5604 13.912 13.718 13.9949C14.8757 14.0778 16.0122 13.6538 16.8329 12.8329L19.8207 9.84529C21.3366 8.27577 21.3149 5.78095 19.7719 4.23801C18.229 2.69508 15.7342 2.6734 14.175 4.17916L12.455 5.88916C12.0633 6.27855 11.4302 6.2767 11.0408 5.88504C10.6514 5.49338 10.6533 4.86022 11.0449 4.47083L12.7752 2.75071C15.1295 0.476876 18.8718 0.509395 21.1862 2.8238C23.5006 5.1382 23.5331 8.88044 21.2471 11.2471L18.2472 14.247C17.0164 15.4782 15.3116 16.1141 13.5752 15.9898ZM10.4248 8.0097C12.1612 8.13406 13.758 9.00646 14.8007 10.4005C15.1315 10.8427 15.0412 11.4694 14.599 11.8002C14.1567 12.131 13.53 12.0407 13.1992 11.5985C12.504 10.6691 11.4395 10.0875 10.2819 10.0046C9.12427 9.92168 7.98771 10.3456 7.16708 11.1666L4.17926 14.1542C2.66337 15.7237 2.68505 18.2185 4.22799 19.7615C5.77092 21.3044 8.26574 21.3261 9.82287 19.8224L11.5329 18.1124C11.9234 17.7218 12.5566 17.7218 12.9471 18.1124C13.3376 18.5029 13.3376 19.1361 12.9471 19.5266L11.2247 21.2488C8.87041 23.5226 5.12817 23.4901 2.81377 21.1757C0.499368 18.8613 0.466849 15.119 2.75286 12.7524L5.75274 9.7525C6.9835 8.52129 8.68833 7.88534 10.4248 8.0097Z" fill="currentColor"/>
</svg>
