<svg width="24" height="24" viewBox="0 0 24 24" fill="none" xmlns="http://www.w3.org/2000/svg">
<path fill-rule="evenodd" clip-rule="evenodd" d="M10.75 10.75V3.25C10.75 2.55964 11.3096 2 12 2C12.6904 2 13.25 2.55964 13.25 3.25V10.75H20.75C21.4404 10.75 22 11.3096 22 12C22 12.6904 21.4404 13.25 20.75 13.25H13.25V20.75C13.25 21.4404 12.6904 22 12 22C11.3096 22 10.75 21.4404 10.75 20.75V13.25H3.25C2.55964 13.25 2 12.6904 2 12C2 11.3096 2.55964 10.75 3.25 10.75H10.75Z" fill="currentColor"/>
<mask id="mask0" mask-type="alpha" maskUnits="userSpaceOnUse" x="2" y="2" width="20" height="20">
<path fill-rule="evenodd" clip-rule="evenodd" d="M10.75 10.75V3.25C10.75 2.55964 11.3096 2 12 2C12.6904 2 13.25 2.55964 13.25 3.25V10.75H20.75C21.4404 10.75 22 11.3096 22 12C22 12.6904 21.4404 13.25 20.75 13.25H13.25V20.75C13.25 21.4404 12.6904 22 12 22C11.3096 22 10.75 21.4404 10.75 20.75V13.25H3.25C2.55964 13.25 2 12.6904 2 12C2 11.3096 2.55964 10.75 3.25 10.75H10.75Z" fill="currentColor"/>
</mask>
<g mask="url(#mask0)">
</g>
</svg>
