<svg width="24" height="24" viewBox="0 0 24 24" fill="none" xmlns="http://www.w3.org/2000/svg">
<path fill-rule="evenodd" clip-rule="evenodd" d="M5 2H19C20.6569 2 22 3.34315 22 5V14.9971C22 14.999 22 15.001 22 15.0029V19C22 20.6569 20.6569 22 19 22H5C3.34315 22 2 20.6569 2 19V5C2 3.34315 3.34315 2 5 2ZM20 12.5858V5C20 4.44772 19.5523 4 19 4H5C4.44772 4 4 4.44772 4 5V19C4 19.4288 4.2699 19.7946 4.64909 19.9367L15.2929 9.29289C15.6834 8.90236 16.3166 8.90236 16.7071 9.29289L20 12.5858ZM7.41421 20L16 11.4142L20 15.4142V19C20 19.5523 19.5523 20 19 20H7.41421ZM6 8.5C6 9.88071 7.11928 11 8.5 11C9.88071 11 11 9.88071 11 8.5C11 7.11928 9.88071 6 8.5 6C7.11928 6 6 7.11928 6 8.5ZM8.5 9C8.77614 9 9 8.77614 9 8.5C9 8.22386 8.77614 8 8.5 8C8.22386 8 8 8.22386 8 8.5C8 8.77614 8.22386 9 8.5 9Z" fill="currentColor"/>
<mask id="mask0" mask-type="alpha" maskUnits="userSpaceOnUse" x="2" y="2" width="20" height="20">
<path fill-rule="evenodd" clip-rule="evenodd" d="M5 2H19C20.6569 2 22 3.34315 22 5V14.9971C22 14.999 22 15.001 22 15.0029V19C22 20.6569 20.6569 22 19 22H5C3.34315 22 2 20.6569 2 19V5C2 3.34315 3.34315 2 5 2ZM20 12.5858V5C20 4.44772 19.5523 4 19 4H5C4.44772 4 4 4.44772 4 5V19C4 19.4288 4.2699 19.7946 4.64909 19.9367L15.2929 9.29289C15.6834 8.90236 16.3166 8.90236 16.7071 9.29289L20 12.5858ZM7.41421 20L16 11.4142L20 15.4142V19C20 19.5523 19.5523 20 19 20H7.41421ZM6 8.5C6 9.88071 7.11928 11 8.5 11C9.88071 11 11 9.88071 11 8.5C11 7.11928 9.88071 6 8.5 6C7.11928 6 6 7.11928 6 8.5ZM8.5 9C8.77614 9 9 8.77614 9 8.5C9 8.22386 8.77614 8 8.5 8C8.22386 8 8 8.22386 8 8.5C8 8.77614 8.22386 9 8.5 9Z" fill="currentColor"/>
</mask>
<g mask="url(#mask0)">
</g>
</svg>
