<svg width="116" height="85" viewBox="0 0 116 85" fill="none" xmlns="http://www.w3.org/2000/svg">
<path d="M81.0103 74.0469C82.7793 74.0469 84.2134 72.6128 84.2134 70.8438C84.2134 69.0747 82.7793 67.6406 81.0103 67.6406C79.2412 67.6406 77.8071 69.0747 77.8071 70.8438C77.8071 72.6128 79.2412 74.0469 81.0103 74.0469Z" stroke="currentColor" stroke-width="2" stroke-linecap="round" stroke-linejoin="round" fill="none" />
<path d="M81.0103 74.0469V77.8906" stroke="currentColor" stroke-width="2" stroke-linecap="round" stroke-linejoin="round" fill="none" />
<path d="M93.8228 62.5156H68.1978C67.4901 62.5156 66.9165 63.0893 66.9165 63.7969V81.7344C66.9165 82.442 67.4901 83.0156 68.1978 83.0156H93.8228C94.5304 83.0156 95.104 82.442 95.104 81.7344V63.7969C95.104 63.0893 94.5304 62.5156 93.8228 62.5156Z" stroke="currentColor" stroke-width="2" stroke-linecap="round" stroke-linejoin="round" fill="none" />
<path d="M75.2446 62.5156V56.75C75.2446 55.2209 75.8521 53.7544 76.9333 52.6731C78.0146 51.5918 79.4811 50.9844 81.0103 50.9844C82.5394 50.9844 84.0059 51.5918 85.0872 52.6731C86.1684 53.7544 86.7759 55.2209 86.7759 56.75V62.5156" stroke="currentColor" stroke-width="2" stroke-linecap="round" stroke-linejoin="round" fill="none" />
<path d="M28.7498 71.0871C9.58317 76.8371 9.58317 61.5037 1.9165 59.5871M55.5832 82.5871V67.7521C55.727 65.9242 55.48 64.0867 54.8587 62.3616C54.2374 60.6366 53.2561 59.0635 51.9798 57.7471C64.0165 56.4054 76.6665 51.8437 76.6665 30.9137C76.6655 25.5618 74.6068 20.415 70.9165 16.5387C72.6639 11.8564 72.5404 6.68075 70.5715 2.08708C70.5715 2.08708 66.0482 0.745416 55.5832 7.76042C46.7972 5.37923 37.5358 5.37923 28.7498 7.76042C18.2848 0.745416 13.7615 2.08708 13.7615 2.08708C11.7926 6.68075 11.6691 11.8564 13.4165 16.5387C9.69866 20.4438 7.63784 25.637 7.6665 31.0287C7.6665 51.8054 20.3165 56.3671 32.3532 57.8621C31.092 59.1653 30.1193 60.7195 29.4985 62.4234C28.8777 64.1274 28.6226 65.943 28.7498 67.7521V82.5871" stroke="currentColor" stroke-width="2" stroke-linecap="round" stroke-linejoin="round" fill="none" />
<rect x="96.9165" y="38.9844" width="9" height="9" rx="2" stroke="currentColor" stroke-width="2" fill="none" />
<line x1="98.9165" y1="38.9844" x2="98.9165" y2="35.9844" stroke="currentColor" stroke-width="2" stroke-linecap="round" stroke-linejoin="round" fill="none" />
<line x1="103.917" y1="38.9844" x2="103.917" y2="35.9844" stroke="currentColor" stroke-width="2" stroke-linecap="round" stroke-linejoin="round" fill="none" />
<path d="M101.417 48.4844C101.417 49.591 101.425 65.0874 101.417 65.9844C101.417 75.4844 101.197 78.9844 95.4165 78.9844" stroke="currentColor" stroke-width="2" fill="none" />
<path d="M101.167 29.0872C108.3 29.0872 114.083 23.3043 114.083 16.1706C114.083 9.0369 108.3 3.25391 101.167 3.25391C94.033 3.25391 88.25 9.0369 88.25 16.1706C88.25 23.3043 94.033 29.0872 101.167 29.0872Z" stroke="currentColor" stroke-width="2" stroke-linecap="round" stroke-linejoin="round" fill="none" />
<path d="M88.25 16.1709H114.083" stroke="currentColor" stroke-width="2" stroke-linecap="round" stroke-linejoin="round" fill="none" />
<path d="M101.167 3.25391C104.397 6.79095 106.234 11.3811 106.333 16.1706C106.234 20.96 104.397 25.5502 101.167 29.0872C97.9358 25.5502 96.0998 20.96 96 16.1706C96.0998 11.3811 97.9358 6.79095 101.167 3.25391V3.25391Z" stroke="currentColor" stroke-width="2" stroke-linecap="round" stroke-linejoin="round" fill="none" />
</svg>
