<svg width="109" height="121" viewBox="0 0 109 121" fill="none" xmlns="http://www.w3.org/2000/svg">
<path d="M53.172 120.14C53.0538 120.111 52.9363 120.08 52.8177 120.054C51.8565 119.883 50.9603 119.453 50.226 118.809C49.4916 118.166 48.947 117.334 48.651 116.403C47.8641 114.146 48.1537 112.004 49.694 110.129C50.237 109.456 50.9383 108.929 51.7352 108.594C52.5321 108.259 53.3997 108.128 54.2601 108.21C55.3783 108.258 56.4383 108.722 57.2323 109.511C57.2528 109.531 57.2744 109.55 57.297 109.567C57.3166 109.577 57.3371 109.584 57.3582 109.588C57.4248 109.254 57.3487 108.915 57.4049 108.568H61.3229C61.3826 108.76 61.4063 119.317 61.3439 119.781H57.3838V118.614C57.3264 118.656 57.2716 118.701 57.2197 118.75C56.586 119.477 55.7133 119.952 54.7593 120.091C54.7243 120.102 54.691 120.119 54.6606 120.139L53.172 120.14ZM54.9047 116.726C55.4082 116.732 55.9021 116.589 56.3245 116.315C56.7469 116.04 57.0788 115.648 57.2786 115.186C57.4785 114.723 57.5373 114.212 57.4477 113.717C57.3581 113.221 57.1241 112.764 56.7751 112.401C56.4261 112.038 55.9776 111.786 55.486 111.677C54.9944 111.568 54.4816 111.607 54.012 111.789C53.5423 111.97 53.1369 112.287 52.8465 112.698C52.5561 113.109 52.3937 113.597 52.3797 114.101C52.367 114.44 52.423 114.779 52.5441 115.097C52.6652 115.414 52.8491 115.704 53.0848 115.949C53.3204 116.195 53.603 116.39 53.9157 116.523C54.2284 116.656 54.5648 116.726 54.9047 116.726ZM54.5428 95.0671H9.45403C9.25355 95.0671 9.05308 95.0649 8.85299 95.0695C8.67058 95.0793 8.48939 95.0342 8.33291 94.94C8.17643 94.8457 8.05186 94.7066 7.97535 94.5407C7.60731 93.8612 7.23671 93.1833 6.86357 92.5069C4.80094 88.7431 2.73717 84.9797 0.672251 81.2169C0.558288 81.0355 0.498536 80.8253 0.500027 80.611C0.501518 80.3968 0.564191 80.1874 0.680667 80.0076C9.59864 64.4939 18.5137 48.9786 27.4258 33.4616C33.5216 22.8513 39.615 12.2384 45.7059 1.62274C45.8201 1.37915 46.0057 1.17607 46.238 1.04049C46.4704 0.904908 46.7385 0.843247 47.0067 0.8637C51.8448 0.882064 56.683 0.873647 61.5215 0.87403C61.6263 0.87403 61.7319 0.868673 61.836 0.878237C61.9985 0.890674 62.1551 0.944577 62.2909 1.0348C62.4267 1.12502 62.537 1.24854 62.6114 1.39357C63.0728 2.197 63.5396 2.99468 64.0044 3.79466L108.172 79.8002C108.224 79.8909 108.275 79.9827 108.331 80.0711C108.437 80.2258 108.495 80.4077 108.5 80.5948C108.504 80.782 108.454 80.9664 108.356 81.1259C107.579 82.5598 106.804 83.9949 106.031 85.4311C104.425 88.4116 102.819 91.3925 101.214 94.3735C101.159 94.4847 101.097 94.592 101.027 94.6945C100.95 94.8049 100.849 94.8958 100.731 94.96C100.613 95.0242 100.482 95.0598 100.348 95.0641C100.224 95.0698 100.099 95.0668 99.9755 95.0668L54.5428 95.0671ZM48.2685 2.70239C48.3871 2.90898 48.4754 3.06354 48.5653 3.21772L85.6138 66.9072C85.6616 66.9895 85.7121 67.071 85.7515 67.1574C85.8128 67.2847 85.8435 67.4245 85.841 67.5658C85.8385 67.707 85.803 67.8457 85.7373 67.9707C85.6716 68.0958 85.5775 68.2037 85.4626 68.2858C85.3476 68.3679 85.2151 68.422 85.0755 68.4437C84.9342 68.4647 84.7913 68.4736 84.6485 68.4705C79.9045 68.4705 75.1619 68.4696 70.4207 68.4678C70.3237 68.4609 70.2265 68.4792 70.1385 68.5207C70.0506 68.5622 69.9747 68.6257 69.9184 68.705C68.275 70.8302 66.2028 72.586 63.8366 73.8581C61.4703 75.1302 58.8629 75.8902 56.1837 76.0888C53.7622 76.3012 51.3226 76.0431 48.9992 75.3286C45.4848 74.2803 42.3349 72.2671 39.9075 69.518C39.8337 69.4357 39.7587 69.3538 39.6826 69.2693C39.422 69.5811 33.6179 79.4842 33.567 79.7046H105.998C105.892 79.5194 105.818 79.389 105.743 79.2589L89.4105 51.154C80.0796 35.0971 70.7505 19.0393 61.4231 2.98052C61.3808 2.88824 61.3108 2.81143 61.2229 2.76076C61.1349 2.71009 61.0333 2.68808 60.9323 2.6978C56.8387 2.70621 52.745 2.70813 48.6514 2.70353L48.2685 2.70239ZM106.054 81.5368H32.2452C32.1212 81.5368 31.9969 81.5421 31.8733 81.5368C31.744 81.5337 31.6168 81.5026 31.5006 81.4459C31.3844 81.3891 31.2817 81.3079 31.1998 81.2079C31.1178 81.1078 31.0584 80.9912 31.0256 80.8661C30.9928 80.7409 30.9874 80.6102 31.0098 80.4828C31.0469 80.3061 31.1156 80.1376 31.2126 79.9854C33.5624 75.9555 35.916 71.9287 38.2735 67.905C38.3315 67.8277 38.3614 67.7329 38.3583 67.6363C38.3553 67.5398 38.3194 67.4471 38.2567 67.3736C36.3001 64.4582 35.1663 61.0689 34.9745 57.5631C34.9141 56.5048 34.944 55.4434 35.064 54.3903C35.2447 52.6909 35.6496 51.0229 36.268 49.4298C37.41 46.5064 39.245 43.9041 41.6152 41.8468C43.9855 39.7896 46.82 38.3388 49.8749 37.6195C50.2514 37.5299 50.6309 37.4542 51.0456 37.3643L46.9696 30.1767C46.9287 30.2127 46.9007 30.2268 46.8877 30.2498C34.7428 51.2216 22.5986 72.1948 10.4552 93.1692C10.4514 93.1753 10.4552 93.1875 10.4587 93.1963C10.4631 93.2063 10.468 93.216 10.4736 93.2254H99.7567L106.054 81.5368ZM8.82621 92.2839C8.91 92.1454 8.96547 92.057 9.0175 91.9671L15.0397 81.5693L46.0587 28.0121C46.1082 27.9196 46.1633 27.8301 46.2236 27.7443C46.309 27.6288 46.4206 27.5351 46.5492 27.4709C46.6777 27.4067 46.8196 27.3737 46.9633 27.3748C47.107 27.3758 47.2484 27.4108 47.376 27.4769C47.5037 27.543 47.6138 27.6382 47.6976 27.755C47.762 27.8496 47.8212 27.9477 47.8748 28.0488L52.8575 36.8348C52.913 36.9327 52.9723 37.0284 53.0339 37.1313C57.9493 36.8784 62.3987 38.1643 66.3007 41.1664C70.0902 44.0607 72.6965 48.2355 73.6329 52.9111C74.5693 57.5866 73.7717 62.4432 71.389 66.5736C71.4181 66.5958 71.4322 66.6153 71.446 66.6153C75.2915 66.6199 79.1368 66.6232 82.982 66.6253C83.0673 66.6253 83.1526 66.6161 83.2376 66.6103C83.2465 66.6086 83.2545 66.6037 83.2601 66.5966C83.267 66.5798 83.2721 66.5624 83.2754 66.5445C71.1815 45.7505 59.081 24.9472 46.9738 4.13477C46.8877 3.98671 46.7959 3.8421 46.706 3.69595C46.6997 3.6886 46.691 3.68361 46.6815 3.68179C46.6742 3.68179 46.6658 3.68486 46.636 3.69174C31.9061 29.3311 17.1734 54.9759 2.43787 80.6262L8.82621 92.2839ZM61.5012 67.6934C63.7588 66.6931 65.763 65.1986 67.3658 63.3201C66.4967 61.5337 65.4124 59.8603 64.1372 58.337C62.5987 59.8494 60.8848 61.1724 59.032 62.2776L61.5012 67.6934ZM53.3051 70.0888C55.7665 69.7412 58.1752 69.0898 60.4763 68.1495C59.6831 66.354 58.8676 64.5685 58.03 62.7933C55.9907 63.7683 53.8035 64.3976 51.5579 64.6557C51.9686 66.5176 52.5536 68.3366 53.3051 70.0888ZM50.3356 56.7895C50.5368 59.0633 50.8652 61.3241 51.3192 63.5612C53.4864 63.332 55.5977 62.7305 57.5602 61.7829C56.5678 59.7002 55.5884 57.643 54.5466 55.6058C53.2003 56.1816 51.7847 56.5795 50.3356 56.7895ZM63.4198 57.4781C61.9964 55.8362 60.4819 54.2755 58.8836 52.8034C57.8847 53.7157 56.772 54.495 55.5731 55.1218C56.5762 57.1877 57.5625 59.22 58.5614 61.2729C60.3295 60.2107 61.9613 58.9366 63.4206 57.4789L63.4198 57.4781ZM44.482 64.2609C44.4716 64.3143 44.4649 64.3684 44.4622 64.4227C44.479 64.8122 44.4943 65.2021 44.5192 65.5908C44.5413 65.9416 44.554 66.2951 44.6079 66.6417C44.7518 67.5058 44.9798 68.3538 45.2885 69.1736C45.3076 69.2414 45.3445 69.3027 45.3955 69.3512C45.4464 69.3997 45.5096 69.4335 45.5781 69.4491C46.9823 69.8335 48.424 70.0645 49.878 70.1377C50.5337 70.176 51.1929 70.1565 51.8506 70.1615C51.9248 70.1615 51.999 70.1527 52.1184 70.145C51.4084 68.3982 50.8454 66.5952 50.435 64.7548C48.4374 64.8627 46.4343 64.6967 44.4817 64.2617L44.482 64.2609ZM44.487 63.099C44.5015 63.1115 44.5177 63.1217 44.5352 63.1292C44.7204 63.1717 44.9059 63.2146 45.0919 63.2528C46.6979 63.5767 48.3356 63.7162 49.9732 63.6687C50.0472 63.6594 50.1202 63.6429 50.1909 63.6193C49.7445 61.39 49.4476 59.1699 49.2207 56.9088C47.8888 56.9891 46.5521 56.8813 45.2503 56.5886C44.8864 57.5328 44.3455 62.1969 44.4866 63.0998L44.487 63.099ZM61.7912 48.7744C61.4629 49.3636 61.1791 49.9367 60.8347 50.4704C60.4904 51.0041 60.0868 51.4984 59.687 52.039C61.2634 53.4976 62.7627 55.0374 64.1789 56.6521C65.3415 55.4252 66.6657 53.378 67.1144 51.9812C65.475 50.7028 63.6877 49.6261 61.7912 48.7744ZM64.9138 57.5355C66.1424 59.015 67.2164 60.6163 68.1191 62.3143C68.1757 62.2348 68.2033 62.1965 68.2304 62.1575C69.3778 60.5148 70.3039 58.7282 70.985 56.8438C71.0097 56.7781 71.0187 56.7075 71.0113 56.6377C71.004 56.5679 70.9804 56.5008 70.9425 56.4417C70.2468 55.1568 69.3496 53.9918 68.2851 52.9908C68.2086 52.9166 68.1179 52.8554 68.0299 52.7846C66.8413 55.1432 66.6882 55.3808 64.9146 57.534L64.9138 57.5355ZM41.364 54.7886C40.4303 56.5631 39.803 58.4826 39.5085 60.4661C40.548 61.5719 41.8696 62.3731 43.3309 62.7834C43.3825 62.0542 43.4208 61.3277 43.4889 60.6027C43.557 59.8777 43.6365 59.1466 43.7444 58.4239C43.8523 57.7012 44.0011 56.9899 44.1339 56.2623C43.1375 55.923 42.2022 55.4254 41.364 54.7886ZM67.7266 46.104C66.4101 45.3388 63.1191 44.2511 62.2599 44.3016C62.4637 45.429 62.4114 46.5877 62.1068 47.6921C64.0156 48.5516 65.8251 49.6164 67.5035 50.8675C67.8825 49.3086 67.9583 47.6914 67.7266 46.104ZM60.9308 69.1664C58.6554 70.0981 56.2787 70.7598 53.8492 71.1378C53.8565 71.1835 53.8679 71.2285 53.8832 71.2721C54.3592 72.1961 54.9486 73.0572 55.6377 73.8354C55.6689 73.8714 55.7097 73.8977 55.7553 73.9112C55.8009 73.9248 55.8495 73.925 55.8952 73.9119C56.1852 73.8606 56.4764 73.8178 56.7667 73.7688C58.505 73.4772 60.2016 72.9762 61.8195 72.2768C61.9389 72.2247 62.0552 72.1654 62.1979 72.0973C61.774 71.1152 61.3596 70.1576 60.9308 69.1652V69.1664ZM63.1956 71.5946C63.2944 71.5487 63.3735 71.5181 63.4455 71.4768C63.8556 71.235 64.2703 71.0001 64.6697 70.7441C65.9375 69.9286 67.105 68.9668 68.1482 67.8786C68.216 67.8136 68.2694 67.7351 68.3051 67.6482C68.3408 67.5613 68.358 67.4679 68.3555 67.374C68.3567 66.6881 68.2676 66.0051 68.0904 65.3425C68.0181 65.0716 67.9324 64.8038 67.8436 64.5039C67.7495 64.5888 67.6906 64.6366 67.6389 64.6894C67.362 64.9645 67.0915 65.2464 66.8095 65.5162C66.1418 66.142 65.4197 66.7072 64.6517 67.2049C63.848 67.7348 63.0088 68.2089 62.1401 68.6239C62.0755 68.6584 62.0131 68.6968 61.953 68.7386L63.1956 71.5946ZM54.3461 74.0684C54.0102 73.5745 53.6958 73.1448 53.4165 72.6911C53.1315 72.2301 52.8809 71.7473 52.6039 71.2522C50.3853 71.3778 48.16 71.1957 45.9913 70.7109C46.2631 71.224 46.5799 71.712 46.9378 72.1693C47.4183 72.7994 47.9974 73.3477 48.653 73.7929C48.737 73.854 48.8333 73.8961 48.9353 73.9161C49.9536 74.0497 50.9786 74.1264 52.0055 74.1457C52.5759 74.1614 53.1479 74.1273 53.7191 74.1105C53.915 74.1044 54.1105 74.0841 54.3461 74.0672V74.0684ZM54.0657 54.5973L51.0334 48.7484L49.9097 49.041C49.9254 49.3402 49.948 49.6237 49.9549 49.9072C49.9775 50.6777 49.9931 51.4483 50.0146 52.2184C50.0195 52.4097 50.0222 52.601 50.0341 52.7892C50.083 53.5567 50.129 54.3245 50.1909 55.0912C50.2066 55.2825 50.1527 55.4921 50.2908 55.6697C51.5903 55.4776 52.8593 55.1171 54.0657 54.5973ZM43.9483 68.9039L43.9912 68.8416C43.9812 68.806 43.9725 68.77 43.961 68.7352C43.5541 67.4142 43.3543 66.0382 43.3687 64.6561C43.3687 64.4308 43.3324 64.2054 43.3125 63.9736C41.8805 63.5719 40.5491 62.8731 39.4052 61.9226C39.3937 62.0013 39.3865 62.0806 39.3834 62.1602C39.3933 62.4662 39.4071 62.7681 39.4197 63.0722C39.4743 64.1187 39.6673 65.1532 39.9936 66.1489C40.0624 66.3757 40.1962 66.5772 40.3785 66.7286C41.0672 67.318 41.8177 67.8311 42.617 68.2589C43.0527 68.4888 43.5038 68.6881 43.9483 68.9028V68.9039ZM71.503 55.1161C71.5225 55.0598 71.5375 55.0262 71.5466 54.991C71.7836 54.0707 71.9527 53.1343 72.0524 52.1893C72.1298 51.7079 72.0778 51.2146 71.9017 50.76C71.5902 50.0453 71.3056 49.3196 70.9999 48.6026C70.9473 48.4696 70.865 48.3504 70.7593 48.2541C70.2267 47.8095 69.6831 47.3787 69.1413 46.9453C69.0733 46.8994 69.0021 46.8583 68.9282 46.8225V47.1974C68.9282 47.8332 68.9443 48.4695 68.9244 49.1046C68.8891 49.8747 68.7504 50.6366 68.512 51.3698C68.4769 51.451 68.4714 51.542 68.4966 51.6269C68.5218 51.7117 68.576 51.785 68.6497 51.8339C69.2735 52.3642 69.8446 52.9535 70.3549 53.5938C70.7455 54.0823 71.1105 54.5927 71.503 55.1149V55.1161ZM49.0837 55.7818L48.7738 49.1118L47.7367 48.9779C46.7843 51.0785 46.0267 53.2619 45.4733 55.5009C46.6563 55.7758 47.8741 55.8701 49.0853 55.7806L49.0837 55.7818ZM58.8629 51.229C59.6565 50.3733 60.2888 49.3812 60.7291 48.3004C58.619 47.4126 56.4449 46.6854 54.2253 46.125L53.6939 46.9147L58.8629 51.229ZM52.8529 47.7403L52.0422 48.2893C52.0996 48.4067 52.1467 48.51 52.1995 48.6103C52.7026 49.5713 53.2103 50.5301 53.7099 51.493C54.1353 52.3125 54.5516 53.1381 54.9744 53.958C55.0073 54.0133 55.0442 54.0662 55.0845 54.1164C56.1549 53.5673 57.1467 52.8771 58.0335 52.0642C57.574 51.5297 53.6533 48.2709 52.8545 47.7407L52.8529 47.7403ZM54.6404 45.0779C56.8302 45.6478 58.9778 46.3691 61.0677 47.2364C61.3282 46.2015 61.3265 45.118 61.0628 44.0839C59.9732 43.792 55.2984 43.6872 54.6388 43.9152L54.6404 45.0779ZM40.5082 54.0184C39.7939 53.2819 39.2414 52.4042 38.886 51.4417C38.8053 51.529 38.7437 51.5868 38.6917 51.6522C38.1181 52.3644 37.6215 53.1353 37.2099 53.9519C37.1006 54.1626 37.0562 54.4011 37.0825 54.6371C37.199 55.9467 37.5422 57.226 38.0968 58.4181C38.2265 58.6882 38.381 58.9461 38.5245 59.2097L38.5914 59.2017C38.9932 57.3953 39.638 55.6516 40.5082 54.0184ZM60.2712 40.5007L60.254 40.5634C60.2987 40.6113 60.3431 40.6598 60.3886 40.7069C60.9803 41.3041 61.4514 42.0097 61.7763 42.7851C61.8077 42.877 61.8655 42.9577 61.9426 43.0169C62.0196 43.0761 62.1124 43.1112 62.2094 43.1179C63.7415 43.3682 65.2407 43.7899 66.6787 44.3751L67.4186 44.6781C67.313 44.3923 67.2376 44.1605 67.1424 43.937C66.9394 43.3897 66.6095 42.8982 66.1798 42.5031C65.8381 42.2146 65.4644 41.9648 65.1196 41.6798C64.6684 41.343 64.1561 41.0969 63.6111 40.9552C62.7453 40.6948 61.8505 40.5427 60.9472 40.5026C60.7226 40.4888 60.4965 40.5007 60.2712 40.5007ZM46.0499 48.1967C44.463 49.9021 43.0716 51.7795 41.9015 53.7939C42.6481 54.3962 43.4956 54.8613 44.4048 55.1673C44.9738 52.9153 45.7368 50.7168 46.6853 48.5965L46.0499 48.1967ZM69.416 66.3808C69.4541 66.3552 69.4901 66.3265 69.5235 66.2951C70.4912 65.0563 71.3296 63.7218 72.0256 62.3124C72.0768 62.2009 72.1063 62.0807 72.1125 61.9582C72.1746 60.9603 72.0955 59.9586 71.8776 58.9828C71.8252 58.7368 71.749 58.4958 71.684 58.2525C70.8704 60.1028 69.852 61.8562 68.6478 63.4797C69.0303 64.4087 69.2886 65.3842 69.416 66.3808ZM41.0782 53.0012C42.2811 50.9855 43.6926 49.1019 45.2893 47.3814L44.9943 46.8894C44.9339 46.9158 44.8906 46.9326 44.8489 46.9525C43.5165 47.5891 42.2597 48.3731 41.1019 49.2897C40.701 49.6096 40.3307 49.9673 39.9404 50.3009C39.8723 50.3436 39.8226 50.4103 39.801 50.4878C39.7794 50.5653 39.7875 50.648 39.8237 50.7198C39.9412 50.9999 40.0192 51.2971 40.1455 51.573C40.3844 52.0919 40.6987 52.5726 41.0782 52.9996V53.0012ZM53.8607 42.194C53.9808 42.3677 54.086 42.5142 54.1843 42.6646C54.2055 42.7015 54.2372 42.7313 54.2755 42.7501C54.3138 42.7688 54.3568 42.7757 54.3989 42.7698C54.9587 42.7357 55.5184 42.6864 56.0785 42.6825C56.9454 42.6768 57.8127 42.6933 58.68 42.7208C59.1353 42.735 59.5891 42.7973 60.0443 42.8245C60.2183 42.8619 60.3984 42.8608 60.5719 42.8214C60.1337 42.0166 59.5314 41.3128 58.804 40.7555C58.7556 40.7186 58.6994 40.6934 58.6397 40.6817C58.58 40.67 58.5184 40.6722 58.4597 40.6882C56.8652 40.9774 55.3179 41.4836 53.8607 42.1925V42.194ZM36.3055 56.7283C36.1614 57.0795 36.0986 57.4588 36.1219 57.8377C36.1636 58.2724 36.2194 58.7058 36.2749 59.1385C36.5163 61.0459 37.2184 62.8658 38.3206 64.4411C38.3466 64.4875 38.3687 64.536 38.3864 64.5861L38.4441 64.5314C38.4483 64.5034 38.4495 64.4751 38.448 64.4468C38.2607 63.3294 38.2221 62.192 38.3332 61.0644C38.341 60.994 38.3343 60.9227 38.3134 60.8549C38.2924 60.7872 38.2578 60.7245 38.2115 60.6708C37.4318 59.6811 36.8487 58.5513 36.4937 57.3423L36.3055 56.7283ZM45.2759 43.6348C44.6584 43.5724 44.0899 43.5296 43.5279 43.4542C43.0556 43.4127 42.58 43.4311 42.1123 43.5089C42.0413 43.514 41.9723 43.5349 41.9104 43.5701C41.8485 43.6054 41.7953 43.654 41.7546 43.7125C41.387 44.2328 41.0139 44.7489 40.6581 45.2768C40.5398 45.4749 40.4337 45.6801 40.3406 45.8913C40.6001 45.8071 40.8534 45.7049 41.0985 45.5852C42.1321 45.123 43.2125 44.7733 44.321 44.5423C44.5197 44.5342 44.7144 44.4844 44.8926 44.3961C45.0322 44.2859 45.075 44.0537 45.1604 43.8754C45.1871 43.8158 45.2162 43.7576 45.2759 43.6348ZM49.0696 45.475C49.4042 45.4872 49.7369 45.42 50.0405 45.2789C50.3442 45.1378 50.6101 44.9268 50.8165 44.6632C50.9719 44.4798 51.049 44.2426 51.0311 44.0028C51.014 43.8503 50.9523 43.7062 50.8537 43.5886C50.7551 43.471 50.6239 43.3851 50.4767 43.3417C50.2115 43.248 49.9291 43.213 49.649 43.2389C49.3689 43.2649 49.0977 43.3513 48.8542 43.4921C48.5328 43.6437 48.2712 43.8981 48.1108 44.2152C48.0513 44.3138 48.0146 44.4245 48.0037 44.5391C47.9927 44.6538 48.0076 44.7695 48.0474 44.8775C48.0872 44.9856 48.1508 45.0834 48.2335 45.1636C48.3162 45.2437 48.4159 45.3043 48.5252 45.3407C48.7026 45.4006 48.8847 45.4455 49.0696 45.475ZM46.0189 72.9229L46.0621 72.8698C46.0444 72.836 46.0246 72.8034 46.0028 72.7722C45.4492 72.0543 44.9853 71.2715 44.6213 70.4411C44.5954 70.3856 44.5572 70.3366 44.5097 70.298C44.4621 70.2593 44.4063 70.232 44.3466 70.2181C43.3263 69.8715 42.3474 69.4134 41.4275 68.8523C41.3675 68.814 41.3016 68.7876 41.2385 68.7555L41.198 68.7956C41.4256 69.1427 41.6494 69.4923 41.8824 69.8355C41.973 69.9809 42.0805 70.1152 42.2026 70.2353C42.9213 70.8905 43.6932 71.4848 44.5104 72.012C45.0058 72.3273 45.5154 72.6199 46.0189 72.9229ZM39.6015 49.0904C39.8467 48.8853 40.0395 48.7197 40.2369 48.5594C41.5156 47.5318 42.9063 46.652 44.3826 45.9368C44.4873 45.8913 44.5884 45.8377 44.6848 45.7765C44.7231 45.7508 44.7231 45.6762 44.7514 45.5978C44.6714 45.6062 44.6343 45.6066 44.5984 45.6143C43.5524 45.8257 42.5339 46.1556 41.5626 46.5975C40.9956 46.8653 40.4531 47.1882 39.9048 47.4924C39.8352 47.5306 39.7476 47.6006 39.7354 47.668C39.631 48.1346 39.586 48.6125 39.6015 49.0904ZM52.4665 41.1809C52.5588 41.2826 52.6843 41.3481 52.8205 41.3658C52.9567 41.3835 53.0947 41.3521 53.2099 41.2773C54.3495 40.7075 55.5432 40.2532 56.7733 39.9211C56.888 39.8909 57.0005 39.8518 57.1199 39.8151C57.0954 39.7787 57.0893 39.7569 57.0755 39.7508C56.4228 39.4639 55.7409 39.2488 55.0417 39.1092C54.9856 39.0996 54.928 39.1032 54.8735 39.1197C54.8191 39.1362 54.7692 39.1653 54.728 39.2045C54.4579 39.4149 54.1763 39.6116 53.9211 39.8384C53.4322 40.2734 52.9581 40.7253 52.4665 41.1809ZM45.6845 40.6331C44.9312 40.9667 43.5114 41.9361 43.2467 42.2988C43.3186 42.3111 43.3802 42.326 43.443 42.331C43.689 42.3497 43.9376 42.3501 44.1813 42.3845C44.7265 42.461 45.269 42.5582 45.8138 42.6393C45.9023 42.6606 45.9954 42.6502 46.077 42.6099C46.3299 42.414 46.5671 42.1971 46.8422 41.9595L45.6845 40.6331ZM49.5241 39.206C48.5618 39.4135 47.623 39.7178 46.7221 40.1143L47.8124 41.4051L49.0562 40.9774L49.5241 39.206ZM50.2472 40.8259L51.2419 40.8798L53.2566 38.8835C52.5118 38.8499 51.7656 38.8755 51.025 38.96C50.9553 38.9832 50.897 39.0321 50.862 39.0966C50.5582 39.6333 50.3496 40.2185 50.2453 40.8263L50.2472 40.8259ZM38.4334 48.6187C38.1783 48.8892 37.9598 49.1267 37.7348 49.3582C37.4409 49.6317 37.2565 50.0028 37.2161 50.4023C37.1755 50.9126 37.0982 51.4196 37.0366 51.928C37.0602 51.925 37.083 51.9173 37.1034 51.9052C37.1239 51.8931 37.1417 51.8769 37.1556 51.8576C37.591 51.317 38.0279 50.7772 38.4602 50.2339C38.5101 50.1791 38.5405 50.1093 38.5467 50.0354C38.5157 49.5832 38.474 49.1317 38.4315 48.6191L38.4334 48.6187ZM60.6871 39.3985C60.1602 39.0385 57.3907 38.39 56.7935 38.4145C56.826 38.4393 56.8609 38.4608 56.8976 38.4787C57.5694 38.724 58.2141 39.0381 58.8212 39.4161C58.9039 39.458 58.9967 39.4757 59.089 39.4669C59.4119 39.4513 59.7337 39.4172 60.0566 39.4004C60.2498 39.3904 60.4456 39.3988 60.6851 39.3988L60.6871 39.3985ZM72.8095 58.0945C72.9285 56.6961 72.886 55.2021 72.7472 54.8043C72.6362 55.2075 72.5586 55.6012 72.4178 55.9708C72.3363 56.1609 72.2986 56.3669 72.3076 56.5735C72.3166 56.7802 72.3721 56.9821 72.4698 57.1644C72.6025 57.467 72.716 57.7776 72.8095 58.0945ZM53.5297 43.9389L52.1501 44.1119L52.1245 44.486L53.5297 44.7959V43.9389ZM48.8079 47.9905C48.8183 47.6412 48.8068 47.2916 48.7735 46.9437C48.5646 47.2508 48.3885 47.5789 48.2482 47.9228L48.8079 47.9905ZM50.4717 47.7311L49.9824 46.8385L49.9354 46.8569V47.8704C50.0475 47.8493 50.1404 47.8355 50.2311 47.813C50.3038 47.7938 50.3727 47.7644 50.4725 47.7299L50.4717 47.7311ZM58.4134 74.6013C59.7602 74.3541 61.0664 73.922 62.295 73.3174C61.0305 73.8285 59.7342 74.257 58.4141 74.6002L58.4134 74.6013ZM51.9795 45.5928L51.9451 45.6384L52.7887 46.2673L53.0859 45.8431L51.9795 45.5928ZM51.0613 46.3683L51.0196 46.4066L51.5089 47.3018L51.9389 47.0222L51.0613 46.3683ZM47.6234 46.6541C47.3197 46.847 47.062 47.104 46.8682 47.407L47.1639 47.5658L47.6234 46.6541ZM46.9409 44.139V44.0648C46.8414 44.0369 46.7427 44.007 46.6433 43.9806C46.4087 43.9183 46.4087 43.9187 46.3066 44.2071L46.9409 44.139ZM69.0572 45.5217C68.9714 45.3499 68.848 45.1998 68.696 45.0825C68.7106 45.3721 68.7106 45.3721 69.0572 45.5205V45.5217ZM50.0911 41.9924C50.0574 42.1473 50.15 42.1389 50.2361 42.1435C50.3428 42.1488 50.4155 42.1209 50.4079 41.9924H50.0911ZM52.9291 42.8788C52.7611 42.7135 52.7297 42.7204 52.5369 42.9335L52.9291 42.8788ZM46.3418 46.322C46.0579 46.3913 46.0579 46.3913 46.1195 46.5355L46.3418 46.322ZM48.9097 42.2525L48.9016 42.2219C48.8762 42.2189 48.8505 42.2189 48.8251 42.2219C48.7899 42.2311 48.7574 42.2514 48.7222 42.2602C48.6985 42.2646 48.6744 42.2665 48.6503 42.2659L48.7057 42.3321L48.9097 42.2525ZM17.9703 103.506H24.6138C25.465 103.483 26.3123 103.628 27.1075 103.933C27.8926 104.234 28.5803 104.744 29.0962 105.408C29.6122 106.072 29.9367 106.864 30.0346 107.7C30.1599 108.465 30.135 109.247 29.9612 110.003C29.8282 110.677 29.5239 111.305 29.0777 111.827C28.6315 112.348 28.0583 112.746 27.4136 112.982C27.1324 113.097 26.8397 113.182 26.5252 113.29L31.6717 120.003C31.6133 120.023 31.5531 120.037 31.4919 120.045C29.841 120.047 28.1902 120.045 26.5394 120.052C26.3592 120.052 26.2895 119.955 26.21 119.832C24.9658 117.899 23.7204 115.967 22.4737 114.035C22.4197 113.942 22.3449 113.864 22.2552 113.805V119.992C22.0257 120.059 18.3146 120.073 17.9703 120.013V103.506ZM25.8737 108.924C25.8442 108.599 25.8423 108.321 25.791 108.054C25.7376 107.649 25.5702 107.268 25.3084 106.954C25.0467 106.641 24.7012 106.408 24.3123 106.284C23.6572 106.065 22.9486 106.065 22.2935 106.284C21.7748 106.438 21.3347 106.785 21.0635 107.253C20.8746 107.58 20.755 107.942 20.7122 108.318C20.6695 108.693 20.7044 109.073 20.8148 109.434C20.9185 109.829 21.1287 110.187 21.4226 110.471C21.7165 110.754 22.0826 110.951 22.4809 111.041C22.7972 111.154 23.1329 111.202 23.4681 111.183C23.8033 111.163 24.1312 111.077 24.4324 110.928C24.7336 110.78 25.0019 110.573 25.2214 110.318C25.441 110.064 25.6072 109.769 25.7103 109.449C25.7374 109.368 25.76 109.286 25.778 109.203H24.1857C23.8031 109.961 23.494 110.062 22.9691 109.896C22.7729 109.834 22.6091 109.697 22.5132 109.515C22.4173 109.332 22.3971 109.12 22.4568 108.923L25.8737 108.924ZM90.4083 119.789H86.4444V119.445C86.4444 117.661 86.452 115.877 86.439 114.093C86.4385 113.654 86.398 113.217 86.3181 112.786C86.2633 112.428 86.0834 112.101 85.8102 111.863C85.5371 111.625 85.1884 111.491 84.826 111.486C84.579 111.465 84.3303 111.475 84.0857 111.516C83.7529 111.567 83.4419 111.713 83.1901 111.937C82.9384 112.16 82.7565 112.452 82.6664 112.776C82.559 113.143 82.512 113.525 82.5271 113.907V119.783H78.5662V101.641C78.7506 101.579 82.0929 101.556 82.5271 101.623V109.932C82.6201 109.842 82.6618 109.808 82.6951 109.767C83.6703 108.584 84.973 108.241 86.4352 108.314C86.9413 108.328 87.4425 108.417 87.9227 108.578C88.5168 108.784 89.0464 109.142 89.4584 109.617C89.8705 110.092 90.1504 110.667 90.2702 111.284C90.3812 111.769 90.4319 112.265 90.4213 112.761C90.4236 115.013 90.4236 117.264 90.4213 119.516C90.4217 119.598 90.4125 119.683 90.4083 119.789ZM47.2967 103.272V106.899H42.2118V109.661H47.0063V113.313H42.2087V116.138C42.7708 116.184 43.3297 116.154 43.8871 116.159C44.4446 116.164 45.0127 116.159 45.5758 116.159H47.2531C47.3287 117.365 47.337 118.574 47.278 119.782H37.9361C37.8795 119.575 37.868 103.598 37.9269 103.271L47.2967 103.272ZM66.5995 119.668H62.6451V108.437H66.5918V110.125L66.6504 110.147C66.7946 109.969 66.9308 109.783 67.0854 109.614C67.2442 109.437 67.4151 109.27 67.5969 109.117C67.7773 108.961 67.9741 108.825 68.1837 108.711C68.4044 108.6 68.6371 108.514 68.8774 108.456C69.1101 108.405 69.347 108.374 69.5851 108.365C69.8232 108.351 70.062 108.353 70.2998 108.371C70.5351 108.389 70.7677 108.439 71.0237 108.479V105.227C72.3433 105.149 73.666 105.138 74.9868 105.194C74.9868 105.556 74.991 105.924 74.9922 106.292C74.9933 106.66 74.9922 107.019 74.9922 107.38V108.531C75.7432 108.573 76.4842 108.526 77.2383 108.559V111.855H74.9994V119.783H71.0321V111.835C70.8661 111.775 70.6961 111.726 70.5232 111.689C69.8627 111.58 69.1879 111.591 68.5311 111.721C68.1828 111.789 67.8565 111.942 67.5802 112.165C67.304 112.388 67.0862 112.675 66.9457 113.001C66.7569 113.409 66.649 113.849 66.6278 114.298C66.6084 114.718 66.5993 115.137 66.6006 115.557C66.5972 116.807 66.6006 118.057 66.6006 119.306L66.5995 119.668ZM33.9611 112.135C33.4537 112.137 32.9572 111.988 32.5345 111.708C32.1117 111.427 31.7818 111.027 31.5863 110.559C31.3909 110.091 31.3388 109.575 31.4367 109.078C31.5346 108.58 31.778 108.122 32.1361 107.763C32.4942 107.403 32.9509 107.158 33.4484 107.059C33.9459 106.959 34.4618 107.009 34.9307 107.203C35.3996 107.397 35.8005 107.725 36.0825 108.147C36.3646 108.569 36.5152 109.065 36.5152 109.572C36.5188 109.909 36.4553 110.243 36.3283 110.555C36.2013 110.867 36.0135 111.151 35.7757 111.389C35.5379 111.628 35.255 111.817 34.9434 111.945C34.6319 112.073 34.2979 112.138 33.9611 112.135Z" fill="#C7C5C5"/>
<path d="M33.951 119.531C33.4437 119.531 32.9478 119.381 32.5261 119.099C32.1044 118.817 31.7759 118.416 31.5821 117.947C31.3883 117.478 31.338 116.963 31.4375 116.465C31.537 115.968 31.7819 115.511 32.1412 115.153C32.5004 114.795 32.9579 114.551 33.4556 114.453C33.9533 114.355 34.469 114.407 34.9372 114.602C35.4055 114.797 35.8053 115.127 36.086 115.55C36.3667 115.972 36.5158 116.468 36.5143 116.976C36.5163 117.313 36.4514 117.646 36.3232 117.958C36.195 118.269 36.0061 118.552 35.7676 118.79C35.5291 119.028 35.2456 119.216 34.9337 119.343C34.6219 119.47 34.2878 119.534 33.951 119.531Z" fill="#C7C5C5"/>
<path d="M22.5292 107.789C22.5262 107.7 22.5406 107.612 22.5717 107.53C22.6028 107.447 22.65 107.371 22.7104 107.307C22.7708 107.243 22.8434 107.191 22.9239 107.155C23.0044 107.118 23.0913 107.098 23.1796 107.096C23.3556 107.106 23.5223 107.178 23.6496 107.3C23.7769 107.422 23.8565 107.585 23.874 107.761C23.8713 107.942 23.7998 108.117 23.6739 108.248C23.5479 108.379 23.3768 108.457 23.1953 108.467C23.0176 108.464 22.8483 108.391 22.7238 108.264C22.5993 108.137 22.5295 107.966 22.5292 107.789Z" fill="#C7C5C5"/>
</svg>
