<svg width="526" height="262" viewBox="0 0 526 262" fill="none" xmlns="http://www.w3.org/2000/svg">
<path d="M514.887 254.023C520.104 254.023 524.334 249.794 524.334 244.576C524.334 239.359 520.104 235.129 514.887 235.129C509.669 235.129 505.439 239.359 505.439 244.576C505.439 249.794 509.669 254.023 514.887 254.023Z" stroke="currentColor" stroke-width="2" stroke-linecap="round" stroke-linejoin="round"/>
<path d="M376.455 130.874H450.646C453.987 130.874 457.191 132.201 459.553 134.563C461.915 136.926 463.243 140.129 463.243 143.47C463.243 146.811 461.915 150.015 459.553 152.377C457.191 154.739 453.987 156.066 450.646 156.066H412.858C408.682 156.066 404.677 157.725 401.724 160.678C398.772 163.631 397.113 167.636 397.113 171.812C397.113 175.987 398.772 179.992 401.724 182.945C404.677 185.898 408.682 187.557 412.858 187.557H453.795" stroke="currentColor" stroke-width="2" stroke-linecap="round" stroke-linejoin="round"/>
<path d="M157.795 113.066L162.048 108.812" stroke="currentColor" stroke-width="2" stroke-linecap="round" stroke-linejoin="round"/>
<path d="M127.79 113.066L123.537 108.812" stroke="currentColor" stroke-width="2" stroke-linecap="round" stroke-linejoin="round"/>
<path d="M143.043 106.784V100.77" stroke="currentColor" stroke-width="2" stroke-linecap="round" stroke-linejoin="round"/>
<path d="M143.043 159.184L143.043 153.169" stroke="currentColor" stroke-width="2" stroke-linecap="round" stroke-linejoin="round"/>
<path d="M157.797 147.091L162.05 151.344" stroke="currentColor" stroke-width="2" stroke-linecap="round" stroke-linejoin="round"/>
<path d="M127.791 147.091L123.538 151.344" stroke="currentColor" stroke-width="2" stroke-linecap="round" stroke-linejoin="round"/>
<path d="M454.174 187.431C457.515 187.431 460.719 188.758 463.081 191.12C465.443 193.482 466.77 196.686 466.77 200.027C466.77 203.368 465.443 206.571 463.081 208.934C460.719 211.296 457.515 212.623 454.174 212.623H416.386C412.21 212.623 408.205 214.282 405.252 217.235C402.299 220.187 400.641 224.192 400.641 228.368C400.641 232.544 402.299 236.549 405.252 239.502C408.205 242.454 412.21 244.113 416.386 244.113H504.769" stroke="currentColor" stroke-width="2" stroke-linecap="round" stroke-linejoin="round"/>
<path d="M23.0363 64.9954C17.8188 64.9954 13.5892 69.225 13.5892 74.4425C13.5892 79.66 17.8188 83.8896 23.0363 83.8896C28.2538 83.8896 32.4834 79.66 32.4834 74.4425C32.4834 69.225 28.2538 64.9954 23.0363 64.9954Z" stroke="currentColor" stroke-width="2" stroke-linecap="round" stroke-linejoin="round"/>
<path d="M109.824 131.126L35.6329 131.126C32.2922 131.126 29.0883 129.799 26.7261 127.437C24.3638 125.074 23.0367 121.871 23.0367 118.53C23.0367 115.189 24.3638 111.985 26.7261 109.623C29.0883 107.261 32.2922 105.934 35.6329 105.934L73.4213 105.934C77.5972 105.934 81.6021 104.275 84.5549 101.322C87.5077 98.3692 89.1665 94.3644 89.1665 90.1885C89.1665 86.0126 87.5077 82.0077 84.5549 79.0549C81.6021 76.1021 77.5972 74.4433 73.4213 74.4433L32.4838 74.4433" stroke="currentColor" stroke-width="2" stroke-linecap="round" stroke-linejoin="round"/>
<path d="M277.702 229.25C331.964 229.25 375.952 185.262 375.952 131C375.952 76.738 331.964 32.75 277.702 32.75C223.44 32.75 179.452 76.738 179.452 131C179.452 185.262 223.44 229.25 277.702 229.25Z" stroke="#00755B" stroke-width="2" stroke-miterlimit="10"/>
<path d="M179.452 131H375.952" stroke="#00755B" stroke-width="2" stroke-linecap="round" stroke-linejoin="round"/>
<path d="M277.702 226.612C300.311 226.612 318.64 183.805 318.64 130.999C318.64 78.1939 300.311 35.3867 277.702 35.3867C255.093 35.3867 236.765 78.1939 236.765 130.999C236.765 183.805 255.093 226.612 277.702 226.612Z" stroke="#00755B" stroke-width="2" stroke-miterlimit="10"/>
</svg>
