<svg width="126" height="91" viewBox="0 0 126 91" fill="none" xmlns="http://www.w3.org/2000/svg">
<path d="M110 20C112.209 20 114 18.2091 114 16C114 13.7909 112.209 12 110 12C107.791 12 106 13.7909 106 16C106 18.2091 107.791 20 110 20Z" stroke="currentColor" stroke-width="2" stroke-linecap="round" stroke-linejoin="round"/>
<path d="M119.867 19.9999C119.689 20.4021 119.636 20.8482 119.715 21.2807C119.793 21.7132 119.999 22.1123 120.307 22.4266L120.387 22.5066C120.635 22.7542 120.831 23.0483 120.966 23.3721C121.1 23.6958 121.169 24.0428 121.169 24.3933C121.169 24.7437 121.1 25.0907 120.966 25.4144C120.831 25.7382 120.635 26.0323 120.387 26.2799C120.139 26.5279 119.845 26.7245 119.521 26.8587C119.198 26.9929 118.851 27.062 118.5 27.062C118.15 27.062 117.803 26.9929 117.479 26.8587C117.155 26.7245 116.861 26.5279 116.613 26.2799L116.533 26.1999C116.219 25.8925 115.82 25.6863 115.388 25.6079C114.955 25.5295 114.509 25.5824 114.107 25.7599C113.712 25.9289 113.376 26.2096 113.139 26.5673C112.902 26.925 112.775 27.3442 112.773 27.7733V27.9999C112.773 28.7072 112.493 29.3854 111.992 29.8855C111.492 30.3856 110.814 30.6666 110.107 30.6666C109.4 30.6666 108.721 30.3856 108.221 29.8855C107.721 29.3854 107.44 28.7072 107.44 27.9999V27.8799C107.43 27.4386 107.287 27.0106 107.03 26.6515C106.773 26.2925 106.414 26.019 106 25.8666C105.598 25.6891 105.152 25.6362 104.719 25.7146C104.287 25.793 103.888 25.9992 103.573 26.3066L103.493 26.3866C103.246 26.6345 102.952 26.8312 102.628 26.9654C102.304 27.0996 101.957 27.1687 101.607 27.1687C101.256 27.1687 100.909 27.0996 100.586 26.9654C100.262 26.8312 99.9678 26.6345 99.7202 26.3866C99.4722 26.1389 99.2755 25.8448 99.1413 25.5211C99.0071 25.1974 98.9381 24.8504 98.9381 24.4999C98.9381 24.1495 99.0071 23.8025 99.1413 23.4787C99.2755 23.155 99.4722 22.8609 99.7202 22.6132L99.8002 22.5333C100.108 22.219 100.314 21.8199 100.392 21.3874C100.471 20.9548 100.418 20.5087 100.24 20.1066C100.071 19.7122 99.7905 19.3759 99.4328 19.139C99.0751 18.9021 98.6559 18.775 98.2268 18.7733H98.0002C97.2929 18.7733 96.6146 18.4923 96.1145 17.9922C95.6144 17.4921 95.3335 16.8138 95.3335 16.1066C95.3335 15.3993 95.6144 14.7211 96.1145 14.221C96.6146 13.7209 97.2929 13.4399 98.0002 13.4399H98.1202C98.5615 13.4296 98.9895 13.2867 99.3486 13.0299C99.7076 12.7731 99.9811 12.4142 100.133 11.9999C100.311 11.5978 100.364 11.1517 100.286 10.7191C100.207 10.2866 100.001 9.88749 99.6935 9.57325L99.6135 9.49325C99.3656 9.24559 99.1689 8.95149 99.0347 8.62776C98.9005 8.30403 98.8314 7.95703 98.8314 7.60658C98.8314 7.25614 98.9005 6.90914 99.0347 6.58541C99.1689 6.26168 99.3656 5.96758 99.6135 5.71992C99.8612 5.47198 100.155 5.27529 100.479 5.14109C100.803 5.00689 101.15 4.93782 101.5 4.93782C101.851 4.93782 102.198 5.00689 102.521 5.14109C102.845 5.27529 103.139 5.47198 103.387 5.71992L103.467 5.79992C103.781 6.1073 104.18 6.3135 104.613 6.39192C105.045 6.47035 105.491 6.41741 105.893 6.23992H106C106.395 6.0709 106.731 5.79026 106.968 5.43254C107.205 5.07482 107.332 4.65563 107.333 4.22659V3.99992C107.333 3.29267 107.614 2.6144 108.115 2.1143C108.615 1.6142 109.293 1.33325 110 1.33325C110.707 1.33325 111.386 1.6142 111.886 2.1143C112.386 2.6144 112.667 3.29267 112.667 3.99992V4.11992C112.669 4.54897 112.796 4.96815 113.033 5.32587C113.269 5.68359 113.606 5.96423 114 6.13325C114.402 6.31074 114.848 6.36368 115.281 6.28526C115.713 6.20683 116.113 6.00063 116.427 5.69325L116.507 5.61325C116.754 5.36531 117.049 5.16862 117.372 5.03443C117.696 4.90023 118.043 4.83115 118.393 4.83115C118.744 4.83115 119.091 4.90023 119.415 5.03443C119.738 5.16862 120.032 5.36531 120.28 5.61325C120.528 5.86091 120.725 6.15502 120.859 6.47874C120.993 6.80247 121.062 7.14948 121.062 7.49992C121.062 7.85036 120.993 8.19736 120.859 8.52109C120.725 8.84482 120.528 9.13892 120.28 9.38658L120.2 9.46658C119.893 9.78082 119.687 10.1799 119.608 10.6125C119.53 11.045 119.583 11.4911 119.76 11.8933V11.9999C119.929 12.3943 120.21 12.7306 120.568 12.9675C120.925 13.2044 121.344 13.3315 121.773 13.3333H122C122.707 13.3333 123.386 13.6142 123.886 14.1143C124.386 14.6144 124.667 15.2927 124.667 15.9999C124.667 16.7072 124.386 17.3854 123.886 17.8855C123.386 18.3856 122.707 18.6666 122 18.6666H121.88C121.451 18.6683 121.032 18.7954 120.674 19.0323C120.316 19.2692 120.036 19.6056 119.867 19.9999V19.9999Z" stroke="currentColor" stroke-width="2" stroke-linecap="round" stroke-linejoin="round"/>
<path d="M35 76V82.6667C35 83.5507 34.6488 84.3986 34.0237 85.0237C33.3986 85.6488 32.5507 86 31.6667 86H8.33333C7.44928 86 6.60143 85.6488 5.97631 85.0237C5.35119 84.3986 5 83.5507 5 82.6667V76" stroke="currentColor" stroke-width="2" stroke-linecap="round" stroke-linejoin="round"/>
<path d="M28.3337 64.3333L20.0003 56L11.667 64.3333" stroke="currentColor" stroke-width="2" stroke-linecap="round" stroke-linejoin="round"/>
<path d="M20 56V76" stroke="currentColor" stroke-width="2" stroke-linecap="round" stroke-linejoin="round"/>
<path d="M102.667 37.25H70.4167C66.4586 37.25 63.25 40.4586 63.25 44.4167V76.6667C63.25 80.6247 66.4586 83.8333 70.4167 83.8333H102.667C106.625 83.8333 109.833 80.6247 109.833 76.6667V44.4167C109.833 40.4586 106.625 37.25 102.667 37.25Z" stroke="currentColor" stroke-width="2" stroke-linecap="round" stroke-linejoin="round"/>
<path d="M48.917 58.7501H45.3337C43.4329 58.7501 41.6101 57.995 40.2661 56.651C38.922 55.307 38.167 53.4841 38.167 51.5834V19.3334C38.167 17.4327 38.922 15.6098 40.2661 14.2658C41.6101 12.9218 43.4329 12.1667 45.3337 12.1667H77.5837C79.4844 12.1667 81.3072 12.9218 82.6513 14.2658C83.9953 15.6098 84.7503 17.4327 84.7503 19.3334V22.9167" stroke="currentColor" stroke-width="2" stroke-linecap="round" stroke-linejoin="round"/>
</svg>
