<svg width="24" height="24" viewBox="0 0 24 24" fill="none" xmlns="http://www.w3.org/2000/svg">
<path fill-rule="evenodd" clip-rule="evenodd" d="M15.2929 6.70711C15.6834 7.09763 16.3166 7.09763 16.7071 6.70711C17.0976 6.31658 17.0976 5.68342 16.7071 5.29289L12.7071 1.29289C12.3166 0.902369 11.6834 0.902369 11.2929 1.29289L7.29289 5.29289C6.90237 5.68342 6.90237 6.31658 7.29289 6.70711C7.68342 7.09763 8.31658 7.09763 8.70711 6.70711L11 4.41421V16C11 16.5523 11.4477 17 12 17C12.5523 17 13 16.5523 13 16V4.41421L15.2929 6.70711ZM2 17V20C2 21.6569 3.34315 23 5 23H19C20.6569 23 22 21.6569 22 20V17C22 16.4477 21.5523 16 21 16C20.4477 16 20 16.4477 20 17V20C20 20.5523 19.5523 21 19 21H5C4.44772 21 4 20.5523 4 20V17C4 16.4477 3.55228 16 3 16C2.44772 16 2 16.4477 2 17Z" fill="currentColor"/>
<mask id="mask0" mask-type="alpha" maskUnits="userSpaceOnUse" x="2" y="1" width="20" height="22">
<path fill-rule="evenodd" clip-rule="evenodd" d="M15.2929 6.70711C15.6834 7.09763 16.3166 7.09763 16.7071 6.70711C17.0976 6.31658 17.0976 5.68342 16.7071 5.29289L12.7081 1.29389C12.7056 1.29138 12.7031 1.28888 12.7005 1.2864C12.5208 1.1099 12.2746 1.0008 12.003 1C12.002 1 12.001 1 12 1C11.999 1 11.998 1 11.997 1C11.8625 1.0004 11.7343 1.02735 11.6172 1.07588C11.4993 1.12468 11.3888 1.19702 11.2929 1.29289L7.29289 5.29289C6.90237 5.68342 6.90237 6.31658 7.29289 6.70711C7.68342 7.09763 8.31658 7.09763 8.70711 6.70711L11 4.41421V16C11 16.5523 11.4477 17 12 17C12.5523 17 13 16.5523 13 16V4.41421L15.2929 6.70711ZM2 17V20C2 21.6569 3.34315 23 5 23H19C20.6569 23 22 21.6569 22 20V17C22 16.4477 21.5523 16 21 16C20.4477 16 20 16.4477 20 17V20C20 20.5523 19.5523 21 19 21H5C4.44772 21 4 20.5523 4 20V17C4 16.4477 3.55228 16 3 16C2.44772 16 2 16.4477 2 17Z" fill="currentColor"/>
</mask>
<g mask="url(#mask0)">
<rect width="24" height="24" fill="currentColor"/>
</g>
</svg>
