<svg width="24" height="24" viewBox="0 0 24 24" fill="none" xmlns="http://www.w3.org/2000/svg">
<path fill-rule="evenodd" clip-rule="evenodd" d="M4.56848 5.98269L0.292893 1.70711C-0.097631 1.31658 -0.097631 0.683418 0.292893 0.292893C0.683418 -0.0976311 1.31658 -0.0976311 1.70711 0.292893L6.75542 5.34121C6.76271 5.34828 6.76991 5.35547 6.77701 5.3628L10.5832 9.16897C10.5855 9.17127 10.5878 9.17359 10.5901 9.17592L14.8242 13.41C14.8265 13.4122 14.8287 13.4144 14.8309 13.4167L18.6354 17.2212C18.6427 17.2283 18.6499 17.2355 18.657 17.2428L23.7071 22.2929C24.0976 22.6834 24.0976 23.3166 23.7071 23.7071C23.3166 24.0976 22.6834 24.0976 22.2929 23.7071L17.8261 19.2403C16.096 20.3536 14.0828 20.9661 12 21C8.6202 21 5.66131 19.3675 3.14546 16.6839C2.28113 15.762 1.5305 14.7776 0.894336 13.7925C0.509967 13.1974 0.246141 12.7283 0.105573 12.4472C-0.0397387 12.1566 -0.0347894 11.8135 0.118844 11.5272C1.25035 9.4185 2.7597 7.53966 4.56848 5.98269ZM5.9871 7.40131C4.4503 8.70138 3.14933 10.2582 2.14256 12.0032C2.268 12.2199 2.41207 12.4561 2.57441 12.7075C3.14919 13.5974 3.82825 14.488 4.60454 15.3161C6.77619 17.6325 9.2548 19 11.9837 19.0001C13.532 18.9748 15.0414 18.5538 16.3714 17.7856L14.0498 15.464C13.1345 16.0378 12.0106 16.225 10.9354 15.9504C9.51816 15.5885 8.41149 14.4818 8.04955 13.0646C7.77496 11.9894 7.96225 10.8655 8.53596 9.95018L5.9871 7.40131ZM10.0279 11.4421C9.90853 11.8001 9.89062 12.1909 9.98736 12.5697C10.1683 13.2783 10.7217 13.8317 11.4303 14.0126C11.8091 14.1094 12.1999 14.0915 12.5579 13.9721L10.0279 11.4421ZM20.1962 15.9552C19.7736 15.5996 19.7193 14.9687 20.0748 14.5462C20.7439 13.751 21.3406 12.8981 21.858 11.9977C21.7324 11.7807 21.5882 11.5443 21.4256 11.2925C20.8508 10.4026 20.1718 9.51198 19.3955 8.68394C17.2238 6.36751 14.7452 5 11.9977 5C11.3682 4.99852 10.7408 5.07023 10.1279 5.21368C9.59016 5.33955 9.05219 5.00566 8.92632 4.46791C8.80045 3.93016 9.13434 3.39219 9.67209 3.26632C10.4359 3.08753 11.2179 2.99816 12 3C15.3798 3 18.3387 4.63249 20.8545 7.31606C21.7189 8.23802 22.4695 9.22245 23.1057 10.2075C23.49 10.8026 23.7539 11.2717 23.8944 11.5528C24.0395 11.8429 24.0348 12.1854 23.8819 12.4714C23.2421 13.6684 22.479 14.7953 21.6052 15.8338C21.2496 16.2564 20.6187 16.3107 20.1962 15.9552Z" fill="currentColor"/>
<mask id="mask0" mask-type="alpha" maskUnits="userSpaceOnUse" x="0" y="0" width="24" height="24">
<path fill-rule="evenodd" clip-rule="evenodd" d="M4.56848 5.98269L0.292893 1.70711C-0.097631 1.31658 -0.097631 0.683418 0.292893 0.292893C0.683418 -0.0976311 1.31658 -0.0976311 1.70711 0.292893L6.75542 5.34121C6.76271 5.34828 6.76991 5.35547 6.77701 5.3628L10.5832 9.16897C10.5855 9.17127 10.5878 9.17359 10.5901 9.17592L14.8242 13.41C14.8265 13.4122 14.8287 13.4145 14.8309 13.4167L18.6354 17.2212C18.6427 17.2283 18.6499 17.2355 18.657 17.2428L23.7071 22.2929C24.0976 22.6834 24.0976 23.3166 23.7071 23.7071C23.3166 24.0976 22.6834 24.0976 22.2929 23.7071L17.8261 19.2403C16.096 20.3536 14.0828 20.9661 12 21C8.6202 21 5.66131 19.3675 3.14546 16.6839C2.28113 15.762 1.5305 14.7776 0.894336 13.7925C0.509967 13.1974 0.246141 12.7283 0.105573 12.4472C-0.0397387 12.1566 -0.0347894 11.8135 0.118844 11.5272C1.25035 9.4185 2.7597 7.53966 4.56848 5.98269ZM5.9871 7.40131C4.4503 8.70138 3.14933 10.2582 2.14256 12.0032C2.268 12.2199 2.41207 12.4561 2.57441 12.7075C3.14919 13.5974 3.82825 14.488 4.60454 15.3161C6.77619 17.6325 9.2548 19 11.9837 19.0001C13.532 18.9748 15.0414 18.5538 16.3714 17.7856L14.0498 15.464C13.1345 16.0377 12.0106 16.225 10.9354 15.9504C9.51816 15.5885 8.41149 14.4818 8.04955 13.0646C7.77496 11.9894 7.96225 10.8655 8.53596 9.95018L5.9871 7.40131ZM10.0279 11.4421C9.90853 11.8001 9.89062 12.1909 9.98736 12.5697C10.1683 13.2783 10.7217 13.8317 11.4303 14.0126C11.8091 14.1094 12.1999 14.0915 12.5579 13.9721L10.0279 11.4421ZM20.1962 15.9552C19.7736 15.5996 19.7193 14.9687 20.0748 14.5462C20.7439 13.751 21.3406 12.8981 21.858 11.9977C21.7324 11.7807 21.5882 11.5443 21.4256 11.2925C20.8508 10.4026 20.1718 9.51198 19.3955 8.68394C17.2238 6.36751 14.7452 5 11.9977 5C11.3682 4.99852 10.7408 5.07023 10.1279 5.21368C9.59016 5.33955 9.05219 5.00566 8.92632 4.46791C8.80045 3.93016 9.13434 3.39219 9.67209 3.26632C10.4359 3.08753 11.2179 2.99816 12 3C15.3798 3 18.3387 4.63249 20.8545 7.31606C21.7189 8.23802 22.4695 9.22244 23.1057 10.2075C23.49 10.8026 23.7539 11.2717 23.8944 11.5528C24.0395 11.8429 24.0348 12.1854 23.8819 12.4714C23.2421 13.6684 22.479 14.7953 21.6052 15.8338C21.2496 16.2564 20.6187 16.3107 20.1962 15.9552Z" fill="currentColor"/>
</mask>
<g mask="url(#mask0)">
</g>
</svg>
