<svg width="24" height="24" viewBox="0 0 24 24" fill="none" xmlns="http://www.w3.org/2000/svg">
<path fill-rule="evenodd" clip-rule="evenodd" d="M0.894336 10.2075C0.509967 10.8026 0.246141 11.2717 0.105573 11.5528C-0.0351909 11.8343 -0.0351909 12.1657 0.105573 12.4472C0.246141 12.7283 0.509967 13.1974 0.894336 13.7925C1.5305 14.7776 2.28113 15.762 3.14546 16.6839C5.66131 19.3675 8.6202 21 12 21C15.3798 21 18.3387 19.3675 20.8545 16.6839C21.7189 15.762 22.4695 14.7776 23.1057 13.7925C23.49 13.1974 23.7539 12.7283 23.8944 12.4472C24.0352 12.1657 24.0352 11.8343 23.8944 11.5528C23.7539 11.2717 23.49 10.8026 23.1057 10.2075C22.4695 9.22245 21.7189 8.23802 20.8545 7.31606C18.3387 4.63249 15.3798 3 12 3C8.6202 3 5.66131 4.63249 3.14546 7.31606C2.28113 8.23802 1.5305 9.22245 0.894336 10.2075ZM4.60459 15.3161C3.8283 14.488 3.14924 13.5974 2.57447 12.7075C2.41133 12.4549 2.26664 12.2176 2.14077 12C2.26664 11.7824 2.41133 11.5451 2.57447 11.2925C3.14924 10.4026 3.8283 9.51198 4.60459 8.68394C6.77625 6.36751 9.25486 5 12.0001 5C14.7453 5 17.2239 6.36751 19.3955 8.68394C20.1718 9.51198 20.8509 10.4026 21.4256 11.2925C21.5888 11.5451 21.7335 11.7824 21.8593 12C21.7335 12.2176 21.5888 12.4549 21.4256 12.7075C20.8509 13.5974 20.1718 14.488 19.3955 15.3161C17.2239 17.6325 14.7453 19 12.0001 19C9.25486 19 6.77625 17.6325 4.60459 15.3161ZM12 16C9.79086 16 8 14.2091 8 12C8 9.79086 9.79086 8 12 8C14.2091 8 16 9.79086 16 12C16 14.2091 14.2091 16 12 16ZM14 12C14 13.1046 13.1046 14 12 14C10.8954 14 10 13.1046 10 12C10 10.8954 10.8954 10 12 10C13.1046 10 14 10.8954 14 12Z" fill="currentColor"/>
<mask id="mask0" mask-type="alpha" maskUnits="userSpaceOnUse" x="8" y="8" width="8" height="8">
<path fill-rule="evenodd" clip-rule="evenodd" d="M8 12C8 14.2091 9.79086 16 12 16C14.2091 16 16 14.2091 16 12C16 9.79086 14.2091 8 12 8C9.79086 8 8 9.79086 8 12ZM14 12C14 13.1046 13.1046 14 12 14C10.8954 14 10 13.1046 10 12C10 10.8954 10.8954 10 12 10C13.1046 10 14 10.8954 14 12Z" fill="currentColor"/>
</mask>
<g mask="url(#mask0)">
<rect width="24" height="24" fill="currentColor"/>
</g>
</svg>
