<svg width="24" height="24" viewBox="0 0 24 24" fill="none" xmlns="http://www.w3.org/2000/svg">
<mask id="mask0" mask-type="alpha" maskUnits="userSpaceOnUse" x="2" y="1" width="20" height="22">
<path fill-rule="evenodd" clip-rule="evenodd" d="M22.0001 2L22.0001 6C22.0001 6.55229 21.5523 7 21.0001 7L3.00005 7C2.44776 7 2.00004 6.55229 2.00004 6L2.00004 2C2.00004 1.44771 2.44776 0.999999 3.00005 0.999999L21.0001 1C21.5523 1 22.0001 1.44772 22.0001 2ZM22 10L22 14C22 14.5523 21.7364 15 21 15L2.99999 15C2.26361 15 1.99999 14.5523 1.99999 14L1.99999 10C1.99999 9.44774 2.26361 9.00003 2.99999 9.00003L21 9.00003C21.7364 9.00003 22 9.44774 22 10ZM22 22.0001L22 18.0001C22 17.4478 21.5522 17.0001 21 17.0001L2.99994 17.0001C2.44765 17.0001 1.99994 17.4478 1.99994 18.0001L1.99994 22.0001C1.99994 22.5524 2.44765 23.0001 2.99994 23.0001L21 23.0001C21.5522 23.0001 22 22.5524 22 22.0001ZM3.99982 19.0001L19.9998 19.0001L19.9998 21.0001L3.99982 21.0001L3.99982 19.0001ZM3.99988 11L19.9999 11L19.9999 13L3.99988 13L3.99988 11ZM3.99993 4.99995L3.99993 2.99995L19.9999 2.99995L19.9999 4.99995L3.99993 4.99995Z" fill="currentColor"/>
</mask>
<g mask="url(#mask0)">
<path d="M24.0001 -2.94685e-05L24.0001 24L6.10352e-05 24L6.20842e-05 -3.05176e-05L24.0001 -2.94685e-05Z" fill="currentColor"/>
</g>
</svg>
