<svg width="24" height="24" viewBox="0 0 24 24" fill="none" xmlns="http://www.w3.org/2000/svg">
    <path fill-rule="evenodd" clip-rule="evenodd" d="M7.53142 11.5535C7.77803 11.985 7.62809 12.5348 7.19652 12.7814L3.31401 15L12 19.9634L20.686 15L19.0535 14.0671C18.6219 13.8205 18.472 13.2708 18.7186 12.8392C18.9652 12.4076 19.515 12.2577 19.9465 12.5043L22.9465 14.2186C23.2269 14.3788 23.4 14.677 23.4 15C23.4 15.323 23.2269 15.6212 22.9465 15.7814L12.4465 21.7814C12.1698 21.9395 11.8302 21.9395 11.5535 21.7814L1.05347 15.7814C0.773056 15.6212 0.599998 15.323 0.599998 15C0.599998 14.677 0.773056 14.3788 1.05347 14.2186L6.30347 11.2186C6.73504 10.972 7.28481 11.1219 7.53142 11.5535Z" fill="currentColor"/>
    <path fill-rule="evenodd" clip-rule="evenodd" d="M19.3476 4.9C19.148 4.9 18.9566 4.97927 18.8155 5.12038L11.5916 12.3443L11.2369 13.7631L12.6557 13.4084L19.8796 6.18448C20.0207 6.04337 20.1 5.85199 20.1 5.65243C20.1 5.45287 20.0207 5.26149 19.8796 5.12038C19.7385 4.97927 19.5471 4.9 19.3476 4.9ZM17.5427 3.84759C18.0214 3.36891 18.6706 3.1 19.3476 3.1C20.0245 3.1 20.6737 3.36891 21.1524 3.84759C21.6311 4.32626 21.9 4.97548 21.9 5.65243C21.9 6.32938 21.6311 6.9786 21.1524 7.45727L13.7523 14.8574C13.6369 14.9728 13.4924 15.0546 13.3341 15.0942L10.2183 15.8731C9.91159 15.9498 9.58715 15.8599 9.36361 15.6364C9.14006 15.4129 9.0502 15.0884 9.12687 14.7817L9.90584 11.6659C9.9454 11.5076 10.0272 11.3631 10.1426 11.2477L17.5427 3.84759Z" fill="currentColor"/>
    <path fill-rule="evenodd" clip-rule="evenodd" d="M3 5C3 4.44772 3.44772 4 4 4H10C10.5523 4 11 4.44772 11 5C11 5.55228 10.5523 6 10 6H4C3.44772 6 3 5.55228 3 5Z" fill="currentColor"/>
    <path fill-rule="evenodd" clip-rule="evenodd" d="M7 1C7.55228 1 8 1.44772 8 2V8C8 8.55228 7.55228 9 7 9C6.44772 9 6 8.55228 6 8V2C6 1.44772 6.44772 1 7 1Z" fill="currentColor"/>
</svg>
