<svg width="24" height="24" viewBox="0 0 24 24" fill="none" xmlns="http://www.w3.org/2000/svg">
<path fill-rule="evenodd" clip-rule="evenodd" d="M19.3476 2.9C19.148 2.9 18.9566 2.97927 18.8155 3.12038L11.5916 10.3443L11.2369 11.7631L12.6557 11.4084L19.8796 4.18448C20.0207 4.04337 20.1 3.85199 20.1 3.65243C20.1 3.45287 20.0207 3.26149 19.8796 3.12038C19.7385 2.97927 19.5471 2.9 19.3476 2.9ZM17.5427 1.84759C18.0214 1.36891 18.6706 1.1 19.3476 1.1C20.0245 1.1 20.6737 1.36891 21.1524 1.84759C21.6311 2.32626 21.9 2.97548 21.9 3.65243C21.9 4.32938 21.6311 4.9786 21.1524 5.45727L13.7522 12.8574C13.6369 12.9728 13.4924 13.0546 13.3341 13.0942L10.2183 13.8731C9.91158 13.9498 9.58714 13.8599 9.3636 13.6364C9.14006 13.4129 9.05019 13.0884 9.12687 12.7817L9.90583 9.66586C9.94539 9.50761 10.0272 9.36309 10.1426 9.24775L17.5427 1.84759Z" fill="#C7C5C5"/>
<path fill-rule="evenodd" clip-rule="evenodd" d="M5.78142 9.55347C6.02803 9.98504 5.8781 10.5348 5.44653 10.7814L3.31401 12L12 16.9634L20.686 12L19.0535 11.0671C18.6219 10.8205 18.472 10.2708 18.7186 9.83919C18.9652 9.40762 19.515 9.25769 19.9465 9.5043L22.9465 11.2186C23.2269 11.3788 23.4 11.677 23.4 12C23.4 12.323 23.2269 12.6212 22.9465 12.7814L12.4465 18.7814C12.1698 18.9395 11.8302 18.9395 11.5535 18.7814L1.05348 12.7814C0.773064 12.6212 0.600006 12.323 0.600006 12C0.600006 11.677 0.773064 11.3788 1.05348 11.2186L4.55348 9.21858C4.98505 8.97197 5.53482 9.12191 5.78142 9.55347Z" fill="#C7C5C5"/>
<path fill-rule="evenodd" clip-rule="evenodd" d="M0.718589 15.3035C0.965198 14.8719 1.51497 14.722 1.94653 14.9686L12 20.7134L22.0535 14.9686C22.485 14.722 23.0348 14.8719 23.2814 15.3035C23.528 15.735 23.3781 16.2848 22.9465 16.5314L12.4465 22.5314C12.1698 22.6895 11.8302 22.6895 11.5535 22.5314L1.05348 16.5314C0.621917 16.2848 0.47198 15.735 0.718589 15.3035Z" fill="#C7C5C5"/>
<path fill-rule="evenodd" clip-rule="evenodd" d="M7.52817 1C8.02522 1 8.42817 1.40294 8.42817 1.9V2.4583C8.72042 2.56454 8.98855 2.72105 9.2221 2.91737L9.70622 2.63786C10.1367 2.38934 10.6871 2.53682 10.9356 2.96729C11.1842 3.39775 11.0367 3.94818 10.6062 4.19671L10.1224 4.47603C10.1486 4.62494 10.1622 4.77817 10.1622 4.93457C10.1622 5.09098 10.1486 5.24421 10.1224 5.39312L10.6062 5.67244C11.0367 5.92097 11.1842 6.4714 10.9356 6.90186C10.6871 7.33232 10.1367 7.47981 9.70622 7.23128L9.2221 6.95177C8.98855 7.1481 8.72042 7.30461 8.42817 7.41085V7.96915C8.42817 8.4662 8.02522 8.86915 7.52817 8.86915C7.03111 8.86915 6.62817 8.4662 6.62817 7.96915V7.41085C6.33592 7.30461 6.06779 7.1481 5.83425 6.95179L5.35015 7.23128C4.91969 7.47981 4.36926 7.33232 4.12073 6.90186C3.8722 6.4714 4.01969 5.92097 4.45015 5.67244L4.9339 5.39314C4.90776 5.24422 4.89412 5.09099 4.89412 4.93457C4.89412 4.77816 4.90776 4.62493 4.9339 4.476L4.45015 4.19671C4.01969 3.94818 3.8722 3.39775 4.12073 2.96729C4.36926 2.53682 4.91969 2.38934 5.35015 2.63786L5.83425 2.91736C6.06779 2.72104 6.33592 2.56454 6.62817 2.4583V1.9C6.62817 1.40294 7.03111 1 7.52817 1ZM8.24596 4.50958C8.24746 4.51224 8.24898 4.5149 8.25051 4.51755C8.25217 4.52044 8.25385 4.5233 8.25554 4.52616C8.32346 4.64687 8.36221 4.7862 8.36221 4.93457C8.36221 5.08295 8.32347 5.22227 8.25555 5.34298L8.25051 5.35159L8.24596 5.35957C8.10067 5.60442 7.83366 5.76856 7.52831 5.76862H7.52817C7.22328 5.76862 6.9566 5.60502 6.81112 5.36083L6.80587 5.35159L6.80008 5.34172C6.7326 5.2213 6.69412 5.08243 6.69412 4.93457C6.69412 4.78671 6.7326 4.64784 6.80009 4.52742L6.80587 4.51755L6.81112 4.50832C6.9566 4.26413 7.22328 4.10053 7.52817 4.10053C7.83358 4.10053 8.10065 4.26469 8.24596 4.50958Z" fill="#C7C5C5"/>
</svg>
