<?xml version="1.0" encoding="UTF-8" standalone="no"?>
<!DOCTYPE svg PUBLIC "-//W3C//DTD SVG 1.1//EN"
 "http://www.w3.org/Graphics/SVG/1.1/DTD/svg11.dtd">
<!-- Generated by graphviz version 2.47.2 (20210527.0053)
 -->
<!-- Title: a Pages: 1 -->
<svg width="444pt" height="217pt"
 viewBox="0.00 0.00 444.00 217.00" xmlns="http://www.w3.org/2000/svg" xmlns:xlink="http://www.w3.org/1999/xlink">
<g id="graph0" class="graph" transform="scale(1 1) rotate(0) translate(4 213)">
<title>a</title>
<polygon fill="white" stroke="transparent" points="-4,4 -4,-213 440,-213 440,4 -4,4"/>
<!-- Engine -->
<g id="node1" class="node">
<title>Engine</title>
<polygon fill="none" stroke="black" points="86,-140 0,-140 0,-118 86,-118 86,-140"/>
<text text-anchor="middle" x="43" y="-126.2" font-family="sans-serif" font-size="11.00">Engine</text>
</g>
<!-- Visualizer -->
<g id="node2" class="node">
<title>Visualizer</title>
<polygon fill="none" stroke="black" points="201,-209 115,-209 115,-187 201,-187 201,-209"/>
<text text-anchor="middle" x="158" y="-195.2" font-family="sans-serif" font-size="11.00">Visualizer</text>
</g>
<!-- Engine&#45;&gt;Visualizer -->
<g id="edge1" class="edge">
<title>Engine&#45;&gt;Visualizer</title>
<path fill="none" stroke="black" stroke-dasharray="5,2" d="M44.87,-140.07C47.03,-148.92 51.44,-161.51 60,-169 73.4,-180.73 91.41,-187.56 108.33,-191.54"/>
<polygon fill="black" stroke="black" points="108.2,-193.66 114.51,-192.88 109.09,-189.55 108.2,-193.66"/>
<text text-anchor="middle" x="102" y="-161" font-family="sans-serif" font-size="10.00">Expose engine API</text>
</g>
<!-- Visualizer&#45;&gt;Engine -->
<g id="edge2" class="edge">
<title>Visualizer&#45;&gt;Engine</title>
<path fill="none" stroke="black" d="M114.88,-191.08C88.05,-186.47 56.98,-179.14 48,-169 42.63,-162.93 41.16,-154.1 41.14,-146.38"/>
<polygon fill="black" stroke="black" points="43.24,-146.32 41.4,-140.23 39.05,-146.14 43.24,-146.32"/>
</g>
<!-- Primitive -->
<g id="node3" class="node">
<title>Primitive</title>
<polygon fill="none" stroke="black" points="202,-81 116,-81 116,-59 202,-59 202,-81"/>
<text text-anchor="middle" x="159" y="-67.2" font-family="sans-serif" font-size="11.00">Primitive</text>
</g>
<!-- Visualizer&#45;&gt;Primitive -->
<g id="edge3" class="edge">
<title>Visualizer&#45;&gt;Primitive</title>
<path fill="none" stroke="black" d="M158.08,-186.69C158.26,-164.8 158.66,-113.54 158.87,-87.22"/>
<polygon fill="black" stroke="black" points="160.97,-87.12 158.92,-81.1 156.77,-87.08 160.97,-87.12"/>
<text text-anchor="middle" x="193.5" y="-126.5" font-family="sans-serif" font-size="10.00">Expose context</text>
</g>
<!-- Widget -->
<g id="node4" class="node">
<title>Widget</title>
<polygon fill="none" stroke="black" points="306,-81 220,-81 220,-59 306,-59 306,-81"/>
<text text-anchor="middle" x="263" y="-67.2" font-family="sans-serif" font-size="11.00">Widget</text>
</g>
<!-- Visualizer&#45;&gt;Widget -->
<g id="edge4" class="edge">
<title>Visualizer&#45;&gt;Widget</title>
<path fill="none" stroke="black" d="M175.56,-186.98C191.96,-176.89 216.22,-159.98 232,-140 244.68,-123.95 253.4,-101.89 258.29,-87.07"/>
<polygon fill="black" stroke="black" points="260.34,-87.56 260.15,-81.2 256.34,-86.29 260.34,-87.56"/>
<text text-anchor="middle" x="279.5" y="-126.5" font-family="sans-serif" font-size="10.00">Expose context</text>
</g>
<!-- Infobox -->
<g id="node5" class="node">
<title>Infobox</title>
<polygon fill="none" stroke="black" points="436,-140 350,-140 350,-118 436,-118 436,-140"/>
<text text-anchor="middle" x="393" y="-126.2" font-family="sans-serif" font-size="11.00">Infobox</text>
</g>
<!-- Visualizer&#45;&gt;Infobox -->
<g id="edge5" class="edge">
<title>Visualizer&#45;&gt;Infobox</title>
<path fill="none" stroke="black" d="M201.21,-187.85C223.91,-182.79 252.1,-176.1 277,-169 305.25,-160.95 336.83,-150.21 359.9,-142.05"/>
<polygon fill="black" stroke="black" points="360.62,-144.02 365.57,-140.03 359.21,-140.06 360.62,-144.02"/>
<text text-anchor="middle" x="346.5" y="-161" font-family="sans-serif" font-size="10.00">Expose context</text>
</g>
<!-- Plugin -->
<g id="node7" class="node">
<title>Plugin</title>
<polygon fill="none" stroke="black" points="306,-22 220,-22 220,0 306,0 306,-22"/>
<text text-anchor="middle" x="263" y="-8.2" font-family="sans-serif" font-size="11.00">Plugin</text>
</g>
<!-- Primitive&#45;&gt;Plugin -->
<g id="edge7" class="edge">
<title>Primitive&#45;&gt;Plugin</title>
<path fill="none" stroke="black" d="M177.59,-58.81C194.75,-49.41 220.32,-35.39 239.01,-25.15"/>
<polygon fill="black" stroke="black" points="240.32,-26.83 244.57,-22.1 238.3,-23.14 240.32,-26.83"/>
</g>
<!-- Widget&#45;&gt;Plugin -->
<g id="edge8" class="edge">
<title>Widget&#45;&gt;Plugin</title>
<path fill="none" stroke="black" d="M263,-58.81C263,-50.3 263,-38.01 263,-28.16"/>
<polygon fill="black" stroke="black" points="265.1,-28.1 263,-22.1 260.9,-28.1 265.1,-28.1"/>
</g>
<!-- Block -->
<g id="node6" class="node">
<title>Block</title>
<polygon fill="none" stroke="black" points="423,-81 337,-81 337,-59 423,-59 423,-81"/>
<text text-anchor="middle" x="380" y="-67.2" font-family="sans-serif" font-size="11.00">Block</text>
</g>
<!-- Infobox&#45;&gt;Block -->
<g id="edge6" class="edge">
<title>Infobox&#45;&gt;Block</title>
<path fill="none" stroke="black" d="M390.68,-117.81C388.73,-109.3 385.93,-97.01 383.69,-87.16"/>
<polygon fill="black" stroke="black" points="385.69,-86.49 382.3,-81.1 381.59,-87.42 385.69,-86.49"/>
</g>
<!-- Block&#45;&gt;Plugin -->
<g id="edge9" class="edge">
<title>Block&#45;&gt;Plugin</title>
<path fill="none" stroke="black" d="M359.35,-58.94C339.84,-49.44 310.48,-35.13 289.3,-24.81"/>
<polygon fill="black" stroke="black" points="290.15,-22.89 283.84,-22.15 288.31,-26.67 290.15,-22.89"/>
</g>
</g>
</svg>
