<svg width="61" height="16" viewBox="0 0 61 16" fill="none" xmlns="http://www.w3.org/2000/svg">
<path d="M30.2361 15.4207C30.0437 15.3795 29.8512 15.3447 29.6588 15.3004C28.888 15.149 28.1711 14.7949 27.5814 14.2743C26.9917 13.7537 26.5504 13.0854 26.3024 12.3375C25.6368 10.4825 25.8482 8.70667 27.0816 7.13342C27.4791 6.61642 27.9889 6.19718 28.5721 5.90756C29.1554 5.61794 29.7967 5.46557 30.4474 5.46203C31.428 5.39776 32.396 5.71137 33.154 6.33887C33.2612 6.43067 33.3622 6.52564 33.4978 6.65542V5.80707C34.5988 5.74625 35.7022 5.74097 36.8037 5.79125V15.0851H33.5168V14.1197C33.4778 14.1405 33.4409 14.1649 33.4064 14.1925C32.8718 14.8193 32.1286 15.2299 31.3149 15.3479C31.2234 15.3637 31.132 15.3922 31.0405 15.4175L30.2361 15.4207ZM29.3718 10.4002C29.3637 10.6823 29.4124 10.9631 29.5152 11.2258C29.6179 11.4885 29.7724 11.7277 29.9695 11.929C30.1665 12.1304 30.4021 12.2897 30.662 12.3974C30.922 12.5051 31.2009 12.559 31.4821 12.5559C32.0427 12.5584 32.5812 12.3374 32.9794 11.9414C33.3775 11.5455 33.6026 11.007 33.6051 10.4445C33.6076 9.88203 33.3873 9.34158 32.9927 8.94205C32.5982 8.54253 32.0616 8.31667 31.501 8.31415C31.2238 8.30739 30.9481 8.35636 30.69 8.45817C30.4319 8.55997 30.1968 8.71255 29.9984 8.90694C29.7999 9.10132 29.6423 9.33359 29.5347 9.59004C29.4271 9.84649 29.3717 10.122 29.3718 10.4002ZM4.4197 10.2451V15.4049H0.899289C0.851971 15.2244 0.836198 2.07495 0.880361 1.69826C0.938843 1.6886 0.997821 1.68225 1.05701 1.67926H6.5553C7.20307 1.67046 7.84622 1.78987 8.44799 2.03063C9.07574 2.27113 9.62838 2.67498 10.0492 3.20069C10.4699 3.72641 10.7437 4.35504 10.8423 5.02203C10.9675 5.68623 10.9568 6.36906 10.8107 7.02896C10.7003 7.60713 10.4398 8.14579 10.0553 8.59046C9.67092 9.03514 9.17629 9.37007 8.62149 9.56136C8.41645 9.6405 8.20194 9.70064 7.95905 9.77978C8.66565 10.7294 9.37857 11.6411 10.0852 12.5654C10.7918 13.4897 11.5047 14.4236 12.2365 15.3827C12.1388 15.3827 12.082 15.4017 12.022 15.4017H8.01898C7.954 15.4047 7.88954 15.3887 7.83351 15.3555C7.77748 15.3223 7.73231 15.2735 7.70353 15.2149C6.68358 13.6237 5.66152 12.0326 4.63736 10.4414C4.58689 10.3622 4.53327 10.2863 4.47964 10.2103L4.4197 10.2451ZM7.37862 6.1806C7.42729 5.83704 7.39488 5.48683 7.28399 5.15815C7.21428 4.91829 7.09358 4.69645 6.93021 4.50791C6.76683 4.31937 6.56467 4.16862 6.33764 4.06605C6.02735 3.92744 5.69269 3.85214 5.35314 3.84453C5.01358 3.83693 4.67591 3.89716 4.35977 4.02173C4.09908 4.1168 3.8641 4.2716 3.67352 4.47383C3.48295 4.67606 3.34204 4.92014 3.26201 5.18664C3.18444 5.46888 3.15039 5.76139 3.16106 6.05398C3.15553 6.45974 3.27964 6.85662 3.51523 7.18645C3.75081 7.51628 4.08548 7.76172 4.47018 7.88681C4.76207 8.00223 5.07479 8.0551 5.38826 8.04202C5.70172 8.02893 6.00899 7.95019 6.29032 7.81084C6.77339 7.54654 7.1378 7.10727 7.30922 6.58262C7.3291 6.52364 7.34491 6.46335 7.35654 6.40219H6.0285C5.69097 7.01313 5.44492 7.14924 5.00013 6.98147C4.84572 6.92158 4.71846 6.8071 4.64234 6.65959C4.56623 6.51207 4.5465 6.3417 4.58689 6.1806H7.37862ZM54.3648 7.20306C54.4247 7.14291 54.4847 7.08277 54.5383 7.01946C54.8375 6.67416 55.206 6.39613 55.6197 6.20357C56.0334 6.01101 56.4829 5.90827 56.9389 5.90204C57.4517 5.86708 57.9668 5.90544 58.4688 6.01599C59.0168 6.13591 59.5188 6.41161 59.9149 6.81016C60.3109 7.20871 60.5842 7.71325 60.7022 8.2635C60.7961 8.60811 60.8449 8.96352 60.8473 9.32078C60.8631 11.2992 60.8473 13.2808 60.8473 15.2593V15.4144H57.5729V15.1358V10.7611C57.5735 10.4135 57.5471 10.0663 57.4941 9.72279C57.4604 9.37824 57.2951 9.06017 57.0328 8.83531C56.7705 8.61044 56.4316 8.49626 56.0872 8.51674C55.9532 8.51413 55.8192 8.5226 55.6865 8.54207C55.346 8.58569 55.0303 8.74416 54.7913 8.99148C54.5523 9.23881 54.4041 9.5603 54.3711 9.90323C54.3422 10.1067 54.3275 10.3119 54.327 10.5173V15.4207H51.0841C51.0368 15.2593 51.0147 0.751772 51.0684 0.311768H54.3175V7.18723L54.3648 7.20306ZM25.1574 12.3818V15.3637C24.9807 15.4175 17.8768 15.4397 17.4162 15.3922C17.3689 15.2213 17.3468 2.16675 17.3941 1.71408C17.5613 1.66027 24.8987 1.65077 25.1542 1.71408V4.70231H20.9524V7.00047H24.9176V10.0203H20.9556V12.3913L25.1574 12.3818ZM44.7941 6.02232V3.33482C44.9739 3.281 47.7814 3.26834 48.0905 3.31899V6.08564H49.9391V8.85545C49.3397 8.87127 48.734 8.85545 48.0968 8.85545V15.4239H44.8004V14.3381V8.81113C44.6391 8.75155 44.4721 8.70911 44.302 8.68451C43.8538 8.64651 43.4032 8.64651 42.955 8.68451C42.0087 8.8048 41.444 9.38409 41.2484 10.3432C41.1843 10.6558 41.1505 10.9738 41.1475 11.2929V15.2941H37.8668V6.02866C38.0403 5.98434 40.7753 5.96851 41.1317 6.02866V7.43097L41.1727 7.4468C41.2137 7.39298 41.2579 7.3455 41.2989 7.29169C41.5698 6.90964 41.9088 6.58123 42.2989 6.32305C42.6191 6.11522 42.9875 5.99417 43.3682 5.97168C43.6047 5.959 43.8416 5.959 44.078 5.97168C44.3114 5.95902 44.5417 6.00649 44.7941 6.02232ZM14.1072 10.7199C14.5279 10.7193 14.9394 10.844 15.2896 11.0782C15.6397 11.3124 15.9127 11.6456 16.074 12.0355C16.2353 12.4255 16.2777 12.8548 16.1957 13.2689C16.1138 13.6831 15.9112 14.0635 15.6137 14.3621C15.3162 14.6607 14.937 14.864 14.5243 14.9462C14.1116 15.0284 13.6838 14.9859 13.2952 14.824C12.9066 14.6621 12.5746 14.3882 12.3412 14.0368C12.1078 13.6855 11.9836 13.2726 11.9842 12.8503C11.9834 12.5703 12.0377 12.2929 12.1441 12.0341C12.2505 11.7752 12.4068 11.54 12.6041 11.342C12.8014 11.144 13.0358 10.9872 13.2937 10.8804C13.5517 10.7736 13.8281 10.7191 14.1072 10.7199ZM14.1166 4.58202C14.5375 4.58329 14.9486 4.70989 15.2977 4.94579C15.6469 5.1817 15.9184 5.51629 16.0779 5.90717C16.2373 6.29806 16.2776 6.72765 16.1936 7.14152C16.1095 7.55539 15.905 7.93493 15.6058 8.23204C15.3066 8.52914 14.9263 8.73045 14.513 8.81047C14.0997 8.89048 13.6721 8.84561 13.2842 8.68151C12.8964 8.51742 12.5658 8.24149 12.3344 7.8887C12.1029 7.5359 11.9811 7.12211 11.9842 6.69974C11.9846 6.41989 12.0402 6.14288 12.1478 5.88468C12.2553 5.62648 12.4128 5.39221 12.611 5.19535C12.8092 4.99849 13.0443 4.84294 13.3027 4.73768C13.5611 4.63242 13.8377 4.57952 14.1166 4.58202Z" fill="white"/>
<path d="M5.76667 5.2246C5.76522 5.29859 5.74926 5.37158 5.7197 5.43938C5.69014 5.50719 5.64756 5.56849 5.5944 5.61978C5.54123 5.67107 5.47852 5.71135 5.40984 5.73832C5.34116 5.76529 5.26786 5.77842 5.19412 5.77697C5.12039 5.77551 5.04766 5.7595 4.98009 5.72984C4.91252 5.70018 4.85143 5.65746 4.80032 5.60411C4.7492 5.55076 4.70906 5.48782 4.68218 5.4189C4.6553 5.34999 4.64221 5.27643 4.64366 5.20244C4.65098 5.05576 4.71445 4.9176 4.82083 4.81674C4.92721 4.71589 5.06828 4.66015 5.21463 4.66115C5.36088 4.66676 5.49947 4.72822 5.60208 4.83294C5.70468 4.93767 5.76356 5.07777 5.76667 5.2246Z" fill="white"/>
</svg>
