<svg xmlns="http://www.w3.org/2000/svg" viewBox="0 0 283.46 312.74"><defs><linearGradient id="名称未設定グラデーション_8" x1="141.73" y1="247.2" x2="141.73" gradientUnits="userSpaceOnUse"><stop offset="0" stop-color="#1d2087"/><stop offset="0" stop-color="#f30"/><stop offset=".12" stop-color="#ec310b"/><stop offset=".36" stop-color="#ba2d29"/><stop offset=".69" stop-color="#6b2758"/><stop offset="1" stop-color="#1d2087"/></linearGradient><style>.cls-2{fill:#f30}</style></defs><g id="レイヤー_2" data-name="レイヤー 2"><g id="レイヤー_1-2" data-name="レイヤー 1"><path d="M283.46 209.86c-.33.66-.66 1.33-1 2q-9 16.78-18.08 33.56c-.12.22-.23.45-.37.66a2.27 2.27 0 01-1.79 1.09H21.94a2.47 2.47 0 01-2.32-1.39Q10.07 228.37.49 210.93a3.16 3.16 0 010-3.43q23.3-40.39 46.51-80.82Q82.81 64.37 118.6 2a3.57 3.57 0 013.54-2c12.6.06 25.19 0 37.79 0h.75A2.43 2.43 0 01163 1.33q1.29 2.25 2.6 4.48l74 127.2q21.57 37.08 43.17 74.14c.29.49.52 1 .77 1.51zm-6.41 1.81H82.34a2.38 2.38 0 01-2.27-2.9 4.92 4.92 0 01.53-1.23q9.24-15.84 18.51-31.69l.4-.71-.34-.54a51.14 51.14 0 01-8.7-26.53 52.26 52.26 0 01.33-8.39 49 49 0 013.08-12.34A50.92 50.92 0 01131.52 96l1.08-.24c-.76-1.67-10.35-18.41-10.78-18.81Q73.93 159.59 26 242.4h233.39a2.24 2.24 0 01.45 0c.54.09.8-.19 1-.63q7.89-14.68 15.8-29.34c.16-.21.25-.43.41-.76zM21.86 239.85l.49-.8q9-15.63 18.07-31.26 15.44-26.65 30.89-53.31l48.28-83.33c.11-.19.22-.39.35-.58a2.4 2.4 0 014 0 6.31 6.31 0 01.42.71l13.07 23.12.44.73a51 51 0 0134.8 10.56A51.51 51.51 0 01186 172.44h31.33q-48.09-82.63-96.14-165.2c-.26.44-.45.76-.63 1.08Q66 103.27 11.41 198.22c-2 3.47-4 7-6 10.42a1.21 1.21 0 000 1.36q8 14.53 16 29.09c.13.21.26.42.45.76zm153.62-76a63.87 63.87 0 00-8.48-13.09 71.35 71.35 0 01-13.4 10.34l6.48 14.2c5.92-2.84 11.24-6.39 15.4-11.47zm-18.09 12.58c-2.12-4.66-4.24-9.28-6.38-14a53.9 53.9 0 01-17 4.91 78.6 78.6 0 004.56 14.19c4.8-.41 16.14-3.53 18.82-5.12zm-26.61-29.72a160.12 160.12 0 002.59 17.77 49.7 49.7 0 0016.41-4.69l-7.9-16.2a44.08 44.08 0 01-11.1 3.1zm34.3 1.75a151.66 151.66 0 00-11.87-12.2 41 41 0 01-8.68 6.08l7.79 16c2.41-.88 11.24-7.75 12.76-9.9zm-29.7 33.34c-.82-2.36-1.67-4.64-2.39-7s-1.33-4.75-2-7.09c-2.63-.08-5.25-.05-7.86-.27s-5.17-.67-7.79-1c0 .51 0 1.05.07 1.59.11 1.61.14 3.24.38 4.84a32 32 0 001.75 6.42 1 1 0 00.75.63 45.55 45.55 0 007.12 1.42c1.81.2 3.63.35 5.45.44 1.52.05 3.02 0 4.52 0zm-18-35.63a87.15 87.15 0 00-2 17.1c.2.06.34.12.48.15a56.69 56.69 0 0014 1.34 3.73 3.73 0 00.59-.13c-1.16-5.84-2-11.66-2.54-17.6a37.12 37.12 0 01-10.54-.88zm57.5-12a68.66 68.66 0 00-14.13-8.49 29.84 29.84 0 01-5.48 8.53 161.53 161.53 0 0111.89 12.22 40.77 40.77 0 007.71-12.32zm2.33 2.07a45.53 45.53 0 01-8.11 12.39c1.52 2.08 3 4.05 4.45 6.12s2.66 4.24 4 6.38l.21-.28a59.34 59.34 0 007.26-14 1.15 1.15 0 00-.09-1 36.41 36.41 0 00-7.06-9.16c-.21-.19-.42-.32-.67-.51zm-69.9 5.3a1.26 1.26 0 00-.19.24c-.31.62-.62 1.25-.91 1.89a46.8 46.8 0 00-3.78 12.18 1.07 1.07 0 00.34 1 23 23 0 009.22 5.57 2.18 2.18 0 00.47 0 92.51 92.51 0 012.09-17 25.75 25.75 0 01-7.25-3.94zm54.9-27.59c.06 1.56.21 3 .15 4.49s-.36 3-.55 4.5a75.32 75.32 0 0114 8.28 24.94 24.94 0 00.9-5.6 42.19 42.19 0 00-.25-6.36 1 1 0 00-.58-.85 50.68 50.68 0 00-13.18-4.43 2.46 2.46 0 00-.5-.09zm-3.62 65.27a82.59 82.59 0 01-18.59 5.12c.09.21.13.35.2.48a33.65 33.65 0 004.49 6.53.73.73 0 00.74.24c1.27-.23 2.56-.41 3.84-.66a55.41 55.41 0 0012.12-3.81 4.4 4.4 0 00.56-.31zm2.68-1.17l3.27 7.52.31-.12.47-.23a50.28 50.28 0 0012.35-9.54 1.2 1.2 0 00.35-.7v-1.85a20.44 20.44 0 00-1.1-5.63c-.05-.15-.13-.29-.23-.52A48.33 48.33 0 01161.26 178zm-24.46 6.63a65.54 65.54 0 01-8.76-.1 78.3 78.3 0 01-8.56-1.2 28.22 28.22 0 001.52 2.53 19.8 19.8 0 005.27 5.37 2.46 2.46 0 001.09.41c2.51.23 5 .48 7.54.57 2 .07 3.94-.07 5.92-.13a2.3 2.3 0 00.51-.15 38.8 38.8 0 01-4.54-7.36zm-7.09-58.27c.1 5.85.32 11.62.82 17.37 2.4-.13 8.61-1.89 10-2.88l-7.9-15.24zm-27.5 33.89l-.2.09c.07 1.29.12 2.59.21 3.88a30.4 30.4 0 001.5 7.23 2.68 2.68 0 00.87 1.26 34.23 34.23 0 007.87 5c.52.24 1.06.45 1.6.67l.12-.11c-1.5-4.1-1.65-8.39-1.76-12.74a27.66 27.66 0 01-10.22-5.34zm84.1-17.81c.08-.26.1-.35.13-.45a47.61 47.61 0 001.42-8.39 4.65 4.65 0 00-.14-1.62 45.28 45.28 0 00-2.72-6.8 2.45 2.45 0 00-.59-.85c-1.4-1.16-2.82-2.3-4.24-3.43a6.1 6.1 0 00-.6-.35 32.47 32.47 0 01-1.29 12.62 40.9 40.9 0 018.02 9.21zM127.61 144c0-.31-.08-.62-.1-.94-.11-1.71-.23-3.43-.33-5.15s-.2-3.63-.26-5.45c0-1.43 0-2.85-.07-4.28 0-.54-.09-1.07-.14-1.62l-1.38-.16-1.36-.19a100 100 0 00-5.92 17c1.34.64 7.55 1.24 9.56.79zm12-23.19l13.57 11.32c2.14-2.24 4.47-6.09 4.82-7.71a118.74 118.74 0 00-17-5.68zM151 134.28a8.67 8.67 0 00-.64-.61 766 766 0 00-8.27-7c-1.4-1.17-2.85-2.27-4.28-3.41-.19-.15-.38-.36-.66-.17l-1.9 1.33 7.93 15.29a35.28 35.28 0 007.82-5.43zm8-12.65a16.39 16.39 0 000-8.26c-2.8-.77-15.2-1.06-16.83-.45V116a129.22 129.22 0 0116.83 5.63zM99.8 153h.18a41.85 41.85 0 012.06-7c.89-2.24 1.9-4.44 2.88-6.69a19.57 19.57 0 01-4.24-6.81 3.08 3.08 0 01-.21.4 30.66 30.66 0 00-4.37 6.87 2.18 2.18 0 00-.13 1c0 .64.16 1.28.25 1.92a27.86 27.86 0 002.68 8.69c.28.62.6 1.13.9 1.62zm75.81-38.19c-.29-.75-.52-1.43-.81-2.09a9.8 9.8 0 00-3.19-4.18c-.93-.67-1.83-1.38-2.77-2a7 7 0 00-1.18-.63A26.39 26.39 0 00157.2 104a2.45 2.45 0 00-.44.09 18.68 18.68 0 014.24 6.3c.13.31.38.34.66.39a56.4 56.4 0 018.5 2.09c1.84.59 3.55 1.28 5.45 1.98zm-60.4 27.61a106.11 106.11 0 016-17.26l-1.68-1a83.3 83.3 0 00-10.88 14.68 22.11 22.11 0 006.56 3.62zm63.63 21.79a30.87 30.87 0 012 7.56c.13-.08.19-.1.21-.13.21-.25.42-.51.61-.76a71 71 0 005.49-8.66 6.49 6.49 0 00.83-3.35 31.57 31.57 0 00-.45-5.14c-.2-1.09-.48-2.16-.74-3.3-1.23 2.42-2.38 4.76-3.61 7.07a57.52 57.52 0 01-4.34 6.75zm-72.35-27.49a87.8 87.8 0 0111-14.73l-.62-1.1c0-.06-.08-.12-.14-.22a50 50 0 00-13.72 9.41 15.45 15.45 0 003.48 6.68zm51.19-26.6a3.77 3.77 0 00-.16-.36 17.52 17.52 0 00-4.43-5.11 1.26 1.26 0 00-1-.23 42.71 42.71 0 00-7.78 2.15c-1.42.54-2.8 1.15-4.25 1.75.33.49.62.9.89 1.31a.56.56 0 00.59.22c1.59-.08 3.18-.16 4.78-.2s3 0 4.5 0c1.22 0 2.43.13 3.65.21 1.01.14 2.05.21 3.21.3zM94 146.53h-.19a19.38 19.38 0 00-.27 2.13 19 19 0 00.14 2.38 36.61 36.61 0 001 5.89 31.48 31.48 0 004.47 9.68c.1.15.23.27.44.52 0-.43 0-.7-.07-1-.13-1.53-.31-3.07-.37-4.61 0-1.14.08-2.29.12-3.43a1.59 1.59 0 00-.27-1.2 25.91 25.91 0 01-4.52-8.72c-.2-.54-.34-1.09-.48-1.64zm23.45-34.24a3.33 3.33 0 00-.47-.1c-1.43-.17-2.87-.31-4.3-.49a14.16 14.16 0 00-3.5.16 1.27 1.27 0 00-.87.51 27.9 27.9 0 00-3.52 5.28 3.71 3.71 0 00-.18.56c1.11-.5 2.12-1 3.15-1.42a44.81 44.81 0 018.31-2.47 1 1 0 00.62-.31c.31-.54.48-1.12.74-1.72zm10 4.72a5.46 5.46 0 004.67-2.23 2.1 2.1 0 00-1.23-3.45 5.13 5.13 0 00-3.84.41 4.22 4.22 0 00-2.09 2 2 2 0 001 2.92 11.22 11.22 0 001.49.34zm-7.94 72l.12-.14a30.28 30.28 0 01-3.77-6.21 1.35 1.35 0 00-.88-.8 37.22 37.22 0 01-6-2.63l-2.11-1.19-.12.11c.63.95 1.26 1.91 1.9 2.85a5.18 5.18 0 00.75.93 45.38 45.38 0 005.92 4.58c1.4.9 2.8 1.7 4.19 2.49zm-17-62.73l.22.11 1.18-1a56.59 56.59 0 0111.19-7.16l.8-.41c.21-.11.27-.27.11-.51a2.66 2.66 0 00-.28 0 42.06 42.06 0 00-6.23 1.85 33.38 33.38 0 00-6 3c-.25.17-.5.31-.55.66-.15 1.18-.31 2.35-.46 3.49zm46.16-24.15c-.07-.08-.1-.13-.14-.15a26 26 0 00-5.41-1.7.89.89 0 00-.75.23 40.31 40.31 0 00-5.72 5 2.51 2.51 0 00-.18.27c.15.08.28.15.4.23a1 1 0 001.23 0 8.21 8.21 0 011.08-.51 51.06 51.06 0 018.48-3.14c.34.02.63-.1.99-.2zm-36.47 6.37v.18l.72.07c.32 0 .65 0 1 .06 1.73.25 3.45.52 5.18.76a.77.77 0 00.54-.09c.65-.52 1.28-1.08 2-1.68a28.94 28.94 0 00-3.09-3.52 35.17 35.17 0 00-6.37 4.25zm9.1-5.5l2.86 3.38 3.26-1.12 1.24-4.66a38.63 38.63 0 00-7.36 2.4zm17.16-3.26h-2.65c-.85 0-2 .11-3 .18a.66.66 0 00-.63.31 14 14 0 00-1.62 4.63l2.61.13zm-38.87 25.59c-.16.13-.28.2-.38.3-.7.78-1.4 1.56-2.11 2.33a2.23 2.23 0 00-.62 1.32c-.08.81-.26 1.62-.37 2.43s-.13 1.46-.19 2.19a.43.43 0 00.3-.17c1.14-1.41 2.29-2.83 3.41-4.25a1 1 0 00.19-.61c-.06-1.14-.15-2.28-.23-3.54zM157.92 101a39.34 39.34 0 00-10.2-2.49 1.39 1.39 0 00.28.16 27.74 27.74 0 015.05 2.46 1.13 1.13 0 00.63.15c1.37-.09 2.73-.19 4.24-.28zm31.68 40.55c-.41 1.44-.82 2.88-1.22 4.32a.81.81 0 000 .51c.46 1.26.94 2.51 1.46 3.87a37.62 37.62 0 00-.24-8.71zM139.17 113c-1.14.14-2.15.28-3.16.39-.34 0-.51.19-.53.51s0 .34 0 .54l3.69.8zm22.93 77.07a74.6 74.6 0 01-10.23 3.36 36.49 36.49 0 0010.23-3.38zm-35.38-66.46v-2.72a6.84 6.84 0 00-1.29 2.59zM138 118l-2.93-.65v.13l2.16 1.62zm-6.86 5c-.49-.83-.83-1.63-1.41-2.46v2.81zm2.69-1.17l1-.66a7.46 7.46 0 00-2.33-1.67zm-12.15.29l.74.42c.43-.81.79-1.53 1.19-2.39zm-1.59-8.46a3.93 3.93 0 001.78-.22 2.71 2.71 0 00-.74-.29c-.59-.15-.59-.15-1.01.47zm58.82 2.18c.06 1 .12 1.07 1.06 1.34zm-48.85-7.92v.18c.52.33.67.3.93-.24zm6.37 2.48l1.16-.17c-.42-.42-.42-.42-1.13.13zm-16.17 8.84c-.66.19-.66.19-.69.64zm6.07-10.56v.16l.65-.21v-.13z" fill="url(#名称未設定グラデーション_8)"/><path class="cls-2" d="M138.91 312.74c-.61-.13-1.22-.24-1.83-.38a14.06 14.06 0 01-10.64-9.36c-2.11-5.86-1.44-11.47 2.47-16.44a13.57 13.57 0 0110.67-5.28 12.23 12.23 0 018.58 2.77c.34.29.66.59 1.09 1v-2.68a104.38 104.38 0 0110.48-.05v29.36h-10.42v-3.05a2.3 2.3 0 00-.35.23 10.75 10.75 0 01-6.63 3.65c-.29.05-.58.14-.87.22zm-2.74-15.86a6.62 6.62 0 006.69 6.81 6.7 6.7 0 10.06-13.4 6.59 6.59 0 00-6.75 6.59zM57.07 296.39v16.3H45.91c-.15-.57-.2-42.11-.06-43.3a5 5 0 01.56-.06h17.43a15.63 15.63 0 016 1.11 12 12 0 017.59 9.45 15.74 15.74 0 01-.1 6.34 10.56 10.56 0 01-6.94 8c-.65.25-1.33.44-2.1.69 2.24 3 4.5 5.88 6.74 8.8s4.5 5.87 6.82 8.9c-.31 0-.49.06-.68.06H68.48a1.06 1.06 0 01-1-.59q-4.85-7.54-9.72-15.08c-.16-.25-.33-.49-.5-.73zm9.38-12.84a7 7 0 00-.3-3.23 5.46 5.46 0 00-3-3.45 8.12 8.12 0 00-6.27-.14 5.65 5.65 0 00-3.48 3.68 9.06 9.06 0 00-.32 2.74 6 6 0 004.15 5.79 7.13 7.13 0 005.77-.24 6.85 6.85 0 003.23-3.88 4.29 4.29 0 00.15-.57h-4.21c-1.07 1.93-1.85 2.36-3.26 1.83a2.15 2.15 0 01-1.31-2.53zM215.4 286.78c.19-.19.38-.38.55-.58a10.27 10.27 0 017.61-3.53 17.19 17.19 0 014.85.36 9.26 9.26 0 017.08 7.1 13 13 0 01.46 3.34c.05 6.25 0 12.51 0 18.76v.49h-10.38v-.88-13.82a21.22 21.22 0 00-.25-3.28 4.23 4.23 0 00-4.46-3.81 7.74 7.74 0 00-1.27.08 4.8 4.8 0 00-4.17 4.3 14 14 0 00-.14 1.94v15.49H205c-.15-.51-.22-46.34-.05-47.73h10.3v21.72zM122.81 303.14v9.42c-.56.17-23.08.24-24.54.09-.15-.54-.22-41.78-.07-43.21.53-.17 23.79-.2 24.6 0v9.44h-13.32v7.26h12.57v9.54h-12.56v7.49zM185.06 283.05v-8.49c.57-.17 9.47-.21 10.45-.05v8.74h5.86V292c-1.9.05-3.82 0-5.84 0v20.75h-10.45v-3.43-17.46a7.79 7.79 0 00-1.58-.4 25.36 25.36 0 00-4.27 0c-3 .38-4.79 2.21-5.41 5.24a15.63 15.63 0 00-.32 3V312.34h-10.4v-29.27c.55-.14 9.22-.19 10.35 0v4.43l.13.05c.13-.17.27-.32.4-.49a12 12 0 013.17-3.06 7 7 0 013.39-1.11 21.07 21.07 0 012.25 0c.74-.04 1.47.11 2.27.16zM87.78 297.89a6.74 6.74 0 11-6.73 6.73 6.71 6.71 0 016.73-6.73zM87.81 278.5a6.74 6.74 0 11-6.76 6.69 6.7 6.7 0 016.76-6.69z"/><path class="cls-2" d="M61.34 280.53a1.78 1.78 0 11-3.56-.07 1.8 1.8 0 011.81-1.71 1.82 1.82 0 011.75 1.78z"/></g></g></svg>