<svg width="300" height="300" viewBox="0 0 300 300" fill="none" xmlns="http://www.w3.org/2000/svg">
  <g clip-path="url(#clip0_96_32)">
  <path d="M82.1669 256.967L75.3949 238.969H70L80.1454 264.608H84.0747L94.2959 238.969H89.0021L82.1669 256.967Z" fill="white"/>
  <path d="M99.5518 238.678C98.7685 238.678 98.1241 238.943 97.6188 239.487C97.1134 240.017 96.8481 240.661 96.8481 241.419C96.8481 242.177 97.1008 242.846 97.6188 243.377C98.1241 243.895 98.7685 244.16 99.5518 244.16C100.335 244.16 101.005 243.895 101.498 243.377C101.99 242.859 102.243 242.202 102.243 241.419C102.243 240.636 101.99 240.017 101.498 239.487C101.005 238.956 100.348 238.678 99.5518 238.678Z" fill="white"/>
  <path d="M101.952 246.989H97.1008V264.596H101.952V246.989Z" fill="white"/>
  <path d="M110.923 250.968C111.289 250.753 111.832 250.639 112.565 250.639C113.298 250.639 114.031 250.791 114.7 251.094C115.37 251.397 115.977 251.864 116.507 252.496L119.388 249.578C118.604 248.555 117.632 247.797 116.457 247.305C115.282 246.812 113.955 246.56 112.502 246.56C111.049 246.56 109.912 246.787 108.889 247.229C107.865 247.684 107.082 248.328 106.513 249.161C105.957 249.995 105.68 250.98 105.68 252.092C105.68 253.203 105.894 254.037 106.336 254.719C106.779 255.401 107.322 255.931 107.992 256.31C108.661 256.689 109.369 256.98 110.127 257.207C110.885 257.422 111.592 257.636 112.262 257.826C112.932 258.015 113.488 258.243 113.917 258.495C114.359 258.748 114.574 259.127 114.574 259.607C114.574 260.024 114.372 260.339 113.955 260.579C113.538 260.807 112.944 260.92 112.174 260.92C111.226 260.92 110.354 260.756 109.546 260.415C108.737 260.074 108.055 259.556 107.461 258.849L104.58 261.729C105.162 262.411 105.856 263.004 106.665 263.497C107.474 263.99 108.345 264.368 109.306 264.634C110.266 264.886 111.264 265.013 112.275 265.013C114.397 265.013 116.065 264.507 117.303 263.497C118.541 262.487 119.16 261.122 119.16 259.392C119.16 258.318 118.946 257.447 118.516 256.765C118.086 256.083 117.543 255.54 116.874 255.123C116.204 254.706 115.496 254.39 114.764 254.15C114.018 253.923 113.311 253.708 112.628 253.506C111.946 253.317 111.403 253.102 110.986 252.862C110.569 252.635 110.367 252.294 110.367 251.864C110.367 251.473 110.544 251.17 110.91 250.955L110.923 250.968Z" fill="white"/>
  <path d="M133.071 257.093C133.071 258.192 132.793 259.038 132.237 259.645C131.681 260.251 130.898 260.554 129.9 260.554C129.243 260.554 128.674 260.415 128.181 260.15C127.701 259.885 127.335 259.493 127.082 258.963C126.842 258.445 126.716 257.813 126.716 257.081V246.976H121.902V257.182C121.902 258.71 122.243 260.061 122.925 261.236C123.608 262.398 124.555 263.307 125.768 263.952C126.981 264.596 128.358 264.924 129.887 264.924C131.416 264.924 132.793 264.596 133.993 263.952C135.193 263.307 136.141 262.398 136.823 261.236C137.506 260.074 137.847 258.723 137.847 257.182V246.976H133.071V257.081V257.093Z" fill="white"/>
  <path d="M154.082 248.669C153.589 248.164 153.021 247.734 152.364 247.393C151.365 246.888 150.254 246.623 149.003 246.623C147.373 246.623 145.92 247.027 144.644 247.823C143.368 248.618 142.37 249.717 141.637 251.107C140.904 252.496 140.538 254.062 140.538 255.805C140.538 257.548 140.904 259.089 141.637 260.478C142.37 261.868 143.368 262.954 144.644 263.762C145.92 264.571 147.36 264.962 148.965 264.962C150.228 264.962 151.365 264.71 152.376 264.192C153.033 263.863 153.589 263.434 154.069 262.929V264.583H158.883V246.976H154.069V248.656L154.082 248.669ZM153.134 259.203C152.313 260.099 151.226 260.554 149.887 260.554C149.041 260.554 148.27 260.352 147.588 259.935C146.906 259.518 146.375 258.963 145.996 258.255C145.617 257.548 145.427 256.727 145.427 255.78C145.427 254.833 145.617 254.037 145.996 253.342C146.375 252.635 146.893 252.079 147.563 251.662C148.232 251.246 149.003 251.043 149.875 251.043C150.746 251.043 151.555 251.246 152.212 251.65C152.869 252.054 153.387 252.622 153.779 253.342C154.17 254.075 154.36 254.896 154.36 255.818C154.36 257.182 153.943 258.306 153.122 259.203H153.134Z" fill="white"/>
  <path d="M167.828 238.236H163.052V264.596H167.828V238.236Z" fill="white"/>
  <path d="M174.474 238.678C173.69 238.678 173.046 238.943 172.541 239.487C172.035 240.017 171.77 240.661 171.77 241.419C171.77 242.177 172.023 242.846 172.541 243.377C173.046 243.895 173.69 244.16 174.474 244.16C175.257 244.16 175.927 243.895 176.419 243.377C176.912 242.859 177.165 242.202 177.165 241.419C177.165 240.636 176.912 240.017 176.419 239.487C175.927 238.956 175.27 238.678 174.474 238.678Z" fill="white"/>
  <path d="M176.874 246.989H172.023V264.596H176.874V246.989Z" fill="white"/>
  <path d="M180.526 251.144H188.106L179.831 261.868V264.608H194.752V260.44H186.729L194.967 249.73V246.989H180.526V251.144Z" fill="white"/>
  <path d="M210.355 247.722C209.041 246.964 207.563 246.585 205.908 246.585C204.152 246.585 202.573 246.989 201.17 247.785C199.755 248.593 198.643 249.679 197.835 251.069C197.026 252.458 196.609 254.024 196.609 255.767C196.609 257.51 197.026 259.127 197.847 260.504C198.669 261.893 199.806 262.979 201.259 263.788C202.699 264.596 204.354 264.987 206.199 264.987C207.639 264.987 208.953 264.735 210.179 264.217C211.391 263.712 212.453 262.941 213.35 261.918L210.507 259.076C209.976 259.708 209.345 260.175 208.612 260.466C207.879 260.756 207.07 260.908 206.173 260.908C205.175 260.908 204.304 260.706 203.545 260.289C202.787 259.872 202.219 259.279 201.815 258.483C201.65 258.167 201.537 257.826 201.448 257.472L214.31 257.447C214.411 257.056 214.474 256.702 214.487 256.374C214.512 256.045 214.525 255.729 214.525 255.401C214.525 253.696 214.158 252.18 213.426 250.841C212.693 249.503 211.669 248.454 210.355 247.709V247.722ZM203.394 251.22C204.101 250.804 204.923 250.601 205.87 250.601C206.767 250.601 207.525 250.778 208.132 251.145C208.738 251.511 209.218 252.041 209.559 252.749C209.724 253.09 209.85 253.469 209.938 253.885L201.436 253.911C201.524 253.582 201.625 253.266 201.777 252.989C202.156 252.218 202.699 251.637 203.394 251.22Z" fill="white"/>
  <path d="M229.168 247.052C228.498 246.774 227.728 246.635 226.856 246.635C224.885 246.635 223.381 247.267 222.333 248.517C222.32 248.53 222.308 248.555 222.295 248.568V247.002H217.519V264.608H222.295V254.908C222.295 253.569 222.623 252.584 223.268 251.953C223.912 251.321 224.746 251.005 225.769 251.005C226.249 251.005 226.692 251.069 227.058 251.207C227.437 251.346 227.753 251.561 228.031 251.877L231.025 248.416C230.469 247.785 229.85 247.33 229.181 247.052H229.168Z" fill="white"/>
  <path d="M195.017 107.953C194.423 105.793 194.108 103.533 194.082 101.183C194.032 94.4261 198.012 88.1109 203.571 86.1658C206.363 85.1932 209.85 85.5722 212.68 87.1762C215.119 88.5529 216.723 90.5991 217.191 92.9104C217.898 96.3585 216.23 100.514 213.059 103.242C209.345 106.438 204.329 107.524 200.766 107.865C198.871 108.054 196.95 108.08 195.017 107.941M161.486 64.3783C163.292 55.4612 169.117 50.4217 173.981 50.4217C174.196 50.4217 174.423 50.4217 174.638 50.4469C179.287 50.889 184.025 56.5853 183.419 63.5321C182.939 69.0894 179.793 74.7605 173.526 81.3662C170.961 84.0818 168.194 86.671 165.289 89.096C161.246 81.6188 159.793 72.7017 161.473 64.3657M161.94 138.102C157.632 139.605 153.45 141.55 149.508 143.912C146.514 140.312 143.014 137.142 139.11 134.603C133.564 131.004 127.196 128.591 120.5 127.543C120.664 124.411 120.588 121.266 120.272 118.121C129.217 116.479 137.998 113.687 146.312 109.835C150.822 119.611 156.053 129.059 161.966 138.102M143.924 189.129C141.17 189.495 138.921 188.169 137.518 186.994C134.84 184.734 133.083 181.235 132.945 177.837C132.641 170.486 137.531 163.818 141.7 159.523C143.545 157.616 145.554 155.823 147.701 154.168C150.835 159.46 152.806 165.434 153.273 171.535C153.88 179.34 150.481 188.283 143.936 189.142M107.562 148.472C105.225 153.132 102.673 156.315 99.7287 158.21C96.4564 160.319 92.4387 160.685 89.7223 159.132C85.7045 156.82 85.0097 150.707 86.9174 146.666C89.6212 140.906 96.0521 137.913 99.6403 136.65C103.607 135.248 107.903 134.49 112.249 134.414C111.34 139.315 109.773 144.064 107.562 148.472ZM106.412 112.26C97.4293 112.702 91.0615 111.477 86.3994 108.408C81.611 105.25 78.2123 98.392 80.7898 93.2388C82.3185 90.1696 86.3236 87.8709 90.8846 87.8709C92.6535 87.8709 94.5107 88.2119 96.3301 89.0076C103.089 91.9252 107.095 98.8972 109.268 104.24C110.266 106.69 111.074 109.242 111.693 111.856C109.937 112.046 108.168 112.184 106.412 112.273M192.869 142.535C197.86 143.344 201.41 144.67 204.026 146.691C206.957 148.964 208.574 152.324 208.157 155.254C207.803 157.717 206.085 159.321 204.708 160.218C201.865 162.075 197.923 162.706 194.664 161.809C188.296 160.054 183.267 154.509 178.782 148.787C177.215 146.779 175.661 144.733 174.158 142.662C180.374 141.601 186.716 141.538 192.882 142.535M120.171 74.6342C115.648 75.1142 111.517 74.23 108.535 72.1207C105.452 69.9357 103.683 66.1845 104.239 62.989C105.01 58.5557 109.963 55.7644 114.448 55.7644C114.941 55.7644 115.421 55.8022 115.901 55.8654C120.98 56.598 125.895 60.3618 129.394 66.1718C130.203 67.5233 130.923 68.9253 131.567 70.3651C128.143 72.7017 124.176 74.2048 120.184 74.6216M225.138 129.412C213.287 128.516 203.735 123.249 198.504 115.468C199.515 115.443 200.513 115.38 201.511 115.279C208.157 114.635 213.843 112.424 217.949 108.888C223.192 104.379 225.769 97.5205 224.531 91.4074C223.634 87.012 220.665 83.0966 216.395 80.6715C211.669 77.9939 205.959 77.4129 201.132 79.1054C192.528 82.124 186.577 91.2179 186.666 101.221C186.679 103.027 186.83 104.783 187.108 106.488C180.601 104.568 174.638 100.905 170.203 96.0049C169.989 95.7649 169.774 95.5249 169.572 95.2723C172.907 92.5315 176.066 89.5886 178.997 86.4942C183.709 81.5178 190.065 73.8006 190.898 64.1762C191.694 54.956 185.529 43.9928 175.396 43.0203C164.467 41.9719 156.318 52.4678 154.221 62.8879C152.111 73.308 154.082 84.4733 159.376 93.6809C156.369 95.8281 153.235 97.7984 150.014 99.6046C147.664 93.9966 145.566 88.2751 143.709 82.4777C143.406 81.5304 143.103 80.5705 142.812 79.6106C142.092 77.2866 141.346 74.9373 140.525 72.6007C142.446 70.6809 144.101 68.559 145.453 66.2602C150.544 57.6084 151.277 46.4936 147.36 37.2482C146.552 35.3536 144.366 34.4695 142.471 35.2652C140.576 36.0735 139.691 38.2586 140.487 40.1532C143.494 47.2641 142.938 55.8149 139.022 62.4711C138.504 63.3426 137.935 64.1888 137.303 64.9972C136.836 64.0878 136.356 63.191 135.825 62.3069C131.176 54.5645 124.315 49.5123 117.013 48.4513C112.793 47.8324 108.219 48.805 104.467 51.1037C100.36 53.6172 97.6946 57.3684 96.9365 61.6628C95.8752 67.6875 98.8317 74.3184 104.264 78.1707C108.724 81.3283 114.675 82.6924 121.005 82.0104C125.629 81.5178 130.215 79.939 134.296 77.4634C134.764 78.8907 135.219 80.3558 135.686 81.8335C135.989 82.8061 136.293 83.7786 136.608 84.7512C138.592 90.9401 140.841 97.0279 143.355 103.002C135.623 106.589 127.474 109.216 119.148 110.757C118.428 107.549 117.442 104.404 116.217 101.398C113.513 94.7671 108.396 86.0521 99.3244 82.1367C90.8594 78.4865 78.7304 80.7221 74.1567 89.8791C72.0847 94.0345 71.9331 98.9857 73.7524 103.823C75.3822 108.143 78.5029 112.083 82.3312 114.609C88.8379 118.904 96.608 119.801 102.887 119.801C104.29 119.801 105.604 119.75 106.829 119.7C108.876 119.599 110.91 119.422 112.957 119.207C113.197 121.784 113.26 124.373 113.146 126.949H112.982C107.562 126.949 102.167 127.859 97.1892 129.614C89.0906 132.482 83.0513 137.407 80.1959 143.495C76.3804 151.642 78.9957 161.557 86.0457 165.599C88.3199 166.899 90.9478 167.544 93.6516 167.544C97.0881 167.544 100.651 166.508 103.81 164.487C107.903 161.847 111.327 157.704 114.271 151.819C116.911 146.539 118.743 140.843 119.742 134.982C125.275 135.892 130.531 137.9 135.105 140.881C138.188 142.889 140.967 145.339 143.381 148.131C140.879 150.05 138.529 152.134 136.381 154.357C131.201 159.7 125.124 168.175 125.541 178.166C125.768 183.66 128.472 189.104 132.768 192.716C135.838 195.293 139.439 196.669 143.065 196.669C143.684 196.669 144.315 196.631 144.935 196.543C155.952 195.103 161.625 182.41 160.74 170.966C160.172 163.603 157.758 156.391 153.918 150.025C157.86 147.726 162.029 145.882 166.35 144.531C168.46 147.537 170.671 150.505 172.92 153.372C178.188 160.104 184.24 166.659 192.693 168.983C194.322 169.438 196.041 169.653 197.772 169.653C201.65 169.653 205.605 168.541 208.801 166.445C212.566 163.982 214.967 160.37 215.548 156.303C216.357 150.682 213.691 144.733 208.612 140.792C204.973 137.963 200.349 136.182 194.07 135.159C185.971 133.846 177.594 134.161 169.508 135.968C163.217 126.558 157.695 116.706 152.995 106.475C156.659 104.467 160.21 102.244 163.621 99.8193C163.962 100.223 164.303 100.615 164.657 101.007C171.025 108.054 179.995 112.98 189.547 114.748C195.055 127.05 207.968 135.589 224.582 136.852C224.683 136.852 224.771 136.852 224.872 136.852C226.805 136.852 228.435 135.361 228.587 133.404C228.738 131.345 227.21 129.564 225.15 129.4" fill="#E8373D"/>
  </g>
  <defs>
  <clipPath id="clip0_96_32">
  <rect width="161" height="230" fill="white" transform="translate(70 35)"/>
  </clipPath>
  </defs>
  </svg>
  