<svg width="300" height="429" viewBox="0 0 300 429" fill="none" xmlns="http://www.w3.org/2000/svg">
  <g clip-path="url(#clip0_93_2)">
  <path d="M22.6713 413.868L10.0526 380.31H0L18.9045 428.116H26.2262L45.2719 380.31H35.4077L22.6713 413.868Z" fill="white"/>
  <path d="M55.0655 379.768C53.6059 379.768 52.4052 380.262 51.4635 381.275C50.5219 382.264 50.0275 383.465 50.0275 384.878C50.0275 386.291 50.4983 387.539 51.4635 388.528C52.4052 389.494 53.6059 389.989 55.0655 389.989C56.5251 389.989 57.7729 389.494 58.691 388.528C59.6092 387.563 60.08 386.338 60.08 384.878C60.08 383.418 59.6092 382.264 58.691 381.275C57.7729 380.286 56.5487 379.768 55.0655 379.768Z" fill="white"/>
  <path d="M59.5386 395.264H50.4983V428.092H59.5386V395.264Z" fill="white"/>
  <path d="M76.2536 402.682C76.9364 402.282 77.9487 402.07 79.3141 402.07C80.6796 402.07 82.045 402.352 83.2928 402.918C84.5405 403.483 85.6706 404.354 86.6593 405.532L92.027 400.092C90.5674 398.184 88.7546 396.771 86.5652 395.853C84.3757 394.934 81.9038 394.463 79.1964 394.463C76.4891 394.463 74.3702 394.887 72.4633 395.711C70.5564 396.559 69.0968 397.76 68.0374 399.314C67.0015 400.869 66.4836 402.706 66.4836 404.778C66.4836 406.85 66.8838 408.405 67.7078 409.676C68.5317 410.948 69.5441 411.937 70.7918 412.644C72.0396 413.35 73.3579 413.892 74.7705 414.316C76.183 414.716 77.5014 415.117 78.7491 415.47C79.9969 415.823 81.0327 416.247 81.8332 416.718C82.6571 417.189 83.0574 417.895 83.0574 418.79C83.0574 419.567 82.6807 420.156 81.9038 420.604C81.1269 421.028 80.0204 421.24 78.5843 421.24C76.8186 421.24 75.1942 420.933 73.6875 420.298C72.1808 419.662 70.9095 418.696 69.803 417.377L64.4354 422.747C65.5183 424.018 66.8132 425.125 68.3199 426.044C69.8266 426.962 71.451 427.669 73.2402 428.163C75.0294 428.634 76.8893 428.87 78.7727 428.87C82.7278 428.87 85.8354 427.928 88.1425 426.044C90.4497 424.16 91.6032 421.616 91.6032 418.39C91.6032 416.388 91.203 414.763 90.4026 413.492C89.6021 412.22 88.5898 411.207 87.3421 410.43C86.0943 409.653 84.776 409.064 83.4105 408.617C82.0215 408.193 80.7031 407.792 79.4318 407.416C78.1606 407.062 77.1482 406.662 76.3713 406.215C75.5944 405.791 75.2178 405.155 75.2178 404.354C75.2178 403.624 75.5474 403.059 76.2301 402.659L76.2536 402.682Z" fill="white"/>
  <path d="M117.523 414.104C117.523 416.153 117.005 417.731 115.97 418.861C114.934 419.991 113.474 420.557 111.614 420.557C110.39 420.557 109.331 420.297 108.412 419.803C107.518 419.308 106.835 418.578 106.364 417.589C105.917 416.624 105.682 415.446 105.682 414.08V395.24H96.7119V414.269C96.7119 417.118 97.3476 419.638 98.6188 421.828C99.8901 423.995 101.656 425.69 103.916 426.891C106.176 428.093 108.742 428.705 111.591 428.705C114.439 428.705 117.005 428.093 119.242 426.891C121.478 425.69 123.244 423.995 124.515 421.828C125.787 419.662 126.422 417.142 126.422 414.269V395.24H117.523V414.08V414.104Z" fill="white"/>
  <path d="M156.674 398.396C155.756 397.454 154.697 396.653 153.473 396.017C151.613 395.075 149.541 394.581 147.21 394.581C144.173 394.581 141.466 395.334 139.088 396.818C136.71 398.302 134.851 400.351 133.485 402.941C132.12 405.532 131.437 408.452 131.437 411.702C131.437 414.952 132.12 417.825 133.485 420.415C134.851 423.006 136.71 425.031 139.088 426.538C141.466 428.045 144.15 428.775 147.14 428.775C149.494 428.775 151.613 428.304 153.496 427.339C154.72 426.727 155.756 425.926 156.651 424.984V428.069H165.62V395.24H156.651V398.372L156.674 398.396ZM154.909 418.037C153.378 419.709 151.354 420.556 148.858 420.556C147.281 420.556 145.845 420.18 144.573 419.403C143.302 418.625 142.313 417.589 141.607 416.27C140.901 414.952 140.548 413.421 140.548 411.655C140.548 409.888 140.901 408.405 141.607 407.109C142.313 405.791 143.279 404.754 144.526 403.977C145.774 403.2 147.21 402.823 148.835 402.823C150.459 402.823 151.966 403.2 153.19 403.954C154.414 404.707 155.379 405.767 156.109 407.109C156.839 408.475 157.192 410.006 157.192 411.725C157.192 414.269 156.415 416.365 154.885 418.037H154.909Z" fill="white"/>
  <path d="M182.288 378.944H173.389V428.093H182.288V378.944Z" fill="white"/>
  <path d="M194.672 379.768C193.212 379.768 192.011 380.262 191.07 381.275C190.128 382.264 189.634 383.465 189.634 384.878C189.634 386.291 190.104 387.539 191.07 388.528C192.011 389.494 193.212 389.989 194.672 389.989C196.131 389.989 197.379 389.494 198.297 388.528C199.215 387.563 199.686 386.338 199.686 384.878C199.686 383.418 199.215 382.264 198.297 381.275C197.379 380.286 196.155 379.768 194.672 379.768Z" fill="white"/>
  <path d="M199.145 395.264H190.104V428.092H199.145V395.264Z" fill="white"/>
  <path d="M205.948 403.012H220.074L204.654 423.006V428.116H232.457V420.344H217.508L232.857 400.374V395.264H205.948V403.012Z" fill="white"/>
  <path d="M261.532 396.63C259.083 395.217 256.329 394.51 253.245 394.51C249.973 394.51 247.03 395.264 244.417 396.747C241.78 398.255 239.708 400.28 238.201 402.871C236.695 405.461 235.918 408.381 235.918 411.631C235.918 414.881 236.695 417.895 238.225 420.462C239.755 423.053 241.874 425.078 244.581 426.585C247.265 428.093 250.349 428.823 253.786 428.823C256.47 428.823 258.919 428.352 261.202 427.386C263.462 426.444 265.44 425.008 267.111 423.1L261.814 417.801C260.826 418.979 259.648 419.85 258.283 420.392C256.918 420.933 255.411 421.216 253.739 421.216C251.879 421.216 250.255 420.839 248.842 420.062C247.43 419.285 246.371 418.178 245.617 416.694C245.311 416.106 245.099 415.47 244.934 414.81L268.901 414.763C269.089 414.033 269.207 413.374 269.23 412.762C269.277 412.149 269.301 411.56 269.301 410.948C269.301 407.769 268.618 404.943 267.253 402.447C265.887 399.95 263.98 397.996 261.532 396.606V396.63ZM248.56 403.153C249.878 402.376 251.409 401.999 253.174 401.999C254.846 401.999 256.258 402.329 257.388 403.012C258.518 403.695 259.413 404.684 260.049 406.003C260.355 406.638 260.59 407.345 260.755 408.122L244.911 408.169C245.076 407.557 245.264 406.968 245.547 406.45C246.253 405.014 247.265 403.93 248.56 403.153Z" fill="white"/>
  <path d="M296.586 395.382C295.339 394.864 293.903 394.604 292.278 394.604C288.605 394.604 285.804 395.782 283.85 398.113C283.826 398.137 283.803 398.184 283.779 398.208V395.287H274.88V428.116H283.779V410.03C283.779 407.533 284.391 405.697 285.592 404.519C286.793 403.342 288.347 402.753 290.253 402.753C291.148 402.753 291.972 402.871 292.655 403.13C293.361 403.389 293.95 403.789 294.468 404.378L300.047 397.925C299.011 396.748 297.858 395.9 296.61 395.382H296.586Z" fill="white"/>
  <path d="M232.951 136.025C231.845 131.998 231.256 127.782 231.209 123.402C231.115 110.803 238.531 99.0278 248.89 95.4011C254.092 93.5877 260.59 94.2942 265.864 97.2851C270.407 99.852 273.397 103.667 274.268 107.977C275.587 114.406 272.479 122.154 266.57 127.241C259.648 133.199 250.302 135.224 243.663 135.86C240.132 136.213 236.553 136.26 232.951 136.001M170.47 54.7773C173.837 38.1509 184.69 28.7545 193.753 28.7545C194.154 28.7545 194.577 28.7545 194.978 28.8016C203.641 29.6258 212.47 40.2469 211.34 53.1994C210.445 63.5614 204.583 74.1354 192.906 86.4521C188.127 91.5153 182.971 96.3431 177.556 100.865C170.023 86.9231 167.315 70.2967 170.447 54.7537M171.318 192.239C163.29 195.041 155.497 198.668 148.152 203.072C142.572 196.36 136.051 190.449 128.777 185.715C118.442 179.004 106.576 174.506 94.0987 172.551C94.4048 166.711 94.2635 160.847 93.675 154.983C110.343 151.921 126.705 146.717 142.196 139.534C150.6 157.762 160.347 175.377 171.365 192.239M137.746 287.381C132.614 288.064 128.423 285.591 125.81 283.401C120.819 279.186 117.547 272.662 117.288 266.327C116.723 252.621 125.834 240.187 133.603 232.18C137.04 228.624 140.783 225.28 144.785 222.194C150.624 232.062 154.296 243.201 155.168 254.576C156.298 269.13 149.965 285.803 137.77 287.405M69.9914 211.573C65.636 220.263 60.8805 226.198 55.3951 229.73C49.2977 233.663 41.8112 234.346 36.7496 231.45C29.2631 227.14 27.9683 215.742 31.5232 208.206C36.5613 197.467 48.5443 191.886 55.2303 189.531C62.6226 186.917 70.627 185.504 78.7256 185.362C77.0305 194.5 74.1113 203.354 69.9914 211.573ZM67.849 144.055C51.1104 144.88 39.2451 142.595 30.558 136.873C21.6354 130.985 15.3025 118.198 20.1052 108.589C22.9538 102.866 30.4167 98.5803 38.9155 98.5803C42.2114 98.5803 45.6721 99.2162 49.0622 100.7C61.6574 106.14 69.1203 119.14 73.1696 129.101C75.0294 133.67 76.5361 138.427 77.6897 143.302C74.4173 143.655 71.1214 143.914 67.849 144.079M228.949 200.505C238.248 202.012 244.864 204.485 249.737 208.253C255.199 212.492 258.212 218.756 257.435 224.22C256.776 228.812 253.575 231.803 251.008 233.475C245.711 236.937 238.366 238.114 232.292 236.442C220.427 233.169 211.057 222.83 202.7 212.162C199.78 208.418 196.885 204.603 194.083 200.74C205.666 198.762 217.484 198.644 228.973 200.505M93.4866 73.8999C85.0585 74.7948 77.3601 73.1463 71.8041 69.2134C66.0598 65.1393 62.7639 58.1449 63.7997 52.1868C65.2358 43.9207 74.4644 38.7161 82.8219 38.7161C83.7401 38.7161 84.6347 38.7868 85.5293 38.9045C94.9933 40.2704 104.151 47.2884 110.673 58.1214C112.179 60.6412 113.521 63.2553 114.722 65.94C108.342 70.2967 100.95 73.0992 93.5102 73.8763M289.076 176.036C266.994 174.364 249.196 164.544 239.449 150.037C241.332 149.99 243.192 149.872 245.052 149.684C257.435 148.483 268.03 144.362 275.681 137.768C285.451 129.36 290.253 116.573 287.946 105.174C286.275 96.9789 280.742 89.6784 272.785 85.1568C263.98 80.1642 253.339 79.0809 244.346 82.2366C228.314 87.8651 217.225 104.821 217.39 123.473C217.413 126.84 217.696 130.114 218.214 133.293C206.09 129.713 194.978 122.884 186.714 113.747C186.314 113.299 185.914 112.852 185.537 112.381C191.752 107.27 197.638 101.783 203.1 96.0134C211.881 86.7347 223.723 72.3456 225.277 54.4005C226.76 37.2089 215.271 16.7675 196.39 14.9542C176.026 12.9995 160.841 32.5696 156.933 51.9984C153.002 71.4271 156.674 92.2454 166.538 109.413C160.935 113.417 155.097 117.091 149.094 120.458C144.715 110.002 140.807 99.3339 137.346 88.5245C136.781 86.7582 136.216 84.9684 135.674 83.1786C134.333 78.8454 132.944 74.4651 131.413 70.1083C134.992 66.5287 138.076 62.5723 140.595 58.2862C150.082 42.1544 151.448 21.4304 144.15 4.19179C142.643 0.659281 138.57 -0.989222 135.039 0.494431C131.507 2.00163 129.86 6.07579 131.343 9.60829C136.946 22.867 135.91 38.8103 128.612 51.2212C127.647 52.8462 126.587 54.424 125.41 55.9312C124.539 54.2356 123.644 52.5636 122.656 50.9151C113.992 36.4789 101.209 27.0589 87.601 25.0807C79.7379 23.9267 71.2156 25.7401 64.2235 30.0262C56.5722 34.7126 51.6048 41.707 50.1923 49.714C48.2147 60.9474 53.7236 73.3111 63.8468 80.4939C72.1573 86.3814 83.2457 88.9248 95.0404 87.6531C103.657 86.7347 112.203 83.7909 119.807 79.1751C120.678 81.8363 121.526 84.5681 122.397 87.3234C122.962 89.1368 123.527 90.9501 124.115 92.7635C127.811 104.303 132.002 115.654 136.687 126.793C122.279 133.481 107.094 138.38 91.5797 141.253C90.2378 135.271 88.4015 129.407 86.1179 123.802C81.0798 111.439 71.5452 95.1891 54.6418 87.8886C38.8684 81.0827 16.2678 85.251 7.74543 102.325C3.88449 110.073 3.60198 119.304 6.99207 128.324C10.029 136.378 15.844 143.726 22.9773 148.436C35.1016 156.443 49.5802 158.115 61.2807 158.115C63.8939 158.115 66.3423 158.021 68.6259 157.926C72.4398 157.738 76.2301 157.408 80.0439 157.008C80.4913 161.812 80.609 166.64 80.3971 171.444H80.091C69.9914 171.444 59.9388 173.14 50.6631 176.413C35.5725 181.759 24.3192 190.944 18.9987 202.295C11.8889 217.484 16.7621 235.971 29.8988 243.507C34.1364 245.933 39.0332 247.134 44.0713 247.134C50.4748 247.134 57.1137 245.203 62.9993 241.435C70.627 236.513 77.007 228.788 82.4924 217.814C87.4127 207.97 90.8263 197.349 92.6862 186.422C102.998 188.118 112.791 191.862 121.314 197.42C127.058 201.164 132.237 205.733 136.734 210.938C132.073 214.517 127.694 218.403 123.691 222.548C114.039 232.509 102.715 248.311 103.492 266.94C103.916 277.184 108.954 287.334 116.958 294.069C122.679 298.873 129.389 301.44 136.145 301.44C137.299 301.44 138.476 301.37 139.63 301.205C160.159 298.52 170.729 274.852 169.081 253.516C168.022 239.786 163.525 226.339 156.368 214.47C163.713 210.184 171.482 206.746 179.534 204.226C183.465 209.831 187.585 215.365 191.776 220.711C201.593 233.263 212.87 245.485 228.62 249.819C231.657 250.666 234.858 251.067 238.084 251.067C245.311 251.067 252.68 248.994 258.636 245.085C265.652 240.493 270.125 233.758 271.208 226.174C272.714 215.695 267.747 204.603 258.283 197.255C251.503 191.98 242.886 188.659 231.186 186.752C216.095 184.302 200.487 184.891 185.419 188.259C173.695 170.714 163.407 152.345 154.65 133.27C161.477 129.525 168.092 125.38 174.449 120.859C175.084 121.612 175.72 122.342 176.379 123.072C188.245 136.213 204.96 145.398 222.758 148.695C233.022 171.633 257.082 187.552 288.04 189.907C288.229 189.907 288.394 189.907 288.582 189.907C292.184 189.907 295.221 187.128 295.503 183.478C295.786 179.64 292.937 176.319 289.1 176.013" fill="#E8373D"/>
  </g>
  <defs>
  <clipPath id="clip0_93_2">
  <rect width="300" height="428.846" fill="white"/>
  </clipPath>
  </defs>
  </svg>
  