<svg width="16" height="16" viewBox="0 0 16 16" fill="none" xmlns="http://www.w3.org/2000/svg">
<path d="M9.69622 4.46728L3.91367 1.0828C3.82114 1.02865 3.71614 1.00009 3.60923 1C3.50232 0.999911 3.39727 1.02829 3.30465 1.0823C3.21204 1.1363 3.13512 1.21401 3.08164 1.30762C3.02816 1.40122 3 1.50742 3 1.61553L3 8.38447C3 8.49258 3.02816 8.59878 3.08164 8.69238C3.13512 8.78599 3.21203 8.8637 3.30465 8.9177C3.39727 8.97171 3.50232 9.00009 3.60923 9C3.71614 8.99991 3.82114 8.97135 3.91366 8.91719L9.69622 5.53272C9.7886 5.47865 9.8653 5.40097 9.91861 5.30747C9.97193 5.21397 10 5.10793 10 5C10 4.89207 9.97193 4.78603 9.91861 4.69253C9.8653 4.59903 9.7886 4.52135 9.69622 4.46728V4.46728Z" stroke="currentColor" stroke-linecap="round" stroke-linejoin="round"/>
<path d="M15 1H6V10H15V1Z" stroke="currentColor" stroke-linecap="round" stroke-linejoin="round"/>
<path d="M11.5 15C13.433 15 15 13.433 15 11.5C15 9.567 13.433 8 11.5 8C9.567 8 8 9.567 8 11.5C8 13.433 9.567 15 11.5 15Z" stroke="currentColor" stroke-linecap="round" stroke-linejoin="round"/>
<path d="M1 12.7536C1 12.3854 1.29848 12.0869 1.66667 12.0869H5.89855C6.26674 12.0869 6.56522 12.3854 6.56522 12.7536V12.8116C6.56522 13.1797 6.26674 13.4782 5.89855 13.4782H1.66667C1.29848 13.4782 1 13.1797 1 12.8116V12.7536Z" fill="currentColor"/>
<path d="M3.81157 10C4.17976 10 4.47824 10.2985 4.47824 10.6667L4.47824 14.8986C4.47824 15.2667 4.17976 15.5652 3.81157 15.5652L3.7536 15.5652C3.38541 15.5652 3.08694 15.2667 3.08694 14.8986L3.08694 10.6667C3.08694 10.2985 3.38541 10 3.7536 10L3.81157 10Z" fill="currentColor"/>
</svg>
