<svg width="16" height="16" viewBox="0 0 16 16" fill="none" xmlns="http://www.w3.org/2000/svg">
<path d="M6.02341 7.27999L2.35689 13.8886C2.29822 13.9944 2.26728 14.1144 2.26719 14.2366C2.26709 14.3587 2.29784 14.4788 2.35634 14.5846C2.41484 14.6905 2.49903 14.7784 2.60044 14.8395C2.70185 14.9006 2.81689 14.9328 2.93401 14.9328H10.267C10.3841 14.9328 10.4992 14.9006 10.6006 14.8395C10.702 14.7784 10.7862 14.6905 10.8447 14.5846C10.9032 14.4788 10.934 14.3587 10.9339 14.2366C10.9338 14.1144 10.9028 13.9944 10.8441 13.8886L7.17763 7.27999C7.11906 7.17441 7.0349 7.08676 6.93361 7.02583C6.83232 6.96489 6.71745 6.93282 6.60052 6.93282C6.48359 6.93282 6.36872 6.96489 6.26743 7.02583C6.16614 7.08676 6.08198 7.17441 6.02341 7.27999V7.27999Z" stroke="currentColor" stroke-linecap="round" stroke-linejoin="round"/>
<path d="M9.6 1.60001H1.6V9.60001H9.6V1.60001Z" stroke="currentColor" stroke-linecap="round" stroke-linejoin="round"/>
<path d="M10.5995 12.2661C12.6245 12.2661 14.2661 10.6245 14.2661 8.59948C14.2661 6.57444 12.6245 4.93282 10.5995 4.93282C8.57443 4.93282 6.93281 6.57444 6.93281 8.59948C6.93281 10.6245 8.57443 12.2661 10.5995 12.2661Z" stroke="currentColor" stroke-linecap="round" stroke-linejoin="round"/>
</svg>
