<svg width="16" height="16" viewBox="0 0 16 16" fill="none" xmlns="http://www.w3.org/2000/svg">
<path d="M8.5 2.5V13.5C8.5 13.6326 8.44732 13.7598 8.35355 13.8536C8.25979 13.9473 8.13261 14 8 14C7.86739 14 7.74021 13.9473 7.64645 13.8536C7.55268 13.7598 7.5 13.6326 7.5 13.5V2.5C7.5 2.36739 7.55268 2.24021 7.64645 2.14645C7.74021 2.05268 7.86739 2 8 2C8.13261 2 8.25979 2.05268 8.35355 2.14645C8.44732 2.24021 8.5 2.36739 8.5 2.5ZM4.35358 5.64642C4.28364 5.57651 4.19455 5.5289 4.09756 5.50961C4.00057 5.49033 3.90004 5.50023 3.80868 5.53808C3.71732 5.57592 3.63923 5.64001 3.58428 5.72223C3.52934 5.80445 3.50001 5.90111 3.5 6V7.5H1C0.867392 7.5 0.740215 7.55268 0.646447 7.64645C0.552678 7.74021 0.5 7.86739 0.5 8C0.5 8.13261 0.552678 8.25979 0.646447 8.35355C0.740215 8.44732 0.867392 8.5 1 8.5H3.5V10C3.50001 10.0989 3.52934 10.1956 3.58428 10.2778C3.63922 10.36 3.71731 10.4241 3.80867 10.4619C3.90003 10.4998 4.00057 10.5097 4.09756 10.4904C4.19455 10.4711 4.28364 10.4235 4.35358 10.3536L6.35358 8.35358C6.44734 8.2598 6.50002 8.13261 6.50002 8C6.50002 7.86739 6.44734 7.7402 6.35358 7.64642L4.35358 5.64642ZM15 7.5H12.5V6C12.5 5.90111 12.4707 5.80445 12.4157 5.72223C12.3608 5.64001 12.2827 5.57592 12.1913 5.53808C12.1 5.50023 11.9994 5.49033 11.9024 5.50961C11.8055 5.5289 11.7164 5.57651 11.6464 5.64642L9.64642 7.64642C9.55266 7.7402 9.49998 7.86739 9.49998 8C9.49998 8.13261 9.55266 8.2598 9.64642 8.35358L11.6464 10.3536C11.7164 10.4235 11.8055 10.4711 11.9024 10.4904C11.9994 10.5097 12.1 10.4998 12.1913 10.4619C12.2827 10.4241 12.3608 10.36 12.4157 10.2778C12.4707 10.1956 12.5 10.0989 12.5 10V8.5H15C15.1326 8.5 15.2598 8.44732 15.3536 8.35355C15.4473 8.25979 15.5 8.13261 15.5 8C15.5 7.86739 15.4473 7.74021 15.3536 7.64645C15.2598 7.55268 15.1326 7.5 15 7.5Z" fill="currentColor"/>
</svg>
