<svg width="16" height="16" viewBox="0 0 16 16" fill="none" xmlns="http://www.w3.org/2000/svg">
<path d="M2.47141 10.1953C2.21106 9.93491 1.78895 9.93491 1.5286 10.1953C1.26825 10.4556 1.26825 10.8777 1.5286 11.1381L4.19526 13.8047C4.45561 14.0651 4.87772 14.0651 5.13807 13.8047L7.80474 11.1381C8.06509 10.8777 8.06509 10.4556 7.80474 10.1953C7.54439 9.93491 7.12228 9.93491 6.86193 10.1953L4.66667 12.3905L2.47141 10.1953Z" fill="currentColor"/>
<path d="M4 2.70833V12.625C4 13.0162 4.29848 13.3333 4.66667 13.3333C5.03486 13.3333 5.33333 13.0162 5.33333 12.625V2.70833C5.33333 2.31713 5.03486 2 4.66667 2C4.29848 2 4 2.31713 4 2.70833Z" fill="currentColor"/>
<path fill-rule="evenodd" clip-rule="evenodd" d="M11.3333 3.79506L12.7143 7.2476C12.8511 7.58945 13.2391 7.75573 13.5809 7.61899C13.9228 7.48224 14.0891 7.09426 13.9523 6.75241L12.2618 2.52614C11.9266 1.68799 10.7401 1.68799 10.4049 2.52614L8.71435 6.75241C8.57761 7.09426 8.74388 7.48224 9.08574 7.61899C9.42759 7.75573 9.81557 7.58945 9.95232 7.2476L11.3333 3.79506Z" fill="currentColor"/>
<path fill-rule="evenodd" clip-rule="evenodd" d="M13 6.66667H9.66666V5.33333H13V6.66667Z" fill="currentColor"/>
<path fill-rule="evenodd" clip-rule="evenodd" d="M9.33334 10C8.96515 10 8.66667 9.70152 8.66667 9.33333C8.66667 8.96514 8.96515 8.66667 9.33334 8.66667H13.3333C13.603 8.66667 13.8461 8.8291 13.9493 9.07821C14.0524 9.32733 13.9954 9.61407 13.8047 9.80474L10.9428 12.6667H13.3333C13.7015 12.6667 14 12.9651 14 13.3333C14 13.7015 13.7015 14 13.3333 14H9.33334C9.06369 14 8.8206 13.8376 8.71742 13.5885C8.61423 13.3393 8.67127 13.0526 8.86193 12.8619L11.7239 10H9.33334Z" fill="currentColor"/>
</svg>
