<svg width="16" height="16" viewBox="0 0 16 16" fill="none" xmlns="http://www.w3.org/2000/svg">
<path d="M1 13.4989H15" stroke="currentColor" stroke-linecap="round" stroke-linejoin="round"/>
<path d="M8.99963 13.4989V2.49895C8.99963 2.36634 8.94696 2.23916 8.85319 2.14539C8.75942 2.05163 8.63224 1.99895 8.49963 1.99895H2.49963C2.36703 1.99895 2.23985 2.05163 2.14608 2.14539C2.05231 2.23916 1.99963 2.36634 1.99963 2.49895V13.4989" stroke="currentColor" stroke-linecap="round" stroke-linejoin="round"/>
<path d="M13.9996 13.4989V6.49895C13.9996 6.36634 13.947 6.23916 13.8532 6.14539C13.7594 6.05163 13.6322 5.99895 13.4996 5.99895H8.99963" stroke="currentColor" stroke-linecap="round" stroke-linejoin="round"/>
<path d="M3.99963 4.49895H5.99963" stroke="currentColor" stroke-linecap="round" stroke-linejoin="round"/>
<path d="M4.99963 8.49895H6.99963" stroke="currentColor" stroke-linecap="round" stroke-linejoin="round"/>
<path d="M3.99963 10.9989H5.99963" stroke="currentColor" stroke-linecap="round" stroke-linejoin="round"/>
<path d="M10.9996 10.9989H11.9996" stroke="currentColor" stroke-linecap="round" stroke-linejoin="round"/>
<path d="M10.9996 8.49895H11.9996" stroke="currentColor" stroke-linecap="round" stroke-linejoin="round"/>
</svg>
