<svg width="16" height="16" viewBox="0 0 16 16" fill="none" xmlns="http://www.w3.org/2000/svg">
<path d="M8 1.5C6.71442 1.5 5.45771 1.88122 4.38879 2.59545C3.31987 3.30968 2.48675 4.32484 1.99478 5.51256C1.50281 6.70028 1.37409 8.00721 1.62489 9.26809C1.8757 10.529 2.49476 11.6872 3.40381 12.5962C4.31285 13.5052 5.47104 14.1243 6.73191 14.3751C7.99279 14.6259 9.29972 14.4972 10.4874 14.0052C11.6752 13.5132 12.6903 12.6801 13.4046 11.6112C14.1188 10.5423 14.5 9.28558 14.5 8C14.498 6.2767 13.8125 4.62456 12.594 3.40601C11.3754 2.18745 9.7233 1.50199 8 1.5ZM11.5 8.5H8C7.93433 8.50004 7.86929 8.48713 7.80861 8.46202C7.74793 8.4369 7.6928 8.40007 7.64636 8.35364C7.59992 8.3072 7.5631 8.25207 7.53798 8.19139C7.51287 8.13071 7.49996 8.06567 7.5 8V4.5C7.5 4.36739 7.55268 4.24021 7.64645 4.14645C7.74021 4.05268 7.86739 4 8 4C8.13261 4 8.25978 4.05268 8.35355 4.14645C8.44732 4.24021 8.5 4.36739 8.5 4.5V7.5H11.5C11.6326 7.5 11.7598 7.55268 11.8536 7.64645C11.9473 7.74021 12 7.86739 12 8C12 8.13261 11.9473 8.25979 11.8536 8.35355C11.7598 8.44732 11.6326 8.5 11.5 8.5Z" fill="currentColor"/>
</svg>
