<svg width="16" height="16" viewBox="0 0 16 16" fill="none" xmlns="http://www.w3.org/2000/svg">
<path d="M8.70709 8L12.8535 3.85354C12.9472 3.75976 12.9998 3.63261 12.9998 3.50006C12.9997 3.36751 12.9471 3.2404 12.8533 3.14667C12.7596 3.05294 12.6325 3.00027 12.4999 3.00023C12.3674 3.00019 12.2402 3.05278 12.1465 3.14645L8 7.2929L3.85354 3.14645C3.75976 3.05278 3.63261 3.00019 3.50006 3.00023C3.36751 3.00027 3.2404 3.05294 3.14667 3.14667C3.05295 3.2404 3.00027 3.36751 3.00023 3.50006C3.00019 3.63261 3.05278 3.75976 3.14645 3.85354L7.29291 8L3.14645 12.1465C3.09998 12.1929 3.0631 12.248 3.03794 12.3087C3.01277 12.3693 2.99981 12.4344 2.99979 12.5001C2.99977 12.5657 3.01269 12.6308 3.03782 12.6915C3.06294 12.7522 3.09978 12.8073 3.14623 12.8538C3.19268 12.9002 3.24782 12.9371 3.30851 12.9622C3.3692 12.9873 3.43425 13.0002 3.49993 13.0002C3.56562 13.0002 3.63066 12.9872 3.69133 12.9621C3.75201 12.9369 3.80713 12.9 3.85354 12.8535L8 8.70709L12.1465 12.8535C12.2402 12.9472 12.3674 12.9998 12.4999 12.9998C12.6325 12.9997 12.7596 12.9471 12.8533 12.8533C12.9471 12.7596 12.9997 12.6325 12.9998 12.4999C12.9998 12.3674 12.9472 12.2402 12.8535 12.1465L8.70709 8Z" fill="currentColor"/>
</svg>
