<svg xmlns="http://www.w3.org/2000/svg" width="16" height="16" viewBox="0 0 16 16" fill="none">
  <path d="M8 14C11.3137 14 14 11.3137 14 8C14 4.68629 11.3137 2 8 2C4.68629 2 2 4.68629 2 8C2 11.3137 4.68629 14 8 14Z" stroke="currentColor" stroke-width="1.2" stroke-linecap="round" stroke-linejoin="round"/>
  <path d="M10.0001 9.50009C9.68519 9.91976 9.24626 10.2297 8.74544 10.3861C8.24462 10.5425 7.70729 10.5373 7.20957 10.3713C6.71185 10.2054 6.27895 9.88702 5.9722 9.46138C5.66544 9.03574 5.50037 8.52437 5.50037 7.99971C5.50036 7.47505 5.66543 6.96368 5.97218 6.53803C6.27893 6.11239 6.71182 5.79404 7.20954 5.62807C7.70726 5.46211 8.24458 5.45693 8.74541 5.61329C9.24623 5.76965 9.68517 6.07961 10.0001 6.49928" stroke="currentColor" stroke-width="1.2" stroke-linecap="round" stroke-linejoin="round"/>
</svg>