<svg width="16" height="16" viewBox="0 0 16 16" fill="none" xmlns="http://www.w3.org/2000/svg">
<path d="M6 9.75C6.41421 9.75 6.75 9.41421 6.75 9C6.75 8.58579 6.41421 8.25 6 8.25C5.58579 8.25 5.25 8.58579 5.25 9C5.25 9.41421 5.58579 9.75 6 9.75Z" fill="#6F6F6F"/>
<path d="M10 9.75C10.4142 9.75 10.75 9.41421 10.75 9C10.75 8.58579 10.4142 8.25 10 8.25C9.58579 8.25 9.25 8.58579 9.25 9C9.25 9.41421 9.58579 9.75 10 9.75Z" fill="#6F6F6F"/>
<path d="M4.65039 5.00027C5.73436 4.66099 6.86449 4.49231 8.00028 4.50027C9.13606 4.49231 10.2662 4.66099 11.3501 5.00025" stroke="#6F6F6F" stroke-width="1.2" stroke-linecap="round" stroke-linejoin="round"/>
<path d="M11.3501 11C10.2661 11.3393 9.13601 11.5079 8.00024 11.5C6.86446 11.5079 5.73435 11.3393 4.65039 11" stroke="#6F6F6F" stroke-width="1.2" stroke-linecap="round" stroke-linejoin="round"/>
<path d="M9.69044 11.38L10.442 12.8832C10.4921 12.9841 10.5749 13.0651 10.677 13.1129C10.7791 13.1607 10.8943 13.1724 11.004 13.1462C12.5376 12.7713 13.8598 12.1175 14.8227 11.2805C14.8963 11.2173 14.95 11.1342 14.9774 11.0412C15.0048 10.9482 15.0047 10.8492 14.9772 10.7562L12.8539 3.6783C12.8324 3.60693 12.7953 3.54124 12.7453 3.486C12.6953 3.43076 12.6336 3.38737 12.5647 3.35898C11.9648 3.11338 11.3444 2.92132 10.7107 2.78505C10.5899 2.75859 10.4637 2.77769 10.3561 2.83868C10.2486 2.89967 10.1675 2.99824 10.1282 3.11545L9.62988 4.61043" stroke="#6F6F6F" stroke-width="1.2" stroke-linecap="round" stroke-linejoin="round"/>
<path d="M6.3094 11.38L5.55782 12.8832C5.50774 12.9841 5.4249 13.0651 5.32282 13.1129C5.22075 13.1607 5.10549 13.1724 4.99587 13.1462C3.46221 12.7713 2.14007 12.1175 1.17712 11.2806C1.10358 11.2173 1.04988 11.1342 1.02247 11.0412C0.995062 10.9482 0.995115 10.8492 1.02262 10.7562L3.14598 3.6783C3.16742 3.60693 3.2045 3.54123 3.25452 3.486C3.30454 3.43076 3.36624 3.38737 3.43514 3.35898C4.03502 3.11337 4.65545 2.92132 5.28917 2.78505C5.40991 2.75859 5.53617 2.77769 5.64368 2.83868C5.7512 2.89967 5.83238 2.99824 5.87162 3.11545L6.36995 4.61043" stroke="#6F6F6F" stroke-width="1.2" stroke-linecap="round" stroke-linejoin="round"/>
</svg>
