<svg width="16" height="16" viewBox="0 0 16 16" fill="none" xmlns="http://www.w3.org/2000/svg">
<path d="M13.8536 8.35352L11.2293 10.9785C11.1594 11.0485 11.0703 11.0961 10.9733 11.1154C10.8763 11.1347 10.7758 11.1248 10.6844 11.087C10.593 11.0491 10.5149 10.985 10.46 10.9028C10.405 10.8206 10.3757 10.7239 10.3757 10.625V8.5H6.5C6.36739 8.5 6.24021 8.44732 6.14645 8.35355C6.05268 8.25979 6 8.13261 6 8C6 7.86739 6.05268 7.74021 6.14645 7.64645C6.24021 7.55268 6.36739 7.5 6.5 7.5H10.3757V5.375C10.3757 5.2761 10.405 5.17942 10.46 5.09719C10.5149 5.01496 10.593 4.95087 10.6844 4.91303C10.7758 4.87519 10.8763 4.86529 10.9733 4.8846C11.0703 4.9039 11.1594 4.95154 11.2293 5.02148L13.8536 7.64648C13.9473 7.74025 14 7.86741 14 8C14 8.13259 13.9473 8.25975 13.8536 8.35352ZM6.5 13H3V3H6.5C6.63261 3 6.75979 2.94732 6.85355 2.85355C6.94732 2.75979 7 2.63261 7 2.5C7 2.36739 6.94732 2.24021 6.85355 2.14645C6.75979 2.05268 6.63261 2 6.5 2H3C2.73488 2.0003 2.4807 2.10576 2.29323 2.29323C2.10576 2.4807 2.0003 2.73488 2 3V13C2.0003 13.2651 2.10576 13.5193 2.29323 13.7068C2.4807 13.8942 2.73488 13.9997 3 14H6.5C6.63261 14 6.75979 13.9473 6.85355 13.8536C6.94732 13.7598 7 13.6326 7 13.5C7 13.3674 6.94732 13.2402 6.85355 13.1464C6.75979 13.0527 6.63261 13 6.5 13Z" fill="currentColor"/>
</svg>
