<svg width="16" height="16" viewBox="0 0 16 16" fill="none" xmlns="http://www.w3.org/2000/svg">
<path d="M3 2.50008L13 13.5001" stroke="currentColor" stroke-linecap="round" stroke-linejoin="round"/>
<path d="M9.6817 9.84994C9.19108 10.2959 8.5434 10.5287 7.88115 10.4971C7.21889 10.4655 6.5963 10.1722 6.15031 9.68162C5.70432 9.19103 5.47147 8.54338 5.50298 7.88112C5.53449 7.21886 5.82777 6.59624 6.31831 6.15021" stroke="currentColor" stroke-linecap="round" stroke-linejoin="round"/>
<path d="M4.62465 4.28717C2.07657 5.57752 1 8.00008 1 8.00008C1 8.00008 3 12.4996 8 12.4996C9.1715 12.5089 10.3284 12.2391 11.3748 11.7124" stroke="currentColor" stroke-linecap="round" stroke-linejoin="round"/>
<path d="M13.0381 10.5688C14.4007 9.34834 15 8.00008 15 8.00008C15 8.00008 13 3.49959 8.00001 3.49959C7.56696 3.49888 7.1346 3.53409 6.70737 3.60485" stroke="currentColor" stroke-linecap="round" stroke-linejoin="round"/>
<path d="M8.47046 5.54431C9.00182 5.64634 9.48577 5.91791 9.84972 6.31827C10.2137 6.71863 10.438 7.22621 10.4891 7.76486" stroke="currentColor" stroke-linecap="round" stroke-linejoin="round"/>
</svg>
