<svg width="16" height="16" viewBox="0 0 16 16" fill="none" xmlns="http://www.w3.org/2000/svg">
<path d="M13.5 7V5.5C13.5001 5.43432 13.4872 5.36927 13.4621 5.30858C13.437 5.24788 13.4002 5.19272 13.3538 5.14625L9.85375 1.64625C9.80728 1.59983 9.75212 1.56303 9.69143 1.53793C9.63073 1.51284 9.56568 1.49995 9.5 1.5H3.5C3.23478 1.5 2.98043 1.60536 2.79289 1.79289C2.60536 1.98043 2.5 2.23478 2.5 2.5V7C2.5 7.13261 2.55268 7.25979 2.64645 7.35355C2.74021 7.44732 2.86739 7.5 3 7.5H13C13.1326 7.5 13.2598 7.44732 13.3536 7.35355C13.4473 7.25979 13.5 7.13261 13.5 7ZM9.5 5.5V2.75L12.25 5.5H9.5ZM8 9.5C8 9.63261 7.94732 9.75979 7.85355 9.85355C7.75979 9.94732 7.63261 10 7.5 10H7V13C7 13.1326 6.94732 13.2598 6.85355 13.3536C6.75979 13.4473 6.63261 13.5 6.5 13.5C6.36739 13.5 6.24021 13.4473 6.14645 13.3536C6.05268 13.2598 6 13.1326 6 13V10H5.5C5.36739 10 5.24021 9.94732 5.14645 9.85355C5.05268 9.75979 5 9.63261 5 9.5C5 9.36739 5.05268 9.24021 5.14645 9.14645C5.24021 9.05268 5.36739 9 5.5 9H7.5C7.63261 9 7.75979 9.05268 7.85355 9.14645C7.94732 9.24021 8 9.36739 8 9.5ZM4.5 9.5V13C4.5 13.1326 4.44732 13.2598 4.35355 13.3536C4.25979 13.4473 4.13261 13.5 4 13.5C3.86739 13.5 3.74021 13.4473 3.64645 13.3536C3.55268 13.2598 3.5 13.1326 3.5 13V11.75H2.5V13C2.5 13.1326 2.44732 13.2598 2.35355 13.3536C2.25979 13.4473 2.13261 13.5 2 13.5C1.86739 13.5 1.74021 13.4473 1.64645 13.3536C1.55268 13.2598 1.5 13.1326 1.5 13V9.5C1.5 9.36739 1.55268 9.24021 1.64645 9.14645C1.74021 9.05268 1.86739 9 2 9C2.13261 9 2.25979 9.05268 2.35355 9.14645C2.44732 9.24021 2.5 9.36739 2.5 9.5V10.75H3.5V9.5C3.5 9.36739 3.55268 9.24021 3.64645 9.14645C3.74021 9.05268 3.86739 9 4 9C4.13261 9 4.25979 9.05268 4.35355 9.14645C4.44732 9.24021 4.5 9.36739 4.5 9.5ZM15.5 13C15.5 13.1326 15.4473 13.2598 15.3536 13.3536C15.2598 13.4473 15.1326 13.5 15 13.5H13.75C13.6174 13.5 13.4902 13.4473 13.3964 13.3536C13.3027 13.2598 13.25 13.1326 13.25 13V9.5C13.25 9.36739 13.3027 9.24021 13.3964 9.14645C13.4902 9.05268 13.6174 9 13.75 9C13.8826 9 14.0098 9.05268 14.1036 9.14645C14.1973 9.24021 14.25 9.36739 14.25 9.5V12.5H15C15.1326 12.5 15.2598 12.5527 15.3536 12.6464C15.4473 12.7402 15.5 12.8674 15.5 13ZM12.5 9.5V13C12.5 13.1326 12.4473 13.2598 12.3536 13.3536C12.2598 13.4473 12.1326 13.5 12 13.5C11.8674 13.5 11.7402 13.4473 11.6464 13.3536C11.5527 13.2598 11.5 13.1326 11.5 13V11.305L10.9288 12.2575C10.8843 12.3315 10.8215 12.3928 10.7464 12.4354C10.6712 12.4779 10.5863 12.5003 10.5 12.5003C10.4137 12.5003 10.3288 12.4779 10.2536 12.4354C10.1785 12.3928 10.1157 12.3315 10.0712 12.2575L9.5 11.305V13C9.5 13.1326 9.44732 13.2598 9.35355 13.3536C9.25979 13.4473 9.13261 13.5 9 13.5C8.86739 13.5 8.74021 13.4473 8.64645 13.3536C8.55268 13.2598 8.5 13.1326 8.5 13V9.5C8.49994 9.39063 8.53575 9.28426 8.60193 9.19718C8.66811 9.11011 8.76102 9.04714 8.86641 9.01792C8.97181 8.9887 9.08387 8.99484 9.18544 9.0354C9.28701 9.07597 9.37248 9.14872 9.42875 9.2425L10.5 11.0281L11.5712 9.2425C11.6275 9.14872 11.713 9.07597 11.8146 9.0354C11.9161 8.99484 12.0282 8.9887 12.1336 9.01792C12.239 9.04714 12.3319 9.11011 12.3981 9.19718C12.4643 9.28426 12.5001 9.39063 12.5 9.5Z" fill="currentColor"/>
</svg>
