<svg xmlns="http://www.w3.org/2000/svg" width="19" height="20" viewBox="0 0 19 20" fill="none">
  <path fill-rule="evenodd" clip-rule="evenodd" d="M1 3C1 1.34315 2.34315 0 4 0H11.1716C11.9672 0 12.7303 0.316071 13.2929 0.87868L16.1213 3.70711C16.6839 4.26972 17 5.03278 17 5.82843V11C17 11.5523 16.5523 12 16 12C15.4477 12 15 11.5523 15 11V5.82843C15 5.56321 14.8946 5.30886 14.7071 5.12132L11.8787 2.29289C11.6911 2.10536 11.4368 2 11.1716 2H4C3.44772 2 3 2.44772 3 3V11C3 11.5523 2.55228 12 2 12C1.44772 12 1 11.5523 1 11V3Z" fill="currentColor"/>
  <path d="M11 6V1L16 6H11Z" fill="currentColor"/>
  <path fill-rule="evenodd" clip-rule="evenodd" d="M10.6173 0.0761192C10.991 -0.0786618 11.4211 0.00689393 11.7071 0.292892L16.7071 5.29289C16.9931 5.57889 17.0787 6.00901 16.9239 6.38268C16.7691 6.75636 16.4045 7 16 7H11C10.4477 7 10 6.55228 10 6V0.999999C10 0.595536 10.2436 0.2309 10.6173 0.0761192ZM12 3.41421V5H13.5858L12 3.41421Z" fill="currentColor"/>
  <path d="M3.66387 16.9164L4.92465 15.2161C5.02995 15.0828 5.07573 14.9174 5.062 14.7205C5.04826 14.5237 4.97329 14.3537 4.83708 14.2123C4.70088 14.0704 4.51087 14 4.2665 14C4.11084 14 3.9815 14.0292 3.87905 14.0876C3.77604 14.1459 3.6776 14.2444 3.58317 14.3834L2.30523 16.2669H1.58298V14.7497C1.58298 14.6164 1.54693 14.4916 1.47482 14.3749C1.40271 14.2581 1.30656 14.1665 1.18752 14.1002C1.06791 14.0332 0.936284 14 0.791492 14C0.563716 14 0.374857 14.0721 0.224914 14.2169C0.0749714 14.3611 0 14.5391 0 14.7497V19.2497C0 19.3831 0.034338 19.5078 0.104159 19.6246C0.173407 19.7413 0.269554 19.8329 0.391454 19.8998C0.513354 19.9662 0.6467 20 0.791492 20C1.01354 20 1.20126 19.9279 1.35406 19.7831C1.50687 19.6389 1.58298 19.4609 1.58298 19.2497V17.6496H2.31381L3.64155 19.616C3.7251 19.7385 3.8264 19.8329 3.94544 19.8993C4.06505 19.9657 4.19382 19.9994 4.33289 19.9994C4.57154 19.9994 4.7604 19.9285 4.89947 19.7871C5.03854 19.6452 5.11179 19.4718 5.12037 19.2663C5.12896 19.0609 5.07173 18.872 4.94983 18.6997L3.66387 16.9164Z" fill="currentColor"/>
  <path d="M12.716 14.1122C12.5826 14.0372 12.4355 14 12.2741 14C12.0183 14 11.8003 14.0681 11.62 14.2043C11.4391 14.3405 11.2909 14.5225 11.1742 14.7503L9.87448 17.3834H9.79092L8.49123 14.7503C8.3802 14.5225 8.23312 14.3405 8.04941 14.2043C7.86628 14.0681 7.64937 14 7.39928 14C7.14918 14 6.94773 14.0818 6.77833 14.2455C6.60893 14.4092 6.52423 14.6055 6.52423 14.8333V19.2497C6.52423 19.3831 6.55857 19.5078 6.62839 19.6246C6.69764 19.7413 6.79378 19.8329 6.91568 19.8998C7.03758 19.9662 7.17093 20 7.31572 20C7.53778 20 7.72549 19.9279 7.87829 19.7831C8.0311 19.6389 8.10721 19.4609 8.10721 19.2497V17.075H8.19077L8.94907 18.6333C9.06582 18.872 9.1923 19.0471 9.32793 19.1581C9.46414 19.2692 9.63182 19.3247 9.83213 19.3247C10.0324 19.3247 10.2087 19.2692 10.3449 19.1581C10.4811 19.0471 10.6076 18.872 10.7238 18.6333L11.4821 17.075H11.5656V19.2497C11.5656 19.3831 11.6005 19.5078 11.6698 19.6246C11.739 19.7413 11.8352 19.8329 11.9571 19.8998C12.079 19.9662 12.2123 20 12.3571 20C12.5792 20 12.7669 19.9279 12.9197 19.7831C13.0725 19.6389 13.1486 19.4609 13.1486 19.2497V14.8333C13.1486 14.6833 13.1097 14.5443 13.0319 14.4166C12.954 14.289 12.8487 14.1877 12.7154 14.1122H12.716Z" fill="currentColor"/>
  <path d="M18.7825 18.8205C18.6377 18.69 18.4466 18.6248 18.2074 18.6248H16.2827V14.7536C16.2827 14.6203 16.2467 14.4955 16.1746 14.3788C16.1024 14.262 16.0063 14.1704 15.8873 14.1041C15.7677 14.0371 15.636 14.0039 15.4912 14.0039C15.2635 14.0039 15.0746 14.076 14.9247 14.2208C14.7747 14.3656 14.6997 14.543 14.6997 14.7542V19.2497C14.6997 19.4609 14.7747 19.6389 14.9247 19.7831C15.0746 19.9279 15.2635 20 15.4912 20H18.2079C18.4466 20 18.6383 19.9348 18.7831 19.8043C18.9273 19.6738 19 19.5084 19 19.3087C19 19.1089 18.9273 18.951 18.7825 18.8205Z" fill="currentColor"/>
</svg>