<svg xmlns="http://www.w3.org/2000/svg" width="20" height="21" viewBox="0 0 20 21" fill="none">
  <path fill-rule="evenodd" clip-rule="evenodd" d="M2 3C2 1.34315 3.34315 0 5 0H12.1716C12.9672 0 13.7303 0.316071 14.2929 0.87868L17.1213 3.70711C17.6839 4.26972 18 5.03278 18 5.82843V12C18 12.5523 17.5523 13 17 13C16.4477 13 16 12.5523 16 12V5.82843C16 5.56321 15.8946 5.30886 15.7071 5.12132L12.8787 2.29289C12.6911 2.10536 12.4368 2 12.1716 2H5C4.44772 2 4 2.44772 4 3V12C4 12.5523 3.55228 13 3 13C2.44772 13 2 12.5523 2 12V3Z" fill="currentColor"/>
  <path d="M12 6V1L17 6H12Z" fill="currentColor"/>
  <path fill-rule="evenodd" clip-rule="evenodd" d="M11.6173 0.0761192C11.991 -0.0786618 12.4211 0.00689393 12.7071 0.292892L17.7071 5.29289C17.9931 5.57889 18.0787 6.00901 17.9239 6.38268C17.7691 6.75636 17.4045 7 17 7H12C11.4477 7 11 6.55228 11 6V0.999999C11 0.595536 11.2436 0.2309 11.6173 0.0761192ZM13 3.41421V5H14.5858L13 3.41421Z" fill="currentColor"/>
  <path d="M3.40437 18.1157C3.29056 18.1157 3.18627 18.1398 3.09422 18.1869C3.00535 18.2327 2.91829 18.3062 2.82715 18.4118C2.72966 18.5166 2.63535 18.5914 2.54648 18.634C2.45987 18.6757 2.35286 18.6966 2.22907 18.6966C2.10529 18.6966 1.99147 18.6671 1.889 18.6063C1.78607 18.5456 1.70672 18.4622 1.64551 18.3511C1.58339 18.2386 1.55346 18.1153 1.55346 17.9743V16.984C1.55346 16.8452 1.58429 16.7183 1.64551 16.6072C1.70672 16.4961 1.78652 16.4122 1.889 16.3519C1.99193 16.2911 2.10302 16.2617 2.22907 16.2617C2.33472 16.2617 2.42541 16.2802 2.49841 16.3165C2.5755 16.3551 2.66255 16.4262 2.75596 16.5274C2.8607 16.6421 2.95366 16.7192 3.03981 16.7618C3.12868 16.8062 3.22934 16.8289 3.33862 16.8289C3.56262 16.8289 3.74626 16.7631 3.8841 16.6335C4.02421 16.5015 4.0954 16.3306 4.0954 16.1252C4.0954 15.9914 4.05459 15.854 3.97433 15.7166C3.89816 15.5865 3.79115 15.4645 3.65512 15.3525C3.48463 15.2151 3.27242 15.104 3.02485 15.0224C2.77863 14.9413 2.51111 14.9 2.22953 14.9C1.79106 14.9 1.39929 14.9884 1.06421 15.163C0.725491 15.3394 0.460234 15.5906 0.276594 15.9089C0.0929536 16.2258 0 16.5877 0 16.984V17.9743C0 18.371 0.0929536 18.7324 0.275687 19.0494C0.45978 19.3677 0.724585 19.6189 1.0633 19.7952C1.39839 19.9698 1.79015 20.0582 2.22862 20.0582C2.52698 20.0582 2.80357 20.0197 3.05115 19.9431C3.30099 19.866 3.51455 19.7572 3.68504 19.6202C3.83468 19.5087 3.95166 19.3826 4.03283 19.2448C4.11762 19.101 4.16069 18.96 4.16069 18.8258C4.16069 18.6209 4.08996 18.449 3.95075 18.3152C3.81291 18.1828 3.62882 18.1157 3.40437 18.1157Z" fill="currentColor"/>
  <path d="M8.61886 18.7551C8.4792 18.6286 8.29511 18.5646 8.07202 18.5646H6.80694L8.52046 16.3705C8.60843 16.263 8.67236 16.1583 8.71045 16.0589C8.74944 15.9578 8.76894 15.8427 8.76894 15.7162C8.76894 15.5126 8.69277 15.3443 8.54268 15.2165C8.39894 15.094 8.21848 15.0324 8.00536 15.0324H5.50332C5.28023 15.0324 5.09614 15.0963 4.95648 15.2228C4.81275 15.3525 4.7402 15.5189 4.7402 15.7166C4.7402 15.9143 4.8132 16.0739 4.95648 16.2036C5.09614 16.3296 5.28023 16.394 5.50332 16.394H6.636L4.92248 18.5882C4.8336 18.692 4.76967 18.799 4.73158 18.9061C4.69349 19.0126 4.674 19.126 4.674 19.2425C4.674 19.4465 4.75017 19.6143 4.89981 19.7422C5.04309 19.8646 5.22401 19.9267 5.43712 19.9267H8.07156C8.29465 19.9267 8.47875 19.8628 8.6184 19.7363C8.76214 19.6066 8.83469 19.4402 8.83469 19.2425C8.83469 19.0448 8.76169 18.8852 8.6184 18.7555L8.61886 18.7551Z" fill="currentColor"/>
  <path d="M14.7805 15.0732C14.6549 15.0025 14.5144 14.9666 14.3638 14.9666C14.1321 14.9666 13.9304 15.0301 13.7635 15.1557C13.6048 15.2754 13.4724 15.4368 13.3704 15.6364L12.4295 17.5426L11.4886 15.6368C11.3911 15.4373 11.2596 15.2754 11.0978 15.1548C10.9291 15.0297 10.7287 14.9662 10.5015 14.9662C10.2743 14.9662 10.0748 15.0446 9.91522 15.1993C9.75425 15.3552 9.67218 15.5448 9.67218 15.7624V19.262C9.67218 19.3921 9.70619 19.5155 9.77375 19.6288C9.84131 19.7422 9.93517 19.832 10.0531 19.8964C10.1696 19.9598 10.2979 19.992 10.4353 19.992C10.6462 19.992 10.8275 19.9217 10.9744 19.7835C11.1232 19.6429 11.1984 19.4674 11.1984 19.262V17.9938L11.607 18.8335C11.709 19.0425 11.8192 19.1935 11.9434 19.2951C12.0754 19.403 12.2391 19.4579 12.429 19.4579C12.619 19.4579 12.7891 19.403 12.921 19.2951C13.0457 19.1935 13.1554 19.0425 13.2579 18.8335L13.6665 17.9942V19.2629C13.6665 19.393 13.7005 19.5164 13.768 19.6297C13.8351 19.7431 13.9295 19.8329 14.0473 19.8973C14.1639 19.9607 14.2922 19.9929 14.4296 19.9929C14.6404 19.9929 14.8218 19.9227 14.9687 19.7839C15.1174 19.6433 15.1927 19.4679 15.1927 19.2625V15.7629C15.1927 15.6196 15.1551 15.4845 15.0803 15.362C15.0064 15.241 14.9057 15.1439 14.7801 15.0732H14.7805Z" fill="currentColor"/>
  <path d="M19.7832 18.7551C19.6436 18.6286 19.4595 18.5646 19.2364 18.5646H17.8475V15.6967C17.8475 15.5661 17.8117 15.4418 17.7414 15.328C17.6721 15.216 17.5791 15.1267 17.4644 15.0628C17.3497 14.9988 17.2218 14.9662 17.0844 14.9662C16.8686 14.9662 16.6858 15.0369 16.5412 15.1761C16.3952 15.3167 16.3213 15.4917 16.3213 15.6967V19.1958C16.3213 19.4008 16.3952 19.5758 16.5412 19.7163C16.6854 19.8555 16.8686 19.9258 17.0844 19.9258H19.2369C19.4599 19.9258 19.644 19.8619 19.7837 19.7354C19.9274 19.6057 20 19.4393 20 19.2416C20 19.0439 19.927 18.8843 19.7837 18.7546L19.7832 18.7551Z" fill="currentColor"/>
</svg>