<svg width="16" height="16" viewBox="0 0 16 16" fill="none" xmlns="http://www.w3.org/2000/svg">
<path fill-rule="evenodd" clip-rule="evenodd" d="M3.5 2C3.23478 2 2.98043 2.10536 2.79289 2.29289C2.60536 2.48043 2.5 2.73478 2.5 3V8.5C2.5 8.77614 2.72386 9 3 9C3.27614 9 3.5 8.77614 3.5 8.5L3.5 3L9 3V6C9 6.27614 9.22386 6.5 9.5 6.5H12.5005V8.5C12.5005 8.77614 12.7243 9 13.0005 9C13.2766 9 13.5005 8.77614 13.5005 8.5V6.00342C13.5005 6.00228 13.5005 6.00114 13.5005 6C13.5005 5.86092 13.4437 5.7351 13.3521 5.64447L9.85404 2.14645C9.76027 2.05268 9.6331 2 9.50049 2H9.5H3.5ZM10 3.70662V5.5H11.7934L10 3.70662Z" fill="currentColor"/>
<path d="M3.63733 13.28C3.55555 13.28 3.48444 13.2498 3.424 13.1893C3.36355 13.1289 3.33333 13.0578 3.33333 12.976V12.5707C3.33333 12.4889 3.36355 12.4178 3.424 12.3573C3.48444 12.2969 3.55555 12.2667 3.63733 12.2667H4.04267C4.12444 12.2667 4.19555 12.2969 4.256 12.3573C4.31644 12.4178 4.34667 12.4889 4.34667 12.5707V12.976C4.34667 13.0578 4.31644 13.1289 4.256 13.1893C4.19555 13.2498 4.12444 13.28 4.04267 13.28H3.63733Z" fill="currentColor"/>
<path d="M5.51629 13.28C5.43451 13.28 5.3634 13.2498 5.30296 13.1893C5.24251 13.1289 5.21229 13.0578 5.21229 12.976V9.69068C5.21229 9.6089 5.24251 9.53779 5.30296 9.47734C5.3634 9.4169 5.43451 9.38668 5.51629 9.38668H5.82029C5.91273 9.38668 5.99629 9.41157 6.07096 9.46134C6.14562 9.51112 6.20074 9.57868 6.23629 9.66401L7.06296 11.6747C7.06296 11.6782 7.06474 11.68 7.06829 11.68C7.07185 11.68 7.07362 11.6782 7.07362 11.6747L7.90029 9.66401C7.93585 9.57868 7.99096 9.51112 8.06562 9.46134C8.14029 9.41157 8.22385 9.38668 8.31629 9.38668H8.64162C8.7234 9.38668 8.79451 9.4169 8.85496 9.47734C8.9154 9.53779 8.94562 9.6089 8.94562 9.69068V12.976C8.94562 13.0578 8.9154 13.1289 8.85496 13.1893C8.79451 13.2498 8.7234 13.28 8.64162 13.28H8.38562C8.30385 13.28 8.23274 13.2498 8.17229 13.1893C8.1154 13.1289 8.08696 13.0578 8.08696 12.976V10.9013C8.08696 10.8978 8.08518 10.896 8.08162 10.896C8.07451 10.896 8.07096 10.8978 8.07096 10.9013L7.55896 12.112C7.5234 12.1973 7.46651 12.2649 7.38829 12.3147C7.31362 12.3645 7.23007 12.3893 7.13762 12.3893H6.99896C6.90651 12.3893 6.82118 12.3645 6.74296 12.3147C6.66829 12.2649 6.61318 12.1973 6.57762 12.112L6.06562 10.9013C6.06562 10.8978 6.06207 10.896 6.05496 10.896C6.0514 10.896 6.04962 10.8978 6.04962 10.9013V12.976C6.04962 13.0578 6.0194 13.1289 5.95896 13.1893C5.90207 13.2498 5.83273 13.28 5.75096 13.28H5.51629Z" fill="currentColor"/>
<path d="M10.6393 10.1227V12.544C10.6393 12.576 10.6553 12.5956 10.6873 12.6027C10.7584 12.6169 10.8437 12.624 10.9433 12.624C11.3024 12.624 11.5673 12.5191 11.738 12.3093C11.9122 12.0996 11.9993 11.7565 11.9993 11.28C11.9993 10.8533 11.9122 10.5405 11.738 10.3413C11.5637 10.1422 11.2988 10.0427 10.9433 10.0427C10.8437 10.0427 10.7584 10.0498 10.6873 10.064C10.6553 10.0711 10.6393 10.0907 10.6393 10.1227ZM10.0526 13.2907C9.96729 13.2836 9.89618 13.248 9.83929 13.184C9.7824 13.1165 9.75396 13.0382 9.75396 12.9493V9.71734C9.75396 9.62845 9.7824 9.55201 9.83929 9.48801C9.89618 9.42045 9.96729 9.38312 10.0526 9.37601C10.33 9.34757 10.6037 9.33334 10.874 9.33334C11.5104 9.33334 12.0011 9.50223 12.346 9.84001C12.6908 10.1778 12.8633 10.6578 12.8633 11.28C12.8633 11.9556 12.6908 12.4676 12.346 12.816C12.0011 13.1609 11.5104 13.3333 10.874 13.3333C10.6037 13.3333 10.33 13.3191 10.0526 13.2907Z" fill="currentColor"/>
</svg>
