<svg xmlns="http://www.w3.org/2000/svg" width="64" height="64" viewBox="0 0 64 64" fill="none">
<path d="M53.999 18H32.667L25.7295 12.7988C25.0378 12.2823 24.1982 12.0022 23.335 12H9.99902C8.93848 12.001 7.92167 12.4228 7.17175 13.1727C6.42183 13.9226 6.00007 14.9395 5.99902 16V50C6.00007 51.0605 6.42183 52.0774 7.17175 52.8273C7.92167 53.5772 8.93848 53.999 9.99902 54H54.2217C55.2231 53.9986 56.183 53.6002 56.8911 52.8921C57.5992 52.184 57.9976 51.224 57.999 50.2227V22C57.998 20.9395 57.5762 19.9226 56.8263 19.1727C56.0764 18.4228 55.0596 18.001 53.999 18Z" fill="currentColor"/>
</svg>