<svg width="16" height="16" viewBox="0 0 16 16" fill="none" xmlns="http://www.w3.org/2000/svg">
<path fill-rule="evenodd" clip-rule="evenodd" d="M6.8 2H2.6C2.26863 2 2 2.26863 2 2.6V6.8C2 7.13137 2.26863 7.4 2.6 7.4H6.8C7.13137 7.4 7.4 7.13137 7.4 6.8V2.6C7.4 2.26863 7.13137 2 6.8 2ZM3.2 6.2V3.2H6.2V6.2H3.2ZM9.2 2H13.4C13.7314 2 14 2.26863 14 2.6V6.8C14 7.13137 13.7314 7.4 13.4 7.4H9.2C8.86863 7.4 8.6 7.13137 8.6 6.8V2.6C8.6 2.26863 8.86863 2 9.2 2ZM12.8 6.2H9.8V3.2H12.8V6.2ZM9.2 8.6H13.4C13.7314 8.6 14 8.86863 14 9.2V13.4C14 13.7314 13.7314 14 13.4 14H9.2C8.86863 14 8.6 13.7314 8.6 13.4V9.2C8.6 8.86863 8.86863 8.6 9.2 8.6ZM12.8 12.8H9.8V9.8H12.8V12.8ZM2.6 8.6H6.8C7.13137 8.6 7.4 8.86863 7.4 9.2V13.4C7.4 13.7314 7.13137 14 6.8 14H2.6C2.26863 14 2 13.7314 2 13.4V9.2C2 8.86863 2.26863 8.6 2.6 8.6ZM6.2 12.8H3.2V9.8H6.2V12.8Z" fill="currentColor"/>
</svg>
