<svg width="16" height="16" viewBox="0 0 16 16" fill="none" xmlns="http://www.w3.org/2000/svg">
<path d="M10.5 7.5V4.25C10.5 3.91848 10.6317 3.60054 10.8661 3.36612C11.1005 3.1317 11.4185 3 11.75 3C12.0815 3 12.3995 3.1317 12.6339 3.36612C12.8683 3.60054 13 3.91848 13 4.25V9.5C13 10.1566 12.8707 10.8068 12.6194 11.4134C12.3681 12.02 11.9998 12.5712 11.5355 13.0355C11.0712 13.4998 10.52 13.8681 9.91342 14.1194C9.30679 14.3707 8.65661 14.5 8 14.5C5.23858 14.5 4 13 1.96447 8.70541C1.88223 8.56324 1.82881 8.40626 1.80727 8.24344C1.78574 8.08062 1.79649 7.91514 1.83894 7.75648C1.88138 7.59782 1.95467 7.44908 2.05463 7.31876C2.15458 7.18844 2.27924 7.07909 2.42148 6.99697C2.56371 6.91485 2.72074 6.86156 2.88358 6.84016C3.04642 6.81876 3.21188 6.82965 3.37051 6.87223C3.52913 6.9148 3.67781 6.98822 3.80805 7.08829C3.93829 7.18835 4.04753 7.3131 4.12953 7.45541L5.5 9.82913V3.25C5.5 2.91848 5.6317 2.60054 5.86612 2.36612C6.10054 2.1317 6.41848 2 6.75 2C7.08152 2 7.39947 2.1317 7.63389 2.36612C7.86831 2.60054 8 2.91848 8 3.25V7.5" stroke="currentColor" stroke-linecap="round" stroke-linejoin="round"/>
<path d="M10.5 7.5V2.25C10.5 1.91848 10.3683 1.60054 10.1339 1.36612C9.89946 1.1317 9.58152 1 9.25 1C8.91848 1 8.60054 1.1317 8.36612 1.36612C8.1317 1.60054 8 1.91848 8 2.25V7.5" stroke="currentColor" stroke-linecap="round" stroke-linejoin="round"/>
</svg>
