<svg xmlns="http://www.w3.org/2000/svg" width="16" height="16" viewBox="0 0 16 16" fill="none">
  <path d="M5.5 14.5H10.5" stroke="currentColor" stroke-linecap="round" stroke-linejoin="round"/>
  <path d="M4.91898 10.4382C4.32445 9.97386 3.8429 9.38079 3.51054 8.70356C3.17818 8.02634 3.00365 7.28259 3.00008 6.52822C2.9851 3.81807 5.17 1.56519 7.87944 1.50142C8.92935 1.47614 9.96058 1.78209 10.8268 2.37586C11.6931 2.96964 12.3504 3.8211 12.7055 4.80946C13.0606 5.79783 13.0955 6.87291 12.8052 7.88222C12.5149 8.89153 11.9142 9.78381 11.0883 10.4325C10.9064 10.5734 10.7589 10.7539 10.657 10.9602C10.555 11.1666 10.5014 11.3934 10.5 11.6235L10.5 12C10.5 12.1326 10.4473 12.2598 10.3536 12.3536C10.2598 12.4473 10.1326 12.5 10 12.5H5.99999C5.86738 12.5 5.74021 12.4473 5.64644 12.3536C5.55267 12.2598 5.49999 12.1326 5.49999 12L5.49998 11.6231C5.49942 11.3944 5.44681 11.1689 5.34614 10.9636C5.24548 10.7583 5.0994 10.5787 4.91898 10.4382V10.4382Z" stroke="currentColor" stroke-linecap="round" stroke-linejoin="round"/>
  <path d="M8.50764 3.549C9.11921 3.65296 9.68342 3.94424 10.1223 4.38262C10.5613 4.82099 10.8532 5.38484 10.9579 5.99628" stroke="currentColor" stroke-linecap="round" stroke-linejoin="round"/>
</svg>