<svg xmlns="http://www.w3.org/2000/svg" width="16" height="16" viewBox="0 0 16 16" fill="none">
  <path d="M5 7.99951H11" stroke="currentColor" stroke-width="1.2" stroke-linecap="round" stroke-linejoin="round"/>
  <path d="M6.49957 10.9998H3.99957C3.20392 10.9998 2.44086 10.6837 1.87825 10.1211C1.31564 9.55847 0.999573 8.79541 0.999573 7.99976C0.999573 7.20411 1.31564 6.44104 1.87825 5.87844C2.44086 5.31583 3.20392 4.99976 3.99957 4.99976H6.49957" stroke="currentColor" stroke-width="1.2" stroke-linecap="round" stroke-linejoin="round"/>
  <path d="M9.5 10.9998H12C12.7956 10.9998 13.5587 10.6837 14.1213 10.1211C14.6839 9.55847 15 8.79541 15 7.99976C15 7.20411 14.6839 6.44104 14.1213 5.87844C13.5587 5.31583 12.7956 4.99976 12 4.99976H9.5" stroke="currentColor" stroke-width="1.2" stroke-linecap="round" stroke-linejoin="round"/>
</svg>