<svg width="125" height="128" viewBox="0 0 125 128" fill="none" xmlns="http://www.w3.org/2000/svg">
<path d="M97.95 57.76C97.48 56.05 97.23 54.26 97.21 52.4C97.17 47.05 100.32 42.05 104.72 40.51C106.93 39.74 109.69 40.04 111.93 41.31C113.86 42.4 115.13 44.02 115.5 45.85C116.06 48.58 114.74 51.87 112.23 54.03C109.29 56.56 105.32 57.42 102.5 57.69C101 57.84 99.48 57.86 97.95 57.75M71.41 23.26C72.84 16.2 77.45 12.21 81.3 12.21C81.47 12.21 81.65 12.21 81.82 12.23C85.5 12.58 89.25 17.09 88.77 22.59C88.39 26.99 85.9 31.48 80.94 36.71C78.91 38.86 76.72 40.91 74.42 42.83C71.22 36.91 70.07 29.85 71.4 23.25M71.77 81.63C68.36 82.82 65.05 84.36 61.93 86.23C59.56 83.38 56.79 80.87 53.7 78.86C49.31 76.01 44.27 74.1 38.97 73.27C39.1 70.79 39.04 68.3 38.79 65.81C45.87 64.51 52.82 62.3 59.4 59.25C62.97 66.99 67.11 74.47 71.79 81.63M57.51 122.03C55.33 122.32 53.55 121.27 52.44 120.34C50.32 118.55 48.93 115.78 48.82 113.09C48.58 107.27 52.45 101.99 55.75 98.59C57.21 97.08 58.8 95.66 60.5 94.35C62.98 98.54 64.54 103.27 64.91 108.1C65.39 114.28 62.7 121.36 57.52 122.04M28.73 89.84C26.88 93.53 24.86 96.05 22.53 97.55C19.94 99.22 16.76 99.51 14.61 98.28C11.43 96.45 10.88 91.61 12.39 88.41C14.53 83.85 19.62 81.48 22.46 80.48C25.6 79.37 29 78.77 32.44 78.71C31.72 82.59 30.48 86.35 28.73 89.84ZM27.82 61.17C20.71 61.52 15.67 60.55 11.98 58.12C8.19001 55.62 5.50001 50.19 7.54001 46.11C8.75001 43.68 11.92 41.86 15.53 41.86C16.93 41.86 18.4 42.13 19.84 42.76C25.19 45.07 28.36 50.59 30.08 54.82C30.87 56.76 31.51 58.78 32 60.85C30.61 61 29.21 61.11 27.82 61.18M96.25 85.14C100.2 85.78 103.01 86.83 105.08 88.43C107.4 90.23 108.68 92.89 108.35 95.21C108.07 97.16 106.71 98.43 105.62 99.14C103.37 100.61 100.25 101.11 97.67 100.4C92.63 99.01 88.65 94.62 85.1 90.09C83.86 88.5 82.63 86.88 81.44 85.24C86.36 84.4 91.38 84.35 96.26 85.14M38.71 31.38C35.13 31.76 31.86 31.06 29.5 29.39C27.06 27.66 25.66 24.69 26.1 22.16C26.71 18.65 30.63 16.44 34.18 16.44C34.57 16.44 34.95 16.47 35.33 16.52C39.35 17.1 43.24 20.08 46.01 24.68C46.65 25.75 47.22 26.86 47.73 28C45.02 29.85 41.88 31.04 38.72 31.37M121.79 74.75C112.41 74.04 104.85 69.87 100.71 63.71C101.51 63.69 102.3 63.64 103.09 63.56C108.35 63.05 112.85 61.3 116.1 58.5C120.25 54.93 122.29 49.5 121.31 44.66C120.6 41.18 118.25 38.08 114.87 36.16C111.13 34.04 106.61 33.58 102.79 34.92C95.98 37.31 91.27 44.51 91.34 52.43C91.35 53.86 91.47 55.25 91.69 56.6C86.54 55.08 81.82 52.18 78.31 48.3C78.14 48.11 77.97 47.92 77.81 47.72C80.45 45.55 82.95 43.22 85.27 40.77C89 36.83 94.03 30.72 94.69 23.1C95.32 15.8 90.44 7.12 82.42 6.35C73.77 5.52 67.32 13.83 65.66 22.08C63.99 30.33 65.55 39.17 69.74 46.46C67.36 48.16 64.88 49.72 62.33 51.15C60.47 46.71 58.81 42.18 57.34 37.59C57.1 36.84 56.86 36.08 56.63 35.32C56.06 33.48 55.47 31.62 54.82 29.77C56.34 28.25 57.65 26.57 58.72 24.75C62.75 17.9 63.33 9.1 60.23 1.78C59.59 0.28 57.86 -0.42 56.36 0.21C54.86 0.85 54.16 2.58 54.79 4.08C57.17 9.71 56.73 16.48 53.63 21.75C53.22 22.44 52.77 23.11 52.27 23.75C51.9 23.03 51.52 22.32 51.1 21.62C47.42 15.49 41.99 11.49 36.21 10.65C32.87 10.16 29.25 10.93 26.28 12.75C23.03 14.74 20.92 17.71 20.32 21.11C19.48 25.88 21.82 31.13 26.12 34.18C29.65 36.68 34.36 37.76 39.37 37.22C43.03 36.83 46.66 35.58 49.89 33.62C50.26 34.75 50.62 35.91 50.99 37.08C51.23 37.85 51.47 38.62 51.72 39.39C53.29 44.29 55.07 49.11 57.06 53.84C50.94 56.68 44.49 58.76 37.9 59.98C37.33 57.44 36.55 54.95 35.58 52.57C33.44 47.32 29.39 40.42 22.21 37.32C15.51 34.43 5.91001 36.2 2.29001 43.45C0.650007 46.74 0.530007 50.66 1.97001 54.49C3.26001 57.91 5.73001 61.03 8.76001 63.03C13.91 66.43 20.06 67.14 25.03 67.14C26.14 67.14 27.18 67.1 28.15 67.06C29.77 66.98 31.38 66.84 33 66.67C33.19 68.71 33.24 70.76 33.15 72.8H33.02C28.73 72.8 24.46 73.52 20.52 74.91C14.11 77.18 9.33001 81.08 7.07001 85.9C4.05001 92.35 6.12001 100.2 11.7 103.4C13.5 104.43 15.58 104.94 17.72 104.94C20.44 104.94 23.26 104.12 25.76 102.52C29 100.43 31.71 97.15 34.04 92.49C36.13 88.31 37.58 83.8 38.37 79.16C42.75 79.88 46.91 81.47 50.53 83.83C52.97 85.42 55.17 87.36 57.08 89.57C55.1 91.09 53.24 92.74 51.54 94.5C47.44 98.73 42.63 105.44 42.96 113.35C43.14 117.7 45.28 122.01 48.68 124.87C51.11 126.91 53.96 128 56.83 128C57.32 128 57.82 127.97 58.31 127.9C67.03 126.76 71.52 116.71 70.82 107.65C70.37 101.82 68.46 96.11 65.42 91.07C68.54 89.25 71.84 87.79 75.26 86.72C76.93 89.1 78.68 91.45 80.46 93.72C84.63 99.05 89.42 104.24 96.11 106.08C97.4 106.44 98.76 106.61 100.13 106.61C103.2 106.61 106.33 105.73 108.86 104.07C111.84 102.12 113.74 99.26 114.2 96.04C114.84 91.59 112.73 86.88 108.71 83.76C105.83 81.52 102.17 80.11 97.2 79.3C90.79 78.26 84.16 78.51 77.76 79.94C72.78 72.49 68.41 64.69 64.69 56.59C67.59 55 70.4 53.24 73.1 51.32C73.37 51.64 73.64 51.95 73.92 52.26C78.96 57.84 86.06 61.74 93.62 63.14C97.98 72.88 108.2 79.64 121.35 80.64C121.43 80.64 121.5 80.64 121.58 80.64C123.11 80.64 124.4 79.46 124.52 77.91C124.64 76.28 123.43 74.87 121.8 74.74" fill="currentColor"/>
</svg>
