  <svg
      width="50"
      height="48"
      viewBox="0 0 50 48"
      fill="none"
      xmlns="http://www.w3.org/2000/svg"
    >
      <path
        d="M15.6754 20.5987C15.5785 20.5987 15.4816 20.5848 15.3847 20.5571C14.7985 20.3956 14.4524 19.791 14.6139 19.2002C15.4862 16.011 18.8599 6.05576 22.7597 2.22503C24.4811 0.531204 26.8626 -0.290326 28.9671 0.0927469C31.5285 0.558896 33.4623 2.96349 33.1946 5.34961C33.0007 7.04806 31.81 8.59881 29.8394 9.72033C29.2348 10.0665 28.6117 10.348 28.0118 10.6249C27.1995 10.9988 26.4334 11.3495 25.7595 11.8111C24.8919 12.4111 23.9412 13.5188 24.1165 14.6495C24.2319 15.3926 24.8688 16.1126 25.7411 16.4818C26.5349 16.8187 27.5179 16.9295 28.8333 16.8233C29.8532 16.7403 30.8778 16.551 31.8793 16.2603C32.4654 16.0895 33.0746 16.4264 33.2453 17.0126C33.4161 17.5987 33.0792 18.2079 32.4931 18.3787C31.3485 18.711 30.1763 18.9279 29.0086 19.0202C27.3195 19.1541 26.0088 18.9925 24.8734 18.5079C23.295 17.8341 22.1689 16.4818 21.9382 14.9818C21.6105 12.8449 23.0504 11.0034 24.5088 9.99264C25.3442 9.41572 26.2349 9.00496 27.0979 8.61265C27.6841 8.34496 28.2333 8.09112 28.7548 7.79574C29.3825 7.44036 30.8547 6.46191 31.0116 5.09115C31.1639 3.74809 29.8578 2.48811 28.584 2.25734C27.1764 2.0035 25.538 2.59426 24.3104 3.79886C22.5059 5.57115 18.9614 11.7049 16.7461 19.7818C16.6123 20.271 16.1692 20.5941 15.6846 20.5941"
        fill="#00A341"
      />
      <path
        d="M38.7752 9.94632C38.2399 9.94632 37.5891 10.1263 37.0445 10.4402C35.6138 11.2617 34.4646 12.5448 33.6339 14.2432C33.4032 14.714 33.2462 15.2632 33.1955 15.8263C35.3784 14.9817 37.3399 13.6755 38.9275 12.0001C39.5644 11.3263 39.8828 10.6386 39.7075 10.3248C39.6521 10.2279 39.5459 10.0848 39.2552 10.0063C39.1121 9.9694 38.9506 9.95093 38.7798 9.95093M43.3488 28.0569C40.1459 28.0569 36.9891 26.8108 34.6631 24.5723C34.2247 24.1477 34.2108 23.4508 34.6354 23.0123C35.06 22.5739 35.7569 22.56 36.1953 22.9846C38.406 25.1123 41.6689 26.1785 44.7103 25.7631C45.2457 25.6892 47.0364 25.3569 47.4979 24.1846C47.6686 23.7508 47.6225 23.28 47.3548 22.7816C46.9348 21.9877 46.0395 21.3185 45.1303 21.1154C43.7411 20.8016 42.255 21.0924 40.6767 21.397C40.2336 21.48 39.7813 21.5723 39.3244 21.6462C36.2876 22.14 33.9062 21.6093 32.4386 20.1047C31.7925 19.4401 31.3494 18.5955 31.1279 17.6632C31.1279 17.6585 31.1279 17.6493 31.1233 17.6447C31.1094 17.5939 31.0956 17.5385 31.091 17.4878C30.814 16.1401 30.9894 14.6355 31.654 13.2786C32.6832 11.1786 34.1277 9.58171 35.9461 8.53403C36.9245 7.97096 38.4568 7.50481 39.8367 7.88327C40.6259 8.10019 41.2489 8.57095 41.6274 9.24479C42.3289 10.4863 41.9274 12.0463 40.529 13.5232C38.6229 15.5355 36.2507 17.077 33.6155 18.0324C33.7262 18.2216 33.8601 18.4016 34.017 18.5632C35.2123 19.7862 37.3676 19.7308 38.969 19.4724C39.3936 19.4031 39.8136 19.3201 40.2567 19.237C41.9874 18.9047 43.7734 18.5585 45.6103 18.9693C47.1564 19.3154 48.5732 20.3862 49.2978 21.757C49.8608 22.8185 49.9485 23.9723 49.5424 25.0015C48.924 26.5661 47.2717 27.6461 45.0011 27.9554C44.4473 28.0292 43.8934 28.0661 43.3442 28.0661"
        fill="#54BFE8"
      />
      <path
        d="M36.7774 45.323C35.6605 45.323 34.6359 44.9168 33.8975 44.1737C32.056 42.3138 32.5868 39.4984 32.9698 37.4446C33.1637 36.4061 33.4729 33.9092 32.116 33.1754C31.5991 32.8939 30.8561 32.9308 30.1731 33.2677C29.55 33.5769 28.95 34.1262 28.2854 34.9846C27.4732 36.0369 26.8132 37.2 26.3194 38.4507C26.0932 39.0184 25.4517 39.2953 24.8887 39.0692C24.321 38.843 24.0441 38.2015 24.2703 37.6384C24.8425 36.1984 25.604 34.8508 26.5409 33.6369C27.0901 32.9215 27.967 31.9016 29.1946 31.2923C30.5284 30.6323 32.0099 30.6093 33.1683 31.2323C35.0513 32.2523 35.7528 34.6015 35.1436 37.8507C34.8298 39.5122 34.4421 41.5845 35.4713 42.623C35.9974 43.1537 36.7312 43.1491 37.1189 43.0937C38.0465 42.9691 38.9188 42.4061 39.3434 41.6538C40.4556 39.6876 39.5141 37.2369 39.0572 36.2769C38.545 35.1923 37.8711 34.1908 37.1558 33.1292C36.6297 32.3446 36.0851 31.5369 35.6051 30.6831C34.1282 28.0616 33.7037 25.5555 34.3682 23.4463C34.5528 22.8647 35.1713 22.5417 35.7528 22.7263C36.3343 22.9109 36.6574 23.5293 36.4728 24.1109C35.8682 26.0262 36.7127 28.1539 37.525 29.6031C37.9635 30.3785 38.4573 31.1216 38.9834 31.9016C39.708 32.9815 40.4603 34.1031 41.0464 35.3354C42.3248 38.0307 42.3986 40.7307 41.2587 42.7476C40.4926 44.0999 39.0157 45.0737 37.405 45.2906C37.1927 45.3183 36.985 45.3322 36.7774 45.3322"
        fill="#E8373D"
      />
      <path
        d="M26.0784 39.0971C25.7461 40.071 25.5199 41.0725 25.4046 42.0879C25.2799 43.1909 25.3446 43.994 25.603 44.6217C25.8753 45.2771 26.443 45.7571 26.9783 45.7894C27.4537 45.8217 28.0029 45.5032 28.349 45.0001C28.6906 44.4971 28.8844 43.8048 28.9213 42.9371C28.9813 41.4833 28.5336 40.2463 27.7214 39.6233C27.246 39.2587 26.6645 39.111 26.0784 39.0971ZM27.0383 47.9955C26.9737 47.9955 26.9091 47.9955 26.8445 47.9909C25.4553 47.9078 24.1677 46.9201 23.5631 45.4709C23.0231 44.174 23.1016 42.7756 23.2077 41.8386C23.2862 41.1417 23.4108 40.4494 23.5816 39.7664C22.5847 40.3156 21.694 41.1002 20.7617 41.9309C20.5356 42.134 20.3048 42.3371 20.074 42.5356C18.4541 43.934 16.2573 45.554 13.6082 45.6417C12.0621 45.6878 10.4237 45.0325 9.33916 43.9109C8.4392 42.9832 7.98692 41.8248 8.06537 40.6479C8.15306 39.3048 8.85918 38.1095 10.1053 37.191C11.0883 36.4664 12.3713 35.9541 13.7097 35.751C14.462 35.6356 15.2189 35.5849 15.9527 35.5341C17.3834 35.4372 18.7403 35.3449 19.894 34.7956C20.4433 34.5372 21.1032 34.7679 21.3617 35.3218C21.6247 35.871 21.3894 36.531 20.8355 36.7895C19.3033 37.5141 17.6742 37.6248 16.1004 37.7356C15.3804 37.7864 14.7066 37.8325 14.042 37.9341C12.2375 38.211 10.3591 39.2817 10.2622 40.791C10.216 41.4925 10.5945 42.0417 10.9175 42.374C11.5729 43.0479 12.6021 43.4725 13.5297 43.4355C15.4866 43.3709 17.2819 42.0279 18.6249 40.8648C18.8464 40.671 19.0679 40.4771 19.2895 40.2787C20.4063 39.291 21.5555 38.271 22.9862 37.5879C25.5707 36.3556 27.8137 36.9279 29.0459 37.8695C30.4536 38.9448 31.2104 40.8233 31.1135 43.034C31.0581 44.3217 30.7351 45.4063 30.1536 46.2509C29.4059 47.3401 28.2198 48.0001 27.0245 48.0001"
        fill="#00A2EA"
      />
      <path
        d="M14.8962 37.0201C12.2009 37.0201 9.50104 36.9324 6.82886 36.7571C5.53661 36.674 4.27667 36.554 3.08134 36.0601C1.57218 35.4371 0.464544 34.2555 0.118407 32.9033C-0.158503 31.8233 0.0537945 30.6694 0.718379 29.6541C1.5168 28.4264 2.91058 27.5172 4.3459 27.2818C6.76425 26.8849 9.09029 27.9325 10.8441 28.8925C12.2101 29.6402 13.5808 30.2541 14.37 29.7002C14.8916 29.331 15.21 28.0479 14.2962 26.3402C13.6593 25.1541 12.8055 24.088 11.7486 23.1741C11.2871 22.7726 11.2363 22.0803 11.6379 21.6188C12.0348 21.1572 12.7317 21.1111 13.1932 21.508C14.4531 22.5972 15.4777 23.8757 16.2392 25.2972C17.3237 27.3187 17.596 30.1248 15.6392 31.5048C13.6178 32.9309 11.121 31.5648 9.78257 30.831C8.33802 30.0417 6.45965 29.1694 4.70588 29.4602C3.87054 29.5987 3.03058 30.1479 2.56445 30.8633C2.3383 31.2094 2.09831 31.754 2.25523 32.3586C2.42599 33.0325 3.0675 33.6694 3.92592 34.0248C4.81203 34.394 5.82737 34.4817 6.97193 34.5602C11.3933 34.8509 15.8838 34.8971 20.3144 34.6986C20.9236 34.6709 21.4405 35.1417 21.4682 35.7509C21.4959 36.3601 21.0251 36.8771 20.4159 36.9047C18.5837 36.9878 16.7422 37.0294 14.8962 37.0294"
        fill="#E96BB0"
      />
      <path
        d="M5.26868 20.4048C4.44257 20.4048 3.538 20.6817 3.2657 21.2263C3.1734 21.4109 3.07648 21.8401 3.30724 22.2648C3.67645 22.9386 4.73332 23.3909 6.27941 23.5432C7.31782 23.6447 8.67929 23.4878 9.75001 23.1417C10.1977 22.9986 10.5946 22.7771 10.9176 22.5094C9.35311 21.3878 7.53012 20.654 5.68405 20.4279C5.55021 20.4094 5.41175 20.4048 5.26868 20.4048ZM6.93476 25.7816C6.63477 25.7816 6.34402 25.7678 6.07172 25.7401C3.13186 25.4586 1.895 24.2724 1.3781 23.3309C0.745819 22.1817 0.921195 20.9771 1.29964 20.2294C2.1396 18.5679 4.30411 18.0325 5.96096 18.2356C7.97317 18.4848 9.95769 19.2279 11.7022 20.3679C11.5545 19.6156 11.0884 18.8771 10.5946 18.3325C10.0546 17.7417 9.40849 17.2387 8.72544 16.6987C8.20393 16.2879 7.66857 15.8679 7.15629 15.3925C5.54559 13.8879 4.72871 12.1479 4.85793 10.4957C4.95947 9.17106 5.67482 7.9803 6.87015 7.14031C8.22239 6.18955 10.0085 5.86186 11.5269 6.28186C13.4606 6.81723 15.8328 8.64952 16.7051 12.1895C17.3235 14.6956 17.0327 17.3079 16.7743 19.6109C16.7051 20.2156 16.1605 20.654 15.5559 20.5848C14.9513 20.5155 14.5129 19.9709 14.5821 19.3663C14.8313 17.1417 15.0851 14.8433 14.5636 12.7202C14.0329 10.5649 12.6114 8.87106 10.9407 8.40953C10.0408 8.1603 8.96543 8.36799 8.13932 8.9449C7.76549 9.20798 7.1286 9.78028 7.05937 10.6618C6.95784 11.9726 8.02394 13.1772 8.66545 13.7772C9.10389 14.1879 9.58387 14.5618 10.0869 14.9587C10.8115 15.5264 11.5592 16.1125 12.2191 16.8371C13.7144 18.4663 14.2913 20.4417 13.7606 22.1171C13.6821 22.3617 13.5806 22.5971 13.4606 22.8278C13.4514 22.8463 13.4421 22.8648 13.4283 22.8878C12.8329 23.9586 11.7576 24.8124 10.4238 25.237C9.35311 25.5832 8.07932 25.7724 6.93476 25.7724"
        fill="#F7B502"
      />
    </svg>