<svg width="129" height="40" viewBox="0 0 129 40" fill="none" xmlns="http://www.w3.org/2000/svg">
<g clip-path="url(#clip0_11707_33026)">
<path d="M30.1136 18.0494C29.9675 17.5175 29.8888 16.9553 29.885 16.3743C29.87 14.7029 30.8519 13.1409 32.2159 12.658C32.9016 12.4165 33.7598 12.5109 34.4568 12.9108C35.0564 13.2541 35.4498 13.7559 35.566 14.3294C35.7384 15.182 35.3299 16.2083 34.5505 16.8874C33.6399 17.6759 32.4033 17.9476 31.5301 18.0306C31.0655 18.0758 30.5933 18.0834 30.1174 18.0494M21.8807 7.27033C22.3229 5.0632 23.7544 3.81816 24.9498 3.81816C25.0022 3.81816 25.0585 3.81816 25.1109 3.8257C26.2501 3.93511 27.4155 5.34617 27.2694 7.06283C27.1495 8.43615 26.3775 9.83966 24.8411 11.4771C24.2116 12.1487 23.5333 12.79 22.8175 13.3899C21.8245 11.5375 21.4685 9.3341 21.8807 7.27033ZM21.9969 25.5159C20.9364 25.8895 19.9133 26.3686 18.9428 26.9534C18.2083 26.063 17.3464 25.2783 16.3871 24.6482C15.0268 23.7578 13.4604 23.1617 11.8153 22.9013C11.8528 22.1279 11.8341 21.3469 11.7591 20.5697C13.9551 20.166 16.1135 19.4718 18.1558 18.521C19.2651 20.9395 20.5467 23.2786 22.0006 25.5159M17.5675 38.14C16.8892 38.2305 16.3384 37.9023 15.9936 37.6118C15.3341 37.0534 14.9031 36.1856 14.8694 35.3481C14.7945 33.5295 15.9974 31.8808 17.0204 30.8168C17.4738 30.3452 17.9685 29.9 18.4931 29.4926C19.2613 30.8017 19.7447 32.2807 19.8609 33.7899C20.0108 35.7216 19.1751 37.9325 17.5675 38.1475M8.63009 28.0853C8.05675 29.2398 7.4272 30.0283 6.70771 30.4961C5.90577 31.0168 4.91648 31.1073 4.24945 30.7225C3.26015 30.1528 3.09152 28.6399 3.55994 27.6363C4.22322 26.2102 5.8046 25.4707 6.68522 25.1575C7.65953 24.8104 8.71628 24.6218 9.78053 24.6067C9.55944 25.8178 9.17346 26.9949 8.63009 28.0853ZM8.34904 19.1247C6.14186 19.2341 4.57921 18.9323 3.43253 18.1702C2.25586 17.3892 1.4202 15.6914 2.0535 14.4162C2.42824 13.6578 3.41379 13.0881 4.53425 13.0881C4.96894 13.0881 5.42611 13.1749 5.87205 13.3673C7.53212 14.0879 8.51767 15.8159 9.0498 17.1364C9.29337 17.7438 9.49573 18.3739 9.64563 19.0191C9.21468 19.0643 8.77999 19.0983 8.3453 19.1209M29.5852 26.6101C30.8106 26.81 31.6838 27.1383 32.3246 27.6401C33.044 28.2022 33.445 29.036 33.3401 29.7604C33.2539 30.3716 32.8304 30.764 32.4932 30.9904C31.7924 31.4507 30.8256 31.6054 30.0237 31.3828C28.4573 30.9489 27.2244 29.5756 26.1227 28.1607C25.7367 27.6665 25.3582 27.1571 24.9873 26.644C26.5124 26.3837 28.0713 26.3648 29.5852 26.6139M11.7254 9.80571C10.6124 9.92644 9.59691 9.70384 8.86618 9.18318C8.10921 8.64366 7.67452 7.71176 7.81317 6.92323C8.00429 5.82532 9.21843 5.13866 10.3201 5.13866C10.4401 5.13866 10.56 5.14621 10.6761 5.16507C11.924 5.34617 13.1307 6.27807 13.9888 7.71553C14.1874 8.04755 14.3635 8.39465 14.5209 8.75307C13.6778 9.3341 12.7035 9.70006 11.7217 9.80948M37.5071 23.3692C34.5954 23.1466 32.2496 21.8449 30.9643 19.917C31.2116 19.9095 31.4589 19.8944 31.7025 19.8717C33.3326 19.7095 34.7304 19.1624 35.7384 18.2909C37.0275 17.1741 37.6608 15.4763 37.3535 13.9672C37.1324 12.8806 36.4054 11.911 35.3524 11.3111C34.1907 10.6471 32.7892 10.5037 31.6013 10.9225C29.4878 11.6695 28.0264 13.9181 28.0451 16.3931C28.0451 16.8383 28.0863 17.2722 28.1538 17.6986C26.5574 17.2232 25.0884 16.3177 24.0017 15.1028C23.9492 15.0425 23.8968 14.9821 23.8443 14.9217C24.665 14.2426 25.4407 13.5144 26.1602 12.7485C27.3181 11.5186 28.8807 9.60574 29.0831 7.22506C29.2817 4.94247 27.764 2.23355 25.2758 1.99208C22.589 1.73176 20.5916 4.33127 20.0745 6.90814C19.5574 9.48501 20.0408 12.2468 21.3411 14.5293C20.6029 15.0613 19.8309 15.548 19.0402 15.9932C18.4631 14.6048 17.946 13.19 17.4888 11.7563C17.4139 11.5224 17.3389 11.2847 17.2677 11.047C17.0879 10.4735 16.908 9.88871 16.7056 9.31146C17.1778 8.83608 17.5825 8.31165 17.916 7.74194C19.1676 5.60272 19.3475 2.8523 18.3844 0.565939C18.1858 0.0981026 17.65 -0.124497 17.1853 0.0754653C16.7206 0.275428 16.5033 0.814948 16.6981 1.28278C17.4364 3.04094 17.2977 5.15753 16.3384 6.80627C16.211 7.02132 16.0723 7.23261 15.9149 7.43257C15.8025 7.2062 15.6826 6.9836 15.5514 6.76477C14.4085 4.84815 12.7259 3.59933 10.931 3.339C9.89295 3.18809 8.77249 3.42578 7.85065 3.99548C6.84261 4.618 6.18683 5.54613 5.99946 6.60631C5.74089 8.09659 6.46413 9.73779 7.80193 10.6923C8.89616 11.4733 10.3576 11.8091 11.9128 11.6431C13.052 11.5186 14.1762 11.13 15.1767 10.5188C15.2929 10.8734 15.4053 11.2356 15.5177 11.6016C15.5927 11.8431 15.6676 12.0845 15.7426 12.3222C16.2297 13.854 16.7843 15.3594 17.3989 16.8383C15.499 17.7287 13.4941 18.3777 11.4518 18.755C11.272 17.9589 11.0321 17.1854 10.7324 16.4422C10.0691 14.801 8.80997 12.6429 6.5803 11.6771C4.50052 10.7753 1.52138 11.3299 0.397177 13.5937C-0.112462 14.6237 -0.149935 15.8461 0.299746 17.0421C0.696965 18.1136 1.46892 19.0832 2.4095 19.7095C4.00962 20.7734 5.91702 20.9923 7.46092 20.9923C7.80193 20.9923 8.12795 20.981 8.42774 20.9659C8.92988 20.9395 9.43203 20.898 9.93042 20.8414C9.99038 21.479 10.0054 22.1204 9.97539 22.758C9.96415 22.758 9.94916 22.758 9.93417 22.758C8.60012 22.758 7.2773 22.9806 6.05567 23.4145C4.06583 24.1238 2.58188 25.3424 1.88113 26.8515C0.944289 28.8663 1.58883 31.3186 3.32011 32.3184C3.87846 32.6391 4.523 32.8014 5.19003 32.8014C6.03318 32.8014 6.91006 32.5448 7.68576 32.043C8.69005 31.3903 9.52946 30.3641 10.2564 28.9078C10.9047 27.6023 11.3544 26.1913 11.6017 24.7425C12.962 24.9689 14.2511 25.4631 15.3753 26.1988C16.1323 26.6931 16.818 27.3043 17.4101 27.9947C16.7956 28.4701 16.2185 28.9832 15.6901 29.5341C14.4197 30.8583 12.9246 32.9523 13.0257 35.4273C13.0819 36.7893 13.7452 38.1324 14.802 39.0266C15.5552 39.6642 16.4396 40.0038 17.3314 40.0038C17.4851 40.0038 17.6387 39.9925 17.7924 39.9736C20.5017 39.6152 21.8919 36.4761 21.6746 33.6465C21.536 31.8242 20.9401 30.0396 19.9995 28.4663C20.9664 27.8966 21.9931 27.4401 23.0536 27.1081C23.5745 27.8514 24.1141 28.5833 24.6687 29.2964C25.9653 30.964 27.4493 32.5825 29.5253 33.1598C29.9263 33.273 30.3497 33.3258 30.7732 33.3258C31.7287 33.3258 32.6955 33.0504 33.4825 32.5335C34.4081 31.9223 34.9964 31.0319 35.1426 30.0245C35.3412 28.6323 34.6891 27.1647 33.4375 26.1837C32.5419 25.4858 31.4102 25.0406 29.8663 24.7916C27.8765 24.4671 25.8192 24.5463 23.8331 24.9915C22.2854 22.6637 20.9326 20.2264 19.7747 17.6948C20.6741 17.1968 21.5472 16.6497 22.3866 16.0498C22.469 16.1479 22.5515 16.2498 22.6377 16.3441C24.2003 18.0872 26.4075 19.3058 28.7533 19.7435C30.1061 22.7882 33.2801 24.8972 37.361 25.2103C37.3835 25.2103 37.4097 25.2103 37.4322 25.2103C37.9081 25.2103 38.3091 24.8406 38.3465 24.3577C38.384 23.8483 38.0055 23.4069 37.5034 23.3692" fill="#E8373D"/>
<path d="M57.9977 22.5505L54.7749 13.9294H52.208L57.0308 26.2101H58.9045L63.7648 13.9294H61.2466L57.9977 22.5505Z" fill="white"/>
<path d="M66.2606 13.7899C65.8896 13.7899 65.5823 13.9181 65.3425 14.1747C65.0989 14.4312 64.979 14.7406 64.979 15.099C64.979 15.4575 65.0989 15.7819 65.3425 16.0347C65.5861 16.2837 65.8934 16.412 66.2606 16.412C66.6278 16.412 66.9501 16.2875 67.1899 16.0347C67.426 15.7857 67.5459 15.4726 67.5459 15.099C67.5459 14.7255 67.426 14.4312 67.1899 14.1747C66.9539 13.9181 66.6428 13.7899 66.2606 13.7899Z" fill="white"/>
<path d="M67.4072 17.7702H65.0989V26.2101H67.4072V17.7702Z" fill="white"/>
<path d="M71.6754 19.6756C71.8478 19.5699 72.1101 19.5171 72.4549 19.5171C72.7996 19.5171 73.1519 19.5888 73.4704 19.7359C73.7889 19.8831 74.0737 20.1057 74.3285 20.4075L75.7001 19.0115C75.3291 18.5211 74.8644 18.1589 74.3023 17.9212C73.7402 17.6835 73.1144 17.5627 72.4211 17.5627C71.7279 17.5627 71.1883 17.6722 70.7049 17.8872C70.2177 18.1023 69.843 18.4116 69.5769 18.8116C69.3109 19.2153 69.1797 19.6831 69.1797 20.2188C69.1797 20.7546 69.2846 21.1507 69.4907 21.4752C69.7006 21.7997 69.9629 22.0562 70.2814 22.2336C70.5999 22.4147 70.9372 22.558 71.2969 22.6599C71.6567 22.7655 71.994 22.8636 72.3125 22.958C72.631 23.0523 72.8933 23.1579 73.1032 23.2824C73.313 23.4032 73.4142 23.5842 73.4142 23.8144C73.4142 24.0144 73.3168 24.1653 73.1182 24.2785C72.9233 24.3879 72.6385 24.4445 72.2675 24.4445C71.8178 24.4445 71.3981 24.3615 71.0196 24.1992C70.6374 24.037 70.3076 23.7842 70.0303 23.4484L68.6588 24.8293C68.9361 25.1538 69.2659 25.4367 69.6481 25.6782C70.0303 25.9159 70.45 26.097 70.9072 26.2215C71.3644 26.3422 71.8366 26.4064 72.32 26.4064C73.328 26.4064 74.1262 26.1649 74.7145 25.682C75.3029 25.199 75.5989 24.5426 75.5989 23.7163C75.5989 23.2032 75.4977 22.7844 75.2954 22.4599C75.093 22.1355 74.8344 21.8714 74.5159 21.6752C74.1974 21.479 73.8639 21.3243 73.5079 21.2111C73.1556 21.1017 72.8184 20.9998 72.4923 20.9055C72.1663 20.8112 71.9078 20.7093 71.7129 20.5999C71.5143 20.4905 71.4169 20.3283 71.4169 20.1208C71.4169 19.9359 71.503 19.7887 71.6754 19.6831V19.6756Z" fill="white"/>
<path d="M82.2093 22.6108C82.2093 23.1352 82.0781 23.5427 81.812 23.8332C81.546 24.1237 81.175 24.2709 80.7028 24.2709C80.3918 24.2709 80.1182 24.2067 79.8859 24.0784C79.6536 23.9502 79.4812 23.7615 79.365 23.5087C79.2489 23.2597 79.1926 22.9579 79.1926 22.6108V17.7702H76.903V22.6636C76.903 23.3993 77.0642 24.0445 77.3902 24.6029C77.7124 25.1613 78.1659 25.5951 78.743 25.9045C79.3201 26.2139 79.9758 26.3686 80.7028 26.3686C81.4298 26.3686 82.0818 26.2139 82.6552 25.9045C83.2285 25.5951 83.6745 25.1613 84.0005 24.6029C84.3228 24.0445 84.4876 23.3956 84.4876 22.6636V17.7702H82.213V22.6108H82.2093Z" fill="white"/>
<path d="M92.2034 18.5739C91.9711 18.3286 91.7013 18.1249 91.3865 17.9626C90.9106 17.7174 90.3785 17.5967 89.7902 17.5967C89.0145 17.5967 88.3249 17.7891 87.7179 18.1739C87.1108 18.5588 86.6349 19.0832 86.2864 19.7472C85.9379 20.4112 85.7655 21.162 85.7655 21.9996C85.7655 22.8372 85.9379 23.5729 86.2864 24.2369C86.6349 24.901 87.1108 25.4254 87.7179 25.8102C88.3249 26.1951 89.0107 26.3875 89.7752 26.3875C90.3785 26.3875 90.9181 26.2667 91.3978 26.0215C91.7088 25.863 91.9749 25.6593 92.2034 25.4178V26.2139H94.4931V17.774H92.2034V18.5776V18.5739ZM91.7538 23.622C91.3603 24.0521 90.8469 24.2671 90.2099 24.2671C89.8051 24.2671 89.4416 24.169 89.1156 23.9691C88.7934 23.7729 88.5385 23.505 88.3624 23.1654C88.1825 22.8297 88.0926 22.4297 88.0926 21.977C88.0926 21.5242 88.1825 21.1432 88.3624 20.8074C88.5423 20.4678 88.7896 20.2037 89.1081 20.0038C89.4267 19.8038 89.7939 19.7057 90.2099 19.7057C90.6258 19.7057 91.008 19.8 91.3191 19.9925C91.6301 20.1849 91.8812 20.4565 92.0648 20.8036C92.2484 21.1545 92.3421 21.5507 92.3421 21.9921C92.3421 22.6448 92.1435 23.1843 91.7538 23.6182V23.622Z" fill="white"/>
<path d="M98.7463 13.5786H96.4717V26.2101H98.7463V13.5786Z" fill="white"/>
<path d="M101.905 13.7899C101.534 13.7899 101.227 13.9181 100.987 14.1747C100.744 14.4312 100.624 14.7406 100.624 15.099C100.624 15.4575 100.744 15.7819 100.987 16.0347C101.231 16.2837 101.538 16.412 101.905 16.412C102.273 16.412 102.595 16.2875 102.835 16.0347C103.071 15.7857 103.191 15.4726 103.191 15.099C103.191 14.7255 103.071 14.4312 102.835 14.1747C102.599 13.9181 102.288 13.7899 101.905 13.7899Z" fill="white"/>
<path d="M103.048 17.7702H100.74V26.2101H103.048V17.7702Z" fill="white"/>
<path d="M104.783 19.7623H108.392L104.453 24.9009V26.2101H111.551V24.218H107.732L111.656 19.0832V17.7702H104.783V19.7623Z" fill="white"/>
<path d="M118.978 18.1211C118.352 17.7589 117.648 17.5778 116.861 17.5778C116.029 17.5778 115.276 17.7702 114.605 18.1551C113.934 18.5399 113.406 19.0643 113.016 19.7284C112.63 20.3924 112.435 21.1432 112.435 21.9808C112.435 22.8183 112.63 23.588 113.024 24.252C113.417 24.9161 113.957 25.4405 114.646 25.8253C115.336 26.2102 116.119 26.4026 116.996 26.4026C117.678 26.4026 118.307 26.2818 118.888 26.0366C119.465 25.7914 119.971 25.4254 120.398 24.9349L119.046 23.5729C118.791 23.8747 118.491 24.0973 118.143 24.2369C117.794 24.3765 117.408 24.4482 116.981 24.4482C116.505 24.4482 116.089 24.3501 115.733 24.1502C115.373 23.954 115.1 23.6635 114.909 23.2862C114.834 23.1353 114.777 22.973 114.732 22.8032L120.852 22.7882C120.897 22.6033 120.927 22.4297 120.938 22.2713C120.949 22.1128 120.957 21.9581 120.957 21.8072C120.957 20.9923 120.784 20.2641 120.436 19.6227C120.087 18.9813 119.604 18.4795 118.978 18.1211ZM115.666 19.8C116.003 19.6039 116.396 19.502 116.846 19.502C117.273 19.502 117.633 19.5888 117.921 19.7623C118.21 19.9359 118.435 20.1924 118.6 20.532C118.678 20.6942 118.738 20.8753 118.78 21.0753L114.736 21.0866C114.777 20.9319 114.83 20.781 114.897 20.6452C115.077 20.2792 115.332 19.9962 115.669 19.7963L115.666 19.8Z" fill="white"/>
<path d="M127.923 17.7966C127.605 17.6646 127.237 17.5967 126.821 17.5967C125.885 17.5967 125.169 17.8985 124.67 18.4984C124.663 18.5059 124.659 18.5135 124.652 18.521V17.774H122.377V26.2139H124.652V21.5657C124.652 20.9244 124.805 20.4527 125.113 20.1509C125.42 19.8491 125.817 19.6982 126.301 19.6982C126.533 19.6982 126.739 19.7321 126.915 19.7925C127.095 19.8566 127.249 19.966 127.376 20.117L128.8 18.4569C128.534 18.1551 128.242 17.9362 127.923 17.8004V17.7966Z" fill="white"/>
</g>
<defs>
<clipPath id="clip0_11707_33026">
<rect width="128.8" height="40" fill="white"/>
</clipPath>
</defs>
</svg>
