<svg width="16" height="16" viewBox="0 0 16 16" fill="none" xmlns="http://www.w3.org/2000/svg">
<path d="M8.75 8C8.75 8.14834 8.70601 8.29334 8.6236 8.41668C8.54119 8.54001 8.42406 8.63614 8.28701 8.69291C8.14997 8.74967 7.99917 8.76453 7.85368 8.73559C7.7082 8.70665 7.57456 8.63522 7.46967 8.53033C7.36478 8.42544 7.29335 8.2918 7.26441 8.14632C7.23547 8.00083 7.25032 7.85003 7.30709 7.71299C7.36386 7.57594 7.45999 7.45881 7.58332 7.3764C7.70666 7.29399 7.85166 7.25 8 7.25C8.19891 7.25 8.38968 7.32902 8.53033 7.46967C8.67098 7.61032 8.75 7.80109 8.75 8ZM8 4.75C8.14834 4.75 8.29334 4.70601 8.41668 4.6236C8.54001 4.54119 8.63614 4.42406 8.69291 4.28701C8.74968 4.14997 8.76453 3.99917 8.73559 3.85368C8.70665 3.7082 8.63522 3.57456 8.53033 3.46967C8.42544 3.36478 8.2918 3.29335 8.14632 3.26441C8.00083 3.23547 7.85003 3.25032 7.71299 3.30709C7.57594 3.36386 7.45881 3.45999 7.3764 3.58332C7.29399 3.70666 7.25 3.85166 7.25 4C7.25 4.19891 7.32902 4.38968 7.46967 4.53033C7.61032 4.67098 7.80109 4.75 8 4.75ZM8 11.25C7.85166 11.25 7.70666 11.294 7.58332 11.3764C7.45999 11.4588 7.36386 11.5759 7.30709 11.713C7.25032 11.85 7.23547 12.0008 7.26441 12.1463C7.29335 12.2918 7.36478 12.4254 7.46967 12.5303C7.57456 12.6352 7.7082 12.7066 7.85368 12.7356C7.99917 12.7645 8.14997 12.7497 8.28701 12.6929C8.42406 12.6361 8.54119 12.54 8.6236 12.4167C8.70601 12.2933 8.75 12.1483 8.75 12C8.75 11.8011 8.67098 11.6103 8.53033 11.4697C8.38968 11.329 8.19891 11.25 8 11.25Z" fill="currentColor"/>
</svg>
