<svg width="12" height="12" viewBox="0 0 12 12" fill="none" xmlns="http://www.w3.org/2000/svg">
<path d="M3.75 4.5C4.57843 4.5 5.25 3.82843 5.25 3C5.25 2.17157 4.57843 1.5 3.75 1.5C2.92157 1.5 2.25 2.17157 2.25 3C2.25 3.82843 2.92157 4.5 3.75 4.5Z" stroke="#6F6F6F" stroke-linecap="round" stroke-linejoin="round"/>
<path d="M1.5 5.6249C1.76202 5.27563 2.10174 4.99215 2.49228 4.79691C2.88282 4.60166 3.31344 4.50001 3.75007 4.5C4.18669 4.49999 4.61732 4.60162 5.00787 4.79685C5.39842 4.99208 5.73816 5.27554 6.00019 5.6248" stroke="#6F6F6F" stroke-linecap="round" stroke-linejoin="round"/>
<path d="M8.25 9.375C9.07843 9.375 9.75 8.70343 9.75 7.875C9.75 7.04657 9.07843 6.375 8.25 6.375C7.42157 6.375 6.75 7.04657 6.75 7.875C6.75 8.70343 7.42157 9.375 8.25 9.375Z" stroke="#6F6F6F" stroke-linecap="round" stroke-linejoin="round"/>
<path d="M6 10.4999C6.26202 10.1506 6.60174 9.86715 6.99228 9.67191C7.38282 9.47666 7.81344 9.37501 8.25007 9.375C8.68669 9.37499 9.11732 9.47662 9.50787 9.67185C9.89842 9.86708 10.2382 10.1505 10.5002 10.4998" stroke="#6F6F6F" stroke-linecap="round" stroke-linejoin="round"/>
<path d="M8.25 4.5C9.07843 4.5 9.75 3.82843 9.75 3C9.75 2.17157 9.07843 1.5 8.25 1.5C7.42157 1.5 6.75 2.17157 6.75 3C6.75 3.82843 7.42157 4.5 8.25 4.5Z" stroke="#6F6F6F" stroke-linecap="round" stroke-linejoin="round"/>
<path d="M6 5.6249C6.26202 5.27563 6.60174 4.99215 6.99228 4.79691C7.38282 4.60166 7.81344 4.50001 8.25007 4.5C8.68669 4.49999 9.11732 4.60162 9.50787 4.79685C9.89842 4.99208 10.2382 5.27554 10.5002 5.6248" stroke="#6F6F6F" stroke-linecap="round" stroke-linejoin="round"/>
<path d="M1.5 8.625H5.25" stroke="#6F6F6F" stroke-linecap="round" stroke-linejoin="round"/>
<path d="M3.375 6.75L3.375 10.5" stroke="#6F6F6F" stroke-linecap="round" stroke-linejoin="round"/>
</svg>
