<svg width="16" height="16" viewBox="0 0 16 16" fill="none" xmlns="http://www.w3.org/2000/svg">
<path d="M13 2.5H3C2.72386 2.5 2.5 2.72386 2.5 3V13C2.5 13.2761 2.72386 13.5 3 13.5H13C13.2761 13.5 13.5 13.2761 13.5 13V3C13.5 2.72386 13.2761 2.5 13 2.5Z" stroke="currentColor" stroke-linecap="round" stroke-linejoin="round"/>
<path d="M8.54545 5H7.45455M7.45455 11H8.54545M9.90909 5H10.7273C10.7996 5 10.869 5.02873 10.9201 5.07988C10.9713 5.13103 11 5.2004 11 5.27273V6.0909M11 8.54544V7.45453M9.90909 11H10.7273C10.7996 11 10.869 10.9713 10.9201 10.9201C10.9713 10.869 11 10.7996 11 10.7273V9.90908M5 7.45453V8.54544M6.09091 11H5.27273C5.2004 11 5.13103 10.9713 5.07988 10.9201C5.02873 10.869 5 10.7996 5 10.7273V9.90908M6.09091 5H5.27273C5.2004 5 5.13103 5.02873 5.07988 5.07988C5.02873 5.13103 5 5.2004 5 5.27273V6.0909" stroke="currentColor" stroke-linecap="round" stroke-linejoin="round"/>
</svg>
