<svg width="16" height="16" viewBox="0 0 16 16" fill="none" xmlns="http://www.w3.org/2000/svg">
<path fill-rule="evenodd" clip-rule="evenodd" d="M6.83307 4.66667H12C12.5523 4.66667 13 5.11439 13 5.66667V11C13 11.5523 12.5523 12 12 12H6.83307V4.66667ZM5.83307 4.66667H4C3.44771 4.66667 3 5.11439 3 5.66667V11C3 11.5523 3.44772 12 4 12H5.83307V4.66667ZM2 5.66667C2 4.5621 2.89543 3.66667 4 3.66667H12C13.1046 3.66667 14 4.5621 14 5.66667V11C14 12.1046 13.1046 13 12 13H4C2.89543 13 2 12.1046 2 11V5.66667Z" fill="currentColor"/>
</svg>
