<svg width="16" height="16" viewBox="0 0 16 16" fill="none" xmlns="http://www.w3.org/2000/svg">
<path d="M9.99963 4.9997L4.79289 10.2929C4.60536 10.4804 4.5 10.7348 4.5 11C4.5 11.2652 4.60536 11.5196 4.79289 11.7071C4.98043 11.8946 5.23478 12 5.5 12C5.76522 12 6.01957 11.8946 6.20711 11.7071L12.4138 5.41391C12.5996 5.22819 12.7469 5.00771 12.8474 4.76506C12.9479 4.52241 12.9996 4.26234 12.9996 3.99969C12.9996 3.73705 12.9479 3.47698 12.8474 3.23433C12.7469 2.99168 12.5996 2.7712 12.4138 2.58548C12.2281 2.39976 12.0077 2.25245 11.765 2.15194C11.5223 2.05143 11.2623 1.99969 10.9996 1.99969C10.737 1.99969 10.4769 2.05143 10.2343 2.15194C9.99161 2.25245 9.77114 2.39976 9.58542 2.58548L3.37868 8.87868C2.81607 9.44129 2.5 10.2044 2.5 11C2.5 11.7956 2.81607 12.5587 3.37868 13.1213C3.94129 13.6839 4.70435 14 5.5 14C6.29565 14 7.05871 13.6839 7.62132 13.1213L12.7496 7.9997" stroke="currentColor" stroke-linecap="round" stroke-linejoin="round"/>
</svg>
