<svg width="16" height="16" viewBox="0 0 16 16" fill="none" xmlns="http://www.w3.org/2000/svg">
<path d="M13.1407 2.24238L1.49519 5.527C1.39722 5.55464 1.31002 5.61151 1.24524 5.69003C1.18046 5.76855 1.14119 5.86497 1.13267 5.96641C1.12416 6.06785 1.14681 6.16947 1.1976 6.25768C1.24838 6.3459 1.32488 6.41652 1.41688 6.4601L6.76756 8.99463C6.87191 9.04406 6.95595 9.12809 7.00538 9.23245L9.53991 14.5831C9.58349 14.6751 9.6541 14.7516 9.74232 14.8024C9.83054 14.8532 9.93216 14.8758 10.0336 14.8673C10.135 14.8588 10.2315 14.8195 10.31 14.7548C10.3885 14.69 10.4454 14.6028 10.473 14.5048L13.7576 2.85933C13.7818 2.77379 13.7826 2.68336 13.7602 2.59736C13.7378 2.51136 13.6928 2.4329 13.63 2.37005C13.5671 2.3072 13.4886 2.26224 13.4026 2.2398C13.3166 2.21736 13.2262 2.21825 13.1407 2.24238Z" stroke="currentColor" stroke-linecap="round" stroke-linejoin="round"/>
<path d="M6.92894 9.07106L9.75737 6.24264" stroke="currentColor" stroke-linecap="round" stroke-linejoin="round"/>
</svg>
