<svg width="24" height="24" viewBox="0 0 24 24" fill="currentColor" xmlns="http://www.w3.org/2000/svg">
<path
      fillRule="evenodd"
      clipRule="evenodd"
      d="M17.25 4.95961L13.4425 3.69043L10.75 5.03666V7.81084L12.8287 9.88956L17.25 7.99473V4.95961ZM13.5345 4.98603L11.95 5.7783V7.31379L13.1028 8.46655L16.05 7.20345V5.82452L13.5345 4.98603Z"
    />
    <path
      fillRule="evenodd"
      clipRule="evenodd"
      d="M10.5261 12.4027L7.9413 7.75H4.25V19.75H19.5L15.4738 14.3818L10.5261 12.4027ZM10.3713 13.6332L5.45 14.528V17.8792L13.5374 14.8996L10.3713 13.6332ZM5.45 18.55V18.3632L5.51881 18.55H5.45ZM17.1 18.55H7.10031L14.9351 15.6635L17.1 18.55ZM5.45 13.3083V8.95H7.23522L9.27059 12.6137L5.45 13.3083Z"
    />
    <path
      fillRule="evenodd"
      clipRule="evenodd"
      d="M16.6647 8.49365L19.7501 10.0364V12.5405L17.3893 13.3274L15.0332 11.7567L16.6647 8.49365ZM17.2014 10.1036L18.5501 10.778V11.6755L17.5666 12.0034L16.5803 11.3458L17.2014 10.1036Z"
    />
</svg>
