<svg width="24" height="24" viewBox="0 0 24 24" fill="currentColor" xmlns="http://www.w3.org/2000/svg">
<path d="M19.7255 5.92421L18.877 5.07568L16.3012 7.65142L15.2255 6.57568L14.377 7.42421L16.3012 9.34848L19.7255 5.92421Z" />
    <path d="M8.2 8H7V9.2H8.2V8Z" />
    <path d="M5 12H6.2V13.2H5V12Z" />
    <path d="M6.2 15H5V16.2H6.2V15Z" />
    <path d="M11 15H12.2V16.2H11V15Z" />
    <path d="M14.2 15H13V16.2H14.2V15Z" />
    <path
      fillRule="evenodd"
      clipRule="evenodd"
      d="M5 10H3V18.9998H20V17.7998H19V15H16V13H12V6H5V10ZM6.2 7.2H10.8V13H10V10H6.2V7.2ZM8.8 11.2V13H8V15H7V17.7998H4.2V11.2H8.8ZM17.8 16.2V17.7998H8.2V16.2H9.2V14.2H14.8V16.2H17.8Z"
    />
</svg>
