<svg width="24" height="24" viewBox="0 0 24 24" fill="currentColor" xmlns="http://www.w3.org/2000/svg">
<path d="M5.17574 6.97555C4.78204 7.36925 4.53619 7.59982 4 7.59982V8.79982C5.04903 8.79982 5.60247 8.2461 6.00724 7.84111L6.02426 7.82408C6.41796 7.43038 6.66381 7.19982 7.2 7.19982C7.73619 7.19982 7.98204 7.43038 8.37574 7.82408L8.39276 7.84111C8.79753 8.2461 9.35097 8.79982 10.4 8.79982C11.449 8.79982 12.0025 8.2461 12.4072 7.84111L12.4243 7.82408C12.818 7.43038 13.0638 7.19982 13.6 7.19982C14.1362 7.19982 14.382 7.43038 14.7757 7.82408L14.7928 7.84111C15.1975 8.2461 15.751 8.79982 16.8 8.79982C17.849 8.79982 18.4025 8.2461 18.8072 7.84111L18.8243 7.82408C19.218 7.43038 19.4638 7.19982 20 7.19982V5.99982C18.951 5.99982 18.3975 6.55354 17.9928 6.95853L17.9757 6.97555C17.582 7.36925 17.3362 7.59982 16.8 7.59982C16.2638 7.59982 16.018 7.36925 15.6243 6.97555L15.6072 6.95853C15.2025 6.55354 14.649 5.99982 13.6 5.99982C12.551 5.99982 11.9975 6.55354 11.5928 6.95853L11.5757 6.97555C11.182 7.36925 10.9362 7.59982 10.4 7.59982C9.86381 7.59982 9.61796 7.36925 9.22426 6.97555L9.20724 6.95853C8.80246 6.55354 8.24903 5.99982 7.2 5.99982C6.15097 5.99982 5.59753 6.55354 5.19276 6.95853L5.17574 6.97555Z" />
    <path d="M16.0315 10.3999H20V17.6H18.8V11.5999H16.9685L15.4685 17.5999H4V16.3999H14.5315L16.0315 10.3999Z" />
    <path d="M13.6 11C13.8674 11 14.1026 11.036 14.3113 11.0963L14.02 12.2618C13.8985 12.2212 13.7626 12.2 13.6 12.2C13.0638 12.2 12.818 12.4306 12.4243 12.8243L12.4072 12.8413C12.0025 13.2463 11.449 13.8 10.4 13.8C9.35097 13.8 8.79753 13.2463 8.39276 12.8413L8.37574 12.8243C7.98204 12.4306 7.73619 12.2 7.2 12.2C6.66381 12.2 6.41796 12.4306 6.02426 12.8243L6.00724 12.8413C5.60247 13.2463 5.04903 13.8 4 13.8V12.6C4.53619 12.6 4.78204 12.3694 5.17574 11.9757L5.19276 11.9587C5.59753 11.5537 6.15097 11 7.2 11C8.24903 11 8.80246 11.5537 9.20724 11.9587L9.22426 11.9757C9.61796 12.3694 9.86381 12.6 10.4 12.6C10.9362 12.6 11.182 12.3694 11.5757 11.9757L11.5928 11.9587C11.9975 11.5537 12.551 11 13.6 11Z" />
</svg>
