<svg width="24" height="24" viewBox="0 0 24 24" fill="currentColor" xmlns="http://www.w3.org/2000/svg">
<path
    fillRule="evenodd"
    clipRule="evenodd"
    d="M17.7383 9.13638C18.3107 8.60329 18.7982 7.87005 18.7982 6.88384C18.7982 5.95388 18.0443 5.2 17.1143 5.2C16.1844 5.2 15.4305 5.95388 15.4305 6.88384C15.4305 7.59916 15.8786 8.33702 16.5266 8.99389C16.754 9.2243 16.9836 9.42184 17.1828 9.57913C17.3546 9.46181 17.5473 9.31428 17.7383 9.13638ZM17.1143 11C17.1143 11 19.9982 9.74401 19.9982 6.88384C19.9982 5.29114 18.707 4 17.1143 4C15.5216 4 14.2305 5.29114 14.2305 6.88384C14.2305 9.26979 17.1143 11 17.1143 11ZM17.795 6.82028C17.795 7.19568 17.4907 7.50001 17.1153 7.50001C16.7399 7.50001 16.4355 7.19568 16.4355 6.82028C16.4355 6.44489 16.7399 6.14056 17.1153 6.14056C17.4907 6.14056 17.795 6.44489 17.795 6.82028ZM8.49152 16.3113C8.49152 17.2975 8.00405 18.0308 7.43171 18.5639C7.24071 18.7418 7.04799 18.8893 6.87617 19.0066C6.67694 18.8493 6.44731 18.6518 6.22001 18.4214C5.57198 17.7645 5.12383 17.0266 5.12383 16.3113C5.12383 15.3814 5.87771 14.6275 6.80767 14.6275C7.73763 14.6275 8.49152 15.3814 8.49152 16.3113ZM9.69151 16.3113C9.69151 19.1715 6.80767 20.4275 6.80767 20.4275C6.80767 20.4275 3.92383 18.6973 3.92383 16.3113C3.92383 14.7186 5.21497 13.4275 6.80767 13.4275C8.40038 13.4275 9.69151 14.7186 9.69151 16.3113ZM7.48835 16.2478C7.48835 16.6232 7.18403 16.9275 6.80863 16.9275C6.43323 16.9275 6.12891 16.6232 6.12891 16.2478C6.12891 15.8724 6.43323 15.5681 6.80863 15.5681C7.18403 15.5681 7.48835 15.8724 7.48835 16.2478ZM15.7899 15.1186L18.75 18.2346L17.88 19.061L14.9199 15.945L15.7899 15.1186ZM13.9141 13.1447L10.9539 10.0287L10.0839 10.8552L13.0441 13.9712L13.9141 13.1447ZM6.11996 4.93896L9.08008 8.05496L8.21007 8.88145L5.24995 5.76545L6.11996 4.93896Z"
  />
</svg>
