<svg width="24" height="24" viewBox="0 0 24 24" fill="currentColor" xmlns="http://www.w3.org/2000/svg">
<path d="M7 5V11H4V19H12V17.8H5.2V12.2H8.2V6.2H15.8V9H17V5H7Z" />
    <path d="M10 8H11.2V9.2H10V8Z" />
    <path d="M10 11H11.2V12.2H10V11Z" />
    <path d="M11.2 14H10V15.2H11.2V14Z" />
    <path d="M7 14H8.2V15.2H7V14Z" />
    <path d="M14.2 8H13V9.2H14.2V8Z" />
    <path d="M16.4004 14H17.6004V15.2H16.4004V14Z" />
    <path
      fillRule="evenodd"
      clipRule="evenodd"
      d="M14 20V11H20V20H14ZM15.2 18.8V12.2H18.8V18.8H17.6004V17H16.4004V18.8H15.2Z"
    />
</svg>
