<svg width="24" height="24" viewBox="0 0 24 24" fill="currentColor" xmlns="http://www.w3.org/2000/svg">
<path
    fillRule="evenodd"
    clipRule="evenodd"
    d="M21 8.1001H3V9.3001H5.40039V13.7736C4.61359 14.173 3.86786 14.6416 3.17122 15.1712L4.02823 16.0282C5.84096 14.6844 8.00436 13.7876 10.3561 13.5H10.6004V13.4724C11.0604 13.4247 11.5274 13.4002 12 13.4002C12.4729 13.4002 12.9401 13.4247 13.4004 13.4725V13.5H13.644C15.9957 13.7876 18.1591 14.6844 19.9718 16.0282L20.8288 15.1712C20.1324 14.6417 19.3869 14.1733 18.6004 13.774V9.3001H21V8.1001ZM17.4004 9.3001H14.6004V12.4311C15.5704 12.6056 16.5071 12.8758 17.4004 13.2316V9.3001ZM13.4004 9.3001V12.2665C12.9395 12.2226 12.4724 12.2002 12 12.2002C11.5279 12.2002 11.061 12.2226 10.6004 12.2664V9.3001H13.4004ZM9.40039 9.3001H6.60039V13.2314C7.49369 12.8755 8.43041 12.6054 9.40039 12.431V9.3001Z"
  />
</svg>
