<svg width="24" height="24" viewBox="0 0 24 24" fill="currentColor" xmlns="http://www.w3.org/2000/svg">
<path d="M6.2 9.2H9.2V6.2H17.8V15.8H16V17H19V5H8V8H5V12H6.2V9.2Z" />
    <path d="M10.8734 21V18.2636L9.5 17L8.93526 19.5982L6 18.7695L6.23866 17.7032L8.14358 18.2636L9 14L8 14.5L8.01804 16.0495H7.20234V13.6188L9.36086 12.6679C9.63625 12.5482 9.83914 12.4689 9.96952 12.4301C10.0999 12.3913 10.2198 12.3719 10.3293 12.3719C10.4952 12.3719 10.6493 12.4174 10.7915 12.5085C10.9337 12.5995 11.0495 12.7208 11.1387 12.8724L11.6825 13.7777C11.9147 14.1664 12.2324 14.4936 12.6358 14.7591C13.0391 15.0246 13.4938 15.1682 14 15.1899V16.2971C13.4471 16.279 12.9127 16.1312 12.3968 15.8537L12.3022 15.803C11.8108 15.5401 11.2744 15.253 10.9326 14.7591L10.7043 16.2971L11.7876 17.5V21L10.8734 21Z" />
    <path d="M10.3664 11.7838C10.562 11.9873 10.7988 12.089 11.077 12.089C11.3552 12.089 11.5921 11.9873 11.7876 11.7838C11.9832 11.5804 12.081 11.3339 12.081 11.0445C12.081 10.7551 11.9832 10.5087 11.7876 10.3052C11.5921 10.1017 11.3552 10 11.077 10C10.7988 10 10.562 10.1017 10.3664 10.3052C10.1708 10.5087 10.073 10.7551 10.073 11.0445C10.073 11.3339 10.1708 11.5804 10.3664 11.7838Z" />
    <path d="M15 8H16.2V9.2H15V8Z" />
    <path d="M16.2 11H15V12.2H16.2V11Z" />
    <path d="M12 8H13.2V9.2H12V8Z" />
</svg>
