<svg width="24" height="24" viewBox="0 0 24 24" fill="currentColor" xmlns="http://www.w3.org/2000/svg">
<path
      fillRule="evenodd"
      clipRule="evenodd"
      d="M14.2752 13.9148C14.2352 13.8814 14.1982 13.8471 14.164 13.8121C13.8434 13.4846 13.6817 13.0189 13.6662 12.4733C13.6508 11.9264 13.7858 11.3463 14.0038 10.8676C14.2325 10.3654 14.5012 10.0832 14.6705 10.0003C14.9443 9.86617 15.1101 9.85976 15.1958 9.87176C15.278 9.88326 15.3415 9.91915 15.4001 9.97659C15.4643 10.0394 15.5155 10.1224 15.5518 10.2008C15.5691 10.2379 15.5807 10.2691 15.5874 10.2889C15.5905 10.2981 15.5925 10.3044 15.5933 10.3072L15.6335 10.4648L15.7535 10.5824C16.036 10.8591 16.3867 11.037 16.7804 11.0221C17.167 11.0074 17.4802 10.8108 17.7041 10.5753C18.1382 10.1189 18.3726 9.38897 18.3855 8.6717C18.3986 7.93667 18.1823 7.10963 17.5831 6.4609C16.9743 5.80173 16.0383 5.3999 14.76 5.3999C10.9614 5.3999 8.60711 7.4958 7.22968 9.54001C6.54308 10.559 6.09144 11.5737 5.81134 12.3316C5.67094 12.7115 5.57271 13.0294 5.5091 13.2544C5.50881 13.2554 5.50853 13.2564 5.50825 13.2574C5.29777 13.3633 5.12694 13.4867 4.99272 13.5836L4.97884 13.5937C4.80748 13.7173 4.6908 13.7991 4.55124 13.8596C4.42235 13.9154 4.25455 13.9602 4 13.9602V15.1602C4.41045 15.1602 4.7414 15.0849 5.02814 14.9607C5.29635 14.8446 5.50769 14.6919 5.66728 14.5767L5.68116 14.5667C5.85252 14.443 5.9692 14.3612 6.10876 14.3007C6.23765 14.2449 6.40545 14.2002 6.66 14.2002C6.91452 14.2002 7.08238 14.2449 7.21155 14.3008C7.35155 14.3614 7.46855 14.4433 7.64096 14.5673L7.65336 14.5762C7.8142 14.6919 8.02691 14.845 8.29743 14.9613C8.58534 15.0852 8.91771 15.1602 9.33 15.1602C9.74231 15.1602 10.0744 15.0852 10.3619 14.961C10.6311 14.8448 10.8426 14.692 11.0023 14.5767L11.0162 14.5667C11.1874 14.443 11.3039 14.3614 11.4438 14.301C11.5731 14.2452 11.7423 14.2002 12 14.2002C12.2577 14.2002 12.4269 14.2452 12.5562 14.301C12.6961 14.3614 12.8126 14.443 12.9838 14.5667L12.9977 14.5767C13.1574 14.692 13.3689 14.8448 13.6381 14.961C13.9256 15.0852 14.2577 15.1602 14.67 15.1602C15.0823 15.1602 15.4147 15.0852 15.7026 14.9613C15.9731 14.845 16.1858 14.6919 16.3466 14.5762L16.359 14.5673C16.5315 14.4433 16.6485 14.3614 16.7885 14.3008C16.9176 14.2449 17.0855 14.2002 17.34 14.2002C17.811 14.2002 18.017 14.3468 18.3256 14.5679L18.3271 14.569C18.6883 14.8278 19.1523 15.1602 20.01 15.1602V13.9602C19.539 13.9602 19.333 13.8135 19.0244 13.5924L19.0229 13.5913C18.6617 13.3325 18.1978 13.0002 17.34 13.0002C16.9295 13.0002 16.5986 13.0754 16.3119 13.1995C16.0446 13.3152 15.8334 13.4671 15.6738 13.582L15.6585 13.593C15.487 13.7164 15.3693 13.7984 15.2284 13.859C15.0978 13.9151 14.9277 13.9602 14.67 13.9602C14.5071 13.9602 14.3796 13.9422 14.2752 13.9148ZM6.84488 13.0055C7.17178 13.0246 7.44572 13.0946 7.68814 13.1995C7.95543 13.3152 8.16659 13.4671 8.32621 13.582L8.34154 13.593C8.51304 13.7164 8.63073 13.7984 8.77163 13.859C8.90216 13.9151 9.07229 13.9602 9.33 13.9602C9.58769 13.9602 9.7569 13.9151 9.88622 13.8593C10.0261 13.7989 10.1426 13.7173 10.3138 13.5937L10.3277 13.5837C10.4874 13.4683 10.6989 13.3155 10.9681 13.1993C11.2556 13.0751 11.5877 13.0002 12 13.0002C12.1885 13.0002 12.3603 13.0158 12.5187 13.0447C12.4884 12.8655 12.4718 12.6853 12.4667 12.5072C12.4455 11.7561 12.6272 10.9949 12.9117 10.3702C13.1856 9.769 13.6053 9.18581 14.1427 8.92261C14.5756 8.71056 14.9841 8.63043 15.3621 8.68334C15.7437 8.73673 16.0335 8.91719 16.2399 9.11937C16.4408 9.31617 16.5663 9.53606 16.6403 9.69568C16.6577 9.73298 16.6727 9.76815 16.6856 9.80043C16.7108 9.81605 16.7272 9.82119 16.7347 9.8227C16.7439 9.8203 16.7783 9.80751 16.8346 9.74838C17.0023 9.57205 17.1764 9.16613 17.1857 8.65022C17.1946 8.15207 17.0466 7.64859 16.7016 7.27508C16.3663 6.91202 15.7785 6.5999 14.76 6.5999C11.4843 6.5999 9.45873 8.37939 8.22485 10.2106C7.6058 11.1293 7.19392 12.0522 6.93692 12.7476C6.90362 12.8377 6.87298 12.9238 6.84488 13.0055ZM16.7394 9.8232C16.7394 9.82325 16.7399 9.82322 16.7394 9.8232C16.7394 9.82308 16.7382 9.82286 16.7357 9.8229C16.7371 9.82315 16.7388 9.82318 16.7394 9.8232Z"
    />
    <path d="M4.55124 17.8596C4.42235 17.9154 4.25455 17.9602 4 17.9602V19.1602C4.41045 19.1602 4.7414 19.0849 5.02814 18.9607C5.29635 18.8446 5.50769 18.6919 5.66728 18.5767L5.68116 18.5667C5.85252 18.443 5.9692 18.3612 6.10876 18.3007C6.23765 18.2449 6.40545 18.2002 6.66 18.2002C6.91452 18.2002 7.08238 18.2449 7.21155 18.3008C7.35155 18.3614 7.46855 18.4433 7.64096 18.5673L7.65336 18.5762C7.8142 18.6919 8.02691 18.845 8.29743 18.9613C8.58534 19.0852 8.91771 19.1602 9.33 19.1602C9.74231 19.1602 10.0744 19.0852 10.3619 18.961C10.6311 18.8448 10.8426 18.692 11.0023 18.5767L11.0162 18.5667C11.1874 18.443 11.3039 18.3614 11.4438 18.301C11.5731 18.2452 11.7423 18.2002 12 18.2002C12.2577 18.2002 12.4269 18.2452 12.5562 18.301C12.6961 18.3614 12.8126 18.443 12.9838 18.5667L12.9977 18.5767C13.1574 18.692 13.3689 18.8448 13.6381 18.961C13.9256 19.0852 14.2577 19.1602 14.67 19.1602C15.0823 19.1602 15.4147 19.0852 15.7026 18.9613C15.9731 18.845 16.1858 18.6919 16.3466 18.5762L16.359 18.5673C16.5315 18.4433 16.6485 18.3614 16.7885 18.3008C16.9176 18.2449 17.0855 18.2002 17.34 18.2002C17.811 18.2002 18.017 18.3468 18.3256 18.5679L18.3271 18.569C18.6883 18.8278 19.1523 19.1602 20.01 19.1602V17.9602C19.539 17.9602 19.333 17.8135 19.0244 17.5924L19.0229 17.5913C18.6617 17.3325 18.1978 17.0002 17.34 17.0002C16.9295 17.0002 16.5986 17.0754 16.3119 17.1995C16.0446 17.3152 15.8334 17.4671 15.6738 17.582L15.6585 17.593C15.487 17.7164 15.3693 17.7984 15.2284 17.859C15.0978 17.9151 14.9277 17.9602 14.67 17.9602C14.4123 17.9602 14.2431 17.9151 14.1138 17.8593C13.9739 17.7989 13.8574 17.7173 13.6862 17.5937L13.6723 17.5837C13.5126 17.4683 13.3011 17.3155 13.0319 17.1993C12.7444 17.0751 12.4123 17.0002 12 17.0002C11.5877 17.0002 11.2556 17.0751 10.9681 17.1993C10.6989 17.3155 10.4874 17.4683 10.3277 17.5837L10.3138 17.5937C10.1426 17.7173 10.0261 17.7989 9.88622 17.8593C9.7569 17.9151 9.58769 17.9602 9.33 17.9602C9.07229 17.9602 8.90216 17.9151 8.77163 17.859C8.63073 17.7984 8.51304 17.7164 8.34154 17.593L8.32622 17.582C8.1666 17.4671 7.95543 17.3152 7.68814 17.1995C7.40137 17.0754 7.07048 17.0002 6.66 17.0002C6.24955 17.0002 5.9186 17.0754 5.63186 17.1996C5.36365 17.3157 5.1523 17.4684 4.99272 17.5836L4.97884 17.5937C4.80748 17.7173 4.6908 17.7991 4.55124 17.8596Z" />
</svg>
