<svg width="24" height="24" viewBox="0 0 24 24" fill="currentColor" xmlns="http://www.w3.org/2000/svg">
<path
      fillRule="evenodd"
      clipRule="evenodd"
      d="M8.10039 11.9487C9.74732 11.664 11 10.2283 11 8.5C11 6.567 9.433 5 7.5 5C5.567 5 4 6.567 4 8.5C4 10.2286 5.25307 11.6644 6.90039 11.9488V19.5H8.10039V11.9487ZM7.5 10.8C8.56272 10.8 9.4571 10.0792 9.72098 9.0999H5.27902C5.5429 10.0792 6.43728 10.8 7.5 10.8ZM5.27907 7.8999H9.72093C9.45698 6.92066 8.56265 6.2 7.5 6.2C6.43735 6.2 5.54302 6.92066 5.27907 7.8999Z"
    />
    <path
      fillRule="evenodd"
      clipRule="evenodd"
      d="M17.1004 11.75H20.3977L16.5006 5L12.6035 11.75H15.9004V19.5H17.1004V11.75ZM14.682 10.55L16.5006 7.4L18.3193 10.55H14.682Z"
    />
</svg>
