<svg width="24" height="24" viewBox="0 0 24 24" fill="currentColor" xmlns="http://www.w3.org/2000/svg">
<path d="M5.98329 6.3999H10.6V16.3999H20V17.5999H9.4V7.5999H7.01671L5.51671 17.5999H4V16.3999H4.48329L5.98329 6.3999Z" />
    <path d="M12 13.5908C12.0643 13.5968 12.1309 13.5999 12.2 13.5999C13.1255 13.5999 13.6115 13.0381 13.9297 12.6703L13.9534 12.6429C14.2857 12.2594 14.4489 12.0999 14.8 12.0999C15.1511 12.0999 15.3143 12.2594 15.6466 12.6429L15.6703 12.6703C15.9885 13.0381 16.4745 13.5999 17.4 13.5999C18.3255 13.5999 18.8115 13.0381 19.1297 12.6703L19.1534 12.6429C19.4857 12.2594 19.6489 12.0999 20 12.0999V10.8999C19.0745 10.8999 18.5885 11.4617 18.2703 11.8295L18.2466 11.8569C17.9143 12.2404 17.7511 12.3999 17.4 12.3999C17.0489 12.3999 16.8857 12.2404 16.5534 11.8569L16.5297 11.8295C16.2115 11.4617 15.7255 10.8999 14.8 10.8999C13.8745 10.8999 13.3885 11.4617 13.0703 11.8295L13.0466 11.8569C12.7143 12.2404 12.5511 12.3999 12.2 12.3999C12.1261 12.3999 12.0606 12.3928 12 12.3781V13.5908Z" />
    <path d="M12.2 9.5999C12.1309 9.5999 12.0643 9.59677 12 9.59083V8.37812C12.0606 8.39284 12.1261 8.3999 12.2 8.3999C12.5511 8.3999 12.7143 8.24038 13.0466 7.85694L13.0703 7.82951C13.3885 7.4617 13.8745 6.8999 14.8 6.8999C15.7255 6.8999 16.2115 7.46169 16.5297 7.82951L16.5534 7.85694C16.8857 8.24038 17.0489 8.3999 17.4 8.3999C17.7511 8.3999 17.9143 8.24038 18.2466 7.85694L18.2703 7.8295C18.5885 7.46169 19.0745 6.8999 20 6.8999V8.0999C19.6489 8.0999 19.4857 8.25942 19.1534 8.64286L19.1297 8.6703C18.8115 9.03811 18.3255 9.5999 17.4 9.5999C16.4745 9.5999 15.9885 9.03811 15.6703 8.6703L15.6466 8.64286C15.3143 8.25942 15.1511 8.0999 14.8 8.0999C14.4489 8.0999 14.2857 8.25942 13.9534 8.64286L13.9297 8.6703C13.6115 9.03811 13.1255 9.5999 12.2 9.5999Z" />
</svg>
