<svg width="24" height="24" viewBox="0 0 24 24" fill="currentColor" xmlns="http://www.w3.org/2000/svg">
<path
      fillRule="evenodd"
      clipRule="evenodd"
      d="M14.4863 8.39138L16.9568 9.53195L17.4598 8.44246L9.94733 4.97412L5.17554 11.734L6.1559 12.426L7.72486 10.2034L8.69459 13.8225C8.58488 13.7661 8.481 13.6932 8.34154 13.5929L8.32622 13.5818C8.1666 13.467 7.95543 13.315 7.68814 13.1993C7.40137 13.0752 7.07048 13 6.66 13C6.24955 13 5.9186 13.0752 5.63186 13.1994C5.36365 13.3156 5.1523 13.4682 4.99272 13.5835L4.97884 13.5935C4.80748 13.7172 4.6908 13.799 4.55124 13.8594C4.42235 13.9152 4.25455 13.96 4 13.96L4 15.16C4.41045 15.16 4.7414 15.0848 5.02814 14.9606C5.29635 14.8444 5.50769 14.6918 5.66728 14.5765L5.68116 14.5665C5.85252 14.4428 5.9692 14.361 6.10876 14.3006C6.23765 14.2448 6.40545 14.2 6.66 14.2C6.91452 14.2 7.08238 14.2447 7.21155 14.3006C7.35155 14.3612 7.46855 14.4431 7.64096 14.5671L7.65336 14.576C7.8142 14.6918 8.02691 14.8448 8.29743 14.9612C8.58534 15.085 8.91771 15.16 9.33 15.16C9.74231 15.16 10.0744 15.085 10.3619 14.9608C10.6311 14.8446 10.8426 14.6918 11.0023 14.5765L11.0162 14.5665C11.1874 14.4429 11.3039 14.3612 11.4438 14.3008C11.5731 14.245 11.7423 14.2 12 14.2C12.2577 14.2 12.4269 14.245 12.5562 14.3008C12.6961 14.3612 12.8126 14.4429 12.9838 14.5665L12.9977 14.5765C13.1574 14.6918 13.3689 14.8446 13.6381 14.9608C13.9256 15.085 14.2577 15.16 14.67 15.16C15.0823 15.16 15.4147 15.085 15.7026 14.9612C15.9731 14.8448 16.1858 14.6918 16.3466 14.5761L16.359 14.5671C16.5314 14.4431 16.6485 14.3612 16.7885 14.3006C16.9176 14.2447 17.0855 14.2 17.34 14.2C17.811 14.2 18.017 14.3467 18.3256 14.5677L18.3271 14.5689C18.6883 14.8276 19.1522 15.16 20.01 15.16V13.96C19.539 13.96 19.333 13.8133 19.0244 13.5922L19.0229 13.5911C18.6617 13.3324 18.1978 13 17.34 13C16.9295 13 16.5986 13.0752 16.3119 13.1993C16.1309 13.2777 15.9757 13.3726 15.8448 13.4614L14.4863 8.39138ZM13.0686 7.73685L10.3515 6.48243L8.62537 8.92769L9.94009 13.8343C10.0575 13.7767 10.165 13.7009 10.3138 13.5935L10.3277 13.5835C10.4874 13.4682 10.6989 13.3154 10.9681 13.1992C11.0419 13.1673 11.1187 13.1386 11.1989 13.1137L10.7441 11.4163L12.4798 10.9513L13.089 13.2247C13.3312 13.3371 13.5241 13.4764 13.6723 13.5835L13.6862 13.5935C13.8574 13.7171 13.9739 13.7988 14.1138 13.8592C14.2431 13.915 14.4123 13.96 14.67 13.96C14.6926 13.96 14.7145 13.9597 14.7358 13.959L13.0686 7.73685Z"
    />
    <path d="M4.55124 17.8594C4.42235 17.9152 4.25455 17.96 4 17.96L4 19.16C4.41045 19.16 4.7414 19.0848 5.02814 18.9606C5.29635 18.8444 5.50769 18.6918 5.66728 18.5765L5.68116 18.5665C5.85252 18.4428 5.9692 18.361 6.10876 18.3006C6.23765 18.2448 6.40545 18.2 6.66 18.2C6.91452 18.2 7.08238 18.2447 7.21155 18.3006C7.35155 18.3612 7.46855 18.4431 7.64096 18.5671L7.65336 18.576C7.8142 18.6918 8.02691 18.8448 8.29743 18.9612C8.58534 19.085 8.91771 19.16 9.33 19.16C9.74231 19.16 10.0744 19.085 10.3619 18.9608C10.6311 18.8446 10.8426 18.6918 11.0023 18.5765L11.0162 18.5665C11.1874 18.4429 11.3039 18.3612 11.4438 18.3008C11.5731 18.245 11.7423 18.2 12 18.2C12.2577 18.2 12.4269 18.245 12.5562 18.3008C12.6961 18.3612 12.8126 18.4429 12.9838 18.5665L12.9977 18.5765C13.1574 18.6918 13.3689 18.8446 13.6381 18.9608C13.9256 19.085 14.2577 19.16 14.67 19.16C15.0823 19.16 15.4147 19.085 15.7026 18.9612C15.9731 18.8448 16.1858 18.6918 16.3466 18.5761L16.359 18.5671C16.5314 18.4431 16.6485 18.3612 16.7885 18.3006C16.9176 18.2447 17.0855 18.2 17.34 18.2C17.811 18.2 18.017 18.3467 18.3256 18.5677L18.3271 18.5689C18.6883 18.8276 19.1523 19.16 20.01 19.16V17.96C19.539 17.96 19.333 17.8133 19.0244 17.5922L19.0229 17.5911C18.6617 17.3324 18.1978 17 17.34 17C16.9295 17 16.5986 17.0752 16.3119 17.1993C16.0446 17.315 15.8334 17.467 15.6738 17.5818L15.6585 17.5929C15.487 17.7162 15.3693 17.7982 15.2284 17.8588C15.0978 17.915 14.9277 17.96 14.67 17.96C14.4123 17.96 14.2431 17.915 14.1138 17.8592C13.9739 17.7988 13.8574 17.7171 13.6862 17.5935L13.6723 17.5835C13.5126 17.4682 13.3011 17.3154 13.0319 17.1992C12.7444 17.075 12.4123 17 12 17C11.5877 17 11.2556 17.075 10.9681 17.1992C10.6989 17.3154 10.4874 17.4682 10.3277 17.5835L10.3138 17.5935C10.1426 17.7171 10.0261 17.7988 9.88622 17.8592C9.7569 17.915 9.58769 17.96 9.33 17.96C9.07229 17.96 8.90216 17.915 8.77163 17.8588C8.63073 17.7982 8.51304 17.7162 8.34154 17.5929L8.32622 17.5818C8.1666 17.467 7.95543 17.315 7.68814 17.1993C7.40137 17.0752 7.07048 17 6.66 17C6.24955 17 5.9186 17.0752 5.63186 17.1994C5.36365 17.3156 5.1523 17.4682 4.99272 17.5835L4.97884 17.5935C4.80748 17.7172 4.6908 17.799 4.55124 17.8594Z" />
</svg>
