<svg width="24" height="24" viewBox="0 0 24 24" fill="currentColor" xmlns="http://www.w3.org/2000/svg">
<path d="M9.40039 12.5336C9.14605 12.6345 8.87824 12.7087 8.60039 12.7528V10H7.40039V12.753C5.58661 12.4655 4.2 10.8947 4.2 9C4.2 6.90132 5.90132 5.2 8 5.2C10.0987 5.2 11.8 6.90132 11.8 9C11.8 9.91016 11.48 10.7456 10.9464 11.3999H12.3875C12.778 10.6875 13 9.86969 13 9C13 6.23858 10.7614 4 8 4C5.23858 4 3 6.23858 3 9C3 11.5585 4.92167 13.6682 7.40039 13.9644V17H8.60039V13.9643C8.87449 13.9315 9.14177 13.8765 9.40039 13.8012V12.5336Z" />
    <path
      fillRule="evenodd"
      clipRule="evenodd"
      d="M19.6004 12.3999H10.4004V16.3999H9.5V17.5999H10.4004V19H11.6004V17.5999H18.4004V19H19.6004V17.5999L20.5 17.5999V16.3999H19.6004V12.3999ZM18.4004 16.3999V15.5999L11.6004 15.5999V16.3999H18.4004ZM18.4004 13.5999V14.3999L11.6004 14.3999V13.5999H18.4004Z"
    />
</svg>
