<svg width="24" height="24" viewBox="0 0 24 24" fill="currentColor" xmlns="http://www.w3.org/2000/svg">
<path d="M11.4004 8V16H12.6004V8H11.4004Z" />
    <path d="M8.40039 10V16H9.60039V10H8.40039Z" />
    <path d="M14.4004 16V13H15.6004V16H14.4004Z" />
    <path
      fillRule="evenodd"
      clipRule="evenodd"
      d="M5 7C5 5.89543 5.89543 5 7 5H17C18.1046 5 19 5.89543 19 7V17C19 18.1046 18.1046 19 17 19H7C5.89543 19 5 18.1046 5 17V7ZM7 6.2H17C17.4418 6.2 17.8 6.55817 17.8 7V17C17.8 17.4418 17.4418 17.8 17 17.8H7C6.55817 17.8 6.2 17.4418 6.2 17V7C6.2 6.55817 6.55817 6.2 7 6.2Z"
    />
</svg>
