<svg width="24" height="24" viewBox="0 0 24 24" fill="currentColor" xmlns="http://www.w3.org/2000/svg">
<path d="M9 16C9.55228 16 10 15.5523 10 15C10 14.4477 9.55228 14 9 14C8.44772 14 8 14.4477 8 15C8 15.5523 8.44772 16 9 16Z" />
    <path d="M15 16C15.5523 16 16 15.5523 16 15C16 14.4477 15.5523 14 15 14C14.4477 14 14 14.4477 14 15C14 15.5523 14.4477 16 15 16Z" />
    <path
      fillRule="evenodd"
      clipRule="evenodd"
      d="M5.43597 6.18404C5 7.03969 5 8.15979 5 10.4V11.28C5 13.6322 5 14.8083 5.45777 15.7068C5.86044 16.497 6.50296 17.1396 7.29324 17.5422C7.51418 17.6548 7.75192 17.7397 8.01982 17.8037L5.60156 20.0001H7.38639L9.61139 17.9792C10.1918 18 10.8811 18 11.72 18H12.28C13.1181 18 13.8069 18 14.387 17.9793L16.6119 20.0001H18.3968L15.9789 17.804C16.2473 17.74 16.4855 17.655 16.7068 17.5422C17.497 17.1396 18.1396 16.497 18.5422 15.7068C19 14.8083 19 13.6322 19 11.28V10.4C19 8.15979 19 7.03969 18.564 6.18404C18.1805 5.43139 17.5686 4.81947 16.816 4.43597C15.9603 4 14.8402 4 12.6 4H11.4C9.15979 4 8.03969 4 7.18404 4.43597C6.43139 4.81947 5.81947 5.43139 5.43597 6.18404ZM17.8 11.28V10.4C17.8 9.39864 17.7993 8.67288 17.7655 8.0999H12.6004V12.3999H17.7975C17.7999 12.0662 17.8 11.6955 17.8 11.28ZM17.4948 6.72883C17.5212 6.78069 17.5462 6.83701 17.5696 6.8999H6.43039C6.45378 6.83701 6.47876 6.78069 6.50518 6.72883C6.77363 6.20197 7.20197 5.77363 7.72883 5.50518C7.95929 5.38776 8.27773 5.29895 8.87053 5.25051C9.47733 5.20093 10.2601 5.2 11.4 5.2H12.6C13.7399 5.2 14.5227 5.20093 15.1295 5.25051C15.7223 5.29895 16.0407 5.38776 16.2712 5.50518C16.798 5.77363 17.2264 6.20197 17.4948 6.72883ZM6.2 10.4C6.2 9.39864 6.20072 8.67288 6.2345 8.0999H11.4004V12.3999H6.20245C6.20011 12.0662 6.2 11.6955 6.2 11.28V10.4ZM17.7691 13.5999H6.23089C6.23704 13.7194 6.24441 13.8328 6.25324 13.9408C6.30439 14.567 6.39865 14.9101 6.52698 15.162C6.8146 15.7265 7.27354 16.1854 7.83803 16.473C8.08988 16.6013 8.43302 16.6956 9.05917 16.7468C9.69932 16.7991 10.5241 16.8 11.72 16.8H12.28C13.4759 16.8 14.3007 16.7991 14.9408 16.7468C15.567 16.6956 15.9101 16.6013 16.162 16.473C16.7265 16.1854 17.1854 15.7265 17.473 15.162C17.6013 14.9101 17.6956 14.567 17.7468 13.9408C17.7556 13.8328 17.763 13.7194 17.7691 13.5999Z"
    />
</svg>
