<svg width="24" height="24" viewBox="0 0 24 24" fill="currentColor" xmlns="http://www.w3.org/2000/svg">
<path d="M10.6 13.2C10.9314 13.2 11.2 12.9314 11.2 12.6C11.2 12.2686 10.9314 12 10.6 12C10.2686 12 10 12.2686 10 12.6C10 12.9314 10.2686 13.2 10.6 13.2Z" />
    <path d="M14.0008 12.6C14.0008 12.9314 13.7322 13.2 13.4008 13.2C13.0694 13.2 12.8008 12.9314 12.8008 12.6C12.8008 12.2686 13.0694 12 13.4008 12C13.7322 12 14.0008 12.2686 14.0008 12.6Z" />
    <path
      fillRule="evenodd"
      clipRule="evenodd"
      d="M10.5 7C9.11929 7 8 8.11929 8 9.5V12.5C8 13.4888 8.57409 14.3436 9.40714 14.7491L8.65625 15.5H10.3533L10.8533 15H13.1565L13.6565 15.5H15.3535L14.5994 14.7459C15.4289 14.3391 16 13.4862 16 12.5V9.5C16 8.11929 14.8807 7 13.5 7H10.5ZM13.5 13.8C14.218 13.8 14.8 13.218 14.8 12.5V11.5999H9.2V12.5C9.2 13.218 9.78203 13.8 10.5 13.8H13.5ZM12.6004 10.3999H14.8V9.5C14.8 8.78203 14.218 8.2 13.5 8.2H12.6004V10.3999ZM11.4004 8.2V10.3999H9.2V9.5C9.2 8.78203 9.78203 8.2 10.5 8.2H11.4004Z"
    />
    <path d="M16 17.5999H8V16.3999H16V17.5999Z" />
    <path
      fillRule="evenodd"
      clipRule="evenodd"
      d="M4 10.4C4 8.15979 4 7.03969 4.43597 6.18404C4.81947 5.43139 5.43139 4.81947 6.18404 4.43597C7.03969 4 8.15979 4 10.4 4H13.6C15.8402 4 16.9603 4 17.816 4.43597C18.5686 4.81947 19.1805 5.43139 19.564 6.18404C20 7.03969 20 8.15979 20 10.4V13.6C20 15.8402 20 16.9603 19.564 17.816C19.1805 18.5686 18.5686 19.1805 17.816 19.564C16.9603 20 15.8402 20 13.6 20H10.4C8.15979 20 7.03969 20 6.18404 19.564C5.43139 19.1805 4.81947 18.5686 4.43597 17.816C4 16.9603 4 15.8402 4 13.6V10.4ZM10.4 5.2H13.6C14.7399 5.2 15.5227 5.20093 16.1295 5.25051C16.7223 5.29895 17.0407 5.38776 17.2712 5.50518C17.798 5.77363 18.2264 6.20197 18.4948 6.72883C18.6122 6.95929 18.7011 7.27773 18.7495 7.87053C18.7991 8.47733 18.8 9.26009 18.8 10.4V13.6C18.8 14.7399 18.7991 15.5227 18.7495 16.1295C18.7011 16.7223 18.6122 17.0407 18.4948 17.2712C18.2264 17.798 17.798 18.2264 17.2712 18.4948C17.0407 18.6122 16.7223 18.7011 16.1295 18.7495C15.5227 18.7991 14.7399 18.8 13.6 18.8H10.4C9.26009 18.8 8.47733 18.7991 7.87053 18.7495C7.27773 18.7011 6.95929 18.6122 6.72883 18.4948C6.20197 18.2264 5.77363 17.798 5.50518 17.2712C5.38776 17.0407 5.29895 16.7223 5.25051 16.1295C5.20093 15.5227 5.2 14.7399 5.2 13.6V10.4C5.2 9.26009 5.20093 8.47733 5.25051 7.87053C5.29895 7.27773 5.38776 6.95929 5.50518 6.72883C5.77363 6.20197 6.20197 5.77363 6.72883 5.50518C6.95929 5.38776 7.27773 5.29895 7.87053 5.25051C8.47733 5.20093 9.26009 5.2 10.4 5.2Z"
    />
</svg>
