<svg width="24" height="24" viewBox="0 0 24 24" fill="currentColor" xmlns="http://www.w3.org/2000/svg">
<path
      fillRule="evenodd"
      clipRule="evenodd"
      d="M11 6.5L7.5 4L4 6.5V11H11V6.5ZM7.5 5.47468L9.8 7.11754V9.8H5.2V7.11754L7.5 5.47468Z"
    />
    <path d="M6 13L7.5 16.75L9 13L11 18H9.60039L9.60039 20H8.40039V18H6.60039V20H5.40039L5.40039 18H4L6 13Z" />
    <path d="M13.4293 6.28821C13.3314 6.23996 13.2031 6.2 13 6.2V5C13.3819 5 13.6923 5.08004 13.9597 5.21179C14.2063 5.33329 14.3986 5.49184 14.5375 5.60643L14.5503 5.61696C14.8223 5.84105 14.9716 5.96 15.33 5.96C15.6892 5.96 15.8415 5.8401 16.1144 5.61616L16.1214 5.61039C16.433 5.35473 16.8652 5 17.66 5C18.4548 5 18.887 5.35473 19.1986 5.61039L19.2056 5.61616C19.4785 5.8401 19.6308 5.96 19.99 5.96V7.16C19.1952 7.16 18.763 6.80527 18.4514 6.54961L18.4444 6.54384C18.1715 6.3199 18.0192 6.2 17.66 6.2C17.3008 6.2 17.1485 6.3199 16.8756 6.54384L16.8686 6.54961C16.557 6.80527 16.1248 7.16 15.33 7.16C14.5357 7.16 14.1057 6.80556 13.7958 6.55013L13.7872 6.54304C13.6358 6.41829 13.5404 6.34295 13.4293 6.28821Z" />
    <path d="M13 9.2C13.2031 9.2 13.3314 9.23996 13.4293 9.28821C13.5404 9.34295 13.6358 9.41829 13.7872 9.54304L13.7958 9.55013C14.1057 9.80556 14.5357 10.16 15.33 10.16C16.1248 10.16 16.557 9.80527 16.8686 9.54961L16.8756 9.54384C17.1485 9.3199 17.3008 9.2 17.66 9.2C18.0192 9.2 18.1715 9.3199 18.4444 9.54384L18.4514 9.54961C18.763 9.80527 19.1952 10.16 19.99 10.16V8.96C19.6308 8.96 19.4785 8.8401 19.2056 8.61616L19.1986 8.61039C18.887 8.35473 18.4548 8 17.66 8C16.8652 8 16.433 8.35473 16.1214 8.61039L16.1144 8.61616C15.8415 8.8401 15.6892 8.96 15.33 8.96C14.9716 8.96 14.8223 8.84105 14.5503 8.61696L14.5375 8.60643C14.3986 8.49184 14.2063 8.33329 13.9597 8.21179C13.6923 8.08004 13.3819 8 13 8V9.2Z" />
    <path d="M14.1996 18V20H12.9996V18H14.1996Z" />
    <path d="M17.6 20V18H16.4V20H17.6Z" />
    <path d="M16.1996 13V13.5C16.1996 14.3814 15.481 15.1 14.5996 15.1C14.381 15.1 14.1996 15.2814 14.1996 15.5V17H12.9996V15.5C12.9996 14.6186 13.7182 13.9 14.5996 13.9C14.8182 13.9 14.9996 13.7186 14.9996 13.5V13H16.1996Z" />
    <path d="M19.6 13.5V13H18.4V13.5C18.4 13.7186 18.2186 13.9 18 13.9C17.1186 13.9 16.4 14.6186 16.4 15.5V17H17.6V15.5C17.6 15.2814 17.7814 15.1 18 15.1C18.8814 15.1 19.6 14.3814 19.6 13.5Z" />
</svg>
