<svg width="24" height="24" viewBox="0 0 24 24" fill="currentColor" xmlns="http://www.w3.org/2000/svg">
<path
    fillRule="evenodd"
    clipRule="evenodd"
    d="M21.5107 9.3999H22V10.5999H15V9.3999H15.4899L15.8641 4.90855C15.8836 4.6748 15.9752 4.46317 16.116 4.29481C16.1778 4.22091 16.249 4.15534 16.3278 4.0999C16.5073 3.97362 16.7258 3.8999 16.9603 3.8999H20.0402C20.2748 3.8999 20.4933 3.97362 20.6727 4.0999C20.7515 4.15534 20.8228 4.22091 20.8846 4.29481C21.0253 4.46317 21.1169 4.6748 21.1364 4.90855L21.5107 9.3999ZM16.694 9.3999L17.0524 5.0999H19.9482L20.3065 9.3999H16.694ZM18.0634 8.3999C18.1953 8.46403 18.3435 8.5 18.5 8.5C18.6565 8.5 18.8047 8.46403 18.9366 8.3999C19.036 8.35157 19.1263 8.28725 19.2039 8.21028C19.3868 8.02907 19.5 7.77776 19.5 7.5C19.5 7.16246 19.3328 6.86399 19.0766 6.6829C18.9137 6.56769 18.7147 6.5 18.5 6.5C18.2855 6.5 18.0868 6.56753 17.9239 6.6825C17.6675 6.86354 17.5 7.16221 17.5 7.5C17.5 7.77801 17.6134 8.02953 17.7966 8.21077C17.8741 8.28752 17.9642 8.35168 18.0634 8.3999ZM6.10039 5H4.90039V19H6.10039V5ZM12.6004 8H11.4004V5H12.6004V8ZM12.6004 19H11.4004V16H12.6004V19ZM11.4004 10.5H12.6004V13.5H11.4004V10.5ZM17.9004 12H19.1004V19H17.9004V12Z"
  />
</svg>
