<svg width="12" height="12" viewBox="0 0 12 12" fill="none" xmlns="http://www.w3.org/2000/svg">
<g id="Icon/regular">
<path id="Vector" d="M2.99998 10.125C2.95074 10.125 2.90197 10.1153 2.85648 10.0965C2.81098 10.0776 2.76964 10.05 2.73482 10.0152C2.7 9.98035 2.67237 9.93901 2.65353 9.89351C2.63468 9.84802 2.62498 9.79925 2.62498 9.75001L2.62501 7.74869C2.42496 7.84344 2.20419 7.88606 1.98325 7.87257C1.76231 7.85909 1.54836 7.78995 1.36132 7.67157C1.17427 7.5532 1.02021 7.38944 0.913445 7.19553C0.806686 7.00163 0.750702 6.78387 0.750702 6.56251C0.750702 6.34116 0.806686 6.1234 0.913445 5.92949C1.02021 5.73558 1.17427 5.57182 1.36132 5.45345C1.54836 5.33508 1.76231 5.26593 1.98325 5.25245C2.20419 5.23897 2.42496 5.28158 2.62501 5.37633L2.62499 3.37502C2.62499 3.32577 2.63468 3.277 2.65353 3.23151C2.67238 3.18601 2.7 3.14467 2.73482 3.10985C2.76964 3.07502 2.81098 3.0474 2.85648 3.02856C2.90198 3.00971 2.95074 3.00001 2.99999 3.00001L5.1888 3.00004C5.09405 2.79999 5.05143 2.57922 5.06492 2.35828C5.0784 2.13733 5.14755 1.92339 5.26592 1.73635C5.38429 1.5493 5.54805 1.39524 5.74196 1.28848C5.93586 1.18172 6.15362 1.12573 6.37498 1.12573C6.59633 1.12573 6.81409 1.18172 7.008 1.28848C7.20191 1.39524 7.36566 1.5493 7.48403 1.73635C7.60241 1.92339 7.67155 2.13733 7.68504 2.35828C7.69852 2.57922 7.65591 2.79999 7.56116 3.00004L9.74996 3.00001C9.84942 3.00001 9.9448 3.03952 10.0151 3.10984C10.0855 3.18017 10.125 3.27555 10.125 3.37501L10.125 5.37633C9.92494 5.28158 9.70417 5.23896 9.48323 5.25245C9.26229 5.26593 9.04834 5.33508 8.8613 5.45345C8.67425 5.57182 8.52019 5.73558 8.41343 5.92949C8.30667 6.1234 8.25068 6.34116 8.25068 6.56251C8.25068 6.78387 8.30667 7.00162 8.41343 7.19553C8.52019 7.38944 8.67425 7.5532 8.8613 7.67157C9.04834 7.78995 9.26229 7.85909 9.48323 7.87257C9.70417 7.88606 9.92494 7.84344 10.125 7.74869L10.125 9.75002C10.125 9.84947 10.0855 9.94485 10.0151 10.0152C9.9448 10.0855 9.84942 10.125 9.74997 10.125L2.99998 10.125Z" stroke="currentColor" stroke-linecap="round" stroke-linejoin="round"/>
</g>
</svg>
