<svg width="16" height="16" viewBox="0 0 16 16" fill="none" xmlns="http://www.w3.org/2000/svg">
<path d="M14.8414 6.51663C14.8263 6.44713 14.7965 6.38165 14.7541 6.32456C14.7117 6.26748 14.6576 6.22009 14.5954 6.18557L13.1094 5.36065C13.0272 5.20123 12.9373 5.04525 12.8407 4.89434L12.8693 3.19357C12.8705 3.12243 12.8565 3.05186 12.8282 2.98657C12.8 2.92127 12.7581 2.86276 12.7054 2.81494C11.9656 2.14204 11.0892 1.63683 10.1361 1.33386C10.0684 1.31218 9.9968 1.30521 9.92616 1.31339C9.85551 1.32157 9.78743 1.34473 9.72644 1.38131L8.26904 2.25579C8.08975 2.24725 7.90967 2.2471 7.73084 2.25537L6.27222 1.38015C6.21121 1.34355 6.14309 1.32039 6.07241 1.31221C6.00173 1.30404 5.93013 1.31103 5.86237 1.33273C4.90971 1.63704 4.03399 2.14344 3.29504 2.81732C3.2424 2.86514 3.20057 2.92364 3.17234 2.98892C3.1441 3.0542 3.13012 3.12475 3.13132 3.19586L3.15991 4.89523C3.06299 5.04614 2.97281 5.20202 2.89044 5.36111L1.4032 6.18674C1.341 6.22127 1.28688 6.26867 1.24446 6.32579C1.20204 6.38291 1.1723 6.44841 1.15723 6.51794C0.944391 7.49512 0.945078 8.50673 1.15924 9.48361C1.17434 9.55311 1.20409 9.61859 1.24651 9.67568C1.28893 9.73276 1.34303 9.78015 1.40521 9.81467L2.89121 10.6396C2.97345 10.799 3.06332 10.955 3.15994 11.1059L3.13132 12.8067C3.13012 12.8778 3.14412 12.9484 3.17237 13.0137C3.20063 13.079 3.24249 13.1375 3.29517 13.1853C4.03501 13.8582 4.91142 14.3634 5.8645 14.6664C5.93223 14.6881 6.00381 14.695 6.07445 14.6868C6.1451 14.6787 6.21318 14.6555 6.27417 14.6189L7.73157 13.7444C7.91083 13.753 8.09088 13.7531 8.26977 13.7449L9.72839 14.6201C9.7894 14.6567 9.85752 14.6798 9.9282 14.688C9.99888 14.6962 10.0705 14.6892 10.1382 14.6675C11.0909 14.3632 11.9666 13.8568 12.7056 13.1829C12.7582 13.1351 12.8 13.0766 12.8283 13.0113C12.8565 12.946 12.8705 12.8755 12.8693 12.8044L12.8407 11.105C12.9376 10.9541 13.0278 10.7982 13.1102 10.6391L14.5974 9.8135C14.6596 9.77897 14.7137 9.73156 14.7561 9.67445C14.7986 9.61733 14.8283 9.55182 14.8434 9.48229C15.0562 8.50512 15.0555 7.49351 14.8414 6.51663ZM10.7503 8.00012C10.7503 8.54402 10.589 9.0757 10.2868 9.52794C9.98468 9.98018 9.55518 10.3326 9.05269 10.5408C8.55019 10.7489 7.99726 10.8034 7.46381 10.6973C6.93036 10.5912 6.44036 10.3293 6.05576 9.94466C5.67117 9.56007 5.40926 9.07007 5.30315 8.53662C5.19704 8.00317 5.2515 7.45024 5.45964 6.94774C5.66778 6.44524 6.02025 6.01575 6.47249 5.71358C6.92472 5.41141 7.45641 5.25012 8.00031 5.25012C8.7294 5.25094 9.4284 5.54094 9.94394 6.05649C10.4595 6.57203 10.7495 7.27103 10.7503 8.00012Z" fill="currentColor"/>
</svg>
