<svg width="16" height="16" viewBox="0 0 16 16" fill="none" xmlns="http://www.w3.org/2000/svg">
<path d="M13.5 3H2.5C2.22386 3 2 3.22386 2 3.5V12.5C2 12.7761 2.22386 13 2.5 13H13.5C13.7761 13 14 12.7761 14 12.5V3.5C14 3.22386 13.7761 3 13.5 3Z" stroke="currentColor" stroke-linecap="round" stroke-linejoin="round"/>
<path d="M4.25 9C3.83579 9 3.5 9.33579 3.5 9.75C3.5 10.1642 3.83579 10.5 4.25 10.5C4.66421 10.5 5 10.1642 5 9.75C5 9.33579 4.66421 9 4.25 9Z" fill="currentColor"/>
<path d="M4.25 5.5C3.83579 5.5 3.5 5.83579 3.5 6.25C3.5 6.66421 3.83579 7 4.25 7C4.66421 7 5 6.66421 5 6.25C5 5.83579 4.66421 5.5 4.25 5.5Z" fill="currentColor"/>
<path d="M6.5 3.5L6.5 12.5" stroke="currentColor" stroke-linecap="round" stroke-linejoin="round"/>
</svg>
