<svg width="16" height="16" viewBox="0 0 16 16" fill="none" xmlns="http://www.w3.org/2000/svg">
<path d="M12.1484 12.2774L15 8L12.1484 3.72265C12.1028 3.65416 12.0409 3.59801 11.9683 3.55917C11.8958 3.52033 11.8147 3.5 11.7324 3.5H2.5C2.36739 3.5 2.24021 3.55268 2.14645 3.64645C2.05268 3.74022 2 3.8674 2 4V12C2 12.1326 2.05268 12.2598 2.14645 12.3536C2.24021 12.4473 2.36739 12.5 2.5 12.5H11.7324C11.8147 12.5 11.8958 12.4797 11.9683 12.4408C12.0409 12.402 12.1028 12.3458 12.1484 12.2774V12.2774Z" stroke="currentColor" stroke-linecap="round" stroke-linejoin="round"/>
</svg>
