<svg width="16" height="16" viewBox="0 0 16 16" fill="none" xmlns="http://www.w3.org/2000/svg">
<g clip-path="url(#clip0_2756_20909)">
<path d="M15.3333 6.66667V10.9966L8.04445 15.3333L0.666672 10.9966V6.66667" stroke="currentColor"/>
<path d="M4.80572 7.37231C5.04567 7.34088 5.61554 7.24028 5.97546 7.08938C6.42535 6.90074 6.96523 6.90076 7.41513 7.56093C7.86503 8.2211 7.59509 8.31541 8.22494 8.50403C8.8548 8.69265 9.21472 8.88127 9.3047 9.44713M0.666662 6.70901C0.909017 6.32063 1.35051 6.25944 1.56646 5.95764C1.8364 5.5804 1.8364 4.73161 2.46625 4.35437C3.09611 3.97713 3.72597 4.16575 3.99591 3.6942C4.26584 3.22265 4.53578 1.43076 5.3456 1.33645C6.15541 1.24214 6.60531 3.31696 6.87525 3.50558C7.14519 3.6942 8.13496 4.26009 8.49488 3.97715C8.8548 3.6942 8.94478 2.75111 10.1145 2.6568C10.3845 2.6568 10.5644 2.09094 10.8344 2.09094C11.1043 2.09094 11.2842 2.37387 11.8241 3.12835C12.364 3.88284 12.274 4.35439 12.9939 4.82594C13.7137 5.29749 14.1636 5.48611 14.6135 5.86335C14.9734 6.16514 15.2428 6.28704 15.3333 6.71214C15.5032 7.5103 13.7137 8.03248 13.7137 8.03248C13.7137 8.03248 13.1085 8.43199 12.7239 8.69265C11.9787 9.19768 11.8241 10.013 10.8344 10.013C9.84458 10.013 8.13496 11.3333 8.13496 11.3333C7.74505 11.2076 6.85725 10.975 6.42535 11.0504C5.88548 11.1447 5.88548 10.7675 5.52556 10.2959C5.16564 9.82437 3.72597 8.88127 3.72597 8.88127C3.72597 8.88127 -0.10905 7.95211 0.666662 6.70901Z" stroke="currentColor" stroke-linecap="round"/>
</g>
<defs>
<clipPath id="clip0_2756_20909">
<rect width="16" height="16" fill="white"/>
</clipPath>
</defs>
</svg>
