<svg width="16" height="16" viewBox="0 0 16 16" fill="none" xmlns="http://www.w3.org/2000/svg">
<path fill-rule="evenodd" clip-rule="evenodd" d="M10.6667 14C8.08934 14 6 11.9107 6 9.33333C6 6.756 8.08934 4.66666 10.6667 4.66666C13.244 4.66666 15.3333 6.756 15.3333 9.33333C15.3333 11.9107 13.244 14 10.6667 14ZM10.6667 12.8333C12.5997 12.8333 14.1667 11.2663 14.1667 9.33333C14.1667 7.40033 12.5997 5.83333 10.6667 5.83333C8.73367 5.83333 7.16667 7.40033 7.16667 9.33333C7.16667 11.2663 8.73367 12.8333 10.6667 12.8333ZM10.6667 7C10.9888 7 11.25 7.26116 11.25 7.58333V9.09171L11.9541 9.79585C12.182 10.0237 12.182 10.393 11.9541 10.6208C11.7263 10.8486 11.357 10.8486 11.1292 10.6208L10.2542 9.74581C10.1448 9.63641 10.0833 9.48804 10.0833 9.33333V7.58333C10.0833 7.26116 10.3445 7 10.6667 7Z" fill="currentColor"/>
<path d="M3.33333 3.33333L3.33333 13.6667C3.33333 14.0349 3.63181 14.3333 3.99999 14.3333C4.36818 14.3333 4.66666 14.0349 4.66666 13.6667V3.33333C4.66666 2.96514 4.36818 2.66666 3.99999 2.66666C3.63181 2.66666 3.33333 2.96514 3.33333 3.33333Z" fill="currentColor"/>
<path d="M6.19527 5.13807C6.45562 5.39842 6.87773 5.39842 7.13808 5.13807C7.39843 4.87772 7.39843 4.45561 7.13808 4.19526L4.47141 1.5286C4.21106 1.26825 3.78895 1.26825 3.5286 1.5286L0.861934 4.19526C0.601584 4.45561 0.601584 4.87772 0.861934 5.13807C1.12228 5.39842 1.54439 5.39842 1.80474 5.13807L4.00001 2.94281L6.19527 5.13807Z" fill="currentColor"/>
</svg>
