<svg xmlns="http://www.w3.org/2000/svg" width="16" height="16" viewBox="0 0 16 16" fill="none">
  <path d="M5.50002 10C7.29494 10 8.75002 8.54493 8.75002 6.75C8.75002 4.95507 7.29494 3.5 5.50002 3.5C3.70509 3.5 2.25002 4.95507 2.25002 6.75C2.25002 8.54493 3.70509 10 5.50002 10Z" stroke="currentColor" stroke-miterlimit="10"/>
  <path d="M9.71329 3.62106C10.1603 3.49512 10.6291 3.46643 11.0881 3.53692C11.5472 3.60742 11.9858 3.77546 12.3744 4.02974C12.763 4.28402 13.0926 4.61862 13.3411 5.01101C13.5895 5.40341 13.7509 5.84448 13.8145 6.30452C13.8781 6.76456 13.8424 7.23289 13.7097 7.67796C13.5771 8.12303 13.3506 8.53451 13.0456 8.88468C12.7405 9.23486 12.364 9.51559 11.9413 9.70798C11.5186 9.90037 11.0596 9.99995 10.5951 10" stroke="currentColor" stroke-linecap="round" stroke-linejoin="round"/>
  <path d="M0.999756 12.3373C1.50734 11.6153 2.18119 11.026 2.96441 10.6192C3.74764 10.2124 4.61724 10 5.49981 10C6.38238 9.99997 7.252 10.2123 8.03525 10.619C8.81851 11.0258 9.4924 11.615 10 12.337" stroke="currentColor" stroke-linecap="round" stroke-linejoin="round"/>
  <path d="M10.5951 10C11.4778 9.99936 12.3476 10.2114 13.1309 10.6182C13.9142 11.025 14.588 11.6146 15.0951 12.337" stroke="currentColor" stroke-linecap="round" stroke-linejoin="round"/>
</svg>