<svg width="16" height="16" viewBox="0 0 16 16" fill="none" xmlns="http://www.w3.org/2000/svg">
<path d="M8 6.5V9" stroke="currentColor" stroke-linecap="round" stroke-linejoin="round"/>
<path d="M7.13453 2.49904L1.63601 11.9986C1.54803 12.1506 1.50163 12.3231 1.50148 12.4987C1.50134 12.6743 1.54745 12.8469 1.63518 12.999C1.72291 13.1512 1.84917 13.2776 2.00125 13.3654C2.15332 13.4533 2.32586 13.4995 2.50149 13.4995H13.4985C13.6741 13.4995 13.8467 13.4533 13.9988 13.3654C14.1508 13.2776 14.2771 13.1512 14.3648 12.999C14.4526 12.8469 14.4987 12.6743 14.4985 12.4987C14.4984 12.3231 14.452 12.1506 14.364 11.9986L8.86547 2.49904C8.77763 2.34728 8.65143 2.22129 8.49952 2.1337C8.34762 2.04611 8.17535 2 8 2C7.82465 2 7.65238 2.04611 7.50048 2.1337C7.34857 2.22129 7.22237 2.34728 7.13453 2.49904V2.49904Z" stroke="currentColor" stroke-linecap="round" stroke-linejoin="round"/>
<path d="M8 12C8.41421 12 8.75 11.6642 8.75 11.25C8.75 10.8358 8.41421 10.5 8 10.5C7.58579 10.5 7.25 10.8358 7.25 11.25C7.25 11.6642 7.58579 12 8 12Z" fill="currentColor"/>
</svg>
