<svg width="24" height="24" viewBox="0 0 24 24" fill="none" xmlns="http://www.w3.org/2000/svg">
<path d="M14 2C14 1.44772 13.5523 1 13 1C12.4477 1 12 1.44772 12 2V9C12 9.55229 12.4477 10 13 10H20C20.5523 10 21 9.55229 21 9C21 8.44772 20.5523 8 20 8H14V2Z" fill="white"/>
<path fill-rule="evenodd" clip-rule="evenodd" d="M13 1C13.2652 1 13.5196 1.10536 13.7071 1.29289L20.7071 8.29289C20.8946 8.48043 21 8.73478 21 9V20C21 21.6569 19.6569 23 18 23H6C4.34315 23 3 21.6569 3 20V19.9C3.32311 19.9656 3.65753 20 4 20C4.34247 20 4.67689 19.9656 5 19.9V20C5 20.5523 5.44772 21 6 21H18C18.5523 21 19 20.5523 19 20V9.41421L12.5858 3H6C5.44772 3 5 3.44772 5 4V10.1C4.67689 10.0344 4.34247 10 4 10C3.65753 10 3.32311 10.0344 3 10.1V4C3 2.34315 4.34315 1 6 1H13Z" fill="white"/>
<rect y="14" width="8" height="2" rx="1" fill="white"/>
<rect x="5" y="11" width="8" height="2" rx="1" transform="rotate(90 5 11)" fill="white"/>
</svg>
