<svg width="24" height="24" viewBox="0 0 24 24" fill="none" xmlns="http://www.w3.org/2000/svg">
<path fill-rule="evenodd" clip-rule="evenodd" d="M12.447 2C11.3984 2 10.4259 2.54754 9.87916 3.44887L1.40916 17.5889C0.867998 18.5258 0.864815 19.6624 1.39267 20.5885C1.92053 21.5145 2.90015 22.091 3.96604 22.1027L20.917 22.1027C21.9939 22.091 22.9735 21.5145 23.5014 20.5885C24.0292 19.6624 24.0261 18.5258 23.493 17.6027L15.0149 3.44887C14.4682 2.54754 13.4957 2 12.447 2ZM3.13024 19.5981C2.95429 19.2894 2.95535 18.9105 3.13303 18.6028L11.5932 4.47941C11.7747 4.18171 12.0983 4 12.447 4C12.7966 4 13.1208 4.18251 13.302 4.48137L21.7692 18.6166C21.9387 18.9105 21.9398 19.2894 21.7638 19.5981C21.5879 19.9068 21.2613 20.0989 20.906 20.1028L3.97704 20.1027C3.63273 20.0989 3.30619 19.9068 3.13024 19.5981ZM11.447 9.10259V13.1026C11.447 13.6549 11.8947 14.1026 12.447 14.1026C12.9993 14.1026 13.447 13.6549 13.447 13.1026V9.10259C13.447 8.55031 12.9993 8.10259 12.447 8.10259C11.8947 8.10259 11.447 8.55031 11.447 9.10259ZM13.1541 15.3955C13.5447 15.786 13.5447 16.4192 13.1541 16.8097C12.7636 17.2002 12.1304 17.2002 11.7399 16.8097C11.3494 16.4192 11.3494 15.786 11.7399 15.3955C12.1304 15.005 12.7636 15.005 13.1541 15.3955Z" fill="currentColor"/>
</svg>
