<svg width="84" height="84" viewBox="0 0 84 84" fill="none" xmlns="http://www.w3.org/2000/svg">
<path d="M25.591 42.659C24.7123 41.7803 23.2877 41.7803 22.409 42.659C21.5303 43.5377 21.5303 44.9623 22.409 45.841L33.659 57.091C34.5377 57.9697 35.9623 57.9697 36.841 57.091L61.591 32.341C62.4697 31.4623 62.4697 30.0377 61.591 29.159C60.7123 28.2803 59.2877 28.2803 58.409 29.159L35.25 52.318L25.591 42.659Z" fill="currentColor"/>
<path fill-rule="evenodd" clip-rule="evenodd" d="M42 81C63.5391 81 81 63.5391 81 42C81 20.4609 63.5391 3 42 3C20.4609 3 3 20.4609 3 42C3 63.5391 20.4609 81 42 81ZM42 84C65.196 84 84 65.196 84 42C84 18.804 65.196 0 42 0C18.804 0 0 18.804 0 42C0 65.196 18.804 84 42 84Z" fill="currentColor"/>
</svg>
