<svg width="24" height="24" viewBox="0 0 24 24" fill="none" xmlns="http://www.w3.org/2000/svg">
<path fill-rule="evenodd" clip-rule="evenodd" d="M6.5 16.75C4.98122 16.75 3.75 17.9812 3.75 19.5C3.75 21.0188 4.98122 22.25 6.5 22.25C8.01878 22.25 9.25 21.0188 9.25 19.5C9.25 17.9812 8.01878 16.75 6.5 16.75ZM2.25 19.5C2.25 17.1528 4.15279 15.25 6.5 15.25C8.84721 15.25 10.75 17.1528 10.75 19.5C10.75 21.8472 8.84721 23.75 6.5 23.75C4.15279 23.75 2.25 21.8472 2.25 19.5Z" fill="currentColor"/>
<path fill-rule="evenodd" clip-rule="evenodd" d="M19.5 8.75C17.9812 8.75 16.75 9.98122 16.75 11.5C16.75 13.0188 17.9812 14.25 19.5 14.25C21.0188 14.25 22.25 13.0188 22.25 11.5C22.25 9.98122 21.0188 8.75 19.5 8.75ZM15.25 11.5C15.25 9.15279 17.1528 7.25 19.5 7.25C21.8472 7.25 23.75 9.15279 23.75 11.5C23.75 13.8472 21.8472 15.75 19.5 15.75C17.1528 15.75 15.25 13.8472 15.25 11.5Z" fill="currentColor"/>
<path fill-rule="evenodd" clip-rule="evenodd" d="M4.5 1.75C2.98122 1.75 1.75 2.98122 1.75 4.5C1.75 6.01878 2.98122 7.25 4.5 7.25C6.01878 7.25 7.25 6.01878 7.25 4.5C7.25 2.98122 6.01878 1.75 4.5 1.75ZM0.25 4.5C0.25 2.15279 2.15279 0.25 4.5 0.25C6.84721 0.25 8.75 2.15279 8.75 4.5C8.75 6.84721 6.84721 8.75 4.5 8.75C2.15279 8.75 0.25 6.84721 0.25 4.5Z" fill="currentColor"/>
<path fill-rule="evenodd" clip-rule="evenodd" d="M10.0664 12.0786L6.43945 7.99827L7.56057 7.00172L11.3063 11.2156L15.9254 10.7537L16.0746 12.2463L11.4409 12.7096L9.13601 16.3975L7.86401 15.6025L10.0664 12.0786Z" fill="currentColor"/>
</svg>
