<svg width="24" height="24" viewBox="0 0 24 24" fill="none" xmlns="http://www.w3.org/2000/svg">
<path fill-rule="evenodd" clip-rule="evenodd" d="M7 15C7 14.4477 6.55228 14 6 14C5.44772 14 5 14.4477 5 15V17H3C2.44772 17 2 17.4477 2 18C2 18.5523 2.44772 19 3 19H5V21C5 21.5523 5.44772 22 6 22C6.55228 22 7 21.5523 7 21V19H9C9.55228 19 10 18.5523 10 18C10 17.4477 9.55228 17 9 17H7V15Z" fill="currentColor"/>
<path fill-rule="evenodd" clip-rule="evenodd" d="M6.00305 4.98471C5.99998 4.99479 6 4.99905 6 4.99994L6 5L6 5.00006L6 5.00027C6.00001 5.00151 6.00018 5.00584 6.00305 5.01529C6.00645 5.02644 6.01483 5.04845 6.03507 5.08143C6.07752 5.15057 6.16408 5.25453 6.32624 5.38232C6.65642 5.64253 7.19616 5.9206 7.95227 6.17264C9.45402 6.67322 11.5923 7 14 7C16.4077 7 18.546 6.67322 20.0477 6.17264C20.8038 5.9206 21.3436 5.64253 21.6738 5.38232C21.8359 5.25453 21.9225 5.15057 21.9649 5.08143C21.9852 5.04845 21.9935 5.02644 21.9969 5.01529C21.9999 5.00571 22 5.00139 22 5.00022V5.00006V5V4.99994C22 4.99905 22 4.99479 21.9969 4.98471C21.9935 4.97356 21.9852 4.95155 21.9649 4.91857C21.9225 4.84943 21.8359 4.74547 21.6738 4.61768C21.3436 4.35747 20.8038 4.0794 20.0477 3.82736C18.546 3.32678 16.4077 3 14 3C11.5923 3 9.45402 3.32678 7.95227 3.82736C7.19616 4.0794 6.65642 4.35747 6.32624 4.61768C6.16408 4.74547 6.07752 4.84943 6.03507 4.91857C6.01483 4.95155 6.00645 4.97356 6.00305 4.98471ZM22 7.5266C21.5988 7.73177 21.1533 7.91229 20.6802 8.07C18.9246 8.6552 16.5629 9 14 9C11.4371 9 9.07541 8.6552 7.31981 8.07C6.84666 7.91229 6.40123 7.73177 6 7.5266V12C5.29873 12 4.62556 12.1203 4 12.3414V12V5C4 4.14805 4.51889 3.49559 5.08829 3.04685C5.66896 2.58923 6.44724 2.22085 7.31981 1.93C9.07541 1.3448 11.4371 1 14 1C16.5629 1 18.9246 1.3448 20.6802 1.93C21.5528 2.22085 22.331 2.58923 22.9117 3.04685C23.4811 3.49559 24 4.14805 24 5V12V19C24 19.8494 23.4868 20.502 22.9179 20.9528C22.3391 21.4115 21.5629 21.7802 20.6917 22.071C18.9389 22.6562 16.5768 23 14 23C12.4904 23 11.0545 22.882 9.77163 22.6666C10.3853 22.17 10.899 21.5549 11.2779 20.8561C12.1259 20.9489 13.0406 21 14 21C16.4232 21 18.5611 20.6738 20.0583 20.174C20.8121 19.9223 21.3484 19.6447 21.6758 19.3853C21.8365 19.258 21.9223 19.1543 21.9644 19.0851C21.9846 19.0521 21.993 19.0298 21.9966 19.018C21.9999 19.007 22 19.0019 22 19V14.5318C21.6021 14.7354 21.1606 14.9145 20.6917 15.071C18.9389 15.6562 16.5768 16 14 16C13.1814 16 12.3845 15.9653 11.6219 15.8992C11.3103 15.0656 10.8185 14.3198 10.194 13.7093C11.3255 13.8936 12.6162 14 14 14C16.4232 14 18.5611 13.6738 20.0583 13.174C20.8121 12.9223 21.3484 12.6447 21.6758 12.3853C21.8365 12.258 21.9223 12.1543 21.9644 12.0851C21.9846 12.0521 21.993 12.0298 21.9966 12.018C21.9999 12.007 22 12.0019 22 12V7.5266ZM16 11C16 10.4477 16.4477 10 17 10C17.5523 10 18 10.4477 18 11V12C18 12.5523 17.5523 13 17 13C16.4477 13 16 12.5523 16 12V11Z" fill="currentColor"/>
</svg>
