<svg width="16" height="16" viewBox="0 0 16 16" fill="none" xmlns="http://www.w3.org/2000/svg">
<path fill-rule="evenodd" clip-rule="evenodd" d="M7.3335 9.05728V1.33341C7.3335 0.965225 7.63197 0.666748 8.00016 0.666748C8.36835 0.666748 8.66683 0.965225 8.66683 1.33341V9.05728L10.1954 7.52868C10.4558 7.26833 10.8779 7.26833 11.1382 7.52868C11.3986 7.78903 11.3986 8.21114 11.1382 8.47149L8.47157 11.1382C8.21122 11.3985 7.78911 11.3985 7.52876 11.1382L4.86209 8.47149C4.60174 8.21114 4.60174 7.78903 4.86209 7.52868C5.12244 7.26833 5.54455 7.26833 5.8049 7.52868L7.3335 9.05728ZM1.3335 11.3334V13.3334C1.3335 14.438 2.22893 15.3334 3.3335 15.3334H12.6668C13.7714 15.3334 14.6668 14.438 14.6668 13.3334V11.3334C14.6668 10.9652 14.3684 10.6667 14.0002 10.6667C13.632 10.6667 13.3335 10.9652 13.3335 11.3334V13.3334C13.3335 13.7016 13.035 14.0001 12.6668 14.0001H3.3335C2.96531 14.0001 2.66683 13.7016 2.66683 13.3334V11.3334C2.66683 10.9652 2.36835 10.6667 2.00016 10.6667C1.63197 10.6667 1.3335 10.9652 1.3335 11.3334Z" fill="#C7C5C5"/>
</svg>
