<svg width="24" height="24" viewBox="0 0 24 24" fill="none" xmlns="http://www.w3.org/2000/svg">
<path fill-rule="evenodd" clip-rule="evenodd" d="M8.05249 8.8024C8.34539 8.50951 8.82026 8.50951 9.11315 8.8024L15.4771 15.1664C15.77 15.4593 15.77 15.9341 15.4771 16.227C15.1842 16.5199 14.7093 16.5199 14.4165 16.227L8.05249 9.86306C7.7596 9.57017 7.7596 9.0953 8.05249 8.8024Z" fill="currentColor"/>
<path fill-rule="evenodd" clip-rule="evenodd" d="M14.9468 4.34009C14.7479 4.34009 14.5571 4.41911 14.4165 4.55976L3.80988 15.1664C3.74024 15.236 3.68499 15.3187 3.6473 15.4097C3.60961 15.5007 3.59021 15.5982 3.59021 15.6967C3.59021 15.7952 3.60961 15.8927 3.6473 15.9837C3.68499 16.0747 3.74024 16.1574 3.80988 16.227L7.06724 19.4844H10.0985L19.7198 9.86306C19.7894 9.79342 19.8447 9.71074 19.8824 9.61974C19.9201 9.52875 19.9395 9.43122 19.9395 9.33273C19.9395 9.23424 19.9201 9.13671 19.8824 9.04572C19.8447 8.95472 19.7894 8.87204 19.7198 8.8024L15.4771 4.55976C15.3365 4.41911 15.1457 4.34009 14.9468 4.34009ZM12.2198 19.4844L20.7804 10.9237C20.9894 10.7148 21.1551 10.4667 21.2682 10.1938C21.3813 9.92078 21.4395 9.6282 21.4395 9.33273C21.4395 9.03725 21.3813 8.74467 21.2682 8.47169C21.1551 8.19871 20.9894 7.95067 20.7804 7.74174L16.5378 3.4991C16.1158 3.07714 15.5435 2.84009 14.9468 2.84009C14.3501 2.84009 13.7778 3.07714 13.3558 3.4991L2.74922 14.1057C2.54029 14.3146 2.37455 14.5627 2.26148 14.8357C2.14841 15.1086 2.09021 15.4012 2.09021 15.6967C2.09021 15.9922 2.14841 16.2847 2.26148 16.5577C2.37455 16.8307 2.54029 17.0787 2.74922 17.2877L6.22625 20.7647C6.36691 20.9054 6.55767 20.9844 6.75658 20.9844H20.2501C20.6643 20.9844 21.0001 20.6486 21.0001 20.2344C21.0001 19.8202 20.6643 19.4844 20.2501 19.4844H12.2198Z" fill="currentColor"/>
</svg>
