<svg width="24" height="24" viewBox="0 0 24 24" fill="none" xmlns="http://www.w3.org/2000/svg">
<path fill-rule="evenodd" clip-rule="evenodd" d="M16 16C12.134 16 9 12.866 9 9C9 5.13401 12.134 2 16 2C19.866 2 23 5.13401 23 9C23 12.866 19.866 16 16 16ZM16 14.25C18.8995 14.25 21.25 11.8995 21.25 9C21.25 6.1005 18.8995 3.75 16 3.75C13.1005 3.75 10.75 6.1005 10.75 9C10.75 11.8995 13.1005 14.25 16 14.25ZM16 5.5C16.4832 5.5 16.875 5.89175 16.875 6.375V8.63756L17.9312 9.69378C18.2729 10.0355 18.2729 10.5895 17.9312 10.9312C17.5895 11.2729 17.0355 11.2729 16.6938 10.9312L15.3813 9.61872C15.2172 9.45462 15.125 9.23207 15.125 9V6.375C15.125 5.89175 15.5168 5.5 16 5.5Z" fill="currentColor"/>
<path d="M7 18.5L7 3C7 2.44772 6.55229 2 6 2C5.44772 2 5 2.44772 5 3L5 18.5C5 19.0523 5.44772 19.5 6 19.5C6.55228 19.5 7 19.0523 7 18.5Z" fill="currentColor"/>
<path d="M2.70711 15.7929C2.31658 15.4024 1.68342 15.4024 1.29289 15.7929C0.90237 16.1834 0.90237 16.8166 1.29289 17.2071L5.29289 21.2071C5.68342 21.5976 6.31658 21.5976 6.70711 21.2071L10.7071 17.2071C11.0976 16.8166 11.0976 16.1834 10.7071 15.7929C10.3166 15.4024 9.68342 15.4024 9.29289 15.7929L6 19.0858L2.70711 15.7929Z" fill="currentColor"/>
</svg>
