<svg width="24" height="24" viewBox="0 0 24 24" fill="none" xmlns="http://www.w3.org/2000/svg">
<path d="M4.70711 15.2928C4.31658 14.9023 3.68342 14.9023 3.29289 15.2928C2.90237 15.6834 2.90237 16.3165 3.29289 16.707L7.29289 20.707C7.68342 21.0976 8.31658 21.0976 8.70711 20.707L12.7071 16.707C13.0976 16.3165 13.0976 15.6834 12.7071 15.2928C12.3166 14.9023 11.6834 14.9023 11.2929 15.2928L8 18.5857L4.70711 15.2928Z" fill="currentColor"/>
<path d="M7 4.06244L7 18.9374C7 19.5242 7.44771 19.9999 8 19.9999C8.55228 19.9999 9 19.5242 9 18.9374L9 4.06244C9 3.47564 8.55228 2.99994 8 2.99994C7.44772 2.99994 7 3.47564 7 4.06244Z" fill="currentColor"/>
<path fill-rule="evenodd" clip-rule="evenodd" d="M16 3C16.5523 3 17 3.44772 17 4V9H21C21.5523 9 22 9.44772 22 10C22 10.5523 21.5523 11 21 11H16C15.4477 11 15 10.5523 15 10V4C15 3.44772 15.4477 3 16 3Z" fill="currentColor"/>
<path d="M22 18.3957C22 17.5276 21.4167 16.624 20.0287 15.9685C19.4253 15.685 18.5201 15.3307 17.9971 15.1004C17.5345 14.9055 17.3333 14.5866 17.3333 14.3209C17.3333 13.9311 17.7155 13.5945 18.3994 13.5945C19.1034 13.5945 19.4655 13.8425 19.6667 14.0197C19.9282 14.2677 20.2299 14.374 20.4914 14.374C21.0345 14.374 21.4971 13.9665 21.4971 13.4882C21.4971 12.7972 20.25 12 18.3994 12C16.4684 12 15.342 13.1693 15.342 14.374C15.342 15.2421 15.9052 16.1102 17.1523 16.5886C19.5057 17.5276 19.9483 17.8642 19.9483 18.4311C19.9483 18.8386 19.5259 19.3346 18.4598 19.3346C17.6351 19.3346 17.1121 19.0335 16.8305 18.7146C16.6092 18.4488 16.3075 18.3425 16.0259 18.3425C15.5029 18.3425 15 18.7146 15 19.1929C15 19.7776 16.0259 21 18.4799 21C20.4914 21 22 19.7776 22 18.3957Z" fill="currentColor"/>
</svg>
