<svg width="24" height="24" viewBox="0 0 24 24" fill="none" xmlns="http://www.w3.org/2000/svg">
<path d="M4.70711 15.2928C4.31658 14.9023 3.68342 14.9023 3.29289 15.2928C2.90237 15.6834 2.90237 16.3165 3.29289 16.707L7.29289 20.707C7.68342 21.0976 8.31658 21.0976 8.70711 20.707L12.7071 16.707C13.0976 16.3165 13.0976 15.6834 12.7071 15.2928C12.3166 14.9023 11.6834 14.9023 11.2929 15.2928L8 18.5857L4.70711 15.2928Z" fill="currentColor"/>
<path d="M7 4.06244L7 18.9374C7 19.5242 7.44771 19.9999 8 19.9999C8.55228 19.9999 9 19.5242 9 18.9374L9 4.06244C9 3.47564 8.55228 2.99994 8 2.99994C7.44772 2.99994 7 3.47564 7 4.06244Z" fill="currentColor"/>
<path fill-rule="evenodd" clip-rule="evenodd" d="M16 12.9999C16.5523 12.9999 17 13.4477 17 13.9999V18.9999H21C21.5523 18.9999 22 19.4477 22 19.9999C22 20.5522 21.5523 20.9999 21 20.9999H16C15.4477 20.9999 15 20.5522 15 19.9999V13.9999C15 13.4477 15.4477 12.9999 16 12.9999Z" fill="currentColor"/>
<path d="M22 9.39567C22 8.52756 21.4167 7.62402 20.0287 6.9685C19.4253 6.68504 18.5201 6.33071 17.9971 6.10039C17.5345 5.90551 17.3333 5.58661 17.3333 5.32086C17.3333 4.9311 17.7155 4.59449 18.3994 4.59449C19.1034 4.59449 19.4655 4.84252 19.6667 5.01968C19.9282 5.26772 20.2299 5.37401 20.4914 5.37401C21.0345 5.37401 21.4971 4.96654 21.4971 4.48819C21.4971 3.79724 20.25 3 18.3994 3C16.4684 3 15.342 4.16929 15.342 5.37401C15.342 6.24213 15.9052 7.11024 17.1523 7.58858C19.5057 8.52756 19.9483 8.86417 19.9483 9.4311C19.9483 9.83858 19.5259 10.3346 18.4598 10.3346C17.6351 10.3346 17.1121 10.0335 16.8305 9.71457C16.6092 9.44882 16.3075 9.34252 16.0259 9.34252C15.5029 9.34252 15 9.71457 15 10.1929C15 10.7776 16.0259 12 18.4799 12C20.4914 12 22 10.7776 22 9.39567Z" fill="currentColor"/>
</svg>
