<svg width="24" height="24" viewBox="0 0 24 24" fill="none" xmlns="http://www.w3.org/2000/svg">
<path d="M3.70711 15.2929C3.31658 14.9024 2.68342 14.9024 2.29289 15.2929C1.90237 15.6834 1.90237 16.3166 2.29289 16.7071L6.29289 20.7071C6.68342 21.0976 7.31658 21.0976 7.70711 20.7071L11.7071 16.7071C12.0976 16.3166 12.0976 15.6834 11.7071 15.2929C11.3166 14.9024 10.6834 14.9024 10.2929 15.2929L7 18.5858L3.70711 15.2929Z" fill="currentColor"/>
<path d="M6 4.0625V18.9375C6 19.5243 6.44772 20 7 20C7.55228 20 8 19.5243 8 18.9375V4.0625C8 3.4757 7.55228 3 7 3C6.44772 3 6 3.4757 6 4.0625Z" fill="currentColor"/>
<path fill-rule="evenodd" clip-rule="evenodd" d="M17 5.6926L19.0715 10.8714C19.2766 11.3842 19.8586 11.6336 20.3714 11.4285C20.8842 11.2234 21.1336 10.6414 20.9285 10.1286L18.3927 3.78923C17.8898 2.53201 16.1102 2.53201 15.6073 3.78923L13.0715 10.1286C12.8664 10.6414 13.1158 11.2234 13.6286 11.4285C14.1414 11.6336 14.7234 11.3842 14.9285 10.8714L17 5.6926Z" fill="currentColor"/>
<path fill-rule="evenodd" clip-rule="evenodd" d="M19.5 10H14.5V8H19.5V10Z" fill="currentColor"/>
<path fill-rule="evenodd" clip-rule="evenodd" d="M14 15C13.4477 15 13 14.5523 13 14C13 13.4477 13.4477 13 14 13H20C20.4045 13 20.7691 13.2436 20.9239 13.6173C21.0787 13.991 20.9931 14.4211 20.7071 14.7071L16.4142 19H20C20.5523 19 21 19.4477 21 20C21 20.5523 20.5523 21 20 21H14C13.5955 21 13.2309 20.7564 13.0761 20.3827C12.9213 20.009 13.0069 19.5789 13.2929 19.2929L17.5858 15H14Z" fill="currentColor"/>
</svg>
