<svg width="24" height="24" viewBox="0 0 24 24" fill="none" xmlns="http://www.w3.org/2000/svg">
<path fill-rule="evenodd" clip-rule="evenodd" d="M20 5H11.5352L9.83205 2.4453C9.64658 2.1671 9.33435 2 9 2H4C2.34315 2 1 3.34315 1 5V19C1 20.6569 2.34315 22 4 22H20C21.6569 22 23 20.6569 23 19V8C23 6.34315 21.6569 5 20 5ZM4 4H8.46482L10.1679 6.5547C10.3534 6.8329 10.6656 7 11 7H20C20.5523 7 21 7.44772 21 8V19C21 19.5523 20.5523 20 20 20H4C3.44772 20 3 19.5523 3 19V5C3 4.44772 3.44772 4 4 4Z" fill="currentColor"/>
</svg>
