<svg width="51" height="46" viewBox="0 0 51 46" fill="none" xmlns="http://www.w3.org/2000/svg">
<path d="M25.5042 15.0777L17.6386 1.44407C17.8997 1.18292 18.2002 1.01162 18.5007 0.896484C16.1811 1.64626 15.1169 4.20449 15.1169 4.20449L0.747532 29.1044C0.545344 29.8851 0.489177 30.5899 0.51445 31.2105H16.198L25.5042 15.0777Z" fill="#34A853"/>
<path d="M25.5039 15.0777L34.8101 31.2105H50.4937C50.5189 30.5899 50.4628 29.8851 50.2606 29.1044L35.8913 4.20449C35.8913 4.20449 34.8242 1.64626 32.5074 0.896484C32.8051 1.01162 33.1084 1.18292 33.3696 1.44407L25.5039 15.0777Z" fill="#FBBC05"/>
<path d="M25.5043 15.0787L33.37 1.44509C33.1088 1.18393 32.8055 1.01263 32.5079 0.897499C32.1653 0.787981 31.7974 0.71497 31.3986 0.695312H30.983H20.0256H19.61C19.214 0.712161 18.8434 0.785173 18.5008 0.897499C18.2031 1.01263 17.8998 1.18393 17.6387 1.44509L25.5043 15.0787Z" fill="#188038"/>
<path d="M16.2011 31.2109L8.42529 44.6901C8.42529 44.6901 8.16694 44.5665 7.81592 44.311C8.91952 45.145 9.99224 45.3219 9.99224 45.3219H40.5309C42.2158 45.3219 42.5668 44.6901 42.5668 44.6901C42.5725 44.6873 42.5753 44.6845 42.5809 44.6817L34.8107 31.2109H16.2011Z" fill="#4285F4"/>
<path d="M16.2006 31.2109H0.51709C0.595718 33.0419 1.40447 34.1118 1.40447 34.1118L1.99418 35.1171C2.0363 35.1761 2.06157 35.2098 2.06157 35.2098L3.3449 37.4226L6.22606 42.3481C6.31031 42.5475 6.4086 42.73 6.5125 42.9041C6.55182 42.9631 6.58832 43.0277 6.63044 43.0838C6.64167 43.1007 6.6529 43.1175 6.66414 43.1344C7.02077 43.6286 7.41953 44.0105 7.81829 44.311C8.16931 44.5693 8.42767 44.6901 8.42767 44.6901L16.2006 31.2109Z" fill="#1967D2"/>
<path d="M34.8105 31.2109H50.4941C50.4155 33.0419 49.6067 34.1118 49.6067 34.1118L49.017 35.1171C48.9749 35.1761 48.9496 35.2098 48.9496 35.2098L47.6663 37.4226L44.7851 42.3481C44.7009 42.5475 44.6026 42.73 44.4987 42.9041C44.4594 42.9631 44.4228 43.0277 44.3807 43.0838C44.3695 43.1007 44.3583 43.1175 44.347 43.1344C43.9904 43.6286 43.5916 44.0105 43.1929 44.311C42.8419 44.5693 42.5835 44.6901 42.5835 44.6901L34.8105 31.2109Z" fill="#EA4335"/>
</svg>
