<svg fill="none" height="24" viewBox="0 0 24 24" width="24" xmlns="http://www.w3.org/2000/svg"><g clip-rule="evenodd" fill="#c7c5c5" fill-rule="evenodd"><path d="m6.99569 7.64878c.33819.40583.28336 1.00898-.12247 1.34717l-3.42256 2.85215 3.42256 2.8521c.40583.3382.46066.9414.12247 1.3472s-.94134.4606-1.34717.1225l-4.30435-3.587c-.21808-.1817-.34417-.4509-.34417-.7348s.12609-.5531.34417-.7348l4.30435-3.58699c.40583-.3382 1.00898-.28336 1.34717.12247z"/><path d="m17.0043 7.64878c.3382-.40583.9414-.46067 1.3472-.12247l4.3043 3.58699c.2181.1817.3442.4509.3442.7348s-.1261.5531-.3442.7348l-4.3043 3.587c-.4058.3381-1.009.2833-1.3472-.1225s-.2833-1.009.1225-1.3472l3.4225-2.8521-3.4225-2.85215c-.4058-.33819-.4607-.94134-.1225-1.34717z"/><path d="m15.1964 3.05785c.4965.18053.7526.72935.5721 1.22582l-5.7391 15.78263c-.18057.4964-.72938.7526-1.22585.572-.49647-.1805-.75258-.7293-.57205-1.2258l5.7391-15.7826c.1806-.49647.7294-.75258 1.2258-.57205z"/></g></svg>