<svg width="24" height="24" viewBox="0 0 24 24" fill="none" xmlns="http://www.w3.org/2000/svg">
<path fill-rule="evenodd" clip-rule="evenodd" d="M7.50386 1.13176C7.79416 0.965872 8.14816 0.956046 8.44721 1.10557L15.9685 4.86623L22.5039 1.13176C22.8134 0.954898 23.1936 0.956168 23.5019 1.13509C23.8102 1.31401 24 1.64353 24 2V18C24 18.3589 23.8077 18.6902 23.4961 18.8682L16.4961 22.8682C16.2058 23.0341 15.8518 23.044 15.5528 22.8944L8.03147 19.1338L1.49614 22.8682C1.18664 23.0451 0.806388 23.0438 0.498073 22.8649C0.189758 22.686 0 22.3565 0 22V6C0 5.64114 0.192286 5.3098 0.503861 5.13176L7.50386 1.13176ZM8.03147 3.13377L2 6.58032V20.2768L7.50386 17.1318C7.79416 16.9659 8.14816 16.956 8.44721 17.1056L15.9685 20.8662L22 17.4197V3.72318L16.4961 6.86824C16.2058 7.03413 15.8518 7.04395 15.5528 6.89443L8.03147 3.13377Z" fill="currentColor"/>
<path fill-rule="evenodd" clip-rule="evenodd" d="M16 5C16.5523 5 17 5.44772 17 6V22C17 22.5523 16.5523 23 16 23C15.4477 23 15 22.5523 15 22V6C15 5.44772 15.4477 5 16 5Z" fill="currentColor"/>
<path fill-rule="evenodd" clip-rule="evenodd" d="M8 1C8.55228 1 9 1.44772 9 2V18C9 18.5523 8.55228 19 8 19C7.44772 19 7 18.5523 7 18V2C7 1.44772 7.44772 1 8 1Z" fill="currentColor"/>
</svg>
