<svg width="91" height="92" viewBox="0 0 91 92" fill="none" xmlns="http://www.w3.org/2000/svg">
<g clip-path="url(#clip0_166_20130)">
<path d="M48.3758 22.3511L47.5556 21.779C47.3425 22.0845 47.3169 22.4833 47.4892 22.8136C47.6615 23.1439 48.0032 23.3511 48.3758 23.3511V22.3511ZM67.1489 22.3511H68.1489C68.1489 21.7988 67.7012 21.3511 67.1489 21.3511V22.3511ZM67.1489 41.1242H66.1489C66.1489 41.4968 66.3561 41.8385 66.6864 42.0108C67.0167 42.1831 67.4155 42.1575 67.721 41.9444L67.1489 41.1242ZM67.1489 58.7269L67.721 57.9067C67.4155 57.6935 67.0167 57.6679 66.6864 57.8403C66.3561 58.0126 66.1489 58.3543 66.1489 58.7269H67.1489ZM67.1489 77.5V78.5C67.7012 78.5 68.1489 78.0523 68.1489 77.5H67.1489ZM12 77.5H11C11 78.0523 11.4477 78.5 12 78.5V77.5ZM12 58.7265L12.5721 57.9063C12.2665 57.6931 11.8678 57.6675 11.5375 57.8399C11.2071 58.0122 11 58.3539 11 58.7265H12ZM12 41.1238H11C11 41.4964 11.2071 41.8381 11.5375 42.0104C11.8678 42.1827 12.2665 42.1571 12.5721 41.944L12 41.1238ZM12 22.3511V21.3511C11.4477 21.3511 11 21.7988 11 22.3511H12ZM30.7731 22.3511V23.3511C31.1457 23.3511 31.4874 23.1439 31.6597 22.8136C31.8321 22.4833 31.8065 22.0845 31.5933 21.779L30.7731 22.3511ZM49.196 22.9232C50.5208 21.0238 51.2979 18.7129 51.2979 16.2234H49.2979C49.2979 18.2906 48.6539 20.2044 47.5556 21.779L49.196 22.9232ZM67.1489 21.3511H48.3758V23.3511H67.1489V21.3511ZM68.1489 41.1242V22.3511H66.1489V41.1242H68.1489ZM73.2766 38.2021C70.7871 38.2021 68.4762 38.9792 66.5768 40.304L67.721 41.9444C69.2956 40.8461 71.2094 40.2021 73.2766 40.2021V38.2021ZM85 49.9255C85 43.4509 79.7513 38.2021 73.2766 38.2021V40.2021C78.6467 40.2021 83 44.5554 83 49.9255H85ZM73.2766 61.6489C79.7513 61.6489 85 56.4002 85 49.9255H83C83 55.2956 78.6467 59.6489 73.2766 59.6489V61.6489ZM66.5768 59.5471C68.4762 60.8719 70.7871 61.6489 73.2766 61.6489V59.6489C71.2094 59.6489 69.2956 59.005 67.721 57.9067L66.5768 59.5471ZM68.1489 77.5V58.7269H66.1489V77.5H68.1489ZM12 78.5H67.1489V76.5H12V78.5ZM11 58.7265V77.5H13V58.7265H11ZM18.1276 59.6485C16.0604 59.6485 14.1467 59.0046 12.5721 57.9063L11.4279 59.5467C13.3272 60.8715 15.6382 61.6485 18.1276 61.6485V59.6485ZM27.851 49.9251C27.851 55.2952 23.4977 59.6485 18.1276 59.6485V61.6485C24.6023 61.6485 29.851 56.3998 29.851 49.9251H27.851ZM18.1276 40.2017C23.4977 40.2017 27.851 44.555 27.851 49.9251H29.851C29.851 43.4505 24.6023 38.2017 18.1276 38.2017V40.2017ZM12.5721 41.944C14.1467 40.8457 16.0604 40.2017 18.1276 40.2017V38.2017C15.6382 38.2017 13.3272 38.9788 11.4279 40.3036L12.5721 41.944ZM11 22.3511V41.1238H13V22.3511H11ZM30.7731 21.3511H12V23.3511H30.7731V21.3511ZM27.8511 16.2234C27.8511 18.7129 28.6281 21.0238 29.953 22.9232L31.5933 21.779C30.495 20.2044 29.8511 18.2906 29.8511 16.2234H27.8511ZM39.5745 4.5C33.0998 4.5 27.8511 9.74875 27.8511 16.2234H29.8511C29.8511 10.8533 34.2044 6.5 39.5745 6.5V4.5ZM51.2979 16.2234C51.2979 9.74875 46.0491 4.5 39.5745 4.5V6.5C44.9446 6.5 49.2979 10.8533 49.2979 16.2234H51.2979Z" fill="currentColor"/>
<path d="M44 86.4998H38C37.7348 86.4998 37.4804 86.3945 37.2929 86.207C37.1054 86.0194 37 85.7651 37 85.4998V79.9141C37 79.7827 37.0259 79.6527 37.0761 79.5314C37.1264 79.4101 37.2 79.2998 37.2929 79.207L52.2929 64.207C52.4804 64.0194 52.7348 63.9141 53 63.9141C53.2652 63.9141 53.5196 64.0194 53.7071 64.207L59.2929 69.7927C59.4804 69.9803 59.5858 70.2346 59.5858 70.4998C59.5858 70.7651 59.4804 71.0194 59.2929 71.207L44 86.4998Z" stroke="currentColor" stroke-width="2" stroke-linecap="round" stroke-linejoin="round"/>
<path d="M49 67.5L56 74.5" stroke="currentColor" stroke-width="2" stroke-linecap="round" stroke-linejoin="round"/>
<path d="M48.5 52.875C54.5061 52.875 59.375 48.0061 59.375 42C59.375 35.9939 54.5061 31.125 48.5 31.125C42.4939 31.125 37.625 35.9939 37.625 42C37.625 48.0061 42.4939 52.875 48.5 52.875Z" stroke="currentColor" stroke-width="2" stroke-linecap="round" stroke-linejoin="round"/>
<path d="M53.2101 44.7188C52.7324 45.545 52.0457 46.2311 51.2189 46.7081C50.3922 47.1851 49.4545 47.4362 48.5001 47.4362C47.5456 47.4362 46.608 47.1851 45.7812 46.7082C44.9545 46.2312 44.2678 45.5451 43.79 44.7188" stroke="currentColor" stroke-width="2" stroke-linecap="round" stroke-linejoin="round"/>
<path d="M44.4219 41.0938C45.1726 41.0938 45.7812 40.4851 45.7812 39.7344C45.7812 38.9836 45.1726 38.375 44.4219 38.375C43.6711 38.375 43.0625 38.9836 43.0625 39.7344C43.0625 40.4851 43.6711 41.0938 44.4219 41.0938Z" fill="currentColor"/>
<path d="M52.5781 41.0938C53.3289 41.0938 53.9375 40.4851 53.9375 39.7344C53.9375 38.9836 53.3289 38.375 52.5781 38.375C51.8274 38.375 51.2188 38.9836 51.2188 39.7344C51.2188 40.4851 51.8274 41.0938 52.5781 41.0938Z" fill="currentColor"/>
</g>
</svg>
