<svg width="43" height="44" viewBox="0 0 43 44" fill="none" xmlns="http://www.w3.org/2000/svg">
<path fill-rule="evenodd" clip-rule="evenodd" d="M28.7056 40.3539C28.3366 40.1459 27.5956 39.7309 27.2416 39.3969C27.1096 38.8579 26.9346 36.7379 26.8776 34.9179C26.8636 34.5039 26.5496 34.1769 26.1036 34.1929C25.6906 34.2049 25.3646 34.5519 25.3786 34.9659C25.4466 37.1389 25.6176 39.8289 26.0476 40.3189C26.4926 40.8119 27.2746 41.2709 28.0006 41.6779C28.0706 41.7149 28.1276 41.7439 28.1706 41.7679C28.1646 41.8079 28.1536 41.8579 28.1356 41.9119H14.9086C14.8986 41.8929 14.8866 41.8679 14.8746 41.8389C14.8626 41.8049 14.8546 41.7749 14.8476 41.7479L15.0036 41.6609C15.7006 41.2709 16.4816 40.8119 16.9366 40.3109C17.2746 39.9259 17.4976 38.1229 17.5986 34.9509C17.6116 34.5369 17.2866 34.1919 16.8726 34.1779C16.4596 34.1439 16.1116 34.4889 16.0996 34.9039C16.0406 36.7309 15.8666 38.8539 15.7356 39.3949C15.3726 39.7349 14.6366 40.1479 14.2556 40.3619L14.0686 40.4649C13.9066 40.5539 13.8146 40.6119 13.7436 40.6669C13.4466 40.9119 13.1536 41.3939 13.4656 42.3519C13.8206 43.2289 14.3546 43.4119 14.7386 43.4119H28.2656C28.8446 43.4119 29.3506 43.0189 29.5416 42.4439C29.7596 41.8849 29.7546 41.0899 29.2116 40.6509C29.1386 40.5949 29.0136 40.5169 28.7056 40.3539ZM41.4206 0.588867H1.5946C0.862602 0.588867 0.266602 1.18587 0.266602 1.91787V28.9409C0.266602 29.6649 0.862602 30.2539 1.5946 30.2539H41.4206C42.1446 30.2539 42.7336 29.6649 42.7336 28.9409V1.91787C42.7336 1.18587 42.1446 0.588867 41.4206 0.588867ZM1.7666 2.08887H41.2336V28.7539H1.7666V2.08887Z" fill="currentColor"/>
</svg>
