<svg width="16" height="16" viewBox="0 0 16 16" fill="none" xmlns="http://www.w3.org/2000/svg">
<path d="M14.2593 7.57335L5.26073 2.07406C5.18494 2.02774 5.09817 2.00245 5.00936 2.00079C4.92055 1.99913 4.8329 2.02115 4.75542 2.0646C4.67795 2.10805 4.61345 2.17136 4.56856 2.248C4.52366 2.32465 4.5 2.41187 4.5 2.5007L4.5 13.4993C4.5 13.5881 4.52366 13.6753 4.56856 13.752C4.61345 13.8286 4.67795 13.8919 4.75542 13.9354C4.8329 13.9788 4.92055 14.0009 5.00936 13.9992C5.09817 13.9975 5.18494 13.9722 5.26073 13.9259L14.2593 8.42663C14.3324 8.38196 14.3927 8.31927 14.4346 8.24457C14.4765 8.16986 14.4985 8.08564 14.4985 7.99999C14.4985 7.91434 14.4765 7.83012 14.4346 7.75542C14.3927 7.68071 14.3324 7.61802 14.2593 7.57335Z" stroke="currentColor" stroke-width="1.5" stroke-linecap="round" stroke-linejoin="round"/>
</svg>
