<svg width="24" height="24" viewBox="0 0 24 24" fill="none" xmlns="http://www.w3.org/2000/svg">
<path fill-rule="evenodd" clip-rule="evenodd" d="M5.18494 4.22259C5.18494 1.89052 7.07546 0 9.40753 0C11.7396 0 13.6301 1.89052 13.6301 4.22259C13.6301 4.55336 13.5919 4.87559 13.5198 5.18494H17.892C18.4018 5.18494 18.8151 5.59822 18.8151 6.10802V10.4802C19.1244 10.4081 19.4466 10.3699 19.7774 10.3699C22.1095 10.3699 24 12.2604 24 14.5925C24 16.9245 22.1095 18.8151 19.7774 18.8151C19.4466 18.8151 19.1244 18.7769 18.8151 18.7047V23.0769C18.8151 23.5867 18.4018 24 17.892 24H0.923077C0.413276 24 0 23.5867 0 23.0769V17.3006C0 16.9567 0.191195 16.6413 0.496109 16.4822C0.801023 16.3231 1.16909 16.3467 1.45117 16.5435C1.83572 16.8117 2.30238 16.9689 2.80851 16.9689C4.12098 16.9689 5.18494 15.9049 5.18494 14.5925C5.18494 13.28 4.12098 12.216 2.80851 12.216C2.30238 12.216 1.83572 12.3732 1.45117 12.6415C1.16909 12.8382 0.801023 12.8618 0.496109 12.7028C0.191195 12.5437 0 12.2283 0 11.8844V6.10802C0 5.59822 0.413276 5.18494 0.923077 5.18494H5.2953C5.22312 4.87559 5.18494 4.55336 5.18494 4.22259ZM9.40753 1.84615C8.09506 1.84615 7.0311 2.91012 7.0311 4.22259C7.0311 4.72872 7.18828 5.19537 7.45652 5.57993C7.65328 5.862 7.6769 6.23007 7.51782 6.53499C7.35874 6.8399 7.04334 7.0311 6.69943 7.0311H1.84615V10.4802C2.1555 10.4081 2.47774 10.3699 2.80851 10.3699C5.14058 10.3699 7.0311 12.2604 7.0311 14.5925C7.0311 16.9245 5.14058 18.8151 2.80851 18.8151C2.47774 18.8151 2.1555 18.7769 1.84615 18.7047V22.1538H16.9689V17.3006C16.9689 16.9567 17.1601 16.6413 17.465 16.4822C17.7699 16.3231 18.138 16.3467 18.4201 16.5435C18.8046 16.8117 19.2713 16.9689 19.7774 16.9689C21.0899 16.9689 22.1538 15.9049 22.1538 14.5925C22.1538 13.28 21.0899 12.216 19.7774 12.216C19.2713 12.216 18.8046 12.3732 18.4201 12.6415C18.138 12.8382 17.7699 12.8618 17.465 12.7028C17.1601 12.5437 16.9689 12.2283 16.9689 11.8844V7.0311H12.1156C11.7717 7.0311 11.4563 6.8399 11.2972 6.53499C11.1382 6.23007 11.1618 5.862 11.3585 5.57993C11.6268 5.19537 11.784 4.72872 11.784 4.22259C11.784 2.91012 10.72 1.84615 9.40753 1.84615Z" fill="currentColor"/>
</svg>
