<svg width="24" height="24" viewBox="0 0 24 24" fill="none" xmlns="http://www.w3.org/2000/svg">
  <path fill-rule="evenodd" clip-rule="evenodd"
    d="M11.1769 0.659996C11.4129 0.569212 11.6763 0.581925 11.9025 0.695022L17.9025 3.69502C18.0914 3.7895 18.2411 3.94742 18.3253 4.14115L23.3253 15.6412C23.5096 16.065 23.3429 16.5595 22.9397 16.7853L10.4397 23.7853C10.1341 23.9564 9.75698 23.9347 9.47303 23.7296L0.473034 17.2296C0.157384 17.0016 0.0241251 16.5965 0.142794 16.2257L4.14279 3.72571C4.22592 3.46595 4.42234 3.2579 4.67689 3.16L11.1769 0.659996ZM5.51532 5.34256L10.066 7.99714L9.20669 21.3169L2.05611 16.1526L5.51532 5.34256ZM11.0047 21.4059L21.3501 15.6124L17.0416 5.70282L11.8636 8.09264L11.0047 21.4059ZM11.0485 6.48638L15.4226 4.46756L11.4525 2.48252L7.07261 4.16711L11.0485 6.48638Z"
    fill="currentColor" />
</svg>
