<svg version="1.1" id="Layer_1" xmlns="http://www.w3.org/2000/svg" xmlns:xlink="http://www.w3.org/1999/xlink" x="0px" y="0px"
	 width="100%" viewBox="0 0 1323 411" enable-background="new 0 0 1323 411" xml:space="preserve">

<path fill="#7E0000" opacity="1.000000" stroke="none" 
	d="
M1.000001,108.468658 
	C8.487994,103.929489 16.058445,100.002556 23.447153,95.759163 
	C39.825886,86.352737 56.162033,76.869408 72.403618,67.228867 
	C76.422737,64.843231 79.776627,66.562057 82.876770,68.354515 
	C100.112305,78.319817 117.202469,88.536308 134.359802,98.637222 
	C139.249512,101.515907 144.233917,104.234642 149.105591,107.142807 
	C152.229477,109.007629 154.221695,111.393845 154.088837,115.549728 
	C153.796234,124.702820 153.929886,133.872635 154.039383,143.033859 
	C154.079056,146.353683 153.002335,148.420837 149.905411,150.144867 
	C135.280975,158.286255 120.819557,166.720673 106.305748,175.060562 
	C97.444977,180.152115 88.656281,185.375046 79.682907,190.259140 
	C78.060905,191.141983 75.238861,191.502075 73.755043,190.682953 
	C64.343254,185.487305 55.091499,179.989822 45.951324,174.326630 
	C44.540550,173.452530 43.213085,171.242691 43.149780,169.600372 
	C42.855473,161.965042 43.019485,154.312057 43.019485,145.176971 
	C49.926647,148.964218 55.992393,152.263718 62.031765,155.610825 
	C66.057396,157.841888 69.992172,160.245316 74.089249,162.332840 
	C75.064415,162.829712 76.775215,162.817047 77.726074,162.285110 
	C89.167213,155.884857 100.485916,149.265625 111.930389,142.871475 
	C117.334557,139.852097 122.940109,137.193176 128.766800,134.211060 
	C128.831940,133.201904 128.776382,131.868973 129.024551,130.595230 
	C130.138199,124.879593 127.172783,122.103493 122.386993,119.606781 
	C108.264565,112.239204 94.170135,104.760803 80.547058,96.527710 
	C76.404045,94.023895 74.377846,94.647049 70.794754,96.887924 
	C62.698963,101.951073 54.130306,106.253006 45.815979,110.973740 
	C40.607937,113.930786 35.785725,117.764442 30.295425,119.976006 
	C23.841507,122.575714 23.862366,127.077003 23.897789,132.730789 
	C24.105484,165.880844 23.940393,199.033051 24.047176,232.184052 
	C24.071171,239.632797 24.694759,247.078888 25.002502,254.527863 
	C25.083179,256.480652 25.014664,258.439636 25.014664,260.984772 
	C15.625298,260.255341 9.671691,253.226685 1.374161,250.960724 
	C1.000000,203.645767 1.000000,156.291550 1.000001,108.468658 
z"/>
<path fill="#CDCDCD" opacity="1.000000" stroke="none" 
	d="
M1180.424316,227.999969 
	C1178.697144,227.477066 1176.989014,227.312607 1176.212036,226.375824 
	C1167.811279,216.247803 1159.512939,206.033752 1151.277832,195.770004 
	C1145.405029,188.450546 1139.603027,181.071625 1133.912354,173.610138 
	C1131.947510,171.033997 1129.799438,169.860794 1126.423096,169.915329 
	C1113.780273,170.119522 1101.132080,169.997040 1088.632080,169.997040 
	C1088.632080,189.326523 1088.632080,208.381561 1088.632080,227.718033 
	C1083.121338,227.718033 1077.376099,227.718033 1071.102417,227.718033 
	C1071.102417,226.526642 1071.104248,225.107742 1071.102051,223.688858 
	C1071.035645,179.551498 1070.963989,135.414139 1070.906250,91.276772 
	C1070.894409,82.314743 1073.243286,80.001656 1082.264648,80.000183 
	C1101.920288,79.996979 1121.577515,80.156792 1141.230713,79.937035 
	C1151.656616,79.820457 1161.330811,82.850029 1169.005249,89.155113 
	C1182.906006,100.575897 1190.251221,115.422569 1185.988159,134.003723 
	C1182.210693,150.468719 1172.183350,161.549545 1156.085205,167.039078 
	C1154.508667,167.576706 1153.123657,168.675766 1151.989380,169.320984 
	C1167.472290,188.486221 1182.984253,207.687592 1199.393799,227.999786 
	C1192.112793,227.999786 1186.494263,227.999786 1180.424316,227.999969 
M1109.500122,96.983109 
	C1102.439453,96.983109 1095.378906,96.983109 1088.613770,96.983109 
	C1088.613770,115.909256 1088.613770,134.293686 1088.613770,152.998093 
	C1107.832397,152.998093 1127.288696,153.000809 1146.744995,152.986313 
	C1147.396118,152.985825 1148.077026,152.903992 1148.693848,152.704483 
	C1162.309204,148.300125 1171.320557,134.667206 1169.930664,121.096375 
	C1169.772339,119.551331 1168.165405,118.116684 1168.120239,116.604263 
	C1167.840576,107.243904 1153.370972,96.528282 1145.447266,96.871506 
	C1133.818359,97.375229 1122.151001,96.989731 1109.500122,96.983109 
z"/>
<path fill="#CDCDCD" opacity="1.000000" stroke="none" 
	d="
M435.980774,86.912956 
	C437.286377,81.991089 440.769012,80.019463 445.562744,80.013245 
	C466.875946,79.985596 488.189850,79.905205 509.502167,80.044220 
	C518.664001,80.103989 526.421082,84.387398 533.786194,89.317390 
	C540.426941,93.762543 544.855774,100.227303 547.953857,107.343628 
	C550.983215,114.302269 551.908752,121.600891 551.273376,129.516556 
	C550.272156,141.990021 544.242004,151.201202 535.369019,158.858047 
	C531.388367,162.293182 526.209290,164.350800 521.536743,166.966858 
	C519.918945,167.872604 518.188538,168.577118 516.609070,169.326385 
	C532.336304,188.745819 548.056335,208.156418 564.125732,227.998322 
	C557.303955,227.998322 551.892212,227.563675 546.589233,228.136383 
	C542.377991,228.591202 540.274902,226.323929 538.126282,223.668518 
	C530.823669,214.643234 523.600037,205.553986 516.304016,196.523300 
	C509.629822,188.262207 502.934631,180.017212 496.147614,171.849121 
	C495.401978,170.951782 493.993683,170.091492 492.887878,170.085342 
	C479.737366,170.012375 466.585938,170.104858 453.220886,171.008270 
	C453.004669,187.809647 452.976929,203.756790 453.036194,219.703629 
	C453.042664,221.449783 453.549225,223.194092 453.823853,224.939270 
	C454.527924,227.456940 453.334503,228.075455 451.024506,228.028595 
	C445.897705,227.924561 440.767303,227.996185 435.297150,227.996185 
	C435.297150,221.247635 435.297150,214.546860 435.529510,207.055328 
	C435.541779,198.188568 435.321716,190.112595 435.101624,182.036621 
	C435.040924,176.651703 434.980194,171.266785 435.310913,165.133835 
	C435.803894,163.404678 435.993805,162.423584 435.994110,161.442429 
	C436.001740,136.599274 435.989502,111.756111 435.980774,86.912956 
M453.006073,98.860390 
	C453.010620,116.603058 453.015167,134.345718 453.428864,152.853683 
	C471.246704,152.902939 489.065613,152.850601 506.881897,153.044373 
	C515.787476,153.141220 521.948914,149.311768 527.489502,142.319168 
	C534.815735,133.072998 535.704102,123.695541 531.583923,113.231697 
	C527.554810,102.999199 518.660339,97.022369 507.509766,97.017914 
	C490.855103,97.011253 474.200348,96.970711 457.545868,97.022926 
	C456.036163,97.027657 454.528229,97.602104 453.006073,98.860390 
z"/>
<path fill="#CDCDCD" opacity="1.000000" stroke="none" 
	d="
M563.954224,160.122467 
	C563.657898,156.917114 562.736389,154.073547 563.129089,151.424805 
	C564.497559,142.195633 565.197266,132.638367 568.256836,123.947052 
	C572.046936,113.180389 578.103210,103.377235 587.410095,95.915733 
	C594.676880,90.089752 602.307617,85.201012 611.411804,83.039062 
	C616.717285,81.779182 622.110596,80.829926 627.507263,80.029495 
	C633.267822,79.175079 639.197754,77.589752 644.843384,78.216949 
	C657.194519,79.589088 669.265991,81.625160 680.857727,87.542648 
	C691.106201,92.774422 698.358704,100.413208 705.071838,108.878349 
	C708.327515,112.983810 709.861084,118.493263 711.991150,123.445839 
	C718.279236,138.066025 716.598267,153.615143 715.649231,168.646927 
	C714.739441,183.056793 709.448242,196.720657 698.354065,207.027496 
	C692.819641,212.169159 687.070251,217.196655 680.842224,221.428192 
	C677.410828,223.759628 672.765564,224.276184 668.703796,225.713409 
	C655.886108,230.248901 642.576233,230.718185 629.271912,229.785965 
	C623.531555,229.383728 617.875366,227.269089 612.263672,225.646225 
	C599.911072,222.073898 588.957336,215.790131 580.797852,205.900452 
	C574.905701,198.758881 569.638062,190.871948 567.953735,181.292419 
	C566.735596,174.364578 565.280823,167.478348 563.954224,160.122467 
M694.592834,181.822815 
	C696.344482,175.110016 697.530212,168.370941 698.328979,161.412872 
	C699.630432,150.075378 698.276245,139.265076 695.056885,128.649582 
	C692.358887,119.753342 687.457214,112.087631 679.816956,106.241638 
	C671.523254,99.895676 661.925659,96.169197 652.003601,95.362488 
	C642.558533,94.594551 632.657715,93.054802 623.210083,96.927490 
	C617.296143,99.351669 610.657715,100.381287 605.233582,103.555969 
	C590.212036,112.347992 584.100891,127.313789 582.306030,143.435074 
	C580.610657,158.662537 581.872864,173.828812 589.717896,188.138977 
	C593.694336,195.392410 598.977722,200.492386 605.254578,204.964920 
	C615.070679,211.959381 627.117310,211.542435 638.295105,213.796494 
	C641.634460,214.469879 645.462524,212.671967 649.074463,212.051224 
	C655.085693,211.018127 661.350830,210.745224 667.045593,208.797348 
	C672.314819,206.994995 677.599548,204.120148 681.751160,200.445251 
	C687.217407,195.606720 691.893677,189.730316 694.592834,181.822815 
z"/>
<path fill="#CDCDCD" opacity="1.000000" stroke="none" 
	d="
M980.986450,175.850967 
	C989.365112,193.113525 997.695923,209.979736 1006.548157,227.901627 
	C999.851624,227.901627 993.828613,227.962097 987.810913,227.812851 
	C987.173828,227.797043 986.377563,226.647583 985.974915,225.860489 
	C979.730164,213.653473 973.538208,201.419403 967.299438,189.123352 
	C940.082397,189.123352 912.793213,189.123352 885.813843,189.123352 
	C879.596680,202.112457 873.485413,214.880249 867.282043,227.840515 
	C861.179382,227.840515 854.724854,227.840515 847.304688,227.840515 
	C849.982239,222.443741 852.487061,217.587830 854.821472,212.651306 
	C860.267761,201.133896 865.544678,189.535721 871.067444,178.055481 
	C873.717712,172.546509 876.842346,167.267838 879.623596,161.819260 
	C884.112244,153.025757 888.544739,144.202805 892.908936,135.346924 
	C898.559082,123.881378 904.127258,112.375420 909.713379,100.878403 
	C912.276978,95.602135 914.289612,89.963501 917.526794,85.143852 
	C919.545288,82.138695 923.140442,79.033257 926.479370,78.416626 
	C929.512451,77.856499 933.281433,80.038208 935.080688,84.031731 
	C938.287170,91.148880 941.990540,98.044289 945.548889,105.000313 
	C951.550903,116.733376 957.702942,128.390778 963.601990,140.175079 
	C968.831482,150.621582 973.795837,161.200668 978.896362,171.711975 
	C979.516113,172.989105 980.254883,174.208481 980.986450,175.850967 
M937.499878,173.036942 
	C944.600464,173.036942 951.701050,173.036942 959.588745,173.036942 
	C948.409424,150.564438 937.616577,128.868713 926.692871,106.909935 
	C915.563354,129.310867 904.707825,151.160278 893.838806,173.036942 
	C907.880920,173.036942 922.190430,173.036942 937.499878,173.036942 
M905.514832,175.000000 
	C901.418030,175.000000 897.321167,175.000000 893.224365,175.000000 
	C893.237305,175.219193 893.250305,175.438400 893.263306,175.657593 
	C915.422791,175.657593 937.582336,175.657593 959.741882,175.657593 
	C959.741211,175.438400 959.740540,175.219193 959.739868,175.000000 
	C941.996460,175.000000 924.252991,175.000000 905.514832,175.000000 
z"/>
<path fill="#CECECE" opacity="1.000000" stroke="none" 
	d="
M418.997375,124.916092 
	C418.452087,136.746490 414.837891,147.262177 406.821533,155.143494 
	C401.699829,160.178925 394.524689,163.158325 388.180084,166.906998 
	C383.086792,169.916351 377.374207,168.967072 371.856873,168.982742 
	C354.719543,169.031448 337.581970,169.000580 320.730774,169.000580 
	C320.730774,188.719803 320.730774,208.103622 320.730774,227.747559 
	C315.437164,227.747559 310.030548,227.747559 304.000946,227.747559 
	C304.000946,226.004410 304.000885,224.241989 304.000916,222.479568 
	C304.001953,178.334045 304.002472,134.188507 304.004517,90.042976 
	C304.004883,82.020210 305.982971,80.006088 313.893951,80.004158 
	C333.717804,79.999306 353.542480,80.113548 373.365143,79.960594 
	C384.445953,79.875092 393.747253,83.374947 402.451691,90.499710 
	C413.437195,99.491608 418.544342,110.669060 418.997375,124.916092 
M387.798035,149.714661 
	C393.090424,146.170715 397.383057,141.631012 399.586761,135.661331 
	C401.976654,129.187210 402.889923,122.841331 400.270386,115.662613 
	C397.745270,108.742630 393.446533,104.017212 387.928925,100.023163 
	C382.057312,95.772835 374.847565,95.463333 368.038208,95.145683 
	C356.403290,94.602913 344.724701,94.995964 333.064453,94.995964 
	C329.127045,94.995964 325.189636,94.995956 320.856201,94.995956 
	C320.856201,114.608154 320.856201,133.647217 320.856201,153.000397 
	C338.292358,153.000397 356.099762,153.195084 373.897308,152.862350 
	C378.298370,152.780045 382.667419,150.985245 387.798035,149.714661 
M369.190063,166.000610 
	C352.798889,166.000610 336.407684,166.000610 320.016510,166.000610 
	C320.018341,166.243866 320.020172,166.487122 320.022003,166.730377 
	C337.994629,166.730377 355.967285,166.730377 373.939941,166.730377 
	C373.944855,166.549942 373.949738,166.369492 373.954651,166.189056 
	C372.664551,166.126236 371.374481,166.063416 369.190063,166.000610 
z"/>
<path fill="#CDCDCD" opacity="1.000000" stroke="none" 
	d="
M1220.018921,138.086090 
	C1221.693970,138.391602 1223.368164,138.957489 1225.044189,138.962845 
	C1244.512085,139.025024 1263.980347,139.002609 1284.680176,139.002609 
	C1283.344482,144.600296 1282.134033,149.673370 1280.828125,155.145950 
	C1260.690063,155.145950 1240.556641,155.145950 1220.215576,156.004547 
	C1220.011719,174.937469 1220.015381,193.011795 1220.018921,211.086105 
	C1221.695435,211.391586 1223.371216,211.958893 1225.048462,211.963089 
	C1248.364136,212.021423 1271.680786,212.104935 1294.994873,211.905685 
	C1299.056885,211.870972 1300.356201,213.113281 1300.054688,217.012344 
	C1299.787231,220.471863 1299.998657,223.968414 1299.998657,227.779648 
	C1298.462036,227.855957 1297.029907,227.988525 1295.597778,227.989136 
	C1267.951904,228.000992 1240.306030,228.001175 1212.660156,227.994003 
	C1206.739990,227.992462 1204.011475,225.186050 1204.012207,219.232986 
	C1204.018311,175.932190 1204.018555,132.631378 1204.009888,89.330582 
	C1204.008545,82.849884 1206.858887,80.006607 1213.513306,80.004555 
	C1240.493042,79.996223 1267.473389,80.092934 1294.451904,79.905418 
	C1298.833618,79.874969 1300.541870,81.090645 1300.059570,85.529770 
	C1299.740967,88.461273 1299.999268,91.455475 1299.999268,94.997292 
	C1297.850830,94.997292 1296.077637,94.997292 1294.304443,94.997292 
	C1270.988647,94.997231 1247.672607,94.968788 1224.357178,95.065674 
	C1222.916138,95.071663 1221.479248,96.064499 1220.037354,97.515671 
	C1220.029175,111.650810 1220.024048,124.868446 1220.018921,138.086090 
M1265.476196,152.000610 
	C1250.378174,152.000610 1235.280151,152.000610 1220.182129,152.000610 
	C1220.185547,152.228546 1220.189087,152.456482 1220.192505,152.684418 
	C1239.068115,152.684418 1257.943848,152.684418 1276.819458,152.684418 
	C1276.822510,152.456482 1276.825439,152.228546 1276.828369,152.000610 
	C1273.373291,152.000610 1269.918335,152.000610 1265.476196,152.000610 
z"/>
<path fill="#CDCDCD" opacity="1.000000" stroke="none" 
	d="
M755.016907,211.078369 
	C756.520508,211.385910 758.023438,211.958099 759.527710,211.961487 
	C783.831177,212.016220 808.134766,211.996887 832.438354,211.998764 
	C838.346924,211.999222 839.069092,213.108185 836.749756,218.529266 
	C836.128357,219.981674 835.498901,221.435287 834.980103,222.925552 
	C834.453674,224.437637 834.059265,225.995712 833.469910,228.000061 
	C831.849487,228.000061 830.048828,228.000046 828.248169,228.000046 
	C800.614563,228.000000 772.981018,227.999161 745.347412,228.000626 
	C740.173889,228.000900 737.014160,224.886536 737.007446,219.581955 
	C736.979553,197.443146 736.994263,175.304276 736.993896,153.165436 
	C736.993530,129.031662 736.993835,104.897881 736.993835,79.976250 
	C743.018311,79.976250 748.929688,79.942818 754.837646,80.070541 
	C755.147827,80.077248 755.428406,81.452179 755.481323,82.962982 
	C755.165833,85.559494 755.027588,87.383148 755.027039,89.206848 
	C755.014465,129.830688 755.017151,170.454529 755.016907,211.078369 
z"/>
<path fill="#CC0000" opacity="1.000000" stroke="none" 
	d="
M45.562607,246.333786 
	C53.423672,250.615158 60.914948,254.723221 68.373131,258.890533 
	C70.848503,260.273651 73.130669,262.699890 75.699944,263.011810 
	C78.039017,263.295776 80.792374,261.624207 83.111511,260.354919 
	C91.622978,255.696426 100.045235,250.873749 108.472031,246.062027 
	C120.115936,239.413300 131.726761,232.706665 143.368256,226.053696 
	C145.618149,224.767899 147.846222,223.277496 150.284149,222.571579 
	C151.219833,222.300659 153.761520,223.922470 153.789902,224.743423 
	C154.042679,232.051437 154.265686,239.406372 153.615097,246.668411 
	C153.446457,248.550735 150.420441,250.581268 148.285172,251.812027 
	C139.832214,256.684143 131.112778,261.095367 122.678871,265.998688 
	C112.279968,272.044464 102.140694,278.536926 91.738190,284.576202 
	C87.478821,287.049011 82.994499,289.694489 78.287781,290.633301 
	C75.311111,291.227020 71.483116,289.278351 68.476326,287.655792 
	C60.943367,283.590790 53.627571,279.116333 46.314774,274.658356 
	C45.285751,274.031036 44.130932,272.590149 44.105156,271.500519 
	C43.920120,263.679352 43.985779,255.851395 44.066170,248.026581 
	C44.072521,247.408493 44.791908,246.797745 45.562607,246.333786 
z"/>
<path fill="#CC0000" opacity="1.000000" stroke="none" 
	d="
M76.763916,213.678360 
	C83.159805,209.981018 89.213844,206.458099 95.280708,202.957397 
	C104.491699,197.642487 113.672333,192.273254 122.938728,187.056534 
	C132.208282,181.838028 141.567383,176.778549 151.988434,171.043289 
	C151.988434,180.527374 152.253281,188.913269 151.763138,197.254791 
	C151.666046,198.906784 148.895370,200.782928 146.973175,201.885376 
	C133.027832,209.883698 118.988388,217.718124 104.969437,225.587845 
	C96.689125,230.236115 88.063705,234.367569 80.218277,239.657959 
	C75.038719,243.150696 72.029320,238.909973 68.833481,237.466217 
	C60.989765,233.922714 53.701557,229.124222 46.309799,224.633209 
	C45.208031,223.963791 44.132961,222.242065 44.102470,220.981583 
	C43.905323,212.832367 44.001503,204.676056 44.001503,195.214554 
	C49.966927,198.657974 55.224632,201.701859 60.491184,204.730362 
	C65.798828,207.782455 71.115250,210.819260 76.763916,213.678360 
z"/>
<path fill="#CECECE" opacity="1.000000" stroke="none" 
	d="
M1026.005127,207.999695 
	C1026.005127,165.208420 1026.005127,122.917038 1026.005127,80.312775 
	C1031.614136,80.312775 1037.015015,80.312775 1042.716553,80.312775 
	C1042.716553,129.271866 1042.716553,178.324951 1042.716553,227.687958 
	C1037.428223,227.687958 1032.026978,227.687958 1026.005127,227.687958 
	C1026.005127,221.357025 1026.005127,214.928299 1026.005127,207.999695 
z"/>
<path fill="#FFFFFF" opacity="1.000000" stroke="none" 
	d="
M755.413391,210.880112 
	C755.017151,170.454529 755.014465,129.830688 755.027039,89.206848 
	C755.027588,87.383148 755.165833,85.559494 755.494690,83.419685 
	C755.832947,88.743721 755.993469,94.383965 755.987549,100.024033 
	C755.948425,136.910004 755.873230,173.795914 755.413391,210.880112 
z"/>
<path fill="#FFFFFF" opacity="1.000000" stroke="none" 
	d="
M435.585846,87.114670 
	C435.989502,111.756111 436.001740,136.599274 435.994110,161.442429 
	C435.993805,162.423584 435.803894,163.404678 435.401978,164.671143 
	C435.131409,139.076462 435.161163,113.196419 435.585846,87.114670 
z"/>
<path fill="#FFFFFF" opacity="1.000000" stroke="none" 
	d="
M1220.414062,210.884796 
	C1220.015381,193.011795 1220.011719,174.937469 1220.013428,156.389053 
	C1220.344727,156.577408 1220.955688,157.240036 1220.955322,157.902298 
	C1220.944824,175.496078 1220.871582,193.089798 1220.414062,210.884796 
z"/>
<path fill="#FFFFFF" opacity="1.000000" stroke="none" 
	d="
M453.905701,224.480850 
	C453.549225,223.194092 453.042664,221.449783 453.036194,219.703629 
	C452.976929,203.756790 453.004669,187.809647 453.012939,171.388458 
	C453.345886,172.401474 453.951324,173.887497 453.957214,175.375870 
	C454.021362,191.591171 453.991699,207.806854 453.905701,224.480850 
z"/>
<path fill="#FFFFFF" opacity="1.000000" stroke="none" 
	d="
M1220.414062,137.884796 
	C1220.024048,124.868446 1220.029175,111.650810 1220.042725,97.923370 
	C1220.365112,98.118950 1220.953369,98.824455 1220.953003,99.529701 
	C1220.947510,112.247643 1220.870605,124.965561 1220.414062,137.884796 
z"/>
<path fill="#FFFFFF" opacity="1.000000" stroke="none" 
	d="
M435.054413,182.500809 
	C435.321716,190.112595 435.541779,198.188568 435.506592,206.580627 
	C435.169922,198.919479 435.088562,190.942245 435.054413,182.500809 
z"/>


<path fill="#FFFFFF" opacity="1.000000" stroke="none" 
	d="
M453.012756,98.386185 
	C453.345215,98.575157 453.955536,99.238503 453.955139,99.901489 
	C453.945068,117.162292 453.871582,134.423065 453.414368,151.886108 
	C453.015167,134.345718 453.010620,116.603058 453.012756,98.386185 
z"/>

<path fill="#DCDCDC" opacity="1.000000" stroke="none" 
	d="
M906.012207,175.000000 
	C924.252991,175.000000 941.996460,175.000000 959.739868,175.000000 
	C959.740540,175.219193 959.741211,175.438400 959.741882,175.657593 
	C937.582336,175.657593 915.422791,175.657593 893.263306,175.657593 
	C893.250305,175.438400 893.237305,175.219193 893.224365,175.000000 
	C897.321167,175.000000 901.418030,175.000000 906.012207,175.000000 
z"/>

<path fill="#DCDCDC" opacity="1.000000" stroke="none" 
	d="
M369.637207,166.000610 
	C371.374481,166.063416 372.664551,166.126236 373.954651,166.189056 
	C373.949738,166.369492 373.944855,166.549942 373.939941,166.730377 
	C355.967285,166.730377 337.994629,166.730377 320.022003,166.730377 
	C320.020172,166.487122 320.018341,166.243866 320.016510,166.000610 
	C336.407684,166.000610 352.798889,166.000610 369.637207,166.000610 
z"/>
<path fill="#DBDBDB" opacity="1.000000" stroke="none" 
	d="
M1265.969727,152.000610 
	C1269.918335,152.000610 1273.373291,152.000610 1276.828369,152.000610 
	C1276.825439,152.228546 1276.822510,152.456482 1276.819458,152.684418 
	C1257.943848,152.684418 1239.068115,152.684418 1220.192505,152.684418 
	C1220.189087,152.456482 1220.185547,152.228546 1220.182129,152.000610 
	C1235.280151,152.000610 1250.378174,152.000610 1265.969727,152.000610 
z"/>
</svg>