<?xml version="1.0" standalone="no"?>
<!DOCTYPE svg PUBLIC "-//W3C//DTD SVG 20010904//EN"
 "http://www.w3.org/TR/2001/REC-SVG-20010904/DTD/svg10.dtd">
<svg version="1.0" xmlns="http://www.w3.org/2000/svg"
 width="100.000000pt" height="159.000000pt" viewBox="0 0 100.000000 159.000000"
 preserveAspectRatio="xMidYMid meet">

<g transform="translate(0.000000,159.000000) scale(0.100000,-0.100000)"
fill="#acabab" stroke="none">
<path d="M242 1389 l-242 -141 2 -455 3 -455 68 -39 67 -38 0 452 0 453 171
99 c94 54 177 98 183 98 6 0 88 -43 181 -96 l170 -95 3 -40 c4 -48 8 -45 -212
-167 l-140 -77 -40 20 c-23 12 -69 37 -103 57 l-63 36 0 -80 0 -80 100 -60
c56 -34 102 -61 104 -61 1 0 114 64 252 143 l249 143 0 119 0 119 -244 143
c-135 79 -249 143 -255 143 -6 0 -120 -64 -254 -141z"/>
<path d="M745 695 c-126 -74 -237 -134 -245 -134 -8 0 -35 11 -60 25 -25 14
-69 39 -97 56 l-53 29 0 -79 0 -80 103 -60 103 -59 247 141 246 141 1 78 c0
42 -3 77 -7 76 -5 -1 -111 -61 -238 -134z"/>
<path d="M750 364 c-129 -73 -242 -133 -250 -134 -8 0 -57 25 -109 55 -51 30
-95 55 -97 55 -2 0 -4 -36 -4 -79 l0 -79 99 -56 c54 -31 104 -56 111 -56 7 0
122 62 255 138 l244 137 1 78 c0 42 -3 77 -7 76 -5 0 -114 -61 -243 -135z"/>
</g>
</svg>
