<svg width="24" height="24" viewBox="0 0 24 24" fill="none" xmlns="http://www.w3.org/2000/svg">
<path fill-rule="evenodd" clip-rule="evenodd" d="M10 20C10 18.8954 10.891 18 11.99 18H12.01C13.109 18 14 18.8954 14 20C14 21.1046 13.109 22 12.01 22H11.99C10.891 22 10 21.1046 10 20Z" fill="currentColor"/>
<path fill-rule="evenodd" clip-rule="evenodd" d="M12.3881 6.04139C11.6747 5.92169 10.941 6.05283 10.317 6.41159C9.69291 6.77035 9.2188 7.33358 8.9786 8.00151C8.69774 8.78253 7.8228 9.19295 7.02438 8.9182C6.22595 8.64346 5.80639 7.78759 6.08726 7.00657C6.56766 5.6707 7.51587 4.54425 8.76396 3.82673C10.012 3.1092 11.4794 2.84692 12.9063 3.08632C14.3331 3.32573 15.6273 4.05138 16.5596 5.13474C17.4917 6.21788 18.0019 7.58871 18 9.00452C17.9993 11.2987 16.2605 12.8137 15.0188 13.6235C14.3512 14.0589 13.6945 14.379 13.2107 14.5893C12.9667 14.6954 12.7611 14.7759 12.6131 14.8311C12.5389 14.8588 12.4788 14.8802 12.435 14.8954L12.3818 14.9136L12.3648 14.9193L12.3588 14.9213L12.3565 14.922C12.356 14.9222 12.3546 14.9227 11.8699 13.5005L12.3546 14.9227C11.5516 15.1845 10.6837 14.76 10.4161 13.9745C10.1486 13.1896 10.5818 12.3412 11.3837 12.0788L11.3818 12.0795C11.3819 12.0794 11.382 12.0794 11.3837 12.0788L11.4082 12.0704C11.4317 12.0622 11.4704 12.0485 11.5219 12.0293C11.6253 11.9908 11.7789 11.9308 11.9659 11.8495C12.3442 11.685 12.8369 11.443 13.3186 11.1288C14.3754 10.4396 14.935 9.70644 14.935 9.00315L14.935 9.00092C14.936 8.29286 14.6809 7.60728 14.2148 7.0656C13.7486 6.52391 13.1015 6.16109 12.3881 6.04139Z" fill="currentColor"/>
</svg>
