<svg width="24" height="24" viewBox="0 0 24 24" fill="none" xmlns="http://www.w3.org/2000/svg">
<path fill-rule="evenodd" clip-rule="evenodd" d="M22.0605 5.06066C22.6463 5.64644 22.6463 6.59618 22.0605 7.18196L7.18199 22.0602C6.5962 22.6459 5.64644 22.6459 5.06065 22.0602C4.47486 21.4744 4.47486 20.5246 5.06065 19.9389L19.9391 5.06066C20.5249 4.47488 21.4747 4.47488 22.0605 5.06066Z" fill="currentColor"/>
<path fill-rule="evenodd" clip-rule="evenodd" d="M22.0605 13.9424C22.6463 14.5282 22.6463 15.4779 22.0604 16.0637L16.0631 22.0604C15.4773 22.6462 14.5276 22.6461 13.9418 22.0603C13.3561 21.4745 13.3561 20.5248 13.9419 19.939L19.9392 13.9423C20.525 13.3565 21.4748 13.3566 22.0605 13.9424Z" fill="currentColor"/>
</svg>
