<svg width="24" height="24" viewBox="0 0 24 24" fill="none" xmlns="http://www.w3.org/2000/svg">
<path fill-rule="evenodd" clip-rule="evenodd" d="M11.9968 23C5.92316 22.9983 1 18.0741 1 12C1 5.92487 5.92487 1 12 1C18.0751 1 23 5.92487 23 12C23 18.0748 18.0757 22.9994 12.001 23H11.9968ZM20.9451 11C20.532 7.26313 17.831 4.21579 14.274 3.28975C15.7949 5.57695 16.7186 8.22362 16.9473 11H20.9451ZM16.9499 13H20.9451C20.532 16.7368 17.8312 19.784 14.2743 20.7102C15.8009 18.4156 16.7257 15.7632 16.9499 13ZM14.9424 11C14.6912 8.28682 13.6697 5.70191 12 3.55077C10.324 5.70964 9.30105 8.30264 9.05476 11H14.9424ZM9.05758 13H14.9452C14.6989 15.6974 13.676 18.2904 12 20.4492C10.3303 18.2981 9.30878 15.7132 9.05758 13ZM7.0501 11C7.27431 8.23681 8.19912 5.58442 9.72572 3.28982C6.16882 4.21596 3.46801 7.26323 3.05493 11H7.0501ZM3.05493 13H7.05272C7.28144 15.7764 8.20511 18.4231 9.72604 20.7103C6.16898 19.7842 3.46802 16.7369 3.05493 13Z" fill="currentColor"/>
</svg>
