<svg width="22" height="20" viewBox="0 0 22 20" fill="none" xmlns="http://www.w3.org/2000/svg">
<path fill-rule="evenodd" clip-rule="evenodd" d="M1.34343 5.8147H5.66213C6.40272 5.8147 7.00509 5.21902 7.00509 4.48656V1.32837C7.00509 0.595913 6.40248 0 5.66165 0H1.34296C0.60237 0 0 0.595674 0 1.32789V4.48633C0 5.21878 0.602609 5.8147 1.34343 5.8147ZM5.09209 3.9017H1.91309V1.91333H5.09209V3.9017Z" fill="currentColor"/>
<path fill-rule="evenodd" clip-rule="evenodd" d="M10.006 5.8147H20.698C21.4158 5.8147 22 5.23313 22 4.51837V1.29633C22 0.581565 21.4158 0 20.6977 0H10.0055C9.28763 0 8.70343 0.581565 8.70343 1.29633V4.51813C8.70343 5.23313 9.28763 5.8147 10.006 5.8147ZM20.0869 3.9017H10.6164V1.91333H20.0869V3.9017Z" fill="currentColor"/>
<path fill-rule="evenodd" clip-rule="evenodd" d="M1.34343 12.6294H5.66213C6.40272 12.6294 7.00509 12.0337 7.00509 11.3013V8.14306C7.00509 7.41061 6.40248 6.8147 5.66165 6.8147H1.34296C0.60237 6.8147 0 7.41037 0 8.14259V11.301C0 12.0335 0.602609 12.6294 1.34343 12.6294ZM5.09209 10.7164H1.91309V8.72803H5.09209V10.7164Z" fill="currentColor"/>
<path fill-rule="evenodd" clip-rule="evenodd" d="M10.006 12.6294H20.698C21.4158 12.6294 22 12.0478 22 11.3331V8.11102C22 7.39626 21.4158 6.8147 20.6977 6.8147H10.0055C9.28763 6.8147 8.70343 7.39626 8.70343 8.11102V11.3328C8.70343 12.0478 9.28763 12.6294 10.006 12.6294ZM20.0869 10.7164H10.6164V8.72803H20.0869V10.7164Z" fill="currentColor"/>
<path fill-rule="evenodd" clip-rule="evenodd" d="M1.34343 19.4441H5.66213C6.40272 19.4441 7.00509 18.8484 7.00509 18.116V14.9578C7.00509 14.2253 6.40248 13.6294 5.66165 13.6294H1.34296C0.60237 13.6294 0 14.2251 0 14.9573V18.1157C0 18.8482 0.602609 19.4441 1.34343 19.4441ZM5.09209 17.5311H1.91309V15.5427H5.09209V17.5311Z" fill="currentColor"/>
<path fill-rule="evenodd" clip-rule="evenodd" d="M10.006 19.4441H20.698C21.4158 19.4441 22 18.8625 22 18.1478V14.9257C22 14.211 21.4158 13.6294 20.6977 13.6294H10.0055C9.28763 13.6294 8.70343 14.211 8.70343 14.9257V18.1475C8.70343 18.8625 9.28763 19.4441 10.006 19.4441ZM20.0869 17.5311H10.6164V15.5427H20.0869V17.5311Z" fill="currentColor"/>
</svg>
