<svg width="24" height="24" viewBox="0 0 24 24" fill="none" xmlns="http://www.w3.org/2000/svg">
<path fill-rule="evenodd" clip-rule="evenodd" d="M18.6494 7.7013H10C9.25403 7.7013 8.64935 7.09662 8.64935 6.35065C8.64935 5.60468 9.25403 5 10 5H18.6494C19.3954 5 20 5.60468 20 6.35065C20 7.09662 19.3954 7.7013 18.6494 7.7013Z" fill="currentColor"/>
<path fill-rule="evenodd" clip-rule="evenodd" d="M18.6494 13.7013H10C9.25403 13.7013 8.64935 13.0966 8.64935 12.3506C8.64935 11.6047 9.25403 11 10 11H18.6494C19.3954 11 20 11.6047 20 12.3506C20 13.0966 19.3954 13.7013 18.6494 13.7013Z" fill="currentColor"/>
<path fill-rule="evenodd" clip-rule="evenodd" d="M18.6494 19.7013H10.0001C9.25409 19.7013 8.64941 19.0966 8.64941 18.3506C8.64941 17.6047 9.25409 17 10.0001 17H18.6494C19.3954 17 20.0001 17.6047 20.0001 18.3506C20.0001 19.0966 19.3954 19.7013 18.6494 19.7013Z" fill="currentColor"/>
<path fill-rule="evenodd" clip-rule="evenodd" d="M5.35065 7.7013C4.60468 7.7013 4.00003 7.09662 4.00003 6.35065C4.00003 5.60468 4.60471 5 5.35068 5C6.09665 5 6.7013 5.60468 6.7013 6.35065C6.7013 7.09662 6.09663 7.7013 5.35065 7.7013Z" fill="currentColor"/>
<path fill-rule="evenodd" clip-rule="evenodd" d="M5.35065 13.7013C4.60468 13.7013 4.00003 13.0966 4.00003 12.3506C4.00003 11.6047 4.60471 11 5.35068 11C6.09665 11 6.7013 11.6047 6.7013 12.3506C6.7013 13.0966 6.09663 13.7013 5.35065 13.7013Z" fill="currentColor"/>
<path fill-rule="evenodd" clip-rule="evenodd" d="M5.35065 19.7013C4.60468 19.7013 4.00003 19.0966 4.00003 18.3506C4.00003 17.6047 4.60471 17 5.35068 17C6.09665 17 6.7013 17.6047 6.7013 18.3506C6.7013 19.0966 6.09663 19.7013 5.35065 19.7013Z" fill="currentColor"/>
</svg>
