<svg width="24" height="24" viewBox="0 0 24 24" fill="none" xmlns="http://www.w3.org/2000/svg">
<path fill-rule="evenodd" clip-rule="evenodd" d="M5.29237 3.79241C5.47992 3.60487 5.73429 3.49953 5.99951 3.49954L13.125 3.5C13.125 3.5 13.125 3.5 13.125 3.5C14.2853 3.50002 15.3981 3.96095 16.2186 4.78141C17.0391 5.60188 17.5 6.71468 17.5 7.875C17.5 8.9433 17.1093 9.97131 16.407 10.768C16.8469 10.9922 17.2531 11.2856 17.6088 11.6412C18.4996 12.532 19 13.7402 19 15C19 16.2598 18.4996 17.468 17.6088 18.3588C16.718 19.2496 15.5098 19.75 14.25 19.75L5.9994 19.7495C5.44713 19.7495 4.99945 19.3018 4.99945 18.7495V4.49954C4.99945 4.23431 5.10482 3.97995 5.29237 3.79241ZM13.125 10.25C13.7549 10.25 14.359 9.99978 14.8044 9.55438C15.2498 9.10898 15.5 8.50489 15.5 7.875C15.5 7.24511 15.2498 6.64102 14.8044 6.19562C14.359 5.75022 13.7549 5.5 13.125 5.5L6.99945 5.49961V10.25H13.125ZM6.99945 12.25V17.7496L14.25 17.75C14.25 17.75 14.25 17.75 14.25 17.75C14.9793 17.75 15.6788 17.4603 16.1945 16.9445C16.7103 16.4288 17 15.7293 17 15C17 14.2707 16.7103 13.5712 16.1945 13.0555C15.6788 12.5397 14.9793 12.25 14.25 12.25H6.99945Z" fill="currentColor"/>
</svg>
