<svg width="24" height="24" viewBox="0 0 24 24" fill="none" xmlns="http://www.w3.org/2000/svg">
<path fill-rule="evenodd" clip-rule="evenodd" d="M2.75 6.375C2.75 5.82272 3.19772 5.375 3.75 5.375H20.25C20.8023 5.375 21.25 5.82272 21.25 6.375C21.25 6.92728 20.8023 7.375 20.25 7.375H3.75C3.19772 7.375 2.75 6.92728 2.75 6.375Z" fill="currentColor"/>
<path fill-rule="evenodd" clip-rule="evenodd" d="M2.75 10.125C2.75 9.57272 3.19772 9.125 3.75 9.125H20.25C20.8023 9.125 21.25 9.57272 21.25 10.125C21.25 10.6773 20.8023 11.125 20.25 11.125H3.75C3.19772 11.125 2.75 10.6773 2.75 10.125Z" fill="currentColor"/>
<path fill-rule="evenodd" clip-rule="evenodd" d="M2.75061 13.875C2.75061 13.3227 3.19833 12.875 3.75061 12.875H20.25C20.8023 12.875 21.25 13.3227 21.25 13.875C21.25 14.4273 20.8023 14.875 20.25 14.875H3.75061C3.19833 14.875 2.75061 14.4273 2.75061 13.875Z" fill="currentColor"/>
<path fill-rule="evenodd" clip-rule="evenodd" d="M2.75061 17.625C2.75061 17.0727 3.19833 16.625 3.75061 16.625H20.25C20.8023 16.625 21.25 17.0727 21.25 17.625C21.25 18.1773 20.8023 18.625 20.25 18.625H3.75061C3.19833 18.625 2.75061 18.1773 2.75061 17.625Z" fill="currentColor"/>
</svg>
