<svg width="24" height="24" viewBox="0 0 24 24" fill="none" xmlns="http://www.w3.org/2000/svg">
<path fill-rule="evenodd" clip-rule="evenodd" d="M3.02768e-06 8.99555C-0.000300055 9.11909 0.0221513 9.24281 0.0675692 9.35989L0.0725499 9.37247C0.220809 9.73914 0.580196 9.99782 1 9.99782H7C7.55229 9.99782 8 9.55011 8 8.99782C8 8.44554 7.55229 7.99782 7 7.99782H3.52455L6.32478 5.36658C8.28912 3.40195 11.0919 2.59124 13.771 3.19743C16.4502 3.80361 18.6309 5.74192 19.5473 8.33142C19.7315 8.85206 20.303 9.12478 20.8236 8.94054C21.3442 8.7563 21.617 8.18487 21.4327 7.66423C20.2873 4.42735 17.5613 2.00447 14.2124 1.24674C10.8635 0.489003 7.36001 1.50239 4.93272 3.93089L2 6.68621V2.99782C2 2.44554 1.55229 1.99782 1 1.99782C0.447718 1.99782 3.02768e-06 2.44554 3.02768e-06 2.99782V8.99555ZM23 15.0023C23.0003 14.8787 22.9779 14.755 22.9324 14.6379L22.9275 14.6254C22.7792 14.2587 22.4198 14 22 14H16C15.4477 14 15 14.4477 15 15C15 15.5523 15.4477 16 16 16H19.4755L16.6752 18.6312C14.7109 20.5959 11.9081 21.4066 9.22897 20.8004C6.54984 20.1942 4.36906 18.2559 3.45272 15.6664C3.26848 15.1458 2.69705 14.873 2.1764 15.0573C1.65576 15.2415 1.38304 15.813 1.56728 16.3336C2.71271 19.5705 5.43869 21.9934 8.7876 22.7511C12.1365 23.5088 15.64 22.4954 18.0673 20.0669L21 17.3116V21C21 21.5523 21.4477 22 22 22C22.5523 22 23 21.5523 23 21V15.0023Z" fill="currentColor"/>
</svg>
