<svg fill="none" height="16" viewBox="0 0 16 16" width="16" xmlns="http://www.w3.org/2000/svg"><g clip-rule="evenodd" fill="currentColor" fill-rule="evenodd"><path d="m8 2.5c-3.03757 0-5.5 2.46243-5.5 5.5 0 3.0376 2.46243 5.5 5.5 5.5 3.0376 0 5.5-2.4624 5.5-5.5 0-3.03757-2.4624-5.5-5.5-5.5zm-6.5 5.5c0-3.58985 2.91015-6.5 6.5-6.5 3.5899 0 6.5 2.91015 6.5 6.5 0 3.5899-2.9101 6.5-6.5 6.5-3.58985 0-6.5-2.9101-6.5-6.5z"/><path d="m11.1694 4.82285c.1474.14709.1882.37014.1024.55989l-1.75589 3.88394c-.05148.11389-.14376.20437-.25865.2536l-3.71231 1.59092c-.18792.0806-.40594.0386-.55051-.106-.14456-.1446-.18655-.3626-.10601-.5505l1.591-3.71233c.04909-.11455.13919-.20663.25265-.25821l3.87722-1.76256c.1895-.08618.4127-.04584.5601.10125zm-3.84714 2.49149-1.02229 2.38535 2.38478-1.02201 1.12823-2.49561z"/></g></svg>