<svg width="24" height="24" viewBox="0 0 24 24" fill="none" xmlns="http://www.w3.org/2000/svg">
<path fill-rule="evenodd" clip-rule="evenodd" d="M7.85827 14.5325C8.04704 15.0988 7.74098 15.7109 7.17468 15.8997C5.91473 16.3197 5.22702 17.3778 4.84894 18.512C4.74818 18.8143 4.67414 19.1097 4.61988 19.3801C4.89031 19.3259 5.1857 19.2518 5.48798 19.1511C6.62222 18.773 7.68035 18.0853 8.10033 16.8253C8.28909 16.259 8.9012 15.953 9.4675 16.1417C10.0338 16.3305 10.3399 16.9426 10.1511 17.5089C9.42466 19.6882 7.61676 20.7201 6.17157 21.2018C5.43928 21.4459 4.75514 21.566 4.25685 21.6258C4.00613 21.6558 3.79831 21.6712 3.64974 21.679C3.57535 21.6829 3.5155 21.6849 3.47222 21.686C3.45057 21.6866 3.43303 21.6869 3.41986 21.687L3.4034 21.6872L3.39768 21.6872L3.39545 21.6872L3.3945 21.6872C3.39407 21.6872 3.39365 21.6872 3.39365 20.6063C2.31281 20.6063 2.31281 20.6059 2.31281 20.6055L2.31281 20.6045L2.31281 20.6023L2.31284 20.5966L2.31299 20.5801C2.31315 20.567 2.31344 20.5494 2.31398 20.5278C2.31505 20.4845 2.3171 20.4246 2.32102 20.3503C2.32884 20.2017 2.34416 19.9939 2.37424 19.7431C2.43404 19.2449 2.55408 18.5607 2.79817 17.8284C3.27991 16.3832 4.31181 14.5753 6.49109 13.8489C7.0574 13.6601 7.6695 13.9662 7.85827 14.5325ZM3.39365 20.6063H2.31281C2.31281 21.2033 2.79672 21.6872 3.39365 21.6872V20.6063ZM4.4745 20.6071L4.4745 20.6087L4.4745 20.6077L4.4745 20.6071Z" fill="currentColor"/>
<path fill-rule="evenodd" clip-rule="evenodd" d="M20.8136 3.18643C19.8338 3.08559 17.7598 3.1831 15.622 5.32086L9.50783 11.4351L12.5649 14.4922L18.6791 8.37796C20.8169 6.2402 20.9144 4.1662 20.8136 3.18643ZM21.3371 1.0741C19.9838 0.872223 17.0017 0.884069 14.0935 3.79231L7.21501 10.6708C6.79291 11.0929 6.79291 11.7772 7.21501 12.1993L11.8007 16.785C12.0034 16.9877 12.2783 17.1016 12.5649 17.1016C12.8516 17.1016 13.1265 16.9877 13.3292 16.785L20.2077 9.90651C23.1159 6.99827 23.1278 4.01618 22.9259 2.66291M21.3372 1.07412C21.7373 1.13379 22.1076 1.32037 22.3936 1.60639C22.6796 1.89239 22.8662 2.26271 22.9259 2.66278" fill="currentColor"/>
<path fill-rule="evenodd" clip-rule="evenodd" d="M18.297 9.20779C18.8939 9.20779 19.3779 9.69171 19.3779 10.2886V16.8313C19.3779 17.0797 19.3289 17.3257 19.2339 17.5552C19.1388 17.7847 18.9995 17.9932 18.8238 18.1688L18.0596 17.4045L18.8238 18.1688L15.5467 21.446C15.3046 21.6881 15.0013 21.8599 14.6693 21.9432C14.3372 22.0265 13.9887 22.018 13.6611 21.9188C13.3334 21.8196 13.0388 21.6333 12.8087 21.3799C12.5786 21.1264 12.4216 20.8152 12.3544 20.4795L11.5051 16.2327C11.388 15.6473 11.7676 15.0779 12.353 14.9608C12.9383 14.8438 13.5077 15.2234 13.6248 15.8087L14.3751 19.5604L17.2162 16.7194V10.2886C17.2162 9.69171 17.7001 9.20779 18.297 9.20779Z" fill="currentColor"/>
<path fill-rule="evenodd" clip-rule="evenodd" d="M6.44482 4.76614C6.6743 4.67109 6.92026 4.62216 7.16866 4.62216H13.7114C14.3083 4.62216 14.7922 5.10607 14.7922 5.70301C14.7922 6.29995 14.3083 6.78386 13.7114 6.78386H7.28058L4.43957 9.62487L8.19126 10.3752C8.77661 10.4923 9.15622 11.0617 9.03915 11.647C8.92208 12.2324 8.35266 12.612 7.76732 12.4949L3.52053 11.6456C3.18483 11.5784 2.87363 11.4214 2.62014 11.1913C2.36665 10.9612 2.18037 10.6666 2.08116 10.3389C1.98195 10.0113 1.97353 9.66282 2.05681 9.33075C2.14008 8.99867 2.31192 8.69542 2.554 8.45334L5.83118 5.17616L6.58803 5.93302L5.83118 5.17616C6.00682 5.00052 6.21534 4.8612 6.44482 4.76614Z" fill="currentColor"/>
</svg>
