<svg width="24" height="24" viewBox="0 0 24 24" fill="none" xmlns="http://www.w3.org/2000/svg">
<path fill-rule="evenodd" clip-rule="evenodd" d="M4.18861 2.68934C4.46991 2.40804 4.85144 2.25 5.24927 2.25H14.25C14.4489 2.25 14.6397 2.32902 14.7803 2.46967L20.0303 7.71967C20.171 7.86032 20.25 8.05109 20.25 8.25V20.25C20.25 20.447 20.2112 20.642 20.1358 20.824C20.0604 21.006 19.95 21.1714 19.8107 21.3107C19.6714 21.45 19.506 21.5604 19.324 21.6358C19.142 21.7112 18.947 21.75 18.75 21.75H5.24927C4.85144 21.75 4.46991 21.592 4.18861 21.3107C3.9073 21.0294 3.74927 20.6478 3.74927 20.25V3.75C3.74927 3.35218 3.9073 2.97064 4.18861 2.68934ZM13.9393 3.75L5.24927 3.75L5.24927 20.25L18.75 20.25V8.56066L13.9393 3.75Z" fill="currentColor"/>
<path fill-rule="evenodd" clip-rule="evenodd" d="M14.25 2.25C14.6642 2.25 15 2.58579 15 3V7.5H19.5007C19.915 7.5 20.2507 7.83579 20.2507 8.25C20.2507 8.66421 19.915 9 19.5007 9H14.25C13.8358 9 13.5 8.66421 13.5 8.25V3C13.5 2.58579 13.8358 2.25 14.25 2.25Z" fill="currentColor"/>
<path fill-rule="evenodd" clip-rule="evenodd" d="M9.87867 12.1287C10.1716 11.8358 10.6464 11.8358 10.9393 12.1287L14.1213 15.3107C14.4142 15.6035 14.4142 16.0784 14.1213 16.3713C13.8284 16.6642 13.3535 16.6642 13.0606 16.3713L9.87867 13.1893C9.58577 12.8964 9.58577 12.4216 9.87867 12.1287Z" fill="currentColor"/>
<path fill-rule="evenodd" clip-rule="evenodd" d="M14.1213 12.1287C14.4142 12.4216 14.4142 12.8964 14.1213 13.1893L10.9394 16.3713C10.6465 16.6642 10.1716 16.6642 9.87869 16.3713C9.5858 16.0784 9.5858 15.6035 9.87869 15.3107L13.0607 12.1287C13.3536 11.8358 13.8284 11.8358 14.1213 12.1287Z" fill="currentColor"/>
</svg>
