<svg width="24" height="24" viewBox="0 0 24 24" fill="none" xmlns="http://www.w3.org/2000/svg">
<path d="M4 5C4 4.44772 4.44772 4 5 4H19C19.5523 4 20 4.44772 20 5C20 5.55228 19.5523 6 19 6H5C4.44772 6 4 5.55228 4 5Z" fill="currentColor"/>
<path d="M4 9.5C4 8.94772 4.44772 8.5 5 8.5H19C19.5523 8.5 20 8.94772 20 9.5C20 10.0523 19.5523 10.5 19 10.5H5C4.44772 10.5 4 10.0523 4 9.5Z" fill="currentColor"/>
<path d="M4 14C4 13.4477 4.44772 13 5 13H19C19.5523 13 20 13.4477 20 14C20 14.5523 19.5523 15 19 15H5C4.44772 15 4 14.5523 4 14Z" fill="currentColor"/>
<path d="M4 18.5C4 17.9477 4.44772 17.5 5 17.5H19C19.5523 17.5 20 17.9477 20 18.5C20 19.0523 19.5523 19.5 19 19.5H5C4.44772 19.5 4 19.0523 4 18.5Z" fill="currentColor"/>
</svg>
