<svg width="24" height="24" viewBox="0 0 24 24" fill="none" xmlns="http://www.w3.org/2000/svg">
<path fill-rule="evenodd" clip-rule="evenodd" d="M7.99282 6.99998L8 7L8.00719 6.99998H15.9928L16 7L16.0072 6.99998H18V20C18 20.5523 17.5523 21 17 21H6.99999C6.4477 21 5.99999 20.5523 5.99999 20V6.99998H7.99282ZM17 4.99997H19H21C21.5523 4.99997 22 5.44769 22 5.99998C22 6.55226 21.5523 6.99998 21 6.99998H20V20C20 21.6568 18.6568 23 17 23H6.99999C5.34313 23 3.99999 21.6568 3.99999 20V6.99998H3C2.44772 6.99998 2 6.55226 2 5.99998C2 5.44769 2.44772 4.99997 3 4.99997H4.99999H7V4C7 2.34315 8.34315 1 10 1H14C15.6569 1 17 2.34315 17 4V4.99997ZM15 4.99997V4C15 3.44772 14.5523 3 14 3H10C9.44772 3 9 3.44772 9 4V4.99997H15ZM8.99999 11V17C8.99999 17.5523 9.4477 18 9.99999 18C10.5523 18 11 17.5523 11 17V11C11 10.4477 10.5523 9.99998 9.99999 9.99998C9.4477 9.99998 8.99999 10.4477 8.99999 11ZM13 17V11C13 10.4477 13.4477 9.99998 14 9.99998C14.5523 9.99998 15 10.4477 15 11V17C15 17.5523 14.5523 18 14 18C13.4477 18 13 17.5523 13 17Z" fill="currentColor"/>
</svg>
