<svg width="24" height="24" viewBox="0 0 24 24" fill="none" xmlns="http://www.w3.org/2000/svg">
<path fill-rule="evenodd" clip-rule="evenodd" d="M3.75 13.5C3.75 13.0858 4.08579 12.75 4.5 12.75C6.29021 12.75 8.0071 13.4612 9.27297 14.727C10.5388 15.9929 11.25 17.7098 11.25 19.5C11.25 19.9142 10.9142 20.25 10.5 20.25C10.0858 20.25 9.75 19.9142 9.75 19.5C9.75 18.1076 9.19688 16.7723 8.21231 15.7877C7.22775 14.8031 5.89239 14.25 4.5 14.25C4.08579 14.25 3.75 13.9142 3.75 13.5Z" fill="currentColor"/>
<path fill-rule="evenodd" clip-rule="evenodd" d="M3.75 9C3.75 8.58579 4.08579 8.25 4.5 8.25C7.48369 8.25 10.3452 9.43527 12.455 11.545C14.5647 13.6548 15.75 16.5163 15.75 19.5C15.75 19.9142 15.4142 20.25 15 20.25C14.5858 20.25 14.25 19.9142 14.25 19.5C14.25 16.9141 13.2228 14.4342 11.3943 12.6057C9.56581 10.7772 7.08586 9.75 4.5 9.75C4.08579 9.75 3.75 9.41421 3.75 9Z" fill="currentColor"/>
<path fill-rule="evenodd" clip-rule="evenodd" d="M3.75 4.5C3.75 4.08579 4.08579 3.75 4.5 3.75C8.67716 3.75 12.6832 5.40937 15.6369 8.36307C18.5906 11.3168 20.25 15.3228 20.25 19.5C20.25 19.9142 19.9142 20.25 19.5 20.25C19.0858 20.25 18.75 19.9142 18.75 19.5C18.75 15.7207 17.2487 12.0961 14.5763 9.42373C11.9039 6.75133 8.27934 5.25 4.5 5.25C4.08579 5.25 3.75 4.91421 3.75 4.5Z" fill="currentColor"/>
<path d="M4.875 20.25C5.49632 20.25 6 19.7463 6 19.125C6 18.5037 5.49632 18 4.875 18C4.25368 18 3.75 18.5037 3.75 19.125C3.75 19.7463 4.25368 20.25 4.875 20.25Z" fill="currentColor"/>
</svg>
