<svg width="24" height="24" viewBox="0 0 24 24" fill="none" xmlns="http://www.w3.org/2000/svg">
<path fill-rule="evenodd" clip-rule="evenodd" d="M13.9894 1.10015C13.7224 0.966618 13.408 0.966618 13.141 1.10015L3.65502 5.84313C2.95585 6.19272 2.95585 7.19046 3.65502 7.54004L13.141 12.283C13.408 12.4166 13.7224 12.4166 13.9894 12.283L23.4754 7.54004C24.1746 7.19046 24.1746 6.19272 23.4754 5.84313L13.9894 1.10015ZM6.20025 6.69152L13.5651 3.0091L20.9299 6.69152L13.5651 10.3739L6.20025 6.69152ZM10.4348 18.2174C9.96623 17.9831 9.39644 18.173 9.16214 18.6416C8.92785 19.1102 9.11778 19.68 9.58637 19.9143L13.141 21.7689C13.4081 21.9025 13.7224 21.9025 13.9895 21.7689L23.4754 17.0259C23.944 16.7917 24.134 16.2219 23.8997 15.7533C23.6654 15.2847 23.0956 15.0948 22.627 15.329L13.5652 19.8599L10.4348 18.2174ZM3.23079 11.0104C3.46508 10.5418 4.03488 10.3519 4.50346 10.5861L13.5652 15.117L22.627 10.5861C23.0956 10.3519 23.6653 10.5418 23.8996 11.0104C24.1339 11.479 23.944 12.0488 23.4754 12.2831L13.9894 17.026C13.7224 17.1596 13.408 17.1596 13.141 17.026L3.65501 12.2831C3.18642 12.0488 2.99649 11.479 3.23079 11.0104Z" fill="currentColor"/>
<rect y="17.6956" width="8.34783" height="2.08696" rx="1" fill="currentColor"/>
<rect x="5.21738" y="14.5652" width="8.34783" height="2.08696" rx="1" transform="rotate(90 5.21738 14.5652)" fill="currentColor"/>
</svg>
