<svg width="24" height="24" viewBox="0 0 24 24" fill="none" xmlns="http://www.w3.org/2000/svg">
<path fill-rule="evenodd" clip-rule="evenodd" d="M18.0961 8H5.90388C4.85235 8 4 7.32846 4 6.5C4 5.67154 4.85235 5 5.90388 5H18.0961C19.1476 5 20 5.67154 20 6.5C20 7.32846 19.1476 8 18.0961 8Z" fill="currentColor"/>
<path fill-rule="evenodd" clip-rule="evenodd" d="M18.0961 14H5.90388C4.85235 14 4 13.3285 4 12.5C4 11.6715 4.85235 11 5.90388 11H18.0961C19.1476 11 20 11.6715 20 12.5C20 13.3285 19.1476 14 18.0961 14Z" fill="currentColor"/>
<path fill-rule="evenodd" clip-rule="evenodd" d="M18.0961 20H5.90388C4.85235 20 4 19.3285 4 18.5C4 17.6715 4.85235 17 5.90388 17H18.0961C19.1476 17 20 17.6715 20 18.5C20 19.3285 19.1476 20 18.0961 20Z" fill="currentColor"/>
</svg>
