
<svg width="24" height="24" viewBox="0 0 24 24" fill="none" xmlns="http://www.w3.org/2000/svg">
    <path fill-rule="evenodd" clip-rule="evenodd" d="M12.0812 2.50901C12.2747 2.85239 12.2485 3.27742 12.0142 3.59439C11.16 4.75005 10.7489 6.17392 10.8558 7.60703C10.9627 9.04015 11.5804 10.3873 12.5965 11.4035C13.6127 12.4197 14.9599 13.0374 16.393 13.1442C17.8261 13.2511 19.25 12.84 20.4056 11.9858C20.7226 11.7515 21.1476 11.7253 21.491 11.9188C21.8344 12.1123 22.0321 12.4895 21.9958 12.882C21.821 14.7733 21.1112 16.5758 19.9494 18.0784C18.7876 19.5811 17.2219 20.7218 15.4355 21.3671C13.649 22.0123 11.7158 22.1355 9.86189 21.7221C8.00802 21.3087 6.31022 20.3759 4.96714 19.0329C3.62407 17.6898 2.69127 15.992 2.2779 14.1381C1.86453 12.2842 1.98769 10.351 2.63296 8.56456C3.27823 6.77813 4.41893 5.21241 5.92157 4.05062C7.42422 2.88883 9.22667 2.17901 11.118 2.00423C11.5105 1.96796 11.8877 2.16563 12.0812 2.50901ZM9.31641 4.43905C8.5388 4.7204 7.80562 5.12201 7.1449 5.63286C5.94278 6.56229 5.03023 7.81486 4.51401 9.24401C3.99779 10.6732 3.89927 12.2198 4.22996 13.7029C4.56066 15.186 5.30689 16.5442 6.38136 17.6187C7.45582 18.6931 8.81406 19.4394 10.2972 19.77C11.7803 20.1007 13.3269 20.0022 14.756 19.486C16.1851 18.9698 17.4377 18.0572 18.3672 16.8551C18.878 16.1944 19.2796 15.4612 19.561 14.6836C18.5078 15.0646 17.3782 15.2232 16.2442 15.1387C14.3334 14.9962 12.5372 14.1726 11.1823 12.8177C9.82742 11.4628 9.00382 9.66658 8.86132 7.75577C8.77676 6.6218 8.9354 5.49217 9.31641 4.43905Z" fill="currentColor"/>
</svg>