<svg width="102" height="85" viewBox="0 0 102 85" fill="none" xmlns="http://www.w3.org/2000/svg">
<path d="M54.0851 82.3095C73.9985 82.3095 90.1415 66.1665 90.1415 46.2531C90.1415 26.3398 73.9985 10.1968 54.0851 10.1968C34.1718 10.1968 18.0288 26.3398 18.0288 46.2531C18.0288 66.1665 34.1718 82.3095 54.0851 82.3095Z" stroke="currentColor" stroke-width="4" stroke-miterlimit="10"/>
<path d="M18.0288 46.2534H90.1415" stroke="currentColor" stroke-width="4" stroke-linecap="round" stroke-linejoin="round"/>
<path d="M54.0849 81.3419C62.3821 81.3419 69.1083 65.6323 69.1083 46.2535C69.1083 26.8747 62.3821 11.165 54.0849 11.165C45.7876 11.165 39.0614 26.8747 39.0614 46.2535C39.0614 65.6323 45.7876 81.3419 54.0849 81.3419Z" stroke="currentColor" stroke-width="4" stroke-miterlimit="10"/>
<path d="M94.7093 20.3379H94.7273" stroke="currentColor" stroke-width="4" stroke-linecap="round" stroke-linejoin="round"/>
<path d="M89.4653 5.92169C89.889 4.71733 90.7252 3.70178 91.8259 3.0549C92.9266 2.40802 94.2207 2.17156 95.479 2.3874C96.7373 2.60323 97.8787 3.25744 98.7008 4.23414C99.523 5.21084 99.973 6.44702 99.9711 7.72371C99.9711 11.3278 94.5651 13.1298 94.5651 13.1298" stroke="currentColor" stroke-width="4" stroke-linecap="round" stroke-linejoin="round"/>
<path d="M7.27277 31.3379H7.29079" stroke="currentColor" stroke-width="4" stroke-linecap="round" stroke-linejoin="round"/>
<path d="M2.02881 16.9217C2.45247 15.7173 3.2887 14.7018 4.38938 14.0549C5.49006 13.408 6.78416 13.1716 8.04248 13.3874C9.3008 13.6032 10.4421 14.2574 11.2643 15.2341C12.0865 16.2108 12.5365 17.447 12.5346 18.7237C12.5346 22.3278 7.12854 24.1298 7.12854 24.1298" stroke="currentColor" stroke-width="4" stroke-linecap="round" stroke-linejoin="round"/>
</svg>
