<svg width="24" height="24" viewBox="0 0 24 24" fill="none" xmlns="http://www.w3.org/2000/svg">
  <path fill-rule="evenodd" clip-rule="evenodd"
    d="M5.1598 3.15905C5.33863 3.05529 5.54206 3 5.75012 3C5.95819 3 6.16161 3.05529 6.34045 3.15905L10.9057 5.80778C11.0892 5.91425 11.2394 6.06737 11.3429 6.2495C11.4464 6.43151 11.5001 6.63696 11.5001 6.84503V12.75C11.5001 13.1642 11.1643 13.5 10.7501 13.5C10.3359 13.5 10.0001 13.1642 10.0001 12.75V7.01658L5.75012 4.55074L1.50012 7.01658V14.4834L5.75012 16.9492L7.87028 15.7191C8.22856 15.5113 8.68752 15.6332 8.89539 15.9915C9.10326 16.3497 8.98133 16.8087 8.62305 17.0166L6.34045 18.3409C6.16161 18.4447 5.95819 18.5 5.75012 18.5C5.54205 18.5 5.33863 18.4447 5.1598 18.3409L0.594582 15.6922C0.411075 15.5857 0.260861 15.4326 0.157338 15.2505C0.0538874 15.0685 0.000121832 14.863 0.00012207 14.6549V6.84503C0.00012213 6.63695 0.0538884 6.43151 0.157339 6.2495C0.260859 6.06738 0.411072 5.91425 0.594582 5.80778L5.1598 3.15905Z"
    fill="currentColor" />
  <path fill-rule="evenodd" clip-rule="evenodd"
    d="M5.75012 9C6.16434 9 6.50012 9.33579 6.50012 9.75L6.50012 17.75C6.50012 18.1642 6.16434 18.5 5.75012 18.5C5.33591 18.5 5.00012 18.1642 5.00012 17.75L5.00012 9.75C5.00012 9.33579 5.33591 9 5.75012 9Z"
    fill="currentColor" />
  <path fill-rule="evenodd" clip-rule="evenodd"
    d="M0.10504 6.3674C0.316339 6.01114 0.776442 5.89362 1.13271 6.10492L5.80389 8.87537L10.361 6.10949C10.7151 5.89457 11.1764 6.0074 11.3913 6.3615C11.6062 6.7156 11.4934 7.17687 11.1393 7.39179L6.19748 10.3911C5.9607 10.5349 5.66398 10.5364 5.42575 10.3951L0.367526 7.39507C0.0112599 7.18377 -0.106259 6.72367 0.10504 6.3674Z"
    fill="currentColor" />
  <path fill-rule="evenodd" clip-rule="evenodd"
    d="M17.7501 6C18.1643 6 18.5001 6.33579 18.5001 6.75L18.5001 13.75C18.5001 14.1642 18.1643 14.5 17.7501 14.5C17.3359 14.5 17.0001 14.1642 17.0001 13.75L17.0001 6.75C17.0001 6.33579 17.3359 6 17.7501 6Z"
    fill="currentColor" />
  <path fill-rule="evenodd" clip-rule="evenodd"
    d="M17.1598 0.159051C17.3386 0.0552942 17.5421 0 17.7501 0C17.9582 0 18.1616 0.0552933 18.3404 0.159051L22.9057 2.80778C23.0892 2.91425 23.2394 3.06737 23.3429 3.2495C23.4464 3.43151 23.5001 3.63696 23.5001 3.84503V13.6549C23.5001 13.863 23.4464 14.0685 23.3429 14.2505C23.2394 14.4326 23.0892 14.5857 22.9057 14.6922L19.2528 16.7974C18.8945 17.0053 18.4355 16.8834 18.2277 16.5251C18.0198 16.1668 18.1417 15.7079 18.5 15.5L22.0001 13.4834V4.01658L17.7501 1.55074L13.5001 4.01658V11.75C13.5001 12.1642 13.1643 12.5 12.7501 12.5C12.3359 12.5 12.0001 12.1642 12.0001 11.75V3.84503C12.0001 3.63695 12.0539 3.43151 12.1573 3.2495C12.2609 3.06738 12.4111 2.91425 12.5946 2.80778L17.1598 0.159051Z"
    fill="currentColor" />
  <path fill-rule="evenodd" clip-rule="evenodd"
    d="M12.105 3.3674C12.3163 3.01114 12.7764 2.89362 13.1327 3.10492L17.8039 5.87537L22.361 3.10949C22.7151 2.89457 23.1764 3.0074 23.3913 3.3615C23.6062 3.7156 23.4934 4.17687 23.1393 4.39179L18.1975 7.39114C17.9607 7.53486 17.664 7.53637 17.4257 7.39507L12.3675 4.39507C12.0113 4.18377 11.8937 3.72367 12.105 3.3674Z"
    fill="currentColor" />
  <path fill-rule="evenodd" clip-rule="evenodd"
    d="M13.7501 17C14.1643 17 14.5001 17.3358 14.5001 17.75V22.75C14.5001 23.1642 14.1643 23.5 13.7501 23.5C13.3359 23.5 13.0001 23.1642 13.0001 22.75V17.75C13.0001 17.3358 13.3359 17 13.7501 17Z"
    fill="currentColor" />
  <path fill-rule="evenodd" clip-rule="evenodd"
    d="M13.1715 11.15C13.3488 11.0514 13.548 11 13.7501 11C13.9522 11 14.1515 11.0514 14.3287 11.15L18.8939 13.6899C19.076 13.7912 19.229 13.9392 19.336 14.1198C19.4432 14.3005 19.5001 14.507 19.5001 14.7179V19.7821C19.5001 19.993 19.4432 20.1995 19.336 20.3802C19.229 20.5608 19.076 20.7088 18.8939 20.8101L14.3287 23.35C14.1515 23.4486 13.9522 23.5 13.7501 23.5C13.548 23.5 13.3488 23.4486 13.1715 23.35L8.60633 20.8101C8.42425 20.7088 8.27127 20.5608 8.1642 20.3802C8.05707 20.1995 8.00012 19.993 8.00012 19.7821V14.7179C8.00012 14.507 8.05707 14.3005 8.1642 14.1198C8.27127 13.9392 8.42425 13.7912 8.60633 13.6899L13.1715 11.15ZM13.7501 12.5446L9.50012 14.9092V19.5908L13.7501 21.9554L18.0001 19.5908V14.9092L13.7501 12.5446Z"
    fill="currentColor" />
  <path fill-rule="evenodd" clip-rule="evenodd"
    d="M8.10504 14.3674C8.31634 14.0111 8.77644 13.8936 9.13271 14.1049L13.8039 16.8754L18.361 14.1095C18.7151 13.8946 19.1764 14.0074 19.3913 14.3615C19.6062 14.7156 19.4934 15.1769 19.1393 15.3918L14.1975 18.3911C13.9607 18.5349 13.664 18.5364 13.4257 18.3951L8.36753 15.3951C8.01126 15.1838 7.89374 14.7237 8.10504 14.3674Z"
    fill="currentColor" />
</svg>
