<svg width="24" height="24" viewBox="0 0 24 24" fill="none" xmlns="http://www.w3.org/2000/svg">
<path fill-rule="evenodd" clip-rule="evenodd" d="M13.7072 1.29303C13.5263 1.11198 13.2762 1 13 1H6C4.34315 1 3 2.34315 3 4V20C3 21.6569 4.34315 23 6 23H18C19.6569 23 21 21.6569 21 20V9C21 8.44772 20.5523 8 20 8H17.5858L14 4.41421V2C14 1.72393 13.8881 1.47398 13.7072 1.29303ZM12 3H6C5.44772 3 5 3.44772 5 4V20C5 20.5523 5.44772 21 6 21H18C18.5523 21 19 20.5523 19 20V10" fill="currentColor"/>
<path fill-rule="evenodd" clip-rule="evenodd" d="M13.7071 1.29289C13.5196 1.10536 13.2652 1 13 1H6C4.34315 1 3 2.34315 3 4V20C3 21.6569 4.34315 23 6 23H18C19.6569 23 21 21.6569 21 20V9C21 8.73478 20.8946 8.48043 20.7071 8.29289L13.7071 1.29289ZM6 3H12.5858L19 9.41421V20C19 20.5523 18.5523 21 18 21H6C5.44772 21 5 20.5523 5 20V4C5 3.44772 5.44772 3 6 3Z" fill="currentColor"/>
<path d="M14 2C14 1.44772 13.5523 1 13 1C12.4477 1 12 1.44772 12 2V9C12 9.55229 12.4477 10 13 10H20C20.5523 10 21 9.55229 21 9C21 8.44772 20.5523 8 20 8H14V2Z" fill="currentColor"/>
</svg>
