<svg width="60" height="60" viewBox="0 0 60 60" fill="none" xmlns="http://www.w3.org/2000/svg">
<g clip-path="url(#clip0_4052_86981)">
<path fill-rule="evenodd" clip-rule="evenodd" d="M28.0104 35.2134L22.1145 41.1092V38.4156C22.1145 37.8915 21.6902 37.4668 21.1664 37.4668C20.6425 37.4668 20.2178 37.8915 20.2178 38.4154L20.2173 43.399C20.2173 43.6506 20.3174 43.892 20.4952 44.0699C20.6731 44.2477 20.9143 44.3478 21.1659 44.3478L26.1497 44.3476C26.6736 44.3476 27.0983 43.9228 27.0983 43.399C27.0983 42.8751 26.6736 42.4506 26.1497 42.4506H23.4568L29.3522 36.5549C29.7227 36.1845 29.7224 35.5838 29.352 35.2134C28.9816 34.8432 28.3808 34.8429 28.0104 35.2134M41.0868 24.4269L41.0864 29.4104C41.0864 29.9343 40.6619 30.3591 40.138 30.3591C39.6141 30.3591 39.1896 29.9343 39.1896 29.4102V26.7171L33.1929 32.7142C33.0075 32.8995 32.7646 32.9922 32.5218 32.9922C32.2792 32.9922 32.0363 32.8995 31.8511 32.7142C31.4807 32.3438 31.4807 31.7433 31.8511 31.3729L37.848 25.3755H35.1544C34.6306 25.3755 34.2058 24.9508 34.2058 24.4269C34.2058 23.903 34.6306 23.4783 35.1544 23.4783H40.1382C40.3899 23.4783 40.631 23.5781 40.8091 23.756C40.987 23.9338 41.0868 24.1753 41.0868 24.4269" fill="currentColor"/>
<path fill-rule="evenodd" clip-rule="evenodd" d="M1.95652 52.174H58.0435V15.6522H1.95652V52.174ZM1.95652 13.6957H11.7391V7.82615H1.95652V13.6957ZM25.4348 13.6957H35.2174V7.82615H25.4348V13.6957ZM13.6957 13.6957H23.4783V7.82615H13.6957V13.6957ZM37.1739 13.6957H58.0435V7.82615H37.1739V13.6957ZM57.3913 5.86963H2.6087C1.16804 5.86963 0 7.03767 0 8.47832V51.5218C0 52.9625 1.16804 54.1305 2.6087 54.1305H57.3913C58.832 54.1305 60 52.9625 60 51.5218V8.47832C60 7.03767 58.832 5.86963 57.3913 5.86963V5.86963Z" fill="currentColor"/>
</g>
</svg>
