<svg width="28px" height="28px" viewBox="0 0 28 28" fill="none" xmlns="http://www.w3.org/2000/svg">
<path fill-rule="evenodd" clip-rule="evenodd" d="M20.172 10.0093C18.631 6.47255 15.1043 4 11 4C5.47715 4 1 8.47715 1 14C1 19.2164 4.99409 23.4999 10.0909 23.9592V20.3462C9.10986 18.6935 8.50357 16.8369 8.32509 14.9091H13.6775C13.6174 15.5667 13.5066 16.2175 13.3472 16.8557L17.1001 13.0909H15.4975C15.2896 10.5669 14.4499 8.16085 13.0672 6.08158C15.7513 6.78033 17.8991 8.80767 18.7665 11.4193L20.172 10.0093ZM11 6.31888C12.5179 8.27447 13.4466 10.6244 13.6749 13.0909H8.32253C8.54643 10.6388 9.47637 8.28149 11 6.31888ZM8.93245 6.08166C7.54463 8.16765 6.7039 10.5789 6.50007 13.0909H2.86812C3.24364 9.69385 5.69891 6.92361 8.93245 6.08166ZM6.50245 14.9091H2.86812C3.24365 18.3062 5.69906 21.0765 8.93274 21.9184C7.55008 19.8391 6.71038 17.4331 6.50245 14.9091Z" fill="currentColor"/>
<path fill-rule="evenodd" clip-rule="evenodd" d="M11 20.7567V24.0245H14.2678L23.7273 14.4791L20.4595 11.2112L11 20.7567ZM26.2211 11.9852C26.5651 11.6412 26.5651 11.1253 26.2211 10.7813L24.2432 8.8034C23.8993 8.45942 23.3833 8.45942 23.0393 8.8034L21.4914 10.3513L24.7592 13.6191L26.2211 11.9852Z" fill="currentColor"/>
</svg>
