<svg width="24" height="24" viewBox="0 0 24 24" fill="none" xmlns="http://www.w3.org/2000/svg">
<path fill-rule="evenodd" clip-rule="evenodd" d="M19.3583 9.5C19.1803 9.49928 19.0147 9.40867 18.9157 9.26265C18.9038 9.20583 18.886 9.15026 18.8624 9.09686C18.773 8.89428 18.8159 8.65768 18.9707 8.49939L19.0143 8.45592C19.4834 7.98733 19.7471 7.35102 19.7471 6.6875C19.7471 6.02398 19.4834 5.38767 19.0139 4.91875C18.5457 4.44996 17.9094 4.18619 17.2458 4.18619C16.5823 4.18619 15.946 4.44996 15.4771 4.91941L15.4274 4.96908C15.2757 5.11745 15.0391 5.16035 14.8365 5.07095C14.6298 4.98234 14.5009 4.78757 14.5 4.57168L14.5 4.5C14.5 3.11929 13.3807 2 12 2C10.6193 2 9.5 3.11929 9.5 4.5V4.64167C9.49928 4.81972 9.40867 4.98528 9.26265 5.08433C9.20583 5.09622 9.15026 5.11405 9.09686 5.13761C8.89428 5.22702 8.65768 5.18412 8.49939 5.02928L8.45592 4.98574C7.98733 4.51663 7.35102 4.25286 6.6875 4.25286C6.02398 4.25286 5.38767 4.51663 4.91875 4.98607C4.44996 5.45434 4.18619 6.09064 4.18619 6.75417C4.18619 7.41769 4.44996 8.054 4.91941 8.52292L4.96908 8.57259C5.11745 8.72435 5.16035 8.96095 5.07095 9.16353C4.97445 9.42109 4.77787 9.56169 4.5 9.56667C3.11929 9.56667 2 10.686 2 12.0667C2 13.4474 3.11929 14.5667 4.5 14.5667H4.64167C4.85424 14.5675 5.049 14.6965 5.13405 14.8949C5.22702 15.1057 5.18412 15.3423 5.02928 15.5006L4.98574 15.5441C4.51663 16.0127 4.25286 16.649 4.25286 17.3125C4.25286 17.976 4.51663 18.6123 4.98607 19.0812C5.45434 19.55 6.09064 19.8138 6.75417 19.8138C7.41769 19.8138 8.054 19.55 8.52292 19.0806L8.57259 19.0309C8.72435 18.8825 8.96095 18.8396 9.16353 18.9291C9.42109 19.0256 9.56169 19.2221 9.56667 19.5C9.56667 20.8807 10.686 22 12.0667 22C13.4474 22 14.5667 20.8807 14.5667 19.5V19.3583C14.5675 19.1458 14.6965 18.951 14.8949 18.8659C15.1057 18.773 15.3423 18.8159 15.5006 18.9707L15.5441 19.0143C16.0127 19.4834 16.649 19.7471 17.3125 19.7471C17.976 19.7471 18.6123 19.4834 19.0812 19.0139C19.55 18.5457 19.8138 17.9094 19.8138 17.2458C19.8138 16.5823 19.55 15.946 19.0806 15.4771L19.0309 15.4274C18.8825 15.2757 18.8396 15.0391 18.9326 14.8283C19.0177 14.6298 19.2124 14.5009 19.4283 14.5L19.5 14.5C20.8807 14.5 22 13.3807 22 12C22 10.6193 20.8807 9.5 19.5 9.5H19.3583ZM7.32741 6.21426C7.93719 6.8108 8.8206 7.00237 9.60815 6.72628C9.68378 6.71639 9.75786 6.69613 9.82828 6.66595C10.6373 6.31922 11.1631 5.52517 11.1667 4.64499L11.1667 4.5C11.1667 4.03976 11.5398 3.66667 12 3.66667C12.4602 3.66667 12.8333 4.03976 12.8333 4.5V4.575C12.8369 5.4585 13.3627 6.25255 14.1717 6.59928C14.9894 6.96022 15.954 6.78532 16.5994 6.15405L16.6559 6.09759C16.8126 5.94078 17.0247 5.85286 17.2458 5.85286C17.467 5.85286 17.6791 5.94078 17.8354 6.09726C17.9926 6.25422 18.0805 6.46633 18.0805 6.6875C18.0805 6.90867 17.9926 7.12078 17.8361 7.27708L17.7857 7.32741C17.1892 7.93719 16.9976 8.8206 17.2737 9.60815C17.2836 9.68378 17.3039 9.75786 17.334 9.82828C17.6808 10.6373 18.4748 11.1631 19.355 11.1667L19.5 11.1667C19.9602 11.1667 20.3333 11.5398 20.3333 12C20.3333 12.4602 19.9602 12.8333 19.5 12.8333H19.425C18.5415 12.8369 17.7474 13.3627 17.4043 14.1635C17.0398 14.9894 17.2147 15.954 17.8459 16.5994L17.9024 16.6559C18.0592 16.8126 18.1471 17.0247 18.1471 17.2458C18.1471 17.467 18.0592 17.6791 17.9027 17.8354C17.7458 17.9926 17.5337 18.0805 17.3125 18.0805C17.0913 18.0805 16.8792 17.9926 16.7229 17.8361L16.6726 17.7857C16.0207 17.148 15.0561 16.9731 14.2302 17.3376C13.4294 17.6808 12.9035 18.4748 12.9 19.355L12.9 19.5C12.9 19.9602 12.5269 20.3333 12.0667 20.3333C11.6064 20.3333 11.2333 19.9602 11.2333 19.5V19.425C11.2119 18.499 10.6387 17.6976 9.78765 17.3846C9.01057 17.0398 8.04596 17.2147 7.40061 17.8459L7.34408 17.9024C7.18744 18.0592 6.97534 18.1471 6.75417 18.1471C6.53299 18.1471 6.32089 18.0592 6.16458 17.9027C6.00745 17.7458 5.91952 17.5337 5.91952 17.3125C5.91952 17.0913 6.00745 16.8792 6.16393 16.7229L6.21426 16.6726C6.85199 16.0207 7.02689 15.0561 6.66239 14.2302C6.31922 13.4294 5.52517 12.9035 4.64499 12.9L4.5 12.9C4.03976 12.9 3.66667 12.5269 3.66667 12.0667C3.66667 11.6064 4.03976 11.2333 4.5 11.2333H4.575C5.50101 11.2119 6.30245 10.6387 6.61545 9.78765C6.96022 9.01057 6.78532 8.04596 6.15405 7.40061L6.09759 7.34408C5.94078 7.18744 5.85286 6.97534 5.85286 6.75417C5.85286 6.53299 5.94078 6.32089 6.09726 6.16458C6.25422 6.00745 6.46633 5.91952 6.6875 5.91952C6.90867 5.91952 7.12078 6.00745 7.27708 6.16393L7.32741 6.21426ZM12 15.3333C10.1591 15.3333 8.66667 13.8409 8.66667 12C8.66667 10.1591 10.1591 8.66667 12 8.66667C13.8409 8.66667 15.3333 10.1591 15.3333 12C15.3333 13.8409 13.8409 15.3333 12 15.3333ZM13.6667 12C13.6667 12.9205 12.9205 13.6667 12 13.6667C11.0795 13.6667 10.3333 12.9205 10.3333 12C10.3333 11.0795 11.0795 10.3333 12 10.3333C12.9205 10.3333 13.6667 11.0795 13.6667 12Z" fill="currentColor"/>
</svg>
