<svg width="24" height="24" viewBox="0 0 24 24" fill="none" xmlns="http://www.w3.org/2000/svg">
<path fill-rule="evenodd" clip-rule="evenodd" d="M2.75 20.25C2.75 19.6977 3.19772 19.25 3.75 19.25H20.25C20.8023 19.25 21.25 19.6977 21.25 20.25C21.25 20.8023 20.8023 21.25 20.25 21.25H3.75C3.19772 21.25 2.75 20.8023 2.75 20.25Z" fill="currentColor"/>
<path fill-rule="evenodd" clip-rule="evenodd" d="M6 4.25C6.55228 4.25 7 4.69772 7 5.25V11.25C7 12.5761 7.52678 13.8479 8.46447 14.7855C9.40215 15.7232 10.6739 16.25 12 16.25C13.3261 16.25 14.5979 15.7232 15.5355 14.7855C16.4732 13.8479 17 12.5761 17 11.25V5.25C17 4.69772 17.4477 4.25 18 4.25C18.5523 4.25 19 4.69772 19 5.25V11.25C19 13.1065 18.2625 14.887 16.9497 16.1997C15.637 17.5125 13.8565 18.25 12 18.25C10.1435 18.25 8.36301 17.5125 7.05025 16.1997C5.7375 14.887 5 13.1065 5 11.25V5.25C5 4.69772 5.44772 4.25 6 4.25Z" fill="currentColor"/>
</svg>
