<svg width="24" height="24" viewBox="0 0 24 24" fill="none" xmlns="http://www.w3.org/2000/svg">
<path fill-rule="evenodd" clip-rule="evenodd" d="M14.5657 4.30086C15.0896 4.4755 15.3728 5.04182 15.1981 5.56577L10.6981 19.0658C10.5235 19.5897 9.95716 19.8729 9.43322 19.6982C8.90928 19.5236 8.62612 18.9573 8.80076 18.4333L13.3008 4.93331C13.4754 4.40937 14.0417 4.12621 14.5657 4.30086Z" fill="currentColor"/>
<path fill-rule="evenodd" clip-rule="evenodd" d="M4.99945 18.7495C4.99945 18.1973 5.44717 17.7495 5.99945 17.7495H13.4995C14.0517 17.7495 14.4995 18.1973 14.4995 18.7495C14.4995 19.3018 14.0517 19.7495 13.4995 19.7495H5.99945C5.44717 19.7495 4.99945 19.3018 4.99945 18.7495Z" fill="currentColor"/>
<path fill-rule="evenodd" clip-rule="evenodd" d="M9.49945 5.24954C9.49945 4.69726 9.94717 4.24954 10.4995 4.24954H17.9995C18.5517 4.24954 18.9995 4.69726 18.9995 5.24954C18.9995 5.80183 18.5517 6.24954 17.9995 6.24954H10.4995C9.94717 6.24954 9.49945 5.80183 9.49945 5.24954Z" fill="currentColor"/>
</svg>
